<?xml version="1.0" encoding="utf-8"?>
<!-- Generator: Adobe Illustrator 16.0.0, SVG Export Plug-In . SVG Version: 6.00 Build 0)  -->
<!DOCTYPE svg PUBLIC "-//W3C//DTD SVG 1.1//EN" "http://www.w3.org/Graphics/SVG/1.1/DTD/svg11.dtd">
<svg version="1.1" id="Layer_1" xmlns="http://www.w3.org/2000/svg" xmlns:xlink="http://www.w3.org/1999/xlink" x="0px" y="0px"
	 width="36px" height="36px" viewBox="0 0 36 36" enable-background="new 0 0 36 36" xml:space="preserve">
<g>
	<polygon fill="#282828" points="24,0 24,4 32,4 32,12 36,12 36,0 	"/>
	<rect x="8" y="8" fill="#282828" width="4" height="4"/>
	<rect x="24" y="8" fill="#282828" width="4" height="4"/>
	<polygon fill="#282828" points="4,16 4,4 16,4 16,12 20,12 20,0 0,0 0,20 32,20 32,32 20,32 20,24 16,24 16,36 36,36 36,16 	"/>
	<rect x="8" y="24" fill="#282828" width="4" height="4"/>
	<rect x="24" y="24" fill="#282828" width="4" height="4"/>
	<polygon fill="#282828" points="4,32 4,24 0,24 0,36 12,36 12,32 	"/>
</g>
</svg>
