<svg xmlns="http://www.w3.org/2000/svg" xmlns:xlink="http://www.w3.org/1999/xlink" viewBox="0 0 751.2 1063"><style><![CDATA[.Q{stroke-linecap:round}.R{stroke-linejoin:round}.S{stroke-miterlimit:10}.T{font-family:ArialMT}.U{font-size:2.916px}.V{stroke:#000}.W{stroke-width:.3}.X{fill:none}.Y{fill-rule:evenodd}.Z{font-family:ArialNarrow-Bold}.a{font-size:5.002px}.b{font-family:Tinos-Regular}.c{font-size:10px}.d{fill:#231f20}.e{stroke:#939598}.f{stroke-width:.2}.g{opacity:.502}.h{stroke:#8c8c8c}.i{stroke-width:.142}]]></style><path d="M227.8 444.9h227.7v112H227.8z" fill="#e8e9dd"/><path d="M752.8-1.5v557h-86.2v-98.7h-71.4V102.2H316V215h187.9v217.7H217.6v338.2h-90.7v82.5h92.4v101.2h2.3v12.7H58.3V820.5h-68v-822h762.5" fill="#e6e7e8" class="Y"/><g class="X Q R S"><path d="M749.1 555.5l3.7-3.7m-7.7 3.7l7.7-7.7m-11.7 7.7l11.7-11.7m-15.7 11.7l15.7-15.8m-19.7 15.8l19.7-19.8m-23.7 19.8l23.7-23.8M725 555.5l27.8-27.8M721 555.5l31.8-31.8M717 555.5l35.8-35.8M713 555.5l39.8-39.8M709 555.5l43.8-43.8M705 555.5l47.8-47.8M701 555.5l51.8-51.8M697 555.5l55.8-55.8M693 555.5l59.8-59.9M689 555.5l63.8-63.9M685 555.5l67.8-67.9m-71.9 67.9l71.9-71.9m-75.9 71.9l75.9-75.9m-79.9 75.9l79.9-79.9m-83.9 79.9l83.9-83.9m-86.2 82.2l86.2-86.2m-86.2 82.2l86.2-86.2m-86.2 82.1l86.2-86.1m-86.2 82.1l86.2-86.1m-86.2 82.1l86.2-86.1m-86.2 82.1l86.2-86.2m-86.2 82.2l86.2-86.2m-86.2 82.2l86.2-86.2" class="e f"/><path d="M221 967.3l.6-.6" class="V W"/><g class="e f"><path d="M666.6 521.7l86.2-86.2M217 967.3l4.6-4.6m445-445l86.2-86.2M212.9 967.3l8.7-8.6m445-445l86.2-86.2M208.9 967.3l12.7-12.6m445-445l86.2-86.2M204.9 967.3l14.4-14.3m447.3-447.3l86.2-86.2M200.9 967.3l18.4-18.3m447.3-447.4l86.2-86.1M196.9 967.3l22.4-22.4m447.3-447.3l86.2-86.1M192.9 967.3l26.4-26.4m447.3-447.3l86.2-86.1M188.9 967.3l30.4-30.4m447.3-447.3l86.2-86.2M184.9 967.3l34.4-34.4m447.3-447.3l86.2-86.2M180.9 967.3l38.4-38.4m447.3-447.3l86.2-86.2M176.9 967.3l42.4-42.4m447.3-447.3l86.2-86.2M172.9 967.3l46.4-46.4m447.3-447.3l86.2-86.2M168.9 967.3l50.4-50.4m447.3-447.3l86.2-86.2m-588 583.9l54.5-54.4m447.3-447.3l86.2-86.2m-592 587.9l58.5-58.4m447.3-447.3l86.2-86.2m-596 591.9l62.5-62.4m447.3-447.3l86.2-86.2m-600 595.9l66.5-66.5m444-444l89.5-89.4m-604 599.9l70.5-70.5m440-440l93.5-93.4m-608 603.9l74.5-74.5m436-436l97.5-97.4m-612 607.9l78.5-78.5m432-432l101.5-101.5m-616 612l82.5-82.5m428-428l105.5-105.5m-620 616l86.5-86.5m424-424l109.5-109.5m-624 620l90.5-90.5m420-420l113.5-113.5m-628 624l94.5-94.5m416-416l117.5-117.5m-632.1 628l98.6-98.5m412-412l121.5-121.5m-636.1 632l102.6-102.5m408-408l125.5-125.5m-640.1 636l106.6-106.5m403.9-404l129.6-129.5m-644.1 640l110.6-110.5m399.9-400l133.6-133.5m-648.1 644l114-113.9m396.5-396.6l137.6-137.5m-652.1 648l114-113.9m396.5-396.6l141.6-141.5m-656.1 652l113.9-113.9m396.6-396.6l145.6-145.6M92.7 967.3l113.9-113.9m396.6-396.6l149.6-149.6M88.7 967.3l113.9-113.9m396.6-396.6l153.6-153.6M84.7 967.3l113.9-113.9"/><use xlink:href="#B"/><path d="M80.7 967.3l113.9-113.9"/><use xlink:href="#B" y="-4"/><path d="M76.7 967.3l113.9-113.9"/><use xlink:href="#B" y="-8"/><path d="M72.6 967.3l114-113.9"/><use xlink:href="#B" y="-12"/><path d="M68.6 967.3l114-113.9"/><use xlink:href="#B" y="-16"/><path d="M64.6 967.3l114-113.9"/><use xlink:href="#B" y="-20"/><path d="M60.6 967.3l114-113.9"/><use xlink:href="#B" y="-24"/><path d="M58.3 965.6l112.3-112.2"/><use xlink:href="#B" y="-28"/><path d="M58.3 961.6l108.2-108.2m428.7-428.6l157.6-157.7"/><path d="M58.3 957.6l104.2-104.2"/><use xlink:href="#B" y="-36.1"/><path d="M58.3 953.6l100.2-100.2"/><use xlink:href="#B" y="-40.1"/><path d="M58.3 949.6l96.2-96.2"/><use xlink:href="#B" y="-44.1"/><path d="M58.3 945.6l92.2-92.2"/><use xlink:href="#B" y="-48.1"/><path d="M58.3 941.6l88.2-88.2"/><use xlink:href="#B" y="-52.1"/><path d="M58.3 937.6l84.2-84.2"/><use xlink:href="#B" y="-56.1"/><path d="M58.3 933.6l80.2-80.2"/><use xlink:href="#B" y="-60.1"/><path d="M58.3 929.6l76.2-76.2"/></g><path d="M217 770.9l.6-.6" class="V W"/><g class="e f"><use xlink:href="#B" y="-64.1"/><path d="M58.3 925.6l72.2-72.2m82.5-82.5l4.6-4.6"/><use xlink:href="#B" y="-68.1"/><path d="M58.3 921.5l68.6-68.5m82-82.1l8.7-8.7"/><use xlink:href="#B" y="-72.1"/><path d="M58.3 917.5l68.6-68.6m78-78l12.7-12.7"/><use xlink:href="#B" y="-76.1"/><path d="M58.3 913.5l68.6-68.6m74-74l16.7-16.7m377.6-377.6L752.8 219M58.3 909.5l68.6-68.6m70-70l20.7-20.7m377.6-377.6L752.8 215M58.3 905.5l68.6-68.6m66-66l24.7-24.7m377.6-377.6L752.8 211M58.3 901.5l68.6-68.6m62-62l28.7-28.7m377.6-377.6L752.8 207M58.3 897.5l68.6-68.6m58-58l32.7-32.7m377.6-377.6L752.8 203M58.3 893.5l68.6-68.6m54-54l36.7-36.7m377.6-377.6L752.8 199M58.3 889.5l68.6-68.6m50-50l40.7-40.7m377.6-377.6L752.8 195M58.3 885.5l68.6-68.6m46-46l44.7-44.7m377.6-377.6L752.8 191M58.3 881.5l68.6-68.6m42-42l48.7-48.7m377.6-377.6L752.8 187M58.3 877.5l68.6-68.6m38-38l52.7-52.8"/></g><path d="M503 432.7l.9-.9" class="V W"/><g class="e f"><path d="M595.2 340.6L752.8 183M58.3 873.4l68.6-68.6m33.9-33.9l56.8-56.8M499 432.7l4.9-4.9m91.3-91.2L752.8 179M58.3 869.4l68.6-68.6m29.9-29.9l60.8-60.8M495 432.7l8.9-8.9m91.3-91.2l157.6-157.7M58.3 865.4l68.6-68.6m25.9-25.9l64.8-64.8M491 432.7l12.9-12.9"/><use xlink:href="#B" y="-128.3"/><path d="M58.3 861.4l68.6-68.6m21.9-21.9l68.8-68.8M487 432.7l16.9-16.9"/><use xlink:href="#B" y="-132.3"/><path d="M58.3 857.4l68.6-68.6m17.9-17.9l72.8-72.8M483 432.7l20.9-20.9"/><use xlink:href="#B" y="-136.3"/><path d="M58.3 853.4l68.6-68.6m13.9-13.9l76.8-76.8M479 432.7l24.9-24.9"/><use xlink:href="#B" y="-140.3"/><path d="M58.3 849.4l68.6-68.6m9.9-9.9l80.8-80.8M475 432.7l28.9-28.9"/><use xlink:href="#B" y="-144.3"/><path d="M58.3 845.4l68.6-68.6m5.9-5.9l84.8-84.8M471 432.7l32.9-32.9"/><use xlink:href="#B" y="-148.3"/><path d="M58.3 841.4l68.6-68.6m1.9-1.9l88.8-88.8m249.3-249.4l37-36.9"/><use xlink:href="#B" y="-152.3"/><path d="M58.3 837.4l159.3-159.3m245.3-245.4l41-40.9"/><use xlink:href="#B" y="-156.3"/><path d="M58.3 833.4L217.6 674m241.3-241.3l45-45"/><use xlink:href="#B" y="-160.3"/><path d="M58.3 829.3L217.6 670m237.3-237.3l49-49"/><use xlink:href="#B" y="-164.3"/><path d="M58.3 825.3L217.6 666m233.3-233.3l53-53m91.3-91.2l157.6-157.7M58.3 821.3L217.6 662m229.3-229.3l57-57"/><use xlink:href="#B" y="-172.4"/><path d="M55.1 820.5L217.6 658m225.3-225.3l61-61"/><use xlink:href="#B" y="-176.4"/><path d="M51.1 820.5L217.6 654m221.3-221.3l65-65"/><use xlink:href="#B" y="-180.4"/><path d="M47.1 820.5L217.6 650m217.3-217.3l69-69"/><use xlink:href="#B" y="-184.4"/><path d="M43.1 820.5L217.6 646m213.3-213.3l73-73"/><use xlink:href="#B" y="-188.4"/><path d="M39.1 820.5L217.6 642m209.3-209.3l77-77"/><use xlink:href="#B" y="-192.4"/><path d="M35.1 820.5L217.6 638m205.3-205.3l81-81"/><use xlink:href="#B" y="-196.4"/><path d="M31.1 820.5L217.6 634m201.2-201.3l85.1-85m91.3-91.3L752.8 98.8M27.1 820.5L217.6 630m197.2-197.3l89.1-89m91.3-91.3L752.8 94.8M23 820.5l194.6-194.6m193.2-193.2l93.1-93.1m91.3-91.2L752.8 90.8M19 820.5l198.6-198.6m189.2-189.2l97.1-97.1m91.3-91.2L752.8 86.8M15 820.5l202.6-202.6m185.2-185.2l101.1-101.1m91.3-91.3L752.8 82.7M11 820.5l206.6-206.6m181.2-181.2l105.1-105.1m91.3-91.3L752.8 78.7M7 820.5l210.6-210.6m177.2-177.2l109.1-109.1m91.3-91.3L752.8 74.7M3 820.5l214.6-214.6m173.2-173.2l113.1-113.1m91.3-91.3L752.8 70.7M-1 820.5l218.6-218.6m169.2-169.2l117.1-117.1m91.3-91.3L752.8 66.7M-5 820.5l222.6-222.6m165.2-165.2l121.1-121.1m91.3-91.3L752.8 62.7M-9 820.5l226.6-226.6m161.2-161.2l125.1-125.1m91.3-91.3L752.8 58.7M-9.7 817.2l227.3-227.3m157.1-157.2l129.2-129.1m91.3-91.3L752.8 54.7M-9.7 813.2l227.3-227.3m153.1-153.2l133.2-133.1m91.3-91.3L752.8 50.7M-9.7 809.2l227.3-227.4m149.1-149.1l137.2-137.2m91.3-91.2L752.8 46.7M-9.7 805.2l227.3-227.4m145.1-145.1l141.2-141.2m91.3-91.2L752.8 42.7M-9.7 801.2l227.3-227.4m141.1-141.1l145.2-145.2m91.3-91.2L752.8 38.6M-9.7 797.2l227.3-227.4m137.1-137.1l149.2-149.2m91.3-91.3L752.8 34.6M-9.7 793.1l227.3-227.3m133.1-133.1l153.2-153.2m91.3-91.3L752.8 30.6M-9.7 789.1l227.3-227.3m129.1-129.1l157.2-157.2m91.3-91.3L752.8 26.6M-9.7 785.1l227.3-227.3m125.1-125.1l161.2-161.2m91.3-91.3L752.8 22.6M-9.7 781.1l227.3-227.3m121.1-121.1l165.2-165.2m91.3-91.3L752.8 18.6M-9.7 777.1l227.3-227.3m117.1-117.1l169.2-169.2m91.3-91.3L752.8 14.6M-9.7 773.1l227.3-227.3m113-113.1l173.3-173.2m91.3-91.3L752.8 10.6M-9.7 769.1l227.3-227.3m109-109.1l177.3-177.2m91.3-91.3L752.8 6.6M-9.7 765.1l227.3-227.4m105-105l181.3-181.3m91.3-91.2L752.8 2.6M-9.7 761.1l227.3-227.4m101-101l185.3-185.3m91.3-91.2L752.8-1.4M-9.7 757.1l227.3-227.4m97-97l189.3-189.3m91.3-91.2L748.9-1.5M-9.7 753.1l227.3-227.4m93-93l193.3-193.3m91.3-91.3L744.9-1.5M-9.7 749.1l227.3-227.4m89-89l197.3-197.3m91.3-91.3L740.9-1.5M-9.7 745l227.3-227.3m85-85l201.3-201.3m91.3-91.3L736.9-1.5M-9.7 741l227.3-227.3m81-81l205.3-205.3m91.3-91.3L732.8-1.5M-9.7 737l227.3-227.3m77-77l209.3-209.3m91.3-91.3L728.8-1.5M-9.7 733l227.3-227.3m73-73l213.3-213.3m91.3-91.3L724.8-1.5M-9.7 729l227.3-227.3m69-69l217.3-217.3m91.3-91.3L720.8-1.5M-9.7 725l227.3-227.3m64.9-65L500.2 215m95-94.9L716.8-1.5M-9.7 721l227.3-227.3m60.9-61L496.2 215m99-98.9L712.8-1.5M-9.7 717l227.3-227.4m56.9-56.9L492.2 215m103-102.9L708.8-1.5M-9.7 713l227.3-227.4m52.9-52.9L488.2 215m107-106.9L704.8-1.5M-9.7 709l227.3-227.4m48.9-48.9L484.2 215m111-110.9L700.8-1.5M-9.7 705l227.3-227.4m44.9-44.9L480.2 215M593 102.2L696.8-1.5M-9.7 700.9l227.3-227.3m40.9-40.9L476.2 215M589 102.2L692.8-1.5M-9.7 696.9l227.3-227.3m36.9-36.9L472.2 215M585 102.2L688.8-1.5M-9.7 692.9l227.3-227.3m32.9-32.9L468.2 215M581 102.2L684.7-1.5M-9.7 688.9l227.3-227.3m28.9-28.9L464.2 215M577 102.2L680.7-1.5M-9.7 684.9l227.3-227.3m24.9-24.9L460.2 215M573 102.2L676.7-1.5M-9.7 680.9l227.3-227.3m20.8-20.9L456.1 215M569 102.2L672.7-1.5M-9.7 676.9l227.3-227.3m16.8-16.9L452.1 215M565 102.2L668.7-1.5M-9.7 672.9l227.3-227.4m12.8-12.8L448.1 215m112.8-112.8L664.7-1.5M-9.7 668.9l227.3-227.4m8.8-8.8L444.1 215m112.8-112.8L660.7-1.5M-9.7 664.9l227.3-227.4m4.8-4.8L440.1 215m112.8-112.8L656.7-1.5M-9.7 660.9l227.3-227.4m.8-.8L436.1 215m112.8-112.8L652.7-1.5M-9.7 656.8L432.1 215m112.8-112.8L648.7-1.5M-9.7 652.8L428.1 215m112.8-112.8L644.7-1.5M-9.7 648.8L424.1 215m112.8-112.8L640.6-1.5M-9.7 644.8L420.1 215m112.8-112.8L636.6-1.5M-9.7 640.8L416.1 215m112.8-112.8L632.6-1.5M-9.7 636.8L412 215m112.9-112.8L628.6-1.5M-9.7 632.8L408 215m112.9-112.8L624.6-1.5M-9.7 628.8L404 215m112.9-112.8L620.6-1.5M-9.7 624.8L400 215m112.8-112.8L616.6-1.5M-9.7 620.8L396 215m112.8-112.8L612.6-1.5M-9.7 616.8L392 215m112.8-112.8L608.6-1.5M-9.7 612.8L388 215m112.8-112.8L604.6-1.5M-9.7 608.7L384 215m112.8-112.8L600.6-1.5M-9.7 604.7L380 215m112.8-112.8L596.5-1.5M-9.7 600.7L376 215m112.8-112.8L592.5-1.5M-9.7 596.7L372 215m112.8-112.8L588.5-1.5M-9.7 592.7L368 215m112.8-112.8L584.5-1.5M-9.7 588.7L363.9 215m112.9-112.8L580.5-1.5M-9.7 584.7L359.9 215m112.9-112.8L576.5-1.5M-9.7 580.7L355.9 215m112.8-112.8L572.5-1.5M-9.7 576.7L351.9 215m112.8-112.8L568.5-1.5M-9.7 572.7L347.9 215m112.8-112.8L564.5-1.5M-9.7 568.7L343.9 215m112.8-112.8L560.5-1.5M-9.7 564.6L339.9 215m112.8-112.8L556.5-1.5M-9.7 560.6L335.9 215m112.8-112.8L552.5-1.5M-9.7 556.6L331.9 215m112.8-112.8L548.4-1.5M-9.7 552.6L327.9 215m112.8-112.8L544.4-1.5M-9.7 548.6L323.9 215m112.8-112.8L540.4-1.5M-9.7 544.6L319.8 215m112.9-112.8L536.4-1.5M-9.7 540.6L316 214.9m112.7-112.7L532.4-1.5M-9.7 536.6L316 210.9m108.6-108.7L528.4-1.5M-9.7 532.6L316 206.9m104.6-104.7L524.4-1.5M-9.7 528.6L316 202.9m100.6-100.7L520.4-1.5M-9.7 524.6L316 198.9m96.6-96.7L516.4-1.5M-9.7 520.6L316 194.8m92.6-92.6L512.4-1.5m-522.1 518L316 190.8m88.6-88.6L508.4-1.5m-518.1 514L316 186.8m84.6-84.6L504.3-1.5m-514 510L316 182.8m80.6-80.6L500.3-1.5m-510 506L316 178.8m76.6-76.6L496.3-1.5m-506 502L316 174.8m72.6-72.6L492.3-1.5m-502 498L316 170.8m68.6-68.6L488.3-1.5m-498 494L316 166.8m64.6-64.6L484.3-1.5m-494 490L316 162.8m60.5-60.6L480.3-1.5m-490 486L316 158.8m56.5-56.6L476.3-1.5m-486 482L316 154.8m52.5-52.6L472.3-1.5m-482 478L316 150.8m48.5-48.6L468.3-1.5m-478 473.9L316 146.7m44.5-44.5L464.3-1.5m-474 469.9L316 142.7m40.5-40.5L460.2-1.5M-9.7 464.4L316 138.7m36.5-36.5L456.2-1.5M-9.7 460.4L316 134.7m32.5-32.5L452.2-1.5M-9.7 456.4L316 130.7m28.5-28.5L448.2-1.5M-9.7 452.4L316 126.7m24.5-24.5L444.2-1.5M-9.7 448.4L316 122.7m20.5-20.5L440.2-1.5M-9.7 444.4L316 118.7m16.4-16.5L436.2-1.5M-9.7 440.4L316 114.7m12.4-12.5L432.2-1.5M-9.7 436.4L316 110.7m8.4-8.5L428.2-1.5M-9.7 432.4L316 106.7m4.4-4.5L424.2-1.5M-9.7 428.3L316 102.6m.4-.4L420.2-1.5M-9.7 424.3L416.2-1.5M-9.7 420.3L412.1-1.5M-9.7 416.3L408.1-1.5M-9.7 412.3L404.1-1.5M-9.7 408.3L400.1-1.5M-9.7 404.3L396.1-1.5M-9.7 400.3L392.1-1.5M-9.7 396.3L388.1-1.5M-9.7 392.3L384.1-1.5M-9.7 388.3L380.1-1.5M-9.7 384.3L376.1-1.5M-9.7 380.2L372.1-1.5M-9.7 376.2L368-1.5M-9.7 372.2L364-1.5M-9.7 368.2L360-1.5M-9.7 364.2L356-1.5M-9.7 360.2L352-1.5M-9.7 356.2L348-1.5M-9.7 352.2L344-1.5M-9.7 348.2L340-1.5M-9.7 344.2L336-1.5M-9.7 340.2L332-1.5M-9.7 336.1L328-1.5M-9.7 332.1L323.9-1.5M-9.7 328.1L319.9-1.5M-9.7 324.1L315.9-1.5M-9.7 320.1L311.9-1.5M-9.7 316.1L307.9-1.5M-9.7 312.1L303.9-1.5M-9.7 308.1L299.9-1.5M-9.7 304.1L295.9-1.5M-9.7 300.1L291.9-1.5M-9.7 296.1L287.9-1.5M-9.7 292.1L283.9-1.5M-9.7 288L279.9-1.5M-9.7 284L275.8-1.5M-9.7 280L271.8-1.5M-9.7 276L267.8-1.5M-9.7 272L263.8-1.5M-9.7 268L259.8-1.5M-9.7 264L255.8-1.5M-9.7 260L251.8-1.5M-9.7 256L247.8-1.5M-9.7 252L243.8-1.5M-9.7 248L239.8-1.5M-9.7 243.9L235.8-1.5M-9.7 239.9L231.7-1.5M-9.7 235.9L227.7-1.5M-9.7 231.9L223.7-1.5M-9.7 227.9L219.7-1.5M-9.7 223.9L215.7-1.5M-9.7 219.9L211.7-1.5M-9.7 215.9L207.7-1.5M-9.7 211.9L203.7-1.5M-9.7 207.9L199.7-1.5M-9.7 203.9L195.7-1.5M-9.7 199.8L191.7-1.5M-9.7 195.8L187.7-1.5M-9.7 191.8L183.6-1.5M-9.7 187.8L179.6-1.5M-9.7 183.8L175.6-1.5M-9.7 179.8L171.6-1.5M-9.7 175.8L167.6-1.5M-9.7 171.8L163.6-1.5M-9.7 167.8L159.6-1.5M-9.7 163.8L155.6-1.5M-9.7 159.8L151.6-1.5M-9.7 155.7L147.6-1.5M-9.7 151.7L143.6-1.5M-9.7 147.7L139.5-1.5M-9.7 143.7L135.5-1.5M-9.7 139.7L131.5-1.5M-9.7 135.7L127.5-1.5M-9.7 131.7L123.5-1.5M-9.7 127.7L119.5-1.5M-9.7 123.7L115.5-1.5M-9.7 119.7L111.5-1.5M-9.7 115.7L107.5-1.5M-9.7 111.7L103.5-1.5M-9.7 107.6L99.5-1.5M-9.7 103.6L95.4-1.5M-9.7 99.6L91.4-1.5M-9.7 95.6L87.4-1.5M-9.7 91.6L83.4-1.5M-9.7 87.6L79.4-1.5M-9.7 83.6L75.4-1.5M-9.7 79.6L71.4-1.5M-9.7 75.6L67.4-1.5M-9.7 71.6L63.4-1.5M-9.7 67.6L59.4-1.5m-69.1 65l65.1-65m-65.1 61l61.1-61m-61.1 57l57-57m-57 53l53-53m-53 49l49-49m-49 45l45-45m-45 41l41-41m-41 37l37-37m-37 33l33-33"/><path d="M-9.7 27.5l29-29"/><path d="M-9.7 23.5l25-25"/><path d="M-9.7 19.5l21-21"/><path d="M-9.7 15.4l17-16.9"/><path d="M-9.7 11.4L3.2-1.5"/><path d="M-9.7 7.4l8.9-8.9"/><path d="M-9.7 3.4l4.9-4.9"/><path d="M-9.7-.6l.9-.9"/></g></g><g class="Y"><g fill="#ebebeb"><path d="M556.8 469.9h71.4v34h-71.4v-34m66.9 53.3v34h-24.1l-5.7-34h29.8" class="g"/><path d="M620.8 504.4h8v-34.5h26.1v87.3h-30.7v-34.6h-3.4v-18.2M472.7 115.2h84.2v34.1h-89.8l5.6-34.1" class="g"/><path d="M583.6 115.2v62.3h-34.1v-27.7h8v-34.6h26.1" class="g"/></g><path d="M167.4 844v-63.7h7.1v1.4h54.2v60.9h-54.2v1.4h-7.1" opacity=".25" fill="#c8c8c8"/></g><g class="Q R S V W X"><path d="M455.4 517.8h-1.7m.6 2.5h-.6m1.7-2.5v34m0-30.9h-.5"/><path d="M455.4 551.8h-1.7m1.2-30.9l-.6-.6"/><path d="M453.7 551.8v-34m0 2.5h.6m0 28.9h-.6m1.7-.5h-.5"/><path d="M454.9 548.7l-.6.5m-.6 0h.6m59 11.4v-1.7m-3 .5v-.5"/><path d="M513.3 560.6h-34.9m31.3 0v-.6m-31.3.6v-1.7m31.3 1.1l.6-.6"/><path d="M478.4 558.9h34.9m-3 0v.5m-28.9 0v-.5m.5 1.7v-.6"/><path d="M481.9 560l-.5-.6m0-.5v.5m69.3-95.8v-1.7m-2.6.6v-.6"/><path d="M550.7 463.6h-34m30.9 0v-.5m-30.9.5v-1.7m30.9 1.2l.5-.6"/><path d="M516.7 461.9h34m-2.6 0v.6m-28.9 0v-.6m.6 1.7v-.5"/><path d="M519.8 463.1l-.6-.6m0-.6v.6M302.7 895.9h6.8m0 0v5.8"/></g><text><tspan x="303.765" y="900.584" class="Z a">2</tspan><tspan x="306.065" y="900.584" class="Z a">9</tspan></text><g class="Q R S V W X"><path d="M309.5 901.7v-5.8m0 0h6.8"/><path d="M316.3 895.9v5.8m0 0h-6.8"/></g><text><tspan x="310.568" y="900.583" class="Z a">3</tspan><tspan x="312.868" y="900.583" class="Z a">0</tspan></text><g class="Q R S V W X"><path d="M302.7 711.1v-5.8m0 0h6.8"/><path d="M309.5 705.3v5.8m0 0h-6.8"/></g><text><tspan x="303.767" y="709.928" class="Z a">2</tspan><tspan x="306.067" y="709.928" class="Z a">8</tspan></text><g class="Q R S V W X"><path d="M309.5 711.1v-5.8m0 0h6.8"/><path d="M316.3 705.3v5.8m0 0h-6.8"/></g><text><tspan x="310.57" y="709.928" class="Z a">2</tspan><tspan x="312.87" y="709.928" class="Z a">7</tspan></text><g class="Q R S V W X"><path d="M457.1 901.7v-5.8m0 0h6.8"/><path d="M463.9 895.9v5.8m0 0h-6.8"/></g><text><tspan x="458.254" y="900.584" class="Z a">3</tspan><tspan x="460.554" y="900.584" class="Z a">1</tspan></text><g class="Q R S V W X"><path d="M463.9 901.7v-5.8m0 0h6.8"/><path d="M470.7 895.9v5.8m0 0h-6.8"/></g><text><tspan x="465.056" y="900.583" class="Z a">3</tspan><tspan x="467.356" y="900.583" class="Z a">2</tspan></text><g class="Q R S V W X"><path d="M611.6 901.7v-5.8m0 0h6.8"/><path d="M618.4 895.9v5.8m0 0h-6.8"/></g><text><tspan x="612.742" y="900.583" class="Z a">3</tspan><tspan x="615.042" y="900.583" class="Z a">3</tspan></text><g class="Q R S V W X"><path d="M618.4 901.7v-5.8m0 0h6.8"/><path d="M625.2 895.9v5.8m0 0h-6.8"/></g><text><tspan x="619.547" y="900.583" class="Z a">3</tspan><tspan x="621.847" y="900.583" class="Z a">4</tspan></text><g class="Q R S V W X"><path d="M457.1 711.1v-5.8m0 0h6.8"/><path d="M463.9 705.3v5.8m0 0h-6.8"/></g><text><tspan x="458.256" y="709.928" class="Z a">2</tspan><tspan x="460.556" y="709.928" class="Z a">6</tspan></text><g class="Q R S V W X"><path d="M611.6 711.1v-5.8m0 0h6.8"/><path d="M618.4 705.3v5.8m0 0h-6.8"/></g><text><tspan x="612.743" y="709.927" class="Z a">2</tspan><tspan x="615.043" y="709.927" class="Z a">5</tspan></text><g class="Q R S V W X"><path d="M618.4 711.1v-5.8m0 0h6.8"/><path d="M625.2 705.3v5.8m0 0h-6.8"/></g><text><tspan x="619.548" y="709.928" class="Z a">2</tspan><tspan x="621.848" y="709.928" class="Z a">4</tspan></text><g class="Q R S V W X"><path d="M605.5 711.1v-5.8m0 0h6.1"/><path d="M611.6 705.3v5.8m0 0h-6.1"/></g><text transform="translate(606.607 709.927)" class="Z a">IV</text><g class="Q R S V W X"><path d="M731.8 192.6h.9m1.4 0h2.8m1.4 0h2.9m1.4 0h2.8m1.4 0h2.9m1.4 0h1.7m-152.5-56.7h1.3m1.4 0h2.8m1.4 0h2.9m1.4 0h2.8m1.4 0h2.9m1.4 0h2.8m1.4 0h2.9m1.4 0h2.8m1.4 0h2.9m1.4 0h2.8m1.4 0h2.9m1.4 0h2.8m1.5 0h2.8m1.4 0h2.8m1.5 0h2.8m1.4 0h2.8m1.5 0h2.8m1.4 0h2.8m1.5 0h2.8m1.4 0h2.9m1.4 0h2.8m1.4 0h2.9m1.4 0h2.8m1.4 0h2.9m1.4 0h2.8m1.4 0h2.9m1.4 0h2.8m1.4 0h2.9m1.4 0h2.8m1.4 0h2.9m1.4 0h2.8m1.4 0h2.9m1.4 0h2.8m1.4 0h2.9m1.4 0h2.8m1.4 0h2.9m1.4 0h1M683.6-1.5v.8m0 1.4v2.9m0 1.4v2.8m0 1.4v2.9m0 1.4v2.8m0 1.4v2.9m0 1.4v2.8m0 1.4v2.9m0 1.4v2.8m0 1.4v2.9m0 1.4v2.8m0 1.4v2.9m0 1.4v2.8m0 1.5v2.8m0 1.4v2.8m0 1.5v2.8m0 1.4v2.8m0 1.5v1.1m0 0h-2.7m-1.4 0h-2.8m-1.4 0h-2.9m-1.4 0h-2.8m-1.4 0h-2.9m-1.4 0h-2.8m-1.4 0h-2.9m-1.4 0h-2.8m-1.4 0h-2.9m-1.4 0h-2.8m-1.5 0h-2.8m-1.4 0h-2.8m-1.5 0h-2.8m-1.4 0h-2.8m-1.5 0h-2.8m-1.4 0h-2.8m-1.5 0h-2.8m-1.4 0h-2.8m-1.5 0h-2.8m-1.4 0h-2.7m-133.5 410h39.7m-39.7 0v4.4m-2.1 25.5h2.1m-3.6.6h1.5m-1.5-.3h1.2"/><path d="M464.7 510.4v-.6m-1.5-35.6v22m0 .2h1.2m.3.9h1.1"/><path d="M464.4 510.1v-13.7m-1.2 13.7v-13.7m1.5-12.9h1.1m-1.1 13.8v-13.8m1.1 0v13.8m0 .3v11.9m-2.6.9v.7m28.4 2.7h-9.9m0 0v.8m16.3-2.2v1.1m.8-1.1h3.7m.6-43.1v1.1"/><path d="M503.1 470.4h-2.7m0 0v2m-30.2-3.1v1.1m0 0h2.7m0 0v2m27.2 0v2.4"/><path d="M473.2 472.4v2.4m26.9 0h-26.9m2.6-4v2m0 0h2.9"/><path d="M478.7 472.8v-2m-2.9 0h2.9m-1.7-.7v.7m0 2v.7m20.4-2.7v2m0 0h-2.8"/><path d="M494.6 472.8v-2m2.8 0h-2.8m1.7-.7v.7m0 2v.7"/><path d="M477 470.1h19.3m-19.3 3.4h19.3"/><path d="M483.6 470.4h6m-6 2.8h6m0-1.8h.7m0 0v.7"/><path d="M490.3 472.1h-.7m-6-.7h-.7"/><path d="M482.9 471.4v.7m0 0h.7m.8 5.7v1.7m4.5-1.7v1.7m1.8-1.8h1.2m0 0v2.2m-1.2-2.2v2.2m-6.9-.4v.4m5.7-.4v.4m-.6 33v-1.4m-4.5 1.4v-1.4m-1.9 1.6h-1.1"/><path d="M481.4 513.1v-2m1.1 2v-2m7 .4v-.4m-5.7.4v-.4m18.7 1.3v2.1m0 0h-3.7"/><path d="M498.8 512.4v2.1m-32.7-30.2h.7m-1-10.1h-2.6m2.6 9v-9m40.7 36.9h-39.7m0 0v-1.3"/><path d="M463.2 511.1h3.6m20.4-32.6h-1.1m2.8-.7h-4.5m2.8.7l.8.7"/><path d="M486.1 478.5l-.9.7m2.8 0v.3m-2.8-.3v.3m-.8 33.4h4.5"/><path d="M486.1 512.5h1.1m-1.1 0l-.9-.7m2 .7l.8-.7m-2.8 0v-.3"/><path d="M488 511.8v-.3m3.6.9v2.2"/><path d="M498 512.4h-6.4m0 1.1h7.2m-24.4-38.7v-5.5m24.4 5.5v-5.5m-32 42.7v-.9m3.4 0v.9m36.3 0v-.9m-3.4 0v.9"/><path d="M466.8 512h3.4m36.3 0h-3.4m3.4-32.9v.8m-3.4 0v-.8"/><path d="M466.8 479.1v.8m3.4 0v-.8m-3.4 0h3.4m36.3 0h-3.4m-5.7-7h1.4m1.6.3h-.3m-27.2 0h.3m2.6-.3h-1.4m10.8 5.7v-3m4.3 4.7H488m-2.8 0h-1.4m5.8-9.1v1m0 .7v1.1m-6-2.8v1m0 .7v1.1m.2 38.3h1.4m2.8 0h1.5m-2.9 1.4v.9m25.2-3.7h-1.1m0 .3h1.4"/><path d="M512.1 510.4v-.6m0-26.3h1.2m-2.6 12.9h1.1m-1.1-24v23.8m1.4 1.1h1.2m0 12.2v-11.9m-1.5 12.5v-13.7m-1.1 13.7v-13.7"/><path d="M512.1 497.3v-13.8m1.2 0v13.8"/><path d="M510.7 472.4h2.6m-2.6 38.7h2.6"/><path d="M513.3 511.1v-1.3m-2.6.6v.7m1.4-1.3h2.9m0-25.5h-1.5m1.5 0v-14.4m-1.5 0v.5m-.2 2v10.8m.2-13.3h1.5"/><path d="M515 514.1h-1.5m0 0v-.6m1.5.6v-4.3m.5-40.5v2"/><path d="M515.5 471.3h-.5m.5 43.3v-1.9m0 0h-.5m-8.5-32.8v4.4m2.1 25.5h-2.1m3.5.6h-1.4"/><path d="M510 510.1h-1.1m-.3.3v-.6m1.4-35.6v22m0 .2h-1.1"/><path d="M508.6 497.3h-1.1m1.4 12.8v-13.7m1.1 13.7v-13.7m-1.4-12.9h-1.1"/><path d="M508.6 497.3v-13.8m-1.1 0v13.8m0 .3v11.9m2.5.9v.7m-2.8-26.8h-.7m1-10.1h2.5m-2.5 9v-9m-1 36.9v-1.3"/><path d="M510 511.1h-3.5M488 477.8v-3m9.4-3.3h1.4m-23 0h-1.4m24.4 2.3h-24.4M329.9 146.6h39.6"/><path d="M329.9 146.6v31.2m24.8 2.6h-10m0 0v.9M361 179v1.2m.9-1.2h3.7m.5-43.1v1.2"/><path d="M366.1 137.1h-2.6m0 0v2m-30.2-3.2v1.2m0 0h2.7m0 0v2m27.2 0v2.3"/><path d="M336.2 139.1v2.3m27 0h-27m2.7-4v2m0 0h2.9"/><path d="M341.8 139.4v-2m-2.9 0h2.9m-1.7-.7v.7m0 2v.7m20.4-2.7v2m0 0h-2.9"/><path d="M357.6 139.4v-2m2.9 0h-2.9m1.7-.7v.7m0 2v.7"/><path d="M340.1 136.7h19.2m-19.2 3.4h19.2"/><path d="M346.7 137h6m-6 2.9h6m0-1.8h.7m0 0v.7"/><path d="M353.4 138.8h-.7m-6-.7h-.7"/><path d="M346 138.1v.7m0 0h.7m.7 5.6v1.7m4.6-1.7v1.7m1.8-1.8h1.2m0 0v2.3m-1.2-2.3v2.3m-6.9-.5v.5m5.6-.5v.5m-.5 33v-1.4m-4.6 1.4v-1.4m-1.8 1.5h-1.1"/><path d="M344.5 179.7v-1.9m1.1 1.9v-1.9m6.9.4v-.4m-5.6.4v-.4m18.7 1.2v2.2m0 0h-3.7"/><path d="M361.9 179v2.2m7.6-3.4h-39.6m20.4-32.6h-1.2m2.9-.8h-4.6"/><path d="M350.3 145.2l.8.7m-2-.7l-.8.7m2.8 0v.2m-2.8-.2v.2m-.9 33.5h4.6m-2.9-.4h1.2m-1.2 0l-.8-.7m2 .7l.8-.7m-2.8 0v-.3m2.8.3v-.3m3.6.8v2.3m6.3-2.3h-6.3"/><path d="M354.7 180.2h7.2m-24.4-38.8v-5.5m24.4 5.5v-5.5m-32 42.7v-.8m3.4 0v.8m36.2 0v-.8"/><path d="M366.1 177.8v.8m-36.2 0h3.4"/><path d="M369.5 178.6h-3.4m3.4-32.9v.9m-3.4 0v-.9m-36.2 0v.9"/><path d="M333.3 146.6v-.9m-3.4 0h3.4m36.2 0h-3.4m-5.6-7h1.4m1.6.4h-.3m-27.2 0h.2m2.7-.4h-1.4m10.8 5.7v-3m4.2 4.7h-1.4m-2.8 0h-1.4m5.8-9.1v1.1m0 .7v1.1m-6-2.9v1.1m0 .7v1.1m.2 38.3h1.4m2.8 0h1.4m-2.8 1.4v.8m19.8-33.8v4.4m2.2 25.5h-2.2m3.6.5h-1.4"/><path d="M373.1 176.8H372m-.3.2v-.5m1.4-35.7v22m0 .3H372"/><path d="M371.7 163.9h-1.2m1.5 12.9v-13.7m1.1 13.7v-13.7m-1.4-13h-1.2"/><path d="M371.7 163.9v-13.8m-1.2 0v13.8m0 .3v12m2.6.8v.8m-2.8-26.8h-.8m1-10.2h2.6m-2.6 9v-9m-1 37v-1.3"/><path d="M373.1 177.8h-3.6m-18.4-33.4v-3m9.4-3.2h1.4m-23 0h-1.4m24.4 2.2h-24.4m37.4 36.4h-1.1m0 .2h1.4m0 0v-.5m0-26.4h1.2m-2.6 13h1.1m-1.1-24.1v23.8m1.4 1.1h1.2"/><path d="M376.4 176.2v-12m-1.5 12.6v-13.7m-1.1 13.7v-13.7m1.4.8v-13.8"/><path d="M376.4 150.1v13.8m-2.6-24.9h2.6m-2.6 38.8h2.6m0 0v-1.3"/><path d="M373.8 177v.8m1.4-1.3h2.9m0-25.5h-1.5m1.5 0v-14.5m-1.5 0v.6m-.2 1.9v10.8"/><path d="M376.6 136.5h1.5m0 44.2h-1.5"/><path d="M376.6 180.7v-.5m1.5.5v-4.2m.5-40.6v2m0 0h-.5m.5 43.4v-2m0 0h-.5m59.8 309.3v.5m0 .7v1.7m0 .8v1.7m0 .7v1.7m0 .7v.5m0 0v.6m0 .7v1.7m0 .7v1.7m0 .7v1.7m0 .7v.6m1.4 1.4h1.5m.7 0h1.7m.7 0h1.7m.7 0h1.7m.7 0h1.7m.7 0h1.5m0 0v-1.7m0-.7V504m0-.7v-1.7m0-.7v-1.7m0-.7v-1.7m0-.7v-1.7m0-.7V492m0-.7v-1.7m0-.7v-1.7m0 0h-1.5"/><path d="M450.4 487.2h-1.7m-.7 0h-1.7m-.7 0h-1.7m-.7 0h-1.7m-.7 0h-1.5m9.5 1.5h-.4m-.7 0H446m-.8 0h-1.7m-.7 0h-1.7m-.7 0h-.4m-.6.6v.8m0 .7v1.7m0 .7v1.7m0 .7v1.7m0 .7v1.7m0 .7v1.7m0 .7v1.7m0 .7v.8m.6.6h.4m.7 0h1.7m.7 0h1.7m.8 0h1.7m.7 0h.4m1.1-1.1v-1.4m0-.7v-1.7m0-.7v-1.4m0-3.9v-1.4m0-.7v-1.7m0-.7v-1.4m2 18.3V507m.1-.1v-.5m0-.7V504"/><path d="M452 503.3v-1.7m0-.7v-1.7m0-.7v-1.7m0-.7v-1.7m0-.7V492m0-.7v-1.7m0-.7v-.5m-.1-.1v-1.1m-2.1 11.4l.7-.3m0 0l.2-.6m-.2-.6v-.1m0 0l-.7-.3m0 0l-.7.3m0 0l-.1.1m-.2.6l.3.6m0 0l.7.3m-10.5-11.4l-.7.2m-.5.5l-.2.7m0 18.1l.2.7m.5.4l.7.3m.7-19.4l-.4.2m0 0l-.2.4m0 16.7l.2.4m0 0l.4.2m8.8 0l.5-.2m.4-.5l.2-.4m0-5.9l.1-.2m0 0l.1-.1m0 0l.6-.4m.5-.5l.3-.8m0 0l-.3-.8m-.5-.5l-.6-.3"/><path d="M450.1 496l-.1-.1m0 0l-.1-.2m0-5.9l-.2-.5m-.4-.4l-.5-.2m3.1 18.3h.1m0 0v-.1m0-18.5v-.1m0 0h-.1"/></g><path d="M228.7 569.4v-4.6h243.7v4.6H228.7" class="Y"/><g class="Q R S V W X"><path d="M228.7 569.4h243.7m0-4.6H228.7"/><path d="M228.7 564.8v4.6"/></g><path d="M519.2 569.4v-4.6h176.5v4.6H519.2" class="Y"/><g class="Q R S V W X"><path d="M519.2 569.4h176.5m0 0v-4.6"/><path d="M695.7 564.8H519.2"/></g><g class="Y"><path d="M129.2 773.2h-2.3v-2.3l2.3 2.3"/><path d="M129.2 851.1h-2.3v-77.9h2.3v77.9"/><path d="M126.9 851.1h2.3l-2.3 2.3v-2.3"/></g><path d="M129.2 851.1v-77.9m-2.3-2.3v82.5" class="Q R S V W X"/><g class="Y"><path d="M129.2 851.1v2.3h-2.3l2.3-2.3"/><path d="M219.3 851.1v2.3h-90.1v-2.3h90.1"/><path d="M219.3 851.1h2.3l-2.3 2.3v-2.3"/></g><path d="M126.9 853.4h2.3m0 0h90.1m2.3-2.3h-92.4" class="Q R S V W X"/><g class="Y"><path d="M230.1 1039.3v-1.4h226.8v1.4H230.1m240.9-1.4h281.8v1.4H471v-1.4"/><path d="M230.1 1037.9v1.4h-1.4l1.4-1.4"/></g><g class="Q R S V W X"><path d="M456.9 1037.9v1.4m14.1-1.4v1.4m-242.3 0h228.2m14.1 0h281.8"/><path d="M752.8 1037.9H471m-14.1 0H230.1m240.9 0h-14.1m14.1 1.4h-14.1"/></g><g class="Y"><path d="M230.1 1037.9l-1.4 1.4v-1.4h1.4"/><path d="M228.7 844h1.4v193.9h-1.4V844"/><path d="M228.7 844l1.4-1.4v1.4h-1.4"/></g><path d="M230.1 1037.9V842.6m-1.4 196.7v-1.4m0-193.9v193.9" class="Q R S V W X"/><g class="Y"><path d="M221.6 436.7h-4v-4l4 4"/><path d="M217.6 436.7h4v336.5h-4V436.7"/></g><g class="Q R S V W X"><path d="M217.6 432.7v338.2m0 2.3h4"/><path d="M221.6 773.2V436.7"/></g><g class="Y"><path d="M129.2 773.2v-2.3h88.4v2.3h-88.4"/><path d="M129.2 770.9v2.3l-2.3-2.3h2.3"/></g><g class="Q R S V W X"><path d="M129.2 773.2h88.4m-90.7-2.3h2.3"/><path d="M217.6 770.9h-88.4"/></g><g class="Y"><path d="M219.3 853.4l2.3-2.3v2.3h-2.3"/><path d="M219.3 853.4h2.3v101.2h-2.3V853.4"/></g><g class="Q R S V W X"><path d="M221.6 851.1v2.3m0 101.2V853.4"/><path d="M219.3 853.4v101.2m0 0h2.3"/></g><path d="M481 569.4h-2.9v-8.8h2.9v8.8" class="Y"/><path d="M481 569.4v-8.8m0 0h-2.9m0 0v4.2m0 1.7v2.9m0 0h2.9" class="Q R S V W X"/><path d="M513.5 569.4h-2.8v-8.8h2.8v8.8" class="Y"/><path d="M513.5 569.4v-2.9m0-1.7v-4.2m0 0h-2.8m0 0v8.8m0 0h2.8" class="Q R S V W X"/><path d="M666.6 557.7v-2.2h86.2v2.2h-86.2" class="Y"/><path d="M666.6 557.7h86.2m0-2.2h-86.2" class="Q R S V W X"/><path d="M472.4 566.5v-1.7h5.7v1.7h-5.7" class="Y"/><path d="M472.4 566.5h5.7m0-1.7h-5.7" class="Q R S V W X"/><path d="M513.5 566.5v-1.7h5.7v1.7h-5.7" class="Y"/><path d="M513.5 566.5h5.7m0-1.7h-5.7" class="Q R S V W X"/><g class="Y"><path d="M228.7 844v-1.4h1.4l-1.4 1.4"/><path d="M228.7 842.6v1.4h-54.2v-1.4h54.2"/></g><g class="Q R S V W X"><path d="M230.1 842.6h-1.4m-7.1 0h-47.1"/><path d="M174.5 842.6v1.4m0 0h47.1"/></g><path d="M174.5 781.7v-1.4h54.2v1.4h-54.2" class="Y"/><g class="Q R S V W X"><path d="M174.5 781.7h47.1m7.1 0v-1.4"/><path d="M221.6 780.3h-47.1m0 0v1.4"/></g><path d="M452.6 469.3h8.5v51h-5.7v-2.8h-2.8v-48.2m0 88.4v-5.6h2.8v-2.9h5.7v8.5h-8.5" class="Y"/><g class="Q R S V W X"><path d="M455.4 517.5v2.8m0 0h5.7m-5.7-2.8h-2.8m2.8 34.6v-2.9"/><path d="M455.4 549.2h5.7m-5.7 2.9h-2.8m0-82.8v48.2m0 34.6v5.6m8.5 0v-8.5m0-34.6v-45.3"/></g><path d="M379.5 130.3h-4.1v-15.6h4.1v15.6" class="Y"/><g class="Q R S V W X"><path d="M379.5 130.3v-15.6m0 0h-4.1"/><path d="M375.4 114.7v15.6m0 0h4.1"/></g><path d="M379.5 202.6h-4.1V187h4.1v15.6" class="Y"/><g class="Q R S V W X"><path d="M379.5 202.6V187m0 0h-4.1"/><path d="M375.4 187v15.6m0 0h4.1"/></g><g class="Y"><path d="M478.1 663.2l-5.7 5.7v-5.7h5.7"/><path d="M478.1 663.2h-5.7v-96.7h5.7v96.7"/></g><path d="M472.4 566.5v102.4m5.7-5.7v-96.7m0 0h-5.7" class="Q R S V W X"/><g class="Y"><path d="M519.2 663.2h-5.7v-96.7h5.7v96.7"/><path d="M519.2 663.2v5.7l-5.7-5.7h5.7"/></g><path d="M519.2 668.9V566.5m-5.7 0h5.7m-5.7 0v96.7" class="Q R S V W X"/><g class="Y"><path d="M513.5 663.2l5.7 5.7h-5.7v-5.7"/><path d="M513.5 663.2v5.7h-3.1v-5.7h3.1m-35.4 5.7v-5.7h2.9v5.7h-2.9"/><path d="M478.1 663.2v5.7h-5.7l5.7-5.7"/></g><g class="Q R S V W X"><path d="M510.4 663.2v5.7m-29.4-5.7v5.7m-8.6 0h5.7m0 0h2.9"/><path d="M519.2 668.9h-5.7m-3.1 0h3.1m0-5.7h-3.1m-29.4 0h-2.9m2.9-1.1v-29.2m-.4 29.9v-.5m0 0h1m0 0v.3m0 0h.5m0 0v7.1m0 0h-.9m0 0v-.4m29.6-6.5v-.5m0 0h-1m0 0v.3m0 0h-.5"/><path d="M509.3 662.6v7.1m0 0h.8"/><path d="M510.1 669.7v-.4M481 632.9c16.1 0 29.2 13.1 29.2 29.2"/></g><g class="Y"><path d="M129.2 773.2h7.1v7.1l-7.1-7.1"/><path d="M136.3 780.3v-7.1h85.3v7.1h-85.3"/></g><path d="M136.3 780.3h85.3m0-7.1h-92.4" class="Q R S V W X"/><g class="Y"><path d="M136.3 851.1V844h85.3v7.1h-85.3"/><path d="M136.3 844v7.1h-7.1l7.1-7.1"/></g><path d="M129.2 851.1h92.4m0-7.1h-85.3" class="Q R S V W X"/><g class="Y"><path d="M136.3 844l-7.1 7.1V844h7.1"/><path d="M129.2 780.3h7.1V844h-7.1v-63.7"/><path d="M129.2 780.3v-7.1l7.1 7.1h-7.1"/></g><path d="M136.3 844v-63.7m-7.1-7.1v7.1m0 70.8V844m0-63.7V844" class="Q R S V W X"/><g class="Y"><path d="M503.9 215l4-3.9v3.9h-4"/><path d="M507.9 432.7h-4V215h4v217.7"/><path d="M507.9 432.7v4l-4-4h4"/></g><path d="M507.9 436.7V211.1m-4 3.9v217.7" class="Q R S V W X"/><g class="Y"><path d="M662.7 460.8v-4h3.9l-3.9 4"/><path d="M595.2 460.8v-4h67.5v4h-67.5"/><path d="M595.2 456.8v4h-4l4-4"/></g><path d="M591.2 460.8h71.5m3.9-4h-71.4" class="Q R S V W X"/><g class="Y"><path d="M595.2 456.8l-4 4v-4h4"/><path d="M591.2 106.2h4v350.6h-4V106.2"/><path d="M591.2 106.2l4-4v4h-4"/></g><path d="M591.2 460.8v-4m0-350.6v350.6m4 0V102.2" class="Q R S V W X"/><g class="Y"><path d="M662.7 460.8h3.9v96.9h-3.9v-96.9"/><path d="M662.7 460.8l3.9-4v4h-3.9"/></g><path d="M662.7 460.8v96.9m3.9 0h-3.9m3.9-100.9v4m0 94.7v-94.7" class="Q R S V W X"/><g class="Y"><path d="M319.9 106.2H316v-4l3.9 4"/><path d="M319.9 211.1H316V106.2h3.9v104.9"/><path d="M316 211.1h3.9L316 215v-3.9"/></g><path d="M319.9 211.1V106.2m-3.9-4V215" class="Q R S V W X"/><g class="Y"><path d="M591.2 106.2v-4h4l-4 4"/><path d="M319.9 106.2v-4h271.3v4H319.9"/><path d="M319.9 102.2v4l-3.9-4h3.9"/></g><g class="Q R S V W X"><path d="M319.9 106.2h271.3m4-4h-4"/><path d="M316 102.2h3.9m271.3 0H319.9"/></g><g class="Y"><path d="M319.9 211.1v3.9H316l3.9-3.9"/><path d="M503.9 211.1v3.9h-184v-3.9h184"/><path d="M503.9 211.1h4l-4 3.9v-3.9"/></g><path d="M507.9 211.1h-4m0 0h-184M316 215h3.9m0 0h184" class="Q R S V W X"/><g class="Y"><path d="M503.9 432.7l4 4h-4v-4"/><path d="M221.6 436.7v-4h282.3v4H221.6"/><path d="M221.6 432.7v4l-4-4h4"/></g><path d="M507.9 436.7h-4m-282.3 0h282.3m-286.3-4h4m282.3 0H221.6" class="Q R S V W X"/><path d="M452.6 445.2h4.1v15.6h-4.1v-15.6" class="Y"/><g class="Q R S V W X"><path d="M452.6 445.2v15.6m0 0h4.1"/><path d="M456.7 460.8v-15.6m0 0h-4.1"/></g><path d="M228.7 564.8v-7.1h249.4v7.1H228.7m284.8 0v-7.1h142.1v7.1H513.5" class="Y"/><g class="Q R S V W X"><path d="M478.1 564.8v-7.1m35.4 7.1v-7.1m-284.8 7.1h249.4m35.4 0h142.1"/><path d="M655.6 557.7H513.5m-35.4 0h-17m-8.5 0H228.7"/></g><g class="Y"><path d="M512.1 514.6l4.3 5.7h-4.3v-5.7"/><path d="M512.1 514.6v5.7h-51v-5.7h51"/></g><path d="M512.1 514.6h-51m0 5.7h55.3" class="Q R S V W X"/><g class="Y"><path d="M375.2 181.3l4.3 5.7h-4.3v-5.7"/><path d="M375.2 181.3v5.7h-46.8v-5.7h46.8"/></g><path d="M375.2 181.3h-46.8m0 5.7h51.1" class="Q R S V W X"/><g class="Y"><path d="M375.2 130.3v5.6h-46.8v-5.6h46.8"/><path d="M375.2 130.3h4.3l-4.3 5.6v-5.6"/></g><path d="M379.5 130.3h-51.1m0 5.6h46.8" class="Q R S V W X"/><g class="Y"><path d="M662.7 557.7v7.1h-7.1l7.1-7.1"/><path d="M662.7 557.7h90.1v7.1h-90.1v-7.1"/></g><path d="M655.6 564.8h97.2m0-7.1h-90.1" class="Q R S V W X"/><g class="Y"><path d="M319.9 211.1l8.5-8.5v8.5h-8.5"/><path d="M328.4 211.1v-8.5h179.5v8.5H328.4"/><path d="M507.9 202.6h8.5l-8.5 8.5v-8.5"/></g><path d="M319.9 211.1h188m8.5-8.5h-188" class="Q R S V W X"/><g class="Y"><path d="M584.1 114.7h7.1v346.1h-7.1V114.7"/><path d="M584.1 114.7l7.1-8.5v8.5h-7.1"/></g><path d="M591.2 106.2v8.5m0 346.1V114.7m-7.1 0v346.1" class="Q R S V W X"/><g class="Y"><path d="M662.7 557.7l-7.1 7.1v-7.1h7.1"/><path d="M655.6 469.3h7.1v88.4h-7.1v-88.4"/><path d="M655.6 469.3l7.1-8.5v8.5h-7.1"/></g><path d="M662.7 460.8v8.5m0 88.4v-88.4m-7.1 0v88.4" class="Q R S V W X"/><g class="Y"><path d="M584.1 114.7v-8.5h7.1l-7.1 8.5"/><path d="M328.4 114.7v-8.5h255.7v8.5H328.4"/><path d="M328.4 106.2v8.5l-8.5-8.5h8.5"/></g><path d="M591.2 106.2H319.9m8.5 8.5h255.7" class="Q R S V W X"/><g class="Y"><path d="M328.4 114.7h-8.5v-8.5l8.5 8.5"/><path d="M328.4 202.6h-8.5v-87.9h8.5v87.9"/><path d="M319.9 202.6h8.5l-8.5 8.5v-8.5"/></g><path d="M319.9 106.2v8.5m0 96.4v-8.5m0-87.9v87.9m8.5 0V187m0-5.7v-45.4m0-5.6v-15.6" class="Q R S V W X"/><g class="Y"><path d="M507.9 211.1l8.5-8.5v8.5h-8.5"/><path d="M507.9 211.1h8.5v249.7h-8.5V211.1"/></g><path d="M507.9 211.1v225.6m0 8.5v15.6m8.5-258.2v8.5m0 249.7V211.1" class="Q R S V W X"/><g class="Y"><path d="M228.7 445.2h-7.1v-8.5l7.1 8.5"/><path d="M221.6 445.2h7.1v335.1h-7.1V445.2m0 398.8h7.1v195.3h-7.1V844"/><path d="M228.7 1039.3l-7.1 7.1v-7.1h7.1"/></g><g class="Q R S V W X"><path d="M228.7 844h-7.1m7.1-63.7h-7.1m7.1 259V844m0-63.7V564.8m0-7.1V445.2m-7.1-8.5v8.5m0 0v328m0 77.9v195.3"/><path d="M228.7 780.3V844m-7.1-63.7V844"/></g><g class="Y"><path d="M221.6 1046.4l7.1-7.1v7.1h-7.1"/><path d="M228.7 1046.4v-7.1h228.2v7.1H228.7m524.1-7.1v7.1H471v-7.1h281.8"/></g><g class="Q R S V W X"><path d="M456.9 1046.4v-7.1m14.1 7.1v-7.1m281.8 0H471m-14.1 0H228.7m-7.1 7.1h7.1m0 0h228.2m14.1 0h281.8m-281.8 0h-14.1"/><path d="M471 1039.3h-14.1m55.2-570v.6m0 .7v1.7m0 .8v1.7m0 .7v1.7m0 .7v1.7m0 .7v1.7m0 .7v1.7m0 .7v1.7m0 .7v1.7m0 .7v1.7m0 .7v1.7m0 .7v1.7m0 .7v1.7m0 .8v1.7m0 .7v1.7m0 .7v1.7m0 .7v1.7m0 .7v1.7m0 .7v1.7m0 .7v.6m4.3-45.3v.6m0 .7v1.7m0 .8v1.7m0 .7v1.7m0 .7v1.7m0 .7v1.7m0 .7v1.7m0 .7v1.7m0 .7v1.7m0 .7v1.7m0 .7v1.7m0 .7v1.7m0 .7v1.7m0 .8v1.7m0 .7v1.7m0 .7v1.7m0 .7v1.7m0 .7v1.7m0 .7v1.7m0 .7v.6m40.4-27.7h63.5m0 0l-2.9 5.6m0-11.3l2.9 5.7"/><path d="M617.4 492.5v-11.3m2.9 59h-23.6m-40.5 0l.7-1.5m.3-.6l.8-1.5"/><path d="M558.3 535.9l.7-1.4m0 11.3l-.7-1.4m-.3-.6l-.8-1.6m-.3-.6l-.7-1.4"/><path d="M559 534.5v1.7m0 .7v1.7m0 .7v1.7m0 .7v1.7m0 .7v1.7m78.8-38.5v7.9m0 0l-5.6-2.8m11.3 0l-5.7 2.8"/><path d="M632.2 512.4h11.3m-47.9 27.8h-1.3m-.7 0h-1.7m-.7 0h-1.7m-.7 0h-1.7m-.7 0h-1.7m-.7 0h-1.7m-.7 0h-1.7m-.7 0h-1.7m-.7 0h-1.7m-.7 0h-1.7m-.8 0h-1.7m-.7 0h-1.7m-.7 0h-1.7m-.7 0H563m-.7 0h-1.7m-.7 0h-1.7m-.7 0h-1.3M549 132.3h-79.1m-40 0l.7 1.4m.4.6l.7 1.6m.3.6l.8 1.4m0-11.3l-.8 1.4m-.3.7l-.7 1.5"/><path d="M430.6 130.8l-.7 1.5m2.9 5.6v-1.7m0-.7v-1.7m0-.7v-1.7m0-.7V129m0-.7v-1.7m-57.6 9.3v.7m0 .7v1.7m0 .7v1.7m0 .7v1.7m0 .7v1.7m0 .7v1.7m0 .7v1.7m0 .7v1.7m0 .8v1.7m0 .7v1.7m0 .7v1.7m0 .7v1.7m0 .7v1.7m0 .7v1.7m0 .7v1.7m0 .7v1.7m0 .7v1.7m0 .7v1.7m0 .7v1.7m0 .8v.6m4.3-45.4v.7m0 .7v1.7m0 .7v1.7m0 .7v1.7m0 .7v1.7m0 .7v1.7m0 .7v1.7m0 .7v1.7m0 .8v1.7m0 .7v1.7m0 .7v1.7m0 .7v1.7m0 .7v1.7m0 .7v1.7m0 .7v1.7m0 .7v1.7m0 .7v1.7m0 .7v1.7m0 .7v1.7m0 .8v.6m187.1-3.8v-23.8m0 0l-5.7 2.8"/><path d="M572.2 156.5l-5.6-2.8m-5.7 2.8h11.3m-103.4-24.2h-1m-.7 0h-1.7m-.7 0H463m-.8 0h-1.7m-.7 0h-1.7m-.7 0h-1.7m-.7 0h-1.7m-.7 0h-1.7m-.7 0h-1.7m-.7 0h-1.7m-.7 0h-1.7m-.7 0h-1.7m-.7 0h-1.7m-.8 0h-1.7m-.7 0H434m-.7 0h-1.7m-.7 0h-1m126.9 356c.8 0 1.4-.6 1.4-1.4s-.6-1.4-1.4-1.4-1.4.6-1.4 1.4.6 1.4 1.4 1.4m63.5 53.3c.8 0 1.4-.6 1.4-1.4s-.6-1.4-1.4-1.4-1.4.6-1.4 1.4c0 .7.6 1.4 1.4 1.4m17.5-32.9c.8 0 1.4-.6 1.4-1.4s-.6-1.4-1.4-1.4-1.4.6-1.4 1.4.7 1.4 1.4 1.4m-88.8-375c.8 0 1.4-.6 1.4-1.4s-.6-1.4-1.4-1.4-1.4.6-1.4 1.4c0 .7.6 1.4 1.4 1.4m17.6 45.2c.8 0 1.4-.6 1.4-1.4s-.6-1.4-1.4-1.4-1.4.6-1.4 1.4c-.1.8.6 1.4 1.4 1.4"/></g><g class="Y"><path d="M452.6 469.3v-8.5h63.8v2.8h2.8v5.7h-66.6m98.4-5.7v-2.8h104.6v8.5H548.1v-5.7h2.9"/><path d="M655.6 460.8h7.1l-7.1 8.5v-8.5"/></g><g class="Q R S V W X"><path d="M551 463.6h-2.9m0 0v5.7m2.9-5.7v-2.8m-34.6 2.8h2.8"/><path d="M519.2 463.6v5.7m-2.8-5.7v-2.8m146.3 0h-71.5m-7.1 0H551"/><path d="M507.9 460.8h-55.3m0 8.5v-8.5m8.5 8.5h51m4.3 0h2.8m28.9 0h107.5"/></g><g class="Y"><path d="M228.7 445.2v-8.5h279.2v8.5H228.7"/><path d="M228.7 436.7v8.5l-7.1-8.5h7.1"/></g><path d="M507.9 436.7H221.6m7.1 8.5h279.2" class="Q R S V W X"/><path d="M100.8 554.9v-7.1h119.1v7.1H100.8" class="Y"/><g class="X"><g class="Q R S"><g class="V W"><path d="M100.8 554.9h119.1m0 0v-7.1"/><path d="M219.9 547.8H100.8m0 0v7.1m567 12.8V566m0-.7v-1.7m0-.7v-1.7m0-.7v-1.7m0-.7v-1.7m0-.7V554m0-.7v-1.7m0-.7v-1.7m0-.7v-1.7m0-.8v-1.7m0-.7v-1.7m0-.7v-1.7m0-.7v-1.7m0-.7v-1.7m0-.7v-1.7m0-.7v-1.7m0-.7v-1.7m0-.7v-1.7m0-.7v-1.7m0-.8v-1.7m0-.7v-1.7m0-.7v-1.7m0-.7V513m0-.7v-1.7m0-.7v-1.7m0-.7v-1.7m0-.7v-1.7m0-.7V501m0-.7v-1.7m0-.7v-1.7m0-.8v-1.7m0-.7v-1.7m0-.7v-1.7m0-.7v-1.7m0-.7v-1.7m0-.7v-1.7m0-.7v-1.7m0-.7v-1.7m0-.7v-1.7m0-.7v-1.7m0-.7v-1.8m0-.7v-1.7m0-.7v-1.7m0-.7v-1.7m0-.7V460m0-.7v-1.7m0-.7v-1.7m0-.7v-1.1m0 0h-1.7m-.8 0h-1.7m-.7 0h-1.7m-.7 0h-1.7m-.7 0h-1.7m-.7 0H654m-.7 0h-1.7m-.7 0h-1.7m-.7 0h-1.7m-.7 0h-1.7m-.7 0H642m-.8 0h-1.7m-.7 0h-1.7m-.7 0h-1.7m-.7 0h-1.7m-.7 0h-1.7m-.7 0h-1.7m-.7 0h-1.7m-.7 0h-1.7m-.7 0h-1.7m-.7 0h-1.7m-.7 0h-1.7m-.8 0H613m-.7 0h-1.7m-.7 0h-1.7m-.7 0h-1.7m-.7 0h-1.7m-.7 0H601m-.7 0h-1.7M229.8 865.9h-1.7m-.7 0h-1.7m-.7 0h-1.7m-.7 0h-1.7m-.7 0h-1.7m-.7 0h-1.7m-.8 0h-1.1m0-390.7v1m0 .7v1.7"/><path d="M214.2 479.4v1.7m0 .7v1.7m0 .7v1.7m0 .7v1.7m0 .7v1.7m0 .7v1.7m0 .7v1.7m0 .7v1.7m0 .7v1.7m0 .7v1.7m0 .8v1.7m0 .7v1.7m0 .7v1.7m0 .7v1.7m0 .7v1.7m0 .7v1.7m0 .7v1.7m0 .7v1.7m0 .7v1.7m0 .7v1.7m0 .7v1.7m0 .8v1.7m0 .7v1.7m0 .7v1.7m0 .7v1.7m0 .7v1.7m0 .7v1.7m0 .7v1.7m0 .7v1.7m0 .7v1.7m0 .7v1.7m0 .8v1.7m0 .7v1.7m0 .7v1.7m0 .7v1.7m0 .7v1.7m0 .7v1.7m0 .7v1.7m0 .7v1.7m0 .7v1.7m0 .7v1.7m0 .7v1.7m0 .8v1.7m0 .7v1.7m0 .7v1.7m0 .7v1.7m0 .7v1.7m0 .7v1.7m0 .7v1.7m0 .7v1.7m0 .7v1.7m0 .7v1.7m0 .7v1.8m0 .7v1.7m0 .7v1.7m0 .7v1.7m0 .7v1.7m0 .7v1.7m0 .7v1.7m0 .7v1.7m0 .7v1.7m0 .7v1.7m0 .7v1.7m0 .8v1.7m0 .7v1.7m0 .7v1.7m0 .7v1.7m0 .7v1.7m0 .7v1.7m0 .7v1.7m0 .7v1.7m0 .7v1.7m0 .7v1.7m0 .7v1.7m0 .8v1.7m0 .7v1.7m0 .7v1.7m0 .7v1.7m0 .7v1.7m0 .7v1.7m0 .7v1.7m0 .7v1.7m0 .7v1.7m0 .7v1.7m0 .8v1.7m0 .7v1.7m0 .7v1.7m0 .7v1.7m0 .7v1.7m0 .7v1.7m0 .7v1.7m0 .7v1.7m0 .7v1.7m0 .7v1.7m0 .7v1.7m0 .8v1.7m0 .7v1.7m0 .7v1.7m0 .7v1.7m0 .7v1.7m0 .7v1.7m0 .7v1.7m0 .7v1.7m0 .7v1.7m0 .7v1.7m0 .8v1.7m0 .7v1.7m0 .7v1.7m0 .7v1.7m0 .7v1.7m0 .7v1.7m0 .7v1.7m0 .7v1.7m0 .7v1.7m0 .7v1.7m0 .7v1.7m0 .8v1.7m0 .7v1.7m0 .7v1.7m0 .7v1.7m0 .7v1.7m0 .7v1.7m0 .7v1.7m0 .7v1.7m0 .7v1.7m0 .7v1.7m0 .7v1.7m0 .8v1.7m0 .7v1.7m0 .7v1.7m0 .7v1.7m0 .7v1.7m0 .7v1.7m0 .7v1.7m0 .7v1.7m0 .7v1.7m0 .7v1.7m0 .8v1.7m0 .7v1.7m0 .7v1.7m0 .7v1.7m0 .7v1.7m0 .7v1.7m0 .7v1.7m0 .7v1.7m0 .7v1.7m0 .7v1.7m0 .7v1.7m0 .8v1.7m0 .7v1.7m0 .7v1.7m0 .7v1.7m0 .7v1.7m0 .7v1.7m0 .7v1.7m0 .7v1.7m0 .7v1.7m0 .7v1.7m0 .8v1.7m0 .7v1.7m0 .7v1M145-.8V.9m0 .7v1.8m0 .7v1.7m0 .7v1.7m0 .7v1.7m0 .7V13m0 .7v1.7m0 .7v1.7m0 .7v1.7m0 .7v1.7m0 .7V25m0 .7v1.7m0 .8v1.7m0 .7v1.7m0 .7v1.7m0 .7v1.7m0 .7v1.7m0 .7v1.7m0 .7v1.7m0 .7v1.7m0 .7v1.7m0 .7v1.7m0 .7v1.7m0 .8v1.7m0 .7v1.7m0 .7v1.7m0 .7v1.7m0 .7V66m0 .7v1.7m0 .7v1.7m0 .7v1.7m0 .7v1.7m0 .7V78m0 .8v1.7m0 .7v1.7m0 .7v1.7m0 .7v1.7m0 .7v1.7m0 .7v1.7m0 .7v1.7m0 .7v1.7m0 .7v1.7m0 .7v1.7m0 .7v1.7m0 .8v1.7m0 .7v1.7m0 .7v1.7m0 .7v1.7m0 .7v1.7m0 .7v1.7m0 .7v1.7m0 .7v1.7m0 .7v1.7m0 .7v1.7m0 .8v1.7m0 .7v1.7m0 .7v1.7m0 .7v1.7m0 .7v1.7m0 .7v1.7m0 .7v1.7m0 .7v1.7m0 .7v1.7m0 .7v1.7m0 .7v1.7m0 .8v1.7m0 .7v1.7m0 .7v1.7m0 .7v1.7m0 .7v1.7m0 .7v1.7m0 .7v1.7m0 .7v1.7m0 .7v1.7m0 .7v1.7m0 .7v1.7m0 .8v1.7m0 .7v1.7m0 .7v1.7m0 .7v1.7m0 .7v1.7m0 .7v1.7m0 .7v1.7m0 .7v1.7m0 .7v1.7m0 .7v1.7m0 .8v1.7m0 .7v1.7m0 .7v1.7m0 .7v1.7m0 .7v1.7m0 .7v1.7m0 .7v1.7m0 .7v1.7m0 .7v1.7m0 .7v1.7m0 .7v1.7m0 .8v1.7m0 .7v1.7m0 .7v1.7m0 .7v1.7m0 .7v1.7m0 .7v1.7m0 .7v1.7m0 .7v1.7m0 .7v1.7m0 .7v1.7m0 .8v1.7m0 .7v1.7m0 .7v1.7m0 .7v1.7m0 .7v1.7m0 .7v1.7m0 .7v1.7m0 .7v1.7m0 .7v1.7m0 .7v1.7m0 .7v1.7m0 .8v1.7m0 .7v1.7m0 .7v1.7m0 .7v1.7m0 .7v1.7m0 .7v1.7m0 .7v1.7m0 .7v1.7m0 .7v1.7m0 .7v1.7m0 .7v1.7m0 .8v1.7m0 .7v1.7m0 .7v1.7m0 .7v1.7m0 .7v1.7m0 .7v1.7m0 .7v1.7m0 .7v1.7m0 .7v1.7m0 .7v1.7m0 .8v1.7m0 .7v1.7m0 .7v1.7m0 .7v1.7m0 .7v1.7m0 .7v1.7m0 .7v1.7m0 .7v1.7m0 .7v1.7m0 .7v1.7m0 .7v1.7m0 .8v1.7m0 .7v1.7m0 .7v1.7m0 .7v1.7m0 .7v1.7m0 .7v1.7m0 .7v1.7m0 .7v1.7m0 .7v1.7m0 .7v1.7m0 .8v1.7m0 .7v1.7m0 .7v1.7m0 .7v1.7m0 .7v1.7m0 .7v1.7m0 .7v1.7m0 .7v1.7m0 .7v1.7m0 .7v1.7m0 .7v1.7m0 .8v1.7m0 .7v1.7m0 .7v1.7m0 .7v1.7m0 .7v1.7m0 .7v1.7m0 .7v1.7m0 .7v1.7m0 .7v1.7m0 .7v1.7m0 .8v1.7m0 .7v1.7m0 .7v1.7m0 .7v1.7m0 .7v1.7m0 .7v1.7m0 .7v1.7m0 .7v1.7m0 .7v1.7m0 .7v1.7m0 .7v1.7m0 .8v1.7m0 .7v1.7m0 .7v1.7m0 .7v1.7m0 .7v1.7m0 .7v1.3m0 0h.5m.8 0h1.7m.7 0h1.7m.7 0h1.7m.7 0h1.7m.7 0h1.7m.7 0h1.7m.7 0h1.7m.7 0h1.7m.7 0h1.7m.7 0h1.7m.7 0h1.7m.8 0h1.7m.7 0h1.7m.7 0h1.7m.7 0h1.7m.7 0h1.7m.7 0h1.7m.7 0h1.7m.7 0h1.7m.7 0h1.7m.7 0h1.7m.7 0h1.7m.8 0h1.7m.7 0h1.7m.7 0h1.7m.7 0h1.7m.7 0h1.7m.7 0h1.7m.7 0h.5M598.6-.8V.9m0 .7v1.7m0 .7v1.7m0 .7v1.7m0 .7v1.7m0 .7v1.7m0 .7v1.7m0 .7v1.7m0 .7v1.7m0 .8v1.7m0 .7V25m0 .7v1.7m0 .7v1.7m0 .7v1.7m0 .7v1.7m0 .7V37m0 .7v1.7m0 .7v1.7m0 .7v1.7m0 .7v1.7m0 .8v1.7m0 .7v1.7m0 .7v1.7m0 .7v1.7m0 .7v1.7m0 .7v1.7m0 .7v1.7m0 .7v1.7m0 .7v1.7m0 .7v1.7m0 .8v1.7m0 .7v1.7m0 .7V78m0 .7v1.7m0 .7v1.7m0 .7v1.7m0 .7v1.7m0 .7V90m0 .7v1.7m0 .7v1.7m0 .7v1.7m0 .8v1.7m0 .7v1.7m0 .7v1.7m0 .7v1.7m0 .7v1.7m0 .7v1.7m0 .7v1.7m0 .7v1.7m0 .7v1.7m0 .7v1.7m0 .8v1.7m0 .7v1.7m0 .7v1.7m0 .7v1.7m0 .7v1.7m0 .7v1.7m0 .7v1.7m0 .7v1.7m0 .7v1.7m0 .7v1.7m0 .7v1.7m0 .8v1.7m0 .7v1.7m0 .7v1.7m0 .7v1.7m0 .7v1.7m0 .7v1.7m0 .7v1.7m0 .7v1.7m0 .7v1.7m0 .7v1.7m0 .7v1.8m0 .7v1.7m0 .7v1.7m0 .7v1.7m0 .7v1.7m0 .7v1.7m0 .7v1.7m0 .7v1.7m0 .7v1.7m0 .7v1.7m0 .7v1.7m0 .8v1.7m0 .7v1.7m0 .7v1.7m0 .7v1.7m0 .7v1.7m0 .7v1.7m0 .7v1.7m0 .7v1.7m0 .7v1.7m0 .7v1.7m0 .7v1.7m0 .8v1.7m0 .7v1.7m0 .7v1.7m0 .7v1.7m0 .7v1.7m0 .7v1.7m0 .7v1.7m0 .7v1.7m0 .7v1.7m0 .7v1.7m0 .8v1.7m0 .7v1.7m0 .7v1.7m0 .7v1.7m0 .7v1.7m0 .7v1.7m0 .7v1.7m0 .7v1.7m0 .7v1.7m0 .7v1.7m0 .7v1.7m0 .8v1.7m0 .7v1.7m0 .7v1.7m0 .7v1.7m0 .7v1.7m0 .7v1.7m0 .7v1.7m0 .7v1.7m0 .7v1.7m0 .7v1.7m0 .7v1.8m0 .7v1.7m0 .7v1.7m0 .7v1.7m0 .7v1.7m0 .7v1.7m0 .7v1.7m0 .7v1.7m0 .7v1.7m0 .7v1.7m0 .7v1.7m0 .8v1.7m0 .7v1.7m0 .7v1.7m0 .7v1.7m0 .7v1.7m0 .7v1.7m0 .7v1.7m0 .7v1.7m0 .7v1.7m0 .7v1.7m0 .7v1.7m0 .8v1.7m0 .7v1.7m0 .7v1.7m0 .7v1.7m0 .7v1.7m0 .7v1.7m0 .7v1.7m0 .7v1.7m0 .7v1.7m0 .7v1.7m0 .8v1.7m0 .7v1.7m0 .7v1.7m0 .7v1.7m0 .7v1.7m0 .7v1.7m0 .7v1.7m0 .7v1.7m0 .7v1.7m0 .7v1.7m0 .7v1.7m0 .8v1.7m0 .7v1.7m0 .7v1.7m0 .7v1.7m0 .7v1.7m0 .7v1.7m0 .7v1.7m0 .7v1.7m0 .7v1.7m0 .7v1.7m0 .8v1.7m0 .7v1.7m0 .7v1.7m0 .7v1.7m0 .7v1.7m0 .7v1.7m0 .7v1.7m0 .7v1.7m0 .7v1.7m0 .7v1.7m0 .7v1.3m-41.3 16.5h1.4m.7 0h1.7m.7 0h1.7m.7 0h1.7m.7 0h1.7m.7 0h1.7m.7 0h1.7m.8 0h1.7m.7 0h1.7m.7 0h1.7m.7 0h1.7m.7 0h1.7m.7 0h1.7m.7 0h1.7m.7 0h1.7m.7 0h1.7m.7 0h1.7m.8 0h1.7m.7 0h1.7m.7 0h1.7m.7 0h1.7m.7 0h1.7m.7 0h1.7m.7 0h1.7m.7 0h1.7m.7 0h1.7m.7 0h1.7m.7 0h1.7m.8 0h1.7m.7 0h1.3"/><path d="M556.8 503.9h64m-63.5-34v1"/><path d="M557.3 471.6v1.7m0 .7v1.7m0 .7v1.7m0 .7v1.7m0 .7v1.7m0 .7v1.7m0 .7v1.7m0 .7v1.7m0 .7v1.7m0 .7v1.7m0 .8v1.7m0 .7v1.7m0 .7v1.7m0 .7v1m-.5-34v34m32.3-34v1m0 .7v1.7m0 .7v1.7m0 .7v1.7m0 .7v1.7m0 .7v1.7m0 .7v1.7m0 .7v1.7m0 .7v1.7m0 .7v1.7m0 .7v1.7m0 .8v1.7m0 .7v1.7m0 .7v1.7m0 .7v1m-.6-34v34m8.5-34v1m0 .7v1.7m0 .7v1.7m0 .7v1.7m0 .7v1.7m0 .7v1.7m0 .7v1.7m0 .7v1.7m0 .7v1.7m0 .7v1.7m0 .7v1.7m0 .8v1.7m0 .7v1.7m0 .7v1.7m0 .7v1m-.5-34v34m8.5-34v1m0 .7v1.7m0 .7v1.7m0 .7v1.7m0 .7v1.7m0 .7v1.7m0 .7v1.7m0 .7v1.7m0 .7v1.7m0 .7v1.7m0 .7v1.7m0 .8v1.7m0 .7v1.7m0 .7v1.7m0 .7v1m-.6-34v34m8.5-34v1m0 .7v1.7m0 .7v1.7m0 .7v1.7m0 .7v1.7m0 .7v1.7m0 .7v1.7m0 .7v1.7m0 .7v1.7m0 .7v1.7m0 .7v1.7m0 .8v1.7m0 .7v1.7m0 .7v1.7m0 .7v1m-.6-34v34m7.4 19.3v.9m0 .8v1.7m0 .7v1.7m0 .7v1.7m0 .7v1.7m0 .7v1.7m0 .7v1.7m0 .7v1.7m0 .7v1.7m0 .7v1.7m0 .7v1.7m0 .7v1.7m0 .8v1.7m0 .7v1.7m0 .7v1m.6-34v34m-8.5-34v.9m0 .8v1.7m0 .7v1.7m0 .7v1.7m0 .7v1.7m0 .7v1.7m0 .7v1.7m0 .7v1.7m0 .7v1.7m0 .7v1.7m0 .7v1.7m0 .7v1.7m0 .8v1.7m0 .7v1.7m0 .7v1m.5-34v34m-8.5-34v.9m0 .8v1.7m0 .7v1.7m0 .7v1.7m0 .7v1.7m0 .7v1.7m0 .7v1.7m0 .7v1.7m0 .7v1.7m0 .7v1.7m0 .7v1.7m0 .7v1.7m0 .8v1.7m0 .7v1.7m0 .7v1m.6-34v34m-8.5-34v.7m0 .7v1.7m0 .8v1.7m0 .7v1.7m0 .7v1.7m0 .7v.8m.6-11.9v15.3m-8.5-15.3v.9m0 .8v1.7m0 .7v1.7m0 .7v1.7m0 .7v1.7m0 .7v1.7m0 .7v1.7m0 .7v1.7m0 .7v1.7m0 .7v1.7m0 .7v1.7m0 .7v1.7m0 .8v1.7m0 .7v1.7m0 .7v1m-39.2-34h1.2m.7 0h1.7m.7 0h1.7m.7 0h1.7m.7 0h1.7m.7 0h1.7m.7 0h1.7m.7 0h1.7m.7 0h1.7m.8 0h1.7m.7 0h1.7m.7 0h1.7m.7 0h1.7m.7 0h1.7m.7 0h1.7m.7 0h1.7m.7 0h1.7m.7 0h1.7m.7 0h1.2m-44 34h1.6m.7 0h1.7m.7 0h1.7m.7 0h1.7m.7 0h1.7m.7 0h1.7m.8 0h1.7m.7 0h1.7"/><path d="M568 557.2h1.7m.7 0h1.7m.7 0h1.7m.7 0h1.7m.7 0h1.7m.7 0h1.7m.7 0h1.7m.7 0h1.7m.7 0h1.8m.7 0h1.7m.7 0h1.7m.7 0h1.7m.7 0h1.5m-18.4-34v.9m0 .8v1.7m0 .7v1.7"/><path d="M580 529.7v1.7m0 .7v1.7m0 .7v1.7m0 .7v1.7m0 .7v1.7m0 .7v1.7m0 .7v1.7m0 .7v1.7m0 .7v1.7m0 .8v1.7m0 .7v1.7m0 .7v1m-7.9-34v.9m0 .8v1.7m0 .7v1.7m0 .7v1.7m0 .7v1.7m0 .7v1.7m0 .7v1.7m0 .7v1.7m0 .7v1.7m0 .7v1.7m0 .7v1.7m0 .7v1.7m0 .8v1.7m0 .7v1.7m0 .7v1m-15.9-34v.9m0 .8v1.7m0 .7v1.7m0 .7v1.7m0 .7v1.7m0 .7v1.7m0 .7v1.7m0 .7v1.7m0 .7v1.7m0 .7v1.7m0 .7v1.7m0 .7v1.7m0 .8v1.7m0 .7v1.7m0 .7v1m67.5-34v.9m0 .8v1.7m0 .7v1.7m0 .7v1.7m0 .7v1.7m0 .7v1.7m0 .7v1.7m0 .7v1.7m0 .7v1.7m0 .7v1.7m0 .7v1.7m0 .7v1.7m0 .8v1.7m0 .7v1.7m0 .7v1m-74.9-34v.9m0 .8v1.7m0 .7v1.7m0 .7v1.7m0 .7v1.7m0 .7v1.7m0 .7v1.7m0 .7v1.7m0 .7v1.7m0 .7v1.7m0 .7v1.7m0 .7v1.7m0 .8v1.7m0 .7v1.7m0 .7v1m79.4-87.3v1m0 .7v1.7m0 .7v1.7m0 .7v1.7m0 .7v1.7m0 .7v1.7m0 .7v1.7m0 .7v1.7m0 .7v1.7m0 .7v1.7m0 .7v1.7m0 .8v1.7m0 .7v1.7m0 .7v1.7m0 .7v1m-174.5 45.3h-28.9m36.3-28.9v.9m0 .7v1.7m0 .7v1.7m0 .7v1.7m0 .7v1.7m0 .7v1.7m0 .7v1.7m0 .7v1.7"/><path d="M461.1 538.7v1.7m0 .8v1.7m0 .7v1.7m0 .7v1.7m0 .7v.8m-8.5-31.7v1.3m0 .7v1.7m0 .7v1.7m0 .7v1.7m0 .7v1.7m0 .7v1.7m0 .7v1.7m0 .7v1.7m0 .7v1.7m0 .7v1.7m0 .8v1.7m0 .7v1.7m0 .7v1.7m0 .7v1.7m0 .7v1.3m168.2-82.2v1m0 .7v1.7m0 .7v1.7m0 .7v1.7m0 .7v1.7m0 .7v1.7m0 .7v1.7m0 .7v1.7m0 .7v1.7m0 .7v1.7m0 .7v1.7m0 .8v1.7m0 .7v1.7m0 .7v1.7m0 .7v1m-.5-34v34m34.6-34v1.1m0 .7v1.7m0 .7v1.7m0 .7v1.7m0 .7v1.7m0 .7v1.7m0 .8v1.7m0 .7v1.7m0 .7v1.7m0 .7v1.7m0 .7v1.7m0 .7v1.7m0 .7v1.7m0 .7v1.7m0 .7v1.7m0 .7v1.7m0 .7v1.7m0 .8v1.7m0 .7v1.7m0 .7v1.7m0 .7v1.7m0 .7v1.7m0 .7v1.7m0 .7v1.7m0 .7v1.7m0 .7v1.7m0 .7v1.7m0 .8v1.7m0 .7v1.7m0 .7v1.7m0 .7v1.7m0 .7v1.7m0 .7v1.7m0 .7v1.7m0 .7v1.7m0 .7v1.7m0 .7v1.2m-34.1-52.8v18.2m34.1-14.8h-1m-.7 0h-1.7m-.8 0H649m-.7 0h-1.7m-.7 0h-1.7m-.7 0h-1.7m-.7 0h-1.7m-.7 0H637m-.7 0h-1.7m-.7 0h-1.7m-.7 0h-1.7m-.7 0h-1.7m-.7 0H625m-.8 0h-1.7m-.7 0h-1m34.1-.5h-34.1m34.1 8.5h-1m-.7 0h-1.7m-.8 0H649m-.7 0h-1.7m-.7 0h-1.7m-.7 0h-1.7m-.7 0h-1.7m-.7 0H637m-.7 0h-1.7m-.7 0h-1.7m-.7 0h-1.7m-.7 0h-1.7m-.7 0H625m-.8 0h-1.7m-.7 0h-1m34.1-.6h-34.1m34.1-45.3h-.7m-.7 0h-1.7m-.7 0h-1.7m-.7 0H647m-.7 0h-1.7m-.7 0h-1.7m-.7 0h-1.7m-.7 0h-1.7m-.8 0h-1.7m-.7 0h-1.7m-.7 0h-1.7m-.7 0h-.6m0 34.5h-1.2m-.7 0h-1.7"/><path d="M624.5 504.4h-1.7m-.8 0h-1.2m8-34.5v1.2m0 .7v1.7m0 .8v1.7m0 .7v1.7m0 .7v1.7m0 .7v1.7m0 .7v1.7m0 .7v1.7m0 .7v1.7m0 .7v1.7m0 .7v1.7m0 .7v1.7m0 .8v1.7m0 .7v1.7m0 .7v1.2m-3.4-34.5v1.2m0 .7v1.7m0 .8v1.7m0 .7v1.7m0 .7v1.7m0 .7v1.7m0 .7v1.7m0 .7v1.7m0 .7v1.7m0 .7v1.7m0 .7v1.7m0 .7v1.7m0 .8v1.7m0 .7v1.7m0 .7v1.2"/><path d="M620.8 503.9h1m.7 0h1.7m.7 0h1.7m.7 0h.9m-7.9 19.3h1.3m.7 0h1.4m31.2 34h-1.7m-.8 0h-1.7m-.7 0h-1.7m-.7 0h-1.7m-.7 0h-1.7m-.7 0h-1.7m-.7 0h-1.7m-.7 0h-1.7m-.7 0h-1.7m-.7 0h-1.7m-.7 0h-1.7m-.7 0h-1.7m-.8 0h-1.7m0-34.6h-1.3"/><path d="M622.2 522.6h-1.4m3.4 34.6v-1.3m0-.7v-1.7m0-.7v-1.7m0-.7v-1.7m0-.7v-1.7m0-.8v-1.7m0-.7v-1.7m0-.7V539m0-.7v-1.7m0-.7v-1.7m0-.7v-1.7m0-.7v-1.7m0-.7V527m0-.7v-1.7m0-.7v-1.3m-3.4 34.6v-1.3m0-.7v-1.7m0-.7v-1.7m0-.7v-1.7m0-.7v-1.7m0-.8v-1.7m0-.7v-1.7m0-.7V539m0-.7v-1.7m0-.7v-1.7m0-.7v-1.7m0-.7v-1.7m0-.7V527m0-.7v-1.7m0-.7v-1.3m-72.5 35.1v-1.5m0-.7v-1.7m0-.7v-1.7m0-.8v-1.7m0-.7v-1.7m0-.7v-1.7m0-.7v-1.7m0-.7v-1.7m0-.7v-1.7m0-.7v-1.7m0-.7v-1.7m0-.7v-1.7m0-.7v-1.7m0-.7v-1.7m0-.8v-1.5m3.4 35.1v-1.5m0-.7v-1.7m0-.7v-1.7m0-.8v-1.7m0-.7v-1.7m0-.7v-1.7m0-.7v-1.7m0-.7v-1.7m0-.7v-1.7m0-.7v-1.7m0-.7v-1.7m0-.7v-1.7m0-.7v-1.7m0-.7v-1.7m0-.8v-1.5m-3.4 0h1.2m.7 0h1.7m.7 0h1.7m.7 0h1.2m0 0v-.6m0-.7v-1.7m0-.7v-1.7m0-.7v-1.7m0-.7v-1.7m0-.7V510m0-.7v-1.7m0-.7v-1.7m0-.8v-.5m4 1.1h59.5m0 0v1.1"/><path d="M619.7 506.1h-59.5m0 0V505m33.3 15.9h26.2m0 0v1.1"/><path d="M619.7 522h-26m26-2.2h-1.1m0 0v-12.5m0 0h1.1m0 0v12.5m-71.6-50.5h-.8m-.7 0h-1.7m-.7 0h-1.7m-.7 0h-1.7m-.8 0h-1.7m-.7 0h-1.7m-.7 0h-1.7m-.7 0h-1.7m-.7 0H528m-.7 0h-1.7m-.7 0h-1.7m-.7 0h-1.7m-.7 0h-.9m31.8-8.5h-1.3m-.7 0h-1.7m-.7 0h-1.7m-.7 0h-1.7m-.7 0h-1.7m-.8 0h-1.7m-.7 0h-1.7m-.7 0h-1.7m-.7 0h-1.7m-.7 0H528m-.7 0h-1.7m-.7 0h-1.7m-.7 0h-1.7m-.7 0h-1.7m-.7 0h-1.3m47.7 62.4v.9m0 .8v1.7m0 .7v1.7m0 .7v1.7m0 .7v1.7m0 .7v1.7m0 .7v1.7m0 .7v1.7m0 .7v1.7m0 .7v1.7m0 .7v1.7m0 .7v1.7m0 .8v1.7m0 .7v1.7m0 .7v1m17.1-87.3v1m0 .7v1.7m0 .7v1.7m0 .7v1.7m0 .7v1.7m0 .7v1.7m0 .7v1.7m0 .7v1.7m0 .7v1.7m0 .7v1.7m0 .7v1.7m0 .8v1.7m0 .7v1.7m0 .7v1.7m0 .7v1m-.6-34v34m-7.4-34v1m0 .7v1.7m0 .7v1.7m0 .7v1.7m0 .7v1.7m0 .7v1.7m0 .7v1.7m0 .7v1.7m0 .7v1.7m0 .7v1.7m0 .7v1.7m0 .8v1.7m0 .7v1.7m0 .7v1.7m0 .7v1m-.5-34v34m-7.4-34v1m0 .7v1.7m0 .7v1.7m0 .7v1.7m0 .7v1.7m0 .7v1.7m0 .7v1.7m0 .7v1.7m0 .7v1.7m0 .7v1.7m0 .7v1.7m0 .8v1.7m0 .7v1.7m0 .7v1.7m0 .7v1m-.6-34v34m34.9 53.3l-6.3-37.4m5.1 37.4l-6.2-37.4"/><path d="M595.9 541.9v1.2m0 .7v1.7m0 .8v1.7m0 .7v1.7m0 .7v1.7m0 .7v1.7m0 .7v1.3m-2-34h26.4m-20.7 34h.8m.7 0h1.7m.7 0h1.7m.8 0h1.7m.7 0h1.7m.7 0h1.7m.7 0h1.7m.7 0h1.7m.7 0h1.7m.7 0h1.7m.7 0h.9m-75.3-407.9v-1m0-.7v-1.7m0-.7v-1.7m0-.8V141m0-.7v-1.7m0-.7v-1.7m0-.7v-1.7m0-.7v-1.7m0-.7V129m0-.7v-1.7m0-.7v-1.7m0-.7v-1.7m0-.7v-1.7m0-.8v-1.7m0-.7v-1m.6 34.1v-34.1m-64.1 34.1v-1m0-.7v-1.7m0-.7v-1.7m0-.8V141m0-.7v-1.7m0-.7v-1.7m0-.7v-1.7m0-.7v-1.7m0-.7V129m0-.7v-1.7m0-.7v-1.7m0-.7v-1.7m0-.7v-1.7m0-.8v-1.7m0-.7v-1m.6 34.1v-34.1m-8.5 34.1v-1m0-.7v-1.7m0-.7v-1.7m0-.8V141m0-.7v-1.7m0-.7v-1.7m0-.7v-1.7m0-.7v-1.7m0-.7V129m0-.7v-1.7m0-.7v-1.7m0-.7v-1.7m0-.7v-1.7m0-.8v-1.7m0-.7v-1m.5 34.1v-34.1m-8.5 34.1v-.8m0-.7v-1.7m0-.7v-1.7m0-.7v-1.7m0-.8v-1.7m0-.7v-.7m.6 11.9V134m-8.5 15.3v-1m0-.7v-1.7m0-.7v-1.7m0-.8V141m0-.7v-1.7m0-.7v-1.7m0-.7v-1.7m0-.7v-1.7m0-.7V129m0-.7v-1.7m0-.7v-1.7m0-.7v-1.7m0-.7v-1.7m0-.8v-1.7m0-.7v-1M422 149.3h.9m.7 0h1.7m.7 0h1.7m.7 0h1m-7.4-34.1h1.5m.8 0h1.7m.7 0h1.7m.7 0h1.7m.7 0h1.7m.7 0h1.7m.7 0h1.7m.7 0h1.7m.7 0h1.7m.7 0h1.7m.7 0h1.7m.8 0h1.7m.7 0h1.7m.7 0h1.7m.7 0h1.7m.7 0h1.7m.7 0h1.7m.7 0h1.7m.7 0h1.7m.7 0h1.7m.7 0h1.6m-18.4 34.1v-1m0-.7v-1.7m0-.7v-1.7m0-.8V141m0-.7v-1.7m0-.7v-1.7m0-.7v-1.7m0-.7v-1.7m0-.7V129m0-.7v-1.7m0-.7v-1.7m0-.7v-1.7m0-.7v-1.7m0-.8v-1.7"/><path d="M453.2 116.2v-1m-15.9 34.1v-1m0-.7v-1.7m0-.7v-1.7m0-.8V141m0-.7v-1.7m0-.7v-1.7m0-.7v-1.7m0-.7v-1.7m0-.7V129m0-.7v-1.7m0-.7v-1.7m0-.7v-1.7m0-.7v-1.7m0-.8v-1.7m0-.7v-1m-7.9 34.1v-1m0-.7v-1.7m0-.7v-1.7m0-.8V141m0-.7v-1.7m0-.7v-1.7m0-.7v-1.7m0-.7v-1.7m0-.7V129m0-.7v-1.7m0-.7v-1.7m0-.7v-1.7m0-.7v-1.7m0-.8v-1.7m0-.7v-1m127.5 34.1v-1m0-.7v-1.7m0-.7v-1.7m0-.8V141m0-.7v-1.7m0-.7v-1.7m0-.7v-1.7m0-.7v-1.7m0-.7V129m0-.7v-1.7m0-.7v-1.7m0-.7v-1.7m0-.7v-1.7m0-.8v-1.7m0-.7v-1M422 149.3v-1m0-.7v-1.7m0-.7v-1.7m0-.8V141m0-.7v-1.7m0-.7v-1.7m0-.7v-1.7m0-.7v-1.7m0-.7V129m0-.7v-1.7m0-.7v-1.7m0-.7v-1.7m0-.7v-1.7m0-.8v-1.7m0-.7v-1m127 34.1h1.2m.7 0h1.7m.7 0h1.7"/><path d="M555.7 149.3h1.2m-135.5-34.6v1.5m0 .7v1.7m0 .8v1.7m0 .7v1.7m0 .7v1.7m0 .7v1.7m0 .7v1.7m0 .7v1.7m0 .7v1.7m0 .7v1.7m0 .7v1.7m0 .7v1.7m0 .8v1.7m0 .7v1.7m0 .7v1.5"/><path d="M424.8 114.7v1.5m0 .7v1.7m0 .8v1.7m0 .7v1.7m0 .7v1.7m0 .7v1.7m0 .7v1.7m0 .7v1.7m0 .7v1.7m0 .7v1.7m0 .7v1.7m0 .7v1.7m0 .8v1.7m0 .7v1.7m0 .7v1.5m-3.4 0h1.2m.7 0h1.7m.7 0h1.7m.8 0h1.2m0 8.5h.4m.7 0h1.7m.7 0h1.7m.7 0h1.7m.7 0h1.7m.7 0h1.7m.7 0h1.7m.8 0h1.7m.7 0h1.7m.7 0h1.7m.7 0h1.7m.7 0h1.7m.7 0h1.7m.7 0h1.7m.7 0h1.7m.7 0h1.7m.7 0h1.7m.7 0h1.7m.8 0h1.7m.7 0h1.7m.7 0h1.7m.7 0h1.7m.7 0h1.7m.7 0h1.7m.7 0h1.7m.7 0h1.7m.7 0h1.7m.7 0h1.7m.8 0h1.7m.7 0h1.7m.7 0h1.7m.7 0h1.7m.7 0h1.7m.7 0h1.7m.7 0h1.7m.7 0h1.7m.7 0h1.7m.7 0h1.7m.7 0h1.7m.8 0h1.7m.7 0h1.7m.7 0h1.7m.7 0h1.7m.7 0h1.7m.7 0h1.7"/><path d="M536.5 158.3h1.7m.7 0h1.7m.7 0h1.7m.7 0h1.7m.7 0h1.7m.8 0h.4m-119.6-8.5v1.5m0 .7v1.7m0 .7v1.7m0 .7v1.5m103.1-9v-1m0-.7v-1.7m0-.7v-1.7m0-.8V141m0-.7v-1.7m0-.7v-1.7m0-.7v-1.7m0-.7v-1.7m0-.7V129m0-.7v-1.7m0-.7v-1.7m0-.7v-1.7m0-.7v-1.7m0-.8v-1.7m0-.7v-1m.6 34.1v-34.1m-8.5 34.1v-1m0-.7v-1.7m0-.7v-1.7m0-.8V141m0-.7v-1.7m0-.7v-1.7m0-.7v-1.7m0-.7v-1.7m0-.7V129m0-.7v-1.7m0-.7v-1.7m0-.7v-1.7m0-.7v-1.7m0-.8v-1.7m0-.7v-1m.6 34.1v-34.1m-8.5 34.1v-1m0-.7v-1.7m0-.7v-1.7m0-.8V141m0-.7v-1.7m0-.7v-1.7m0-.7v-1.7m0-.7v-1.7m0-.7V129m0-.7v-1.7m0-.7v-1.7m0-.7v-1.7m0-.7v-1.7m0-.8v-1.7m0-.7v-1m.5 34.1v-34.1m-8.5 34.1v-1m0-.7v-1.7m0-.7v-1.7m0-.8V141m0-.7v-1.7m0-.7v-1.7m0-.7v-1.7m0-.7v-1.7m0-.7V129m0-.7v-1.7m0-.7v-1.7m0-.7v-1.7m0-.7v-1.7m0-.8v-1.7m0-.7v-1m.6 34.1v-34.1m-8.5 34.1v-1m0-.7v-1.7m0-.7v-1.7m0-.8V141m0-.7v-1.7m0-.7v-1.7m0-.7v-1.7m0-.7v-1.7m0-.7V129m0-.7v-1.7m0-.7v-1.7m0-.7v-1.7m0-.7v-1.7m0-.8v-1.7m0-.7v-1m.6 34.1v-34.1m-8.5 34.1v-1m0-.7v-1.7m0-.7v-1.7m0-.8V141m0-.7v-1.7m0-.7v-1.7m0-.7v-1.7m0-.7v-1.7m0-.7V129m0-.7v-1.7m0-.7v-1.7m0-.7v-1.7m0-.7v-1.7m0-.8v-1.7m0-.7v-1m.5 34.1v-34.1m47.1 34.1v-1m0-.7v-1.7m0-.7v-1.7m0-.8V141m0-.7v-1.7m0-.7v-1.7m0-.7v-1.7m0-.7v-1.7m0-.7V129m0-.7v-1.7m0-.7v-1.7m0-.7v-1.7m0-.7v-1.7m0-.8v-1.7m0-.7v-1m.5 34.1v-34.1m-111.6 34.1h1m.7 0h1.7m.7 0h1.7m.8 0h1.7m.7 0h1.7m.7 0h1.7m.7 0h1.7m.7 0h1.7m.7 0h1.7m.7 0h1.7m.7 0h1.7m.7 0h1.7m.7 0h1.7m.7 0h1.7m.8 0h1.7m.7 0h1m-20.7 0v-1m0-.7v-1.7m0-.7v-1.7m0-.8V141m0-.7v-1.7m0-.7v-1.7m0-.7v-1.7m0-.7v-1.7m0-.7V129m0-.7v-1.7m0-.7v-1.7m0-.7v-1.7m0-.7v-1.7m0-.8v-1.7m0-.7v-1m68.3 449.6h-1.7m-.7 0h-1.7m-.7 0H507m-.7 0h-1.7m-.7 0h-1.7m-.7 0h-1.7m-.7 0h-1.7m-.7 0H495m-.7 0h-1.7m-.7 0h-1.7m-.7 0h-1.7m-.8 0h-1.7m-.7 0h-1.7m-.7 0h-1.7m-.7 0h-1.7m35.4-7.1h-1.7m-.7 0h-1.7m-.7 0H507m-.7 0h-1.7m-.7 0h-1.7m-.7 0h-1.7m-.7 0h-1.7m-.7 0H495m-.7 0h-1.7m-.7 0h-1.7m-.7 0h-1.7m-.8 0h-1.7m-.7 0h-1.7m-.7 0h-1.7m-.7 0h-1.7M319.9 211.1v1m0 .7v1.7m0 .7v1.7m0 .7v1.8m0 .7v1.7m0 .7v1.7m0 .7v1.7m0 .7v1.7m0 .7v1.7m0 .7v1.7m0 .7v1.7m0 .7v1.7m0 .7v1.7m0 .7v1.7m0 .8v1.7m0 .7v1.7m0 .7v1.7m0 .7v1.7m0 .7v1.7m0 .7v1.7m0 .7v1.7m0 .7v1.7m0 .7v1.7m0 .7v1.7m0 .7v1.7m0 .8v1.7m0 .7v1.7m0 .7v1.7m0 .7v1.7m0 .7v1.7m0 .7v1.7m0 .7v1.7m0 .7v1.7m0 .7v1.7m0 .7v1.7m0 .8v1.7m0 .7v1.7m0 .7v1.7m0 .7v1.7m0 .7v1.7m0 .7v1.7m0 .7v1.7m0 .7v1.7m0 .7v1.7m0 .7v1.7m0 .7v1.7m0 .8v1.7m0 .7v1.7m0 .7v1.7m0 .7v1.7m0 .7v1.7m0 .7v1.7m0 .7v1.7m0 .7v1.7m0 .7v1.7m0 .7v1.7m0 .7v1.8m0 .7v1.7m0 .7v1.7m0 .7v1.7m0 .7v1.7m0 .7v1.7m0 .7v1.7m0 .7v1.7m0 .7v1.7m0 .7v1.7m0 .7v1.7m0 .8v1.7m0 .7v1.7m0 .7v1.7m0 .7v1.7m0 .7v1.7m0 .7v1.7m0 .7v1.7m0 .7v1.7m0 .7v1.7m0 .7v1.7m0 .7v1.7m0 .8v1.7m0 .7v1.7m0 .7v1.7m0 .7v1.7m0 .7v1.7m0 .7v1.7m0 .7v1.7m0 .7v1.7m0 .7v1.7m0 .7v1.7m0 .8v1.7m0 .7v1.7m0 .7v1.7m0 .7v1.7m0 .7v1.7m0 .7v1.7m0 .7v1.7m0 .7v1.7m0 .7v1.7m0 .7v1.7m0 .7v1.7m0 .8v1.7m0 .7v1.7m0 .7v1.7m0 .7v1.7m0 .7v1.7m0 .7v1.7m0 .7v1.7m0 .7v1.7m0 .7v1.1M316 215v1.3m0 .7v1.7m0 .7v1.7m0 .7v1.7m0 .7v1.7m0 .7v1.7m0 .8v1.7m0 .7v1.7m0 .7v1.7m0 .7v1.7m0 .7v1.7m0 .7v1.7m0 .7v1.7m0 .7v1.7m0 .7v1.7m0 .7v1.7m0 .8v1.7m0 .7v1.7m0 .7v1.7m0 .7v1.7m0 .7v1.7m0 .7v1.7m0 .7v1.7m0 .7v1.7m0 .7v1.7m0 .7v1.7m0 .7v1.7m0 .8v1.7m0 .7v1.7m0 .7v1.7m0 .7v1.7m0 .7v1.7m0 .7v1.7m0 .7v1.7m0 .7v1.7m0 .7v1.7m0 .7v1.7m0 .8v1.7m0 .7v1.7m0 .7v1.7m0 .7v1.7m0 .7v1.7m0 .7v1.7m0 .7v1.7m0 .7v1.7m0 .7v1.7m0 .7v1.7m0 .7v1.7m0 .8v1.7m0 .7v1.7m0 .7v1.7m0 .7v1.7m0 .7v1.7m0 .7v1.7m0 .7v1.7m0 .7v1.7m0 .7v1.7m0 .7v1.7m0 .8v1.7m0 .7v1.7m0 .7v1.7m0 .7v1.7m0 .7v1.7m0 .7v1.7m0 .7v1.7m0 .7v1.7m0 .7v1.7m0 .7v1.7m0 .7v1.7m0 .8v1.7m0 .7v1.7m0 .7v1.7m0 .7v1.7m0 .7v1.7m0 .7v1.7m0 .7v1.7m0 .7v1.7m0 .7v1.7m0 .7v1.7m0 .7v1.7m0 .8v1.7m0 .7v1.7m0 .7v1.7m0 .7v1.7m0 .7v1.7m0 .7v1.7m0 .7v1.7m0 .7v1.7m0 .7v1.7m0 .7v1.7m0 .8v1.2m-163.6 35.2v-.8m0-.7v-1.7"/><path d="M152.4 464v-1.7m0-.7v-1.7m0-.7v-1.7m0-.7v-1.7m0-.8v-1.7m0-.7v-1.7m0-.7v-1.7m0-.7v-1.7m0-.7V443m0-.7v-1.7m0-.7v-1.7m0-.7v-.8M591.2-.9V.8m0 .7v1.7m0 .7v1.7m0 .7V8m0 .7v1.7m0 .7v1.7m0 .8v1.7m0 .7v1.7m0 .7v1.7m0 .7v1.7m0 .7v1.7m0 .7v1.7m0 .7v1.7m0 .7v1.7m0 .7v1.7m0 .7v1.7m0 .7v1.8m0 .7v1.7m0 .7v1.7m0 .7v1.7m0 .7V49m0 .7v1.7m0 .7v1.7m0 .7v1.7m0 .7v1.7m0 .7V61m0 .7v1.7m0 .8v1.7m0 .7v1.7m0 .7v1.7m0 .7v1.7m0 .7v1.7m0 .7v1.7m0 .7v1.7m0 .7v1.7m0 .7v1.7m0 .7v1.7m0 .7v1.7m0 .8v1.7m0 .7v1.7m0 .7v1.7m0 .7v1.7m0 .7v1.7m0 .7v1.7m0 .7v1.1M221.6 467.9h-.5m-.7 0h-1.7m-.7 0h-1.7m-.7 0h-1.7m-.8 0h-1.7m-.7 0H209m-.7 0h-1.7m-.7 0h-1.7m-.7 0h-1.7m-.7 0h-1.7m-.7 0H197m-.7 0h-1.7m-.7 0h-1.7m-.7 0h-1.7m-.7 0h-1.7m-.8 0h-1.7m-.7 0h-1.7m-.7 0h-1.7m-.7 0h-1.7m-.7 0h-1.7m-.7 0h-1.7m-.7 0h-1.7m-.7 0h-1.7m-.7 0h-1.7m-.7 0h-1.7m-.8 0h-1.7m-.7 0h-1.7m-.7 0H156m-.7 0h-1.7m-.7 0h-.5m76.3 243.2h243.7"/><path d="M230.1 895.9h522.7M309.5 569.4v141.7"/><path d="M386.7 569.4v141.7"/></g><path d="M240 1037.9v-2.2" class="h i"/><path d="M309.5 1037.9v-142m77.2 142v-142" class="V W"/><path d="M687.9 567.7v.8" class="h i"/><g class="V W"><path d="M695.7 569.4v141.7m-77.3-141.7v141.7m-99.2 0h233.6m-280.4-42.2v42.2m8.6-47.9h29.4m-29.4 5.7h1.1m.7 0h1.7m.7 0h1.7m.7 0h1.7m.7 0h1.7m.7 0h1.7m.7 0h1.7m.8 0h1.7m.7 0h1.7m.7 0h1.7m.7 0h1.7"/><path d="M506.9 668.9h1.7m.7 0h1.1m8.8 0v42.2m-351.8 69.2v1.4m0 .7v1.7m0 .7v1.7m0 .7v1.7m0 .7v1.7m0 .7v1.7m0 .7v1.7m0 .7v1.7m0 .7v1.7m0 .8v1.7m0 .7v1.7m0 .7v1.7m0 .7v1.7m0 .7v1.7m0 .7v1.7m0 .7v1.7m0 .7v1.7m0 .7v1.7m0 .7v1.7m0 .8v1.7m0 .7v1.7m0 .7v1.7m0 .7v1.7m0 .7v1.7m0 .7v1.7m0 .7v1.7m0 .7v1.4m7.1-70.8v1.2m0 .8v1.7m0 .7v1.7m0 .7v1.7m0 .7v1.7m0 .7v1.7m0 .7v1.7m0 .7v1.7m0 .7v1.7m0 .7v1.7m0 .7v1.7m0 .7v1.7m0 .8v1.7m0 .7v1.7m0 .7v1.7m0 .7v1.7m0 .7v1.7m0 .7v1.7m0 .7v1.7m0 .7v1.7m0 .7v1.7m0 .7v1.7m0 .8v1.7m0 .7v1.7m0 .7v1.7m0 .7v1.7m0 .7v1.7m0 .7v1.7m0 .7v1.7m0 .7v1.7m0 .7v1.7m0 .7v1.7m0 .7v1.3m55.6-8.5h.8m413.6-274.2v-1.7m0-.7v-1.2M221.6 858.5h1m.7 0h1.7m.7 0h1.7m.7 0h1.7m430.6-290.6v-1.7m0-.7v-.7M221.6 773.2v1.2m0 .8v1.7m0 .7v1.7m0 .7v1.7m0 .7v1.7m0 .7v1.7m0 .7v1.7m0 .7v1.7m0 .7v1.7m0 .7v1.7m0 .7v1.7m0 .7v1.7m0 .8v1.7m0 .7v1.7m0 .7v1.7m0 .7v1.7m0 .7v1.7m0 .7v1.7m0 .7v1.7m0 .7v1.7m0 .7v1.7m0 .7v1.7m0 .8v1.7m0 .7v1.7m0 .7v1.7m0 .7v1.7m0 .7v1.7m0 .7v1.7m0 .7v1.7m0 .7v1.7m0 .7v1.7m0 .7v1.7m0 .7v1.3m242.3 186.8v-142m77.3 142v-142m77.2 142v-142m77.3 142v-142"/></g><path d="M463.9 711.1V709m0-1.5v-2.8m0-1.4v-2.8m0-1.5v-2.8m0-1.4V692m0-1.5v-2.8m0-1.4v-2.8m0-1.5v-2.8m0-1.4v-2.9m0-1.4v-2.8m0-1.4v-2.9m0-1.4v-2.8m0-1.4v-2.9m0-1.4v-2.8m0-1.4v-2.9m0-1.4v-2.8m0-1.4v-2.9m0-1.4v-2.8m0-1.4v-2.9m0-1.4v-2.8m0-1.4v-2.9m0-1.4v-2.8m0-1.4v-2.9m0-1.4v-2.8m0-1.4v-2.9m0-1.4v-2.8m0-1.5v-2.8m0-1.4v-2.8m0-1.5v-2.8m0-1.4v-2.8m0-1.5v-2.8m0-1.4v-2.8m0-1.5v-2.8m0-1.4v-2.1m-69.4 141.7V709m0-1.5v-2.8m0-1.4v-2.8m0-1.5v-2.8m0-1.4V692m0-1.5v-2.8m0-1.4v-2.8m0-1.5v-2.8m0-1.4v-2.9m0-1.4v-2.8m0-1.4v-2.9m0-1.4v-2.8m0-1.4v-2.9m0-1.4v-2.8m0-1.4v-2.9m0-1.4v-2.8m0-1.4v-2.9m0-1.4v-2.8m0-1.4v-2.9m0-1.4v-2.8m0-1.4v-2.9m0-1.4v-2.8m0-1.4v-2.9m0-1.4v-2.8m0-1.4v-2.9m0-1.4v-2.8m0-1.5v-2.8m0-1.4v-2.8m0-1.5v-2.8m0-1.4v-2.8m0-1.5v-2.8m0-1.4v-2.8m0-1.5v-2.8m0-1.4v-2.1m-154.5 0v2.1m0 1.4v2.8m0 1.5v2.8m0 1.4v2.8m0 1.5v2.8m0 1.4v2.8m0 1.5v2.8m0 1.4v2.8m0 1.5v2.8m0 1.4v2.9m0 1.4v2.8m0 1.4v2.9m0 1.4v2.8m0 1.4v2.9m0 1.4v2.8m0 1.4v2.9m0 1.4v2.8m0 1.4v2.9m0 1.4v2.8m0 1.4v2.9m0 1.4v2.8m0 1.4v2.9m0 1.4v2.8m0 1.4v2.9m0 1.4v2.8m0 1.4v2.9m0 1.4v2.8m0 1.5v2.8m0 1.4v2.8m0 1.5v2.8m0 1.4v2.8m0 1.5v2.8m0 1.4v2.8m0 1.5v2.1m138.9 0V709m0-1.5v-2.8m0-1.4v-2.8m0-1.5v-2.8m0-1.4V692m0-1.5v-2.8m0-1.4v-2.8m0-1.5v-2.8m0-1.4v-2.9m0-1.4v-2.8m0-1.4v-2.9m0-1.4v-2.8m0-1.4v-2.9m0-1.4v-2.8m0-1.4v-2.9m0-1.4v-2.8m0-1.4v-2.9m0-1.4v-2.8m0-1.4v-2.9m0-1.4v-2.8m0-1.4v-2.9m0-1.4v-2.8m0-1.4v-2.9m0-1.4v-2.8m0-1.4v-2.9m0-1.4v-2.8m0-1.5v-2.8m0-1.4v-2.8m0-1.5v-2.8m0-1.4v-2.8m0-1.5v-2.8m0-1.4v-2.8m0-1.5v-2.8m0-1.4v-2.1" class="h i"/><g class="V W"><path d="M481.4 558.9V530m37.8-68.1V433M481 569.4h1.2m.7 0h1.7m.7 0h1.7m.8 0h1.7m.7 0h1.7m.7 0h1.7m.7 0h1.7m.7 0h1.7m.7 0h1.7m.7 0h1.7m.7 0h1.7m.7 0h1.7m.7 0h1.3m38.8-391.9v-27.7m34.1 27.1h-1m-.7 0h-1.7m-.7 0h-1.7m-.8 0h-1.7m-.7 0h-1.7m-.7 0h-1.7m-.7 0h-1.7m-.7 0h-1.7m-.7 0h-1.7m-.7 0h-1.7m-.7 0h-1.7m-.7 0h-1.7m-.7 0h-1.7m-.7 0h-1.8m-.7 0h-1m34.1.6h-34.1m34.1-24.4h-1m-.7 0h-1.7m-.7 0h-1.7m-.8 0h-1.7m-.7 0h-1.7m-.7 0h-1.7m-.7 0h-1.7m-.7 0h-1.7m-.7 0h-1.7m-.7 0h-1.7m-.7 0h-1.7m-.7 0h-1.7m-.7 0h-1.7m-.7 0h-1.8m-.7 0h-1m34.1.6h-34.1m34.1-38.5h-.7m-.7 0h-1.7m-.7 0h-1.7m-.7 0h-1.7m-.7 0h-1.7m-.7 0h-1.7m-.7 0h-1.7m-.7 0h-1.7m-.7 0h-1.7m-.8 0h-1.7m-.7 0h-1.7m-.7 0h-.6m0 34.6h-1.2m-.7 0h-1.7"/><path d="M553.2 149.8h-1.7m-.7 0h-1.3m8-34.6v1.3m0 .7v1.7m0 .7v1.7m0 .8v1.7m0 .7v1.7m0 .7v1.7m0 .7v1.7m0 .7v1.7m0 .7v1.7m0 .7v1.7m0 .7v1.7m0 .7v1.7m0 .7v1.7m0 .7v1.7"/><path d="M557.5 148.6v1.2m-8-34.6v1.3m0 .7v1.7m0 .7v1.7m0 .8v1.7m0 .7v1.7m0 .7v1.7m0 .7v1.7m0 .7v1.7m0 .7v1.7m0 .7v1.7m0 .7v1.7m0 .7v1.7m0 .7v1.7m0 .7v1.7m0 .8v1.2m-84.1 2.9l6.2-37.5m-5.1 37.5l6.2-37.5m-3.7 15.4v-1.3m0-.7v-1.7m0-.7v-1.7m0-.7v-1.7m0-.8v-1.7m0-.7v-1.7m0-.7v-1.3m-1.9 34.1H549"/><path d="M472.7 115.2h.8m.7 0h1.7m.7 0h1.7m.7 0h1.7m.7 0h1.7m.8 0h1.7m.7 0h1.7m.7 0h1.7m.7 0h1.7m.7 0h1.7m.7 0h1.7m.7 0h1.7m.7 0h1.7m.7 0h1.7m.7 0h1.7m.8 0h1.7m.7 0h1.7m.7 0h1.7m.7 0h1.7m.7 0h1.7m.7 0h1.7m.7 0h1.7m.7 0h1.7m.7 0h1.7m.7 0h1.7m.7 0h1.7m.8 0h1.7m.7 0h1.7m.7 0h1.7m.7 0h1.7m.7 0h1.7m.7 0h1.7m.7 0h1.7m.7 0h1.7m.7 0h1.7m.7 0h.8m26.7 62.3v-.7m0-.7v-1.7m0-.7V172m0-.7v-1.7m0-.7v-1.7m0-.7v-1.7m0-.7v-1.7m0-.7V160m0-.7v-1.7m0-.8v-1.7m0-.7v-1.7m0-.7v-1.7m0-.7v-1.7m0-.7v-1.7m0-.7v-1.7m0-.7v-1.7m0-.7v-1.7m0-.7v-1.7m0-.7v-1.7m0-.7v-1.7m0-.8v-1.7m0-.7v-1.7m0-.7v-1.7m0-.7v-1.7m0-.7V119m0-.7v-1.7m0-.7v-.7m0 45.8h-1m-.7 0h-1.7m-.7 0h-1.7m-.8 0h-1.7m-.7 0h-1.7m-.7 0h-1.7m-.7 0h-1.7m-.7 0h-1.7m-.7 0h-1.7m-.7 0h-1.7m-.7 0h-1.7m-.7 0h-1.7m-.7 0h-1.7m-.7 0h-1.8m-.7 0h-1m34.1.6h-34.1m34.1 7.4h-1m-.7 0h-1.7m-.7 0h-1.7m-.8 0h-1.7m-.7 0h-1.7m-.7 0h-1.7m-.7 0h-1.7m-.7 0h-1.7m-.7 0h-1.7m-.7 0h-1.7m-.7 0h-1.7m-.7 0h-1.7m-.7 0h-1.7m-.7 0h-1.8m-.7 0h-1m34.1.5h-34.1M58.3 967.4l.7.1m0 0l.7-.3m0 0l3.9.4m0 0l1-.4m0 0l2.4.5m0 0l1.6-.6m0 0l1.2.2m0 0l2.5-.1m0 0l.5.3m0 0l3-.3m0 0l.8.5m0 0l1.2-.5m0 0l3 .2m0 0l2.3-.4m0 0l4.2.5m0 0l.7-.3m0 0l3.9.4m0 0l1.1-.4m0 0l2.4.5m0 0l1.5-.6m0 0l1.3.2m0 0l2.5-.1m0 0l.5.3m0 0l3-.3m0 0l.8.5m0 0l1.2-.5m0 0l3 .2m0 0l2.2-.4m0 0l4.3.5m0 0l.7-.3m0 0l3.9.4m0 0l1-.4m0 0l2.4.5m0 0l1.6-.6m0 0l1.2.2m0 0l2.5-.1m0 0l.5.3m0 0l3-.3m0 0l.8.5m0 0l1.2-.5m0 0l3 .2m0 0l2.3-.4m0 0l4.2.5m0 0l.7-.3m0 0l3.9.4m0 0l1.1-.4m0 0l2.4.5m0 0l1.5-.6m0 0l1.3.2m0 0l2.5-.1m0 0l.5.3m0 0l2.9-.3m0 0l.9.5m0 0l1.2-.5m0 0l3 .2m0 0l2.2-.4m0 0l4.3.5m0 0l.7-.3m0 0l3.9.4m0 0l1-.4m0 0l2.4.5m0 0l1.6-.6m0 0l1.2.2m0 0l2.5-.1m0 0l.5.3m0 0l3-.3m0 0l.8.5m0 0l1.2-.5m0 0l3 .2m0 0l2.3-.4m0 0l4.2.5m0 0l.7-.3m0 0l3.9.4m0 0l1.1-.4m0 0l2.3.5m0 0l1.6-.6m0 0l1.3.2m0 0l2.5-.1m0 0l.5.3m0 0l2.9-.3m0 0l.9.5m0 0l1.1-.5m0 0l2.1.2m245.3-817h81.5m0 0v1.1m0 0h-81.7m81.7 22.6h-1.1"/><path d="M547.3 174.1v-21.4m0 0h1.1m0 0v21.4m114.3 293.8h1.3m.7 0h1.7m.7 0h1.7m.7 0h1.7m.7 0h1.7m.7 0h1.7m.8 0h1.7m.7 0h1.7m.7 0h1.7m.7 0h1.7m.7 0h1.7m.7 0h1.7m.7 0h1.7m.7 0h1.7m.7 0h1.7m.7 0h1.7m.7 0h1.7m.8 0h1.7m.7 0h1.7m.7 0h1.7m.7 0h1.7m.7 0h1.7m.7 0h1.7m.7 0h1.7m.7 0h1.7m.7 0h1.7m.7 0h1.7m.8 0h1.7m.7 0h1.7m.7 0h1.7m.7 0h1.7m.7 0h1.7m.7 0h1.7m.7 0h1.7m.7 0h1.7m.7 0h1.7m.7 0h1.7m.7 0h1.4m-157-70h1.1m.7 0h1.7m.7 0h1.7m.7 0h1.7m.7 0h1.7m.7 0h1.7m.7 0h1.7m.8 0h1.7m.7 0h1.7m.7 0h1.7m.7 0h1.7m.7 0h1.7m.7 0h1.7m.7 0h1.7m.7 0h1.7m.7 0h1.7m.7 0h1.7m.7 0h1.7m.8 0h1.7m.7 0h1.7m.7 0h1.7m.7 0h1.7m.7 0h1.7m.7 0h1.7m.7 0h1.7m.7 0h1.7m.7 0h1.7m.7 0h1.7m.8 0h1.7m.7 0h1.7m.7 0h1.7m.7 0h1.7m.7 0h1.7m.7 0h1.7m.7 0h1.7m.7 0h1.7m.7 0h1.7m.7 0h1.7m.7 0h1.7m.8 0h1.7m.7 0h1.7m.7 0h1.7m.7 0h1.7m.7 0h1.7m.7 0h1.7m.7 0h1.7m.7 0h1.7m.7 0h1.7m.7 0h1.7m.8 0h1.7m.7 0h1.7m.7 0h1.7m.7 0h1.7m.7 0h1.7m.7 0h1.7m.7 0h1.7m.7 0h1.7m.7 0h1.7m.7 0h1.7m.7 0h1.7m.8 0h1.7m.7 0h1.7m.7 0h1.7m.7 0h1.7m.7 0h1.7m.7 0h1m0 73.9h-1.6m-.7 0h-1.7m-.8 0h-1.7m-.7 0h-1.7m-.7 0h-1.7m-.7 0h-1.7m-.7 0h-1.7m-.7 0h-1.7m-.7 0h-1.7m-.7 0h-1.7m-.7 0h-1.7m-.7 0h-1.7m-.7 0h-1.7m-.8 0h-1.7m-.7 0h-1.7m-.7 0H715m-.7 0h-1.7m-.7 0h-1.7m-.7 0h-1.7m-.7 0h-1.7m-.7 0H703m-.7 0h-1.7m-.7 0h-1.7m-.8 0h-1.7m-.7 0h-1.7m-.7 0h-1.7m-.7 0h-1.7m-.7 0h-1.7m-.7 0h-1.7m-.7 0h-1.7m-.7 0h-1.7m-.7 0h-1.7m-.7 0h-1.7m-.7 0h-1.7m-.8 0h-1.7m-.7 0h-1.3M150.7 161.5h-1.3m-.7 0H147m-.7 0h-1.8m-.7 0h-1.7m-.7 0h-1.7m-.7 0h-1.7m-.7 0h-1.7m-.7 0h-1.7m-.7 0h-1.7m-.7 0h-1.7m-.7 0h-1.7m-.7 0h-1.7m-.7 0h-1.7m-.8 0H118m-.7 0h-1.7m-.7 0h-1.7m-.7 0h-1.7m-.7 0h-1.7m-.7 0H106m-.7 0h-1.7m-.7 0h-1.7m-.7 0h-1.7m-.7 0h-1.7m-.7 0H94m-.8 0h-1.7m-.7 0h-1.7m-.7 0h-1.7m-.7 0h-1.7m-.7 0h-1.7m-.7 0h-1.7m-.7 0h-1.7m-.7 0h-1.7m-.7 0h-1.7m-.7 0h-1.7m-.8 0h-1.7m-.7 0H65m-.7 0h-1.7m-.7 0h-1.7m-.7 0h-1.7m-.7 0h-1.7m-.7 0H53m-.7 0h-1.7m-.7 0h-1.7m-.7 0h-1.7m-.7 0h-1.7m-.8 0h-1.7m-.7 0h-1.7m-.7 0h-1.7m-.7 0h-1.7m-.7 0h-1.3m0 0v-.8m0-.7v-1.7m0-.7v-1.7m0-.8v-.7m0 0H33m.7 0h1.7m.7 0h1.7m.7 0h1.7m.7 0h1.7m.8 0h1.7m.7 0h1.7m.7 0h1.7m.7 0h1.7m.7 0h1.7m.7 0h1.7m.7 0h1.7m.7 0h1.7m.7 0h1.7m.7 0h1.7m.7 0h1.7m.8 0h1.7m.7 0H74m.7 0h1.7m.7 0h1.7m.7 0h1.7m.7 0h1.7m.7 0H86m.7 0h1.7m.7 0h1.7m.7 0h1.7m.8 0h1.7m.7 0h1.7m.7 0h1.7m.7 0h1.7m.7 0h1.7m.7 0h1.7m.7 0h1.7m.7 0h1.7m.7 0h1.7m.7 0h1.7m.7 0h1.7m.8 0h1.7m.7 0h1.7m.7 0h1.7m.7 0h1.7m.7 0h1.7m.7 0h1.7m.7 0h1.7m.7 0h1.7m.7 0h1.7m.7 0h1.7m.7 0h1.8m.7 0h1.7m.7 0h1.3m602.1 306.4h-1.1m-.7 0h-1.7m-.8 0h-1.7m-.7 0h-1.7m-.7 0H742m-.7 0h-1.7m-.7 0h-1.7m-.7 0h-1.7m-.7 0h-1.7m-.7 0H730m-.7 0h-1.7m-.7 0h-1.7m-.8 0h-1.7m-.7 0h-1.7m-.7 0h-1.7m-.7 0h-1.7m-.7 0h-1.7m-.7 0h-1.7m-.7 0h-1.7m-.7 0h-1.7m-.7 0h-1.7m-.7 0h-1.7m-.7 0h-1.7m-.8 0h-1.7m-.7 0h-1.7m-.7 0h-1.7m-.7 0H689m-.7 0h-1.7m-.7 0h-1.7m-.7 0h-1.7m-.7 0h-1.7m-.7 0H677m-.7 0h-1.7m-.8 0h-1.7m-.7 0h-1.7m-.7 0h-1.7m-.7 0h-1.7m-.7 0h-1.5m90.1-70h-.9m-.7 0h-1.7m-.7 0h-1.7m-.8 0h-1.7m-.7 0h-1.7m-.7 0h-1.7m-.7 0h-1.7m-.7 0H735m-.7 0h-1.7m-.7 0h-1.7m-.7 0h-1.7m-.7 0h-1.7m-.7 0H723m-.7 0h-1.8m-.7 0h-1.7m-.7 0h-1.7m-.7 0h-1.7m-.7 0h-1.7m-.7 0h-1.7m-.7 0h-1.7m-.7 0h-1.7m-.7 0h-1.7m-.7 0h-1.7m-.7 0h-1.7m-.8 0H694m-.7 0h-1.7m-.7 0h-1.7m-.7 0h-1.7m-.7 0h-1.7m-.7 0H682m-.7 0h-1.7m-.7 0h-1.7m-.7 0h-1.7m-.7 0h-1.7m-.7 0H670m-.8 0h-1.7m-.7 0h-1.7m-.7 0h-1.7m-.7 0h-1.7m-.7 0h-1.7m-.7 0h-1.7m-.7 0h-1.7m-.7 0h-1.7m-.7 0h-1.7m-.7 0h-1.7m-.8 0h-1.7m-.7 0H641m-.7 0h-1.7m-.7 0h-1.7m-.7 0h-1.7m-.7 0h-1.7m-.7 0H629m-.7 0h-1.7m-.7 0h-1.7m-.7 0h-1.7m-.7 0h-1.7m-.8 0h-1.7m-.7 0h-1.7m-.7 0h-1.7m-.7 0h-1.7m-.7 0h-1.7m-.7 0h-1.7m-.7 0h-1.7m-.7 0h-1.7m-.7 0h-1.7m-.7 0h-1.7m-.8 0h-1.7m-.7 0h-.9m161.6-4h-1.1m-.7 0h-1.7m-.8 0h-1.7m-.7 0h-1.7m-.7 0H742m-.7 0h-1.7m-.7 0h-1.7m-.7 0h-1.7m-.7 0h-1.7m-.7 0H730m-.7 0h-1.7m-.7 0h-1.7m-.8 0h-1.7m-.7 0h-1.7m-.7 0h-1.7m-.7 0h-1.7m-.7 0h-1.7m-.7 0h-1.7m-.7 0h-1.7m-.7 0h-1.7m-.7 0h-1.7m-.7 0h-1.7m-.7 0h-1.7m-.8 0h-1.7m-.7 0h-1.7m-.7 0h-1.7m-.7 0H689m-.7 0h-1.7m-.7 0h-1.7m-.7 0h-1.7m-.7 0h-1.7m-.7 0H677m-.7 0h-1.7m-.8 0h-1.7m-.7 0h-1.7m-.7 0h-1.7m-.7 0h-1.7m-.7 0h-1.7m-.7 0h-1.7m-.7 0h-1.7m-.7 0h-1.7m-.7 0h-1.7m-.7 0h-1.7m-.7 0h-1.7m-.8 0h-1.7m-.7 0h-1.7m-.7 0h-1.7m-.7 0h-1.7m-.7 0H636m-.7 0h-1.7m-.7 0h-1.7m-.7 0h-1.7m-.7 0h-1.7m-.7 0H624m-.8 0h-1.7m-.7 0h-1.7m-.7 0h-1.7m-.7 0h-1.7m-.7 0h-1.7m-.7 0h-1.7m-.7 0h-1.7m-.7 0h-1.7m-.7 0h-1.7m-.7 0h-1.7m-.7 0h-1.7m-.8 0h-.9M197.5 414h1.4m.7 0h1.7m.7 0h1.7m.7 0h1.7m.7 0h1.7m.8 0h1.7m.7 0h1.7m.7 0h1.7m.7 0h1.7m.7 0h1.7m.7 0h1.7m.7 0h1.7m.7 0h1.7m.7 0h1.7m.7 0h1.7m.7 0h1.7m.8 0h1.7m.7 0h1.7m.7 0h1.7m.7 0h1.7m.7 0h1.7m.7 0h1.7m.7 0h1.7m.7 0h1.7m.7 0h1.7m.7 0h1.7m.7 0h1.7m.8 0h1.7m.7 0h1.7m.7 0h1.7m.7 0h1.7m.7 0h1.7m.7 0h1.7m.7 0h1.7m.7 0h1.7m.7 0h1.7m.7 0h1.7m.8 0h1.7m.7 0h1.7m.7 0h1.7m.7 0h1.7m.7 0h1.7m.7 0h1.7m.7 0h1.7m.7 0h1.7m.7 0h1.7m.7 0h1.7m.7 0h1.7m.8 0h1.7m.7 0h1.7m.7 0h1.7m.7 0h1.7m.7 0h1.7m.7 0h1.7m.7 0h1.7m.7 0h1.7m.7 0h1.7m.7 0h1.7m.8 0h1.7m.7 0h1.7m.7 0h1.7m.7 0h1.7m.7 0h1.7m.7 0h1.7m.7 0h1.7m.7 0h1.7m.7 0h1.7m.7 0h1.7m.7 0h1.7m.8 0h1.7m.7 0h1.7m.7 0h1.7m.7 0h1.7m.7 0h1.7m.7 0h1.7m.7 0h1.7m.7 0h1.7m.7 0h1.7m.7 0h1.7m.7 0h1.8m.7 0h1.7m.7 0h1.7m.7 0h1.7m.7 0h1.7m.7 0h1.7m.7 0h1.7m.7 0h1.7m.7 0h1.7m.7 0h1.7m.7 0h1.7m.8 0h1.7m.7 0h1.7m.7 0h1.7"/><path d="M421.3 414h1.7m.7 0h1.7m.7 0h1.7m.7 0h1.7m.7 0h1.7m.7 0h1.7m.7 0h1.7m.7 0h1.7m.8 0h1.7m.7 0h1.7m.7 0h1.7m.7 0h1.7m.7 0h1.7m.7 0h1.7m.7 0h1.7m.7 0h1.7m.7 0h1.7m.7 0h1.7m.8 0h1.7m.7 0h1.7m.7 0h1.7m.7 0h1.7m.7 0h1.7m.7 0h1.7m.7 0h1.7m.7 0h1.7m.7 0h1.7m.7 0h1.7m.7 0h1.7m.8 0h1.7m.7 0h1.7m.7 0h1.7m.7 0h1.7m.7 0h1.7m.7 0h1.7m.7 0h1.7m.7 0h1.7m.7 0h1.7m.7 0h1.7m.7 0h1.8m.7 0h1.7m.7 0h1.7m.7 0h1.7m.7 0h1.7m.7 0h1.7m.7 0h1.7m.7 0h1.7m.7 0h1.7m.7 0h1.7m.7 0h1.7m.8 0h1.7m.7 0h1.7m.7 0h1.7m.7 0h1.7m.7 0h1.7m.7 0h1.7m.7 0h1.7m.7 0h1.7m.7 0h1.7m.7 0h1.7m.7 0h1.7m.8 0h1.7m.7 0h1.7m.7 0h1.7m.7 0h1.7m.7 0h1.7m.7 0h1.7m.7 0h1.7m.7 0h1.7m.7 0h1.7m.7 0h1.7m.8 0h1.7m.7 0h1.7m.7 0h1.7m.7 0h1.7m.7 0h1.7m.7 0h1.7m.7 0h1.7m.7 0h1.7m.7 0h1.7m.7 0h1.7m.7 0h1.7m.8 0h1.7m.7 0h1.7m.7 0h1.7m.7 0h1.7m.7 0h1.7m.7 0h1.7m.7 0h1.7m.7 0h1.7m.7 0h1.7m.7 0h1.7m.8 0h1.7m.7 0h1.7m.7 0h1.7m.7 0h1.7m.7 0h1.7m.7 0h1.7m.7 0h1.7m.7 0h1.7m.7 0h1.7m.7 0h1.7m.7 0h1.7m.8 0h1.7m.7 0h1.7m.7 0h1.7m.7 0h1.7m.7 0h1.7m.7 0h1.7m.7 0h1.4m-487.8 0v1.2m0 .7v1.7m0 .7v1.7m0 .8v1.7m0 .7v1.7m0 .7v1.7m0 .7v1.7m0 .7v1.7m0 .7v1.7m0 .7v1.7m0 .7v1.7m0 .7v1.7m0 .7v1.7m0 .7v1.7m0 .8v1.7m0 .7v1.7m0 .7v1.7m0 .7v1.7m0 .7v1.7m0 .7v1.7m0 .7v1.7m0 .7v1.7m0 .7v1.7m0 .7v1.7m0 .8v1.7m0 .7v1.7m0 .7v1.7m0 .7v1.7m0 .7v1.7m0 .7v1.7m0 .7v1.7m0 .7v1.7m0 .7v1.7m0 .7v1.7m0 .7v1.7m0 .8v1.7m0 .7v1.7m0 .7v1.7m0 .7v1.7m0 .7v1.7m0 .7v1.7m0 .7v1.7m0 .7v1.7m0 .7v1.7m0 .7v1.7m0 .7v1.7m0 .8v1.7m0 .7v1.7m0 .7v1.7m0 .7v1.7m0 .7v1.7m0 .7v1.7m0 .7v1.7m0 .7v1.7m0 .7v1.7m0 .7v1.7m0 .8v1.7m0 .7v1.7m0 .7v1.7m0 .7v1.7m0 .7v1.7m0 .7v1.7m0 .7v1.7m0 .7v1.7m0 .7v1.7m0 .7v1.7m0 .7v1.7m0 .8v1.7m0 .7v1.7m0 .7v1.7m0 .7v1.7m0 .7v1.7m0 .7v1.7m0 .7v1.7m0 .7v1.7m0 .7v1.7m0 .7v1.7m0 .8v1.7m0 .7v1.7m0 .7v1.7m0 .7v1.7m0 .7v1.7m0 .7v1.7m0 .7v1.7m0 .7v1.7m0 .7v1.7m0 .7v1.7m0 .7v1.7m0 .8v1.7m0 .7v1.7m0 .7v1.7m0 .7v1.7m0 .7v1.7m0 .7v1.7m0 .7v1.7m0 .7v1.7m0 .7v1.7m0 .7v1.7m0 .7v1.8m0 .7v1.7m0 .7v1.7m0 .7v1.7m0 .7v1.7m0 .7v1.7m0 .7v1.7m0 .7v1.7m0 .7v1.7m0 .7v1.7m0 .7v1.7m0 .8v1.7m0 .7v1.7m0 .7v1.7m0 .7v1.7m0 .7v1.7m0 .7v1.7m0 .7v1.7m0 .7v1.7m0 .7v1.7m0 .7v1.7m0 .7v1.7m0 .8v1.7m0 .7v1.7m0 .7v1.7m0 .7v1.7m0 .7v1.7m0 .7v1.7m0 .7v1.7m0 .7v1.7m0 .7v1.7m0 .7v1.7m0 .8v1.7m0 .7v1.7m0 .7v1.7m0 .7v1.7m0 .7v1.7m0 .7v1.7m0 .7v1.7m0 .7v1.7m0 .7v1.7m0 .7v1.7m0 .7v1.7m0 .8v1.7m0 .7v1.7m0 .7v1.7m0 .7v1.7m0 .7v1.7m0 .7v1.7m0 .7v1.7m0 .7v1.7m0 .7v1.7m0 .7v1.7m0 .8v1.7m0 .7v1.7m0 .7v1.7m0 .7v1.7m0 .7v1.7m0 .7v1.7m0 .7v1.7m0 .7v1.7m0 .7v1.7m0 .7v1.7m0 .7v1.7m0 .8v1.7m0 .7v1.7m0 .7v1.7m0 .7v1.7m0 .7v1.7m0 .7v1.7m0 .7v1.7m0 .7v1.7m0 .7v1.7m0 .7v1.7m0 .7v1.7m0 .8v1.7m0 .7v1.7m0 .7v1.7m0 .7v1.7m0 .7v1.7m0 .7v1.7m0 .7v1.7m0 .7v1.7m0 .7v1.7m0 .7v1.7m0 .8v1.7m0 .7v1.7m0 .7v1.7m0 .7v1.7m0 .7v1.7m0 .7v1.7m0 .7v1.7m0 .7v1.7m0 .7v1.7m0 .7v1.7m0 .7v1.7m0 .8v1.7m0 .7v1.7m0 .7v1.7m0 .7v1.7m0 .7v1.7m0 .7v1.7m0 .7v1.7m0 .7v1.7m0 .7v1.7m0 .7v1.7m0 .8v1.7m0 .7v1.7m0 .7v1.7m0 .7v1.2m0 0h1.7m.7 0h1.7m.7 0h1.7m.7 0h1.7m.7 0h1.7m.7 0h1.7m.7 0h1.7m.8 0h1.7m.7 0h1.7m.7 0h1.7m.7 0h1.7m.7 0h1.7m.7 0h1.7m.7 0h1.7M685.3 414v1.2m0 .7v1.7m0 .7v1.7m0 .7v1.7m0 .7v1.7m0 .7v1.7m0 .7v1.7m0 .7v1.7m0 .7v1.7m0 .7v1.7m0 .7v1.7m0 .8v1.7m0 .7v1.7m0 .7v1.7m0 .7v1.7m0 .7v1.7m0 .7v1.7m0 .7v1.7m0 .7v1.7m0 .7v1.7m0 .7v1.7m0 .8v1.7m0 .7v1.7m0 .7v1.7m0 .7v1.7m0 .7v1.7m0 .7v1.7m0 .7v1.7m0 .7v1.7m0 .7v1.7m0 .7v1.7m0 .7v1.7m0 .8v1.7m0 .7v1.7m0 .7v1.7m0 .7v1.7m0 .7v1.7m0 .7v1.7m0 .7v1.7m0 .7v1.7m0 .7v1.7m0 .7v1.7m0 .7v1.8m0 .7v1.7m0 .7v1.7m0 .7v1.7m0 .7v1.7m0 .7v1.7m0 .7v1.7m0 .7v1.7m0 .7v1.2m0 0h.6m.7 0h1.7m.7 0h1.7m.7 0h1.7m.7 0h1.7m.7 0h1.7m.8 0h1.7m.7 0h1.7m.7 0h1.7m.7 0h1.7m.7 0h1.7m.7 0h1.7m.7 0h1.7m.7 0h1.7m.7 0h1.7m.7 0h1.7m.7 0h1.7m.8 0h1.7m.7 0h1.7m.7 0h1.7m.7 0h1.7m.7 0h1.7m.7 0h1.7m.7 0h1.7m.7 0h1.7m.7 0h1.7m.7 0h1.7m.8 0h1.7m.7 0h1.1m-424.4-324v.9m0 .7v1.7m0 .7v1.7m0 .7v1.7m0 .7v1.7m0 .7v1.7m0 .7v1.7m0 .7v1.7m0 .8v1.7m0 .7v1.7m0 .7v1.7m0 .7v1.7m0 .7v1.7m0 .7v1.7m0 .7v1.7m0 .7v1.7m0 .7v1.7m0 .7v1.7m0 .7v1.7m0 .8v1.7m0 .7v1.7m0 .7v1.7m0 .7v1.7m0 .7v1.7m0 .7v1.7m0 .7v1.7m0 .7v1.7m0 .7v1.7m0 .7v1.7m0 .8v1.7m0 .7v1.7m0 .7v1.7m0 .7v1.7m0 .7v1.7m0 .7v1.7m0 .7v1.7m0 .7v1.7m0 .7v1.7m0 .7v1.7m0 .7v1.7m0 .8v1.7m0 .7v1.7m0 .7v1.7m0 .7v1.7m0 .7v1.7m0 .7v1.7m0 .7v1.7m0 .7v1.7m0 .7v1.7m0 .7v1.7m0 .8v1.7m0 .7v1.7m0 .7v1.7m0 .7v1.7m0 .7v1.7m0 .7v1.7m0 .7v1.7m0 .7v1.7m0 .7v1.7m0 .7v1.7m0 .7v1.7m0 .8v1.7m0 .7v1.7m0 .7v1.7m0 .7v1.7m0 .7v1.7m0 .7v1.7m0 .7v1.7m0 .7v1.7m0 .7v1.7m0 .7v1.7m0 .8v1.7m0 .7v1.7m0 .7v1.7m0 .7v1.7m0 .7v1.7m0 .7v1.7m0 .7v1.7m0 .7v1.7m0 .7v1.7m0 .7v1.7m0 .7v1.7m0 .8v1.7m0 .7v1.7m0 .7v1.7m0 .7v1.7m0 .7v1.7m0 .7v1.7m0 .7v1.7m0 .7v1.7m0 .7v1.7m0 .7v1.7m0 .7v1.7m0 .8v1.7m0 .7v1.7m0 .7v1.7m0 .7v1.7m0 .7v1.7m0 .7v1.7m0 .7v1.7"/><path d="M328.4 451.2v1.7m0 .7v1.7m0 .7v1.7m0 .8v.9m0 0h1.5m.7 0h1.7m.7 0h1.7m.7 0h1.7m.7 0h1.7m.7 0h1.7m.7 0h1.7m.7 0h1.7m.7 0h1.7m.7 0h1.7m.8 0h1.7m.7 0h1.7m.7 0h1.7m.7 0h1.7m.7 0h1.7m.7 0h1.7m.7 0h1.7m.7 0h1.7m.7 0h1.7m.7 0h1.7m.8 0h1.7m.7 0h1.7m.7 0h1.7m.7 0h1.7m.7 0h1.7m.7 0h1.7m.7 0h1.7m.7 0h1.7m.7 0h1.7m.7 0h1.7m.7 0h1.7m.8 0h1.7m.7 0h1.7m.7 0h1.7m.7 0h1.7m.7 0h1.7m.7 0h1.7m.7 0h1.7m.7 0h1.7m.7 0h1.7m.7 0h1.7m.8 0h1.7m.7 0h1.7m.7 0h1.7m.7 0h1.7m.7 0h1.7m.7 0h1.7m.7 0h1.7m.7 0h1.7m.7 0h1.7m.7 0h1.7m.7 0h1.7m.8 0h1.7m.7 0h1.7m.7 0h1.7m.7 0h1.7m.7 0h1.7m.7 0h1.7m.7 0h1.7m.7 0h1.7m.7 0h1.7m.7 0h1.7m.7 0h1.8m.7 0h1.7m.7 0h1.7m.7 0h1.7m.7 0h1.7m.7 0h1.7m.7 0h1.7m.7 0h1.7m.7 0h1.7m.7 0h1.7m.7 0h1.7m.8 0h1.7m.7 0h1.4m-188 9.9h1m.7 0h1.7m.7 0h1.7m.7 0h1.7m.7 0h1.7m.7 0h1.7m.7 0h1.7m.7 0h1.7m.7 0h1.7m.7 0h1.7m.8 0h1.7m.7 0h1.7m.7 0h1.7m.7 0h1.7m.7 0h1.7m.7 0h1.7m.7 0h1.7m.7 0h1.7m.7 0h1.7m.7 0h1.7m.8 0h1.7m.7 0h1.7m.7 0h1.7m.7 0h1.7m.7 0h1.7m.7 0h1.7m.7 0h1.7m.7 0h1.7m.7 0h1.7m.7 0h1.7m.7 0h1.7m.8 0h1.7m.7 0h1.7m.7 0h1.7m.7 0h1.7m.7 0h1.7m.7 0h1.7m.7 0h1.7m.7 0h1.7m.7 0h1.7m.7 0h1.7m.8 0h1.7m.7 0h1.7m.7 0h1.7m.7 0h1.7m.7 0h1.7m.7 0h1.7m.7 0h1.7m.7 0h1.7m.7 0h1.7m.7 0h1.7m.7 0h1.7m.8 0h1.7m.7 0h1.7m.7 0h1.7m.7 0h.9M649 568v-1.7m0-.7v-.8M319.9 106.2h-1.4m-.8 0H316m-.7 0h-1.7m-.7 0h-1.7m-.7 0h-1.7m-.7 0h-1.7m-.7 0H304m-.7 0h-1.7m-.7 0h-1.7m-.7 0h-1.7m-.7 0h-1.7m-.7 0H292m-.8 0h-1.7m-.7 0h-1.7m-.7 0h-1.7m-.7 0h-1.7m-.7 0h-1.7m-.7 0h-1.7m-.7 0h-1.7m-.7 0h-1.7m-.7 0h-1.7m-.7 0h-1.7m-.8 0h-1.7m-.7 0H263m-.7 0h-1.7m-.7 0h-1.7m-.7 0h-1.7m-.7 0h-1.7m-.7 0H251m-.7 0h-1.7m-.7 0h-1.7m-.7 0h-1.7m-.7 0h-1.7m-.8 0h-1.7m-.7 0h-1.7m-.7 0h-1.7m-.7 0h-1.7m-.7 0h-1.7m-.7 0h-1.7m-.7 0h-1.7m-.7 0h-1.7m-.7 0h-1.7m-.7 0h-1.7m-.8 0h-1.7m-.7 0h-1.7m-.7 0H210m-.7 0h-1.7m-.7 0h-1.7m-.7 0h-1.7m-.7 0h-1.7m-.7 0H198m-.7 0h-1.7m-.7 0h-1.7m-.7 0h-1.7m-.8 0h-1.7m-.7 0h-1.7m-.7 0h-1.7m-.7 0h-1.7m-.7 0h-1.7m-.7 0h-1.7m-.7 0h-1.7m-.7 0h-1.7m-.7 0h-1.7m-.7 0h-1.7m-.7 0h-1.7m-.8 0h-1.7m-.7 0h-1.7m-.7 0H157m-.7 0h-1.7m-.7 0h-1.5m440.5 104.9h.4m.8 0h1.7m.7 0h1.7m.7 0h1.7m.7 0h1.7m.7 0h1.7m.7 0h1.7m.7 0h1.7m.7 0h1.7m.7 0h1.7m.7 0h1.7m.7 0h1.7m.8 0h1.7m.7 0h1.7m.7 0h1.7m.7 0h1.7m.7 0h1.7m.7 0h1.7m.7 0h1.7m.7 0h1.7m.7 0h1.7m.7 0h1.7m.8 0h1.7m.7 0h1.7m.7 0h1.7m.7 0h1.7m.7 0h1.7m.7 0h1.7m.7 0h1.7m.7 0h1.7m.7 0h1.7m.7 0h1.7m.7 0h1.7m.8 0h1.7m.7 0h1.7m.7 0h1.7m.7 0h1.7m.7 0h1.7m.7 0h1.7m.7 0h1.7m.7 0h1.7m.7 0h1.7m.7 0h1.7m.7 0h1.8m.7 0h1.7m.7 0h1.7m.7 0h1.7m.7 0h1.7m.7 0h1.7"/><path d="M709.7 211.1h1.7m.7 0h1.7m.7 0h1.7m.7 0h1.7m.7 0h1.7m.8 0h1.7m.7 0h1.7m.7 0h1.7m.7 0h1.7m.7 0h.4m0 0v-.8m0-.7v-1.7m0-.7v-1.7m0-.7v-.8m0 0h-.4m-.7 0H729m-.7 0h-1.7m-.7 0h-1.7m-.7 0h-1.7m-.8 0h-1.7m-.7 0h-1.7m-.7 0h-1.7m-.7 0h-1.7m-.7 0h-1.7m-.7 0h-1.7m-.7 0h-1.7m-.7 0h-1.7m-.7 0h-1.7m-.7 0h-1.7m-.7 0h-1.8m-.7 0h-1.7m-.7 0h-1.7m-.7 0H688m-.7 0h-1.7m-.7 0h-1.7m-.7 0h-1.7m-.7 0h-1.7m-.7 0H676m-.7 0h-1.7m-.7 0h-1.7m-.8 0h-1.7m-.7 0h-1.7m-.7 0h-1.7m-.7 0h-1.7m-.7 0h-1.7m-.7 0h-1.7m-.7 0h-1.7m-.7 0h-1.7m-.7 0h-1.7m-.7 0h-1.7m-.7 0h-1.7m-.8 0h-1.7m-.7 0h-1.7m-.7 0h-1.7m-.7 0H635m-.7 0h-1.7m-.7 0h-1.7m-.7 0h-1.7m-.7 0h-1.7m-.7 0H623m-.7 0h-1.7m-.8 0h-1.7m-.7 0h-1.7m-.7 0h-1.7m-.7 0h-1.7m-.7 0h-1.7m-.7 0h-1.7m-.7 0h-1.7m-.7 0h-1.7m-.7 0h-1.7m-.7 0h-1.7m-.7 0h-1.7m-.8 0h-.4m0 0v.8m0 .7v1.7m0 .7v1.7m0 .7v.8m-442.2-56.7v.7m0 .8v1.7m0 .7v1.7m0 .7v.8m581.1 31.1v2.9m0 1.4v2.8m0 1.4v2.9m-131.5 58.1h2.7m1.4 0h2.8m1.5 0h2.8m1.4 0h2.8m1.5 0h2.8m1.4 0h2.8m1.5 0h2.8m1.4 0h2.8m1.5 0h2.8m1.4 0h2.8m1.5 0h2.8m1.4 0h2.9m1.4 0h2.8m1.4 0h2.9m1.4 0h2.8m1.4 0h2.9m1.4 0h2.8m1.4 0h2.9m1.4 0h2.8m1.4 0h2.7m0 0v.8m0 1.4v2.9m0 1.4v2.8m0 1.5v2.8m0 1.4v2.8m0 1.5v2.8m0 1.4v2.8m0 1.5v2.8m0 1.4v2.8m0 1.5v2.8m0 1.4v2.9m0 1.4v2.8m0 1.4v2.9m0 1.4v2.8m0 1.4v2.9m0 1.4v2.8m0 1.4v.9m0 0h-2.7m-1.4 0h-2.8m-1.4 0h-2.9m-1.4 0h-2.8m-1.4 0h-2.9m-1.4 0h-2.8m-1.4 0h-2.9m-1.4 0h-2.8m-1.4 0h-2.9m-1.4 0h-2.8m-1.5 0h-2.8m-1.4 0h-2.8m-1.5 0h-2.8m-1.4 0h-2.8m-1.5 0h-2.8m-1.4 0h-2.8m-1.5 0h-2.8m-1.4 0h-2.8m-1.5 0h-2.8m-1.4 0h-2.7M60-1.5v.8m0 1.4v2.9M60 5v2.8m0 1.4v2.9m0 1.4v2.8m0 1.4v2.9m0 1.4v2.8m0 1.4v2.9m0 1.4v2.8m0 1.4v2.9m0 1.4v2.8m0 1.4v2.9m0 1.4v2.8m0 1.5v2.8m0 1.4v2.8m0 1.5v2.8m0 1.4v2.8m0 1.5v1.1m0 0h2.7m1.4 0H67m1.4 0h2.8m1.4 0h2.9m1.4 0h2.8m1.4 0H84m1.4 0h2.8m1.4 0h2.9m1.4 0h2.8m1.4 0h2.9m1.4 0h2.8m1.4 0h2.9m1.4 0h2.8m1.4 0h2.9m1.4 0h2.8m1.4 0h2.9m1.4 0h2.8m1.4 0h2.9m1.4 0h2.8m1.5 0h2.6M60 161.5v2.2m0 1.4v2.9m0 1.4v2.8m0 1.4v2.9m0 1.4v2.8m0 1.4v2.9m0 1.4v2.8m0 1.4v2.9m0 1.4v2.8m0 1.5v2.8m0 1.4v2.8m0 1.5v2.8m0 1.4v2.8m0 1.5v2.8m0 1.4v2.8m0 1.5v2.8m0 1.4v2.9m0 1.4v2.8m0 1.4v2.9m0 1.4v2.8m0 1.4v2.9m0 1.4v2.8m0 1.4v2.9m0 1.4v2.8m0 1.4v2.9m0 1.4v2.8m0 1.4v2.9m0 1.4v2.8m0 1.4v2.9m0 1.4v2.8m0 1.4v2.9m0 1.4v2.8m0 1.4v2.9m0 1.4v2.8m0 1.5v2.8m0 1.4v2.8m0 1.5v2.8m0 1.4v2.8m0 1.5v2.8m0 1.4v2.8m0 1.5v2.2m0 0h2.7m1.4 0H67m1.4 0h2.8m1.4 0h2.9m1.4 0h2.8m1.4 0H84m1.4 0h2.8m1.4 0h2.9m1.4 0h2.8m1.4 0h2.9m1.4 0h2.8m1.4 0h2.9m1.4 0h2.8m1.4 0h2.9m1.4 0h2.8m1.4 0h2.9m1.4 0h2.8m1.4 0h2.9m1.4 0h2.8m1.5 0h2.6m78.3 127.6h-.6m-.7 0h-1.7m-.7 0h-1.7m-.7 0h-1.7m-.7 0h-1.7m-.7 0H209m-.7 0h-1.7m-.8 0h-1.7m-.7 0h-1.7m-.7 0h-1.7m-.7 0h-1.7m-.7 0h-1.7m-.7 0h-1.7m-.7 0h-1.7m-.7 0h-1.7m-.7 0h-1.7m-.7 0h-1.7m-.7 0h-1.7m-.8 0h-1.7m-.7 0h-1.7m-.7 0h-1.7m-.7 0h-1.7m-.7 0H168m-.7 0h-1.7m-.7 0h-1.7m-.7 0h-1.7m-.7 0h-.6m0 0v-.9m0-.7v-1.7m0-.7v-1.7m0-.7v-1.7m0-.7v-1.7m0-.7v-1.7m0-.7v-1.7m0-.7v-1.7m0-.7v-1.7m0-.7v-1.7m0-.8v-.8m0 0h-.8m-.7 0h-1.7m-.7 0h-1.7m-.7 0h-.8m65.2 20.1h-1.4m-.7 0h-1.7m-.7 0h-1.7m-.7 0H209m-.7 0h-1.7m-.8 0h-1.7m-.7 0h-1.7m-.7 0h-1.7m-.7 0h-1.7m-.7 0h-1.7m-.7 0h-1.7m-.7 0h-1.7m-.7 0h-1.7m-.7 0h-1.7m-.7 0h-1.7m-.7 0h-1.7m-.8 0h-1.7m-.7 0h-1.7m-.7 0h-1.7m-.7 0h-1.7m-.7 0H168m-.7 0h-1.7m-.7 0h-1.4m0 0v-.8m0-.7v-1.7m0-.7v-1.7m0-.8v-1.7m0-.7v-1.7m0-.7v-1.7m0-.7v-1.7m0-.7v-1.7m0-.7v-1.7m0-.7v-1.7m0-.7v-.9m0 0h-1.1m-.7 0H160m-.7 0h-1.7m-.7 0h-1.7m-.7 0h-1.7m-.7 0h-1.7m-.7 0H148m-.8 0h-1m0 0v1.1m0 .7v1.7m0 .7v1.7m0 .7v1.7m0 .7v1.7m0 .7v1.7m0 .7v1.7m0 .8v1.7m0 .7v1.7m0 .7v1.7m0 .7v1.7m0 .7v1.7m0 .7v1.7m0 .7v1.7m0 .7v1.7m0 .7v1.7m0 .7v1.7m0 .8v1m0 0h.5m.7 0h1.7m.7 0h1.7m.7 0h1.7m.7 0h1.7m.7 0h1.7m.7 0h1.7m.7 0h1.7m.8 0h1.7m.7 0h1.7m.7 0h1.7m.7 0h1.7m.7 0h1.7m.7 0h1.7m.7 0h1.7m.7 0h1.7m.7 0h1.7m.7 0h1.7m.7 0h1.7m.8 0h1.7m.7 0h1.7m.7 0h1.7m.7 0h1.7m.7 0h1.7m.7 0h1.7m.7 0h1.7m.7 0h1.7m.7 0h1.7m.7 0h1.7m.7 0h.5m0 0v1.1m0 .7v1.7m0 .7v1.7m0 .7v1.7m0 .7v1.7m0 .7v1.7m0 .7v1.7m0 .7v1.7m0 .8v1.7m0 .7v1.7m0 .7v1.7m0 .7v1.7m0 .7v1.7m0 .7v1.7m0 .7v1.7m0 .7v1.7m0 .7v1.7m0 .7v1.7m0 .7v1.7m0 .8v1.7m0 .7v1.7m0 .7v1.7m0 .7v1.7m0 .7v1.7m0 .7v1.7m0 .7v1.7m0 .7v1.7m0 .7v1.7m0 .7v1.7m0 .8v1.7m0 .7v1.7m0 .7v1.7m0 .7v1.7m0 .7v1.7m0 .7v1.7m0 .7v1.7m0 .7v1.7m0 .7v1.7m0 .7v1.7m0 .7v1.7m0 .8v1.7m0 .7v1.7m0 .7v1.7m0 .7v1.7m0 .7v1.7m0 .7v1.7m0 .7v1.7m0 .7v1.7m0 .7v1.7m0 .7v1.7m0 .7v1.7m0 .8v1.7m0 .7v1.7m0 .7v1.7m0 .7v1.7m0 .7v1.7m0 .7v1.7m0 .7v1.7m0 .7v1.7m0 .7v1.7m0 .7v1.7m0 .8v1.7m0 .7v1.7m0 .7v1.7m0 .7v1.7m0 .7v1.7m0 .7v1.7m0 .7v1.7m0 .7v1.7m0 .7v1.7m0 .7v1.7m0 .7v1.7m0 .8v1.7m0 .7v1.7m0 .7v1.7m0 .7v1.7m0 .7v1.7m0 .7v1.7m0 .7v1.7m0 .7v1.7m0 .7v1.7m0 .7v1.7m0 .8v1.7m0 .7v1.7m0 .7v1.7m0 .7v1.7m0 .7v1.7m0 .7v1.7m0 .7v1.7m0 .7v1.7m0 .7v1.7m0 .7v1.7m0 .7v1.7m0 .8v1.7m0 .7v1.7m0 .7v1.7m0 .7v1.7m0 .7v1.7m0 .7v1.7m0 .7v1.7m0 .7v1.7m0 .7v1.7m0 .7v1.7m0 .7v1.8m0 .7v1.7m0 .7v1.7m0 .7v1.7m0 .7v1.7m0 .7v1.7m0 .7v1.7m0 .7v1.7m0 .7v1.7m0 .7v1.7m0 .7v1.7m0 .8v1.7m0 .7v1.7m0 .7v1.7m0 .7v1.7m0 .7v1.7m0 .7v1.7m0 .7v1.7m0 .7v1.7"/></g><path d="M215.3 767.4v1.7" class="e f"/><path d="M215.3 769.8v1.1m-62.9-334.2v-1.3m0-.7V433m0-.7v-1.7m0-.7v-1.7m0-.7v-1.7m0-.7v-1.7m0-.7V421m0-.7v-1.7m0-.8v-1.7m0-.7v-1.7m0-.7v-1.7m0-.7v-1.7m0-.7v-1.7m0-.7v-1.7m0-.7v-1.7m0-.7v-1.7m0-.7v-1.7m0-.7v-1.7m0-.7v-1.7m0-.8v-1.7m0-.7v-1.7m0-.7v-1.7m0-.7v-1.7m0-.7V380m0-.7v-1.7m0-.7v-1.7m0-.7v-1.7m0-.7v-1.7m0-.7V368m0-.8v-1.7m0-.7v-1.7m0-.7v-1.7m0-.7v-1.7m0-.7v-1.7m0-.7v-1.7m0-.7v-1.7m0-.7v-1.7m0-.7v-1.7m0-.7v-1.7m0-.7v-1.7m0-.8V339m0-.7v-1.7m0-.7v-1.7m0-.7v-1.7m0-.7v-1.7m0-.7V327m0-.7v-1.7m0-.7v-1.7m0-.7v-1.7m0-.7v-1.7m0-.8v-1.7m0-.7v-1.7m0-.7v-1.7m0-.7v-1.7m0-.7v-1.7m0-.7v-1.7m0-.7v-1.7m0-.7v-1.7m0-.7v-1.7m0-.7v-1.7m0-.7v-1.7m0-.8v-1.7m0-.7V286m0-.7v-1.7m0-.7v-1.7m0-.7v-1.7m0-.7v-1.7m0-.7V274m0-.7v-1.7m0-.7v-1.7m0-.7v-1.7m0-.7v-1.8m0-.7v-1.7m0-.7v-1.7m0-.7v-1.7m0-.7v-1.7m0-.7v-1.7m0-.7v-1.7m0-.7v-1.7m0-.7v-1.7m0-.7v-1.7m0-.7v-1.7m0-.8v-1.7m0-.7v-1.7m0-.7V233m0-.7v-1.7m0-.7v-1.7m0-.7v-1.7m0-.7v-1.7m0-.7V221m0-.7v-1.7m0-.7v-1.7m0-.7v-1.7m0-.8v-1.7m0-.7v-1.7m0-.7v-1.7m0-.7v-1.7m0-.7v-1.7m0-.7v-1.7m0-.7v-1.7m0-.7v-1.7m0-.7v-1.7m0-.7v-1.7m0-.8v-1.7m0-.7v-1.7m0-.7v-1.7m0-.7V180m0-.7v-1.7m0-.7v-1.7m0-.7v-1.7m0-.7v-1.7m0-.7V168m0-.7v-1.7m0-.7v-1.7m0-.8v-1.7m0-.7v-1.7m0-.7v-1.7m0-.7v-1.7m0-.7v-1.7m0-.7v-1.7m0-.7v-1.7m0-.7v-1.7m0-.7v-1.7m0-.7v-1.7m0-.7v-1.8m0-.7v-1.7m0-.7v-1.7m0-.7v-1.7m0-.7V127m0-.7v-1.7m0-.7v-1.7m0-.7v-1.7m0-.7v-1.7m0-.7V115m0-.7v-1.7m0-.8v-1.7m0-.7v-1.7m0-.7v-1.7m0-.7v-1.7m0-.7v-1.7m0-.7v-1.7m0-.7v-1.7m0-.7v-1.7m0-.7v-1.7m0-.7v-1.7m0-.7v-1.7m0-.8v-1.7m0-.7v-1.7m0-.7v-1.7m0-.7v-1.7m0-.7V74m0-.7v-1.7m0-.7v-1.7m0-.7v-1.7m0-.7v-1.7m0-.7V62m0-.8v-1.7m0-.7v-1.7m0-.7v-1.7m0-.7v-1.7m0-.7v-1.7m0-.7v-1.7m0-.7v-1.7m0-.7v-1.7m0-.7v-1.7m0-.7v-1.7m0-.7v-1.7m0-.8V33m0-.7v-1.7m0-.7v-1.7m0-.7v-1.7m0-.7v-1.7m0-.7V21m0-.7v-1.7m0-.7v-1.7m0-.7v-1.7m0-.7v-1.7m0-.8V8.9m0-.7V6.5m0-.7V4.1m0-.7V1.7m0-.7V-.7m0-.7v-.1m77.7 844.1v-1.3m0-.7v-1.7m0-.7v-1.7m0-.8V834m0-.7v-1.7m0-.7v-1.7m0-.7v-1.7m0-.7v-1.7m0-.7V822m0-.7v-1.7m0-.7v-1.7m0-.7v-1.7m0-.7v-1.7m0-.8v-1.7m0-.7v-1.7m0-.7v-1.7m0-.7v-1.7m0-.7v-1.7m0-.7v-1.7m0-.7v-1.7m0-.7v-1.7m0-.7v-1.7m0-.7v-1.7m0-.7v-1.7m0-.8v-1.7m0-.7V781m0-.7v-1.7m0-.7v-1.7m0-.7v-1.7m0-.7v-1.7m0-.7V769m0-.7v-1.7m0-.7v-1.7m0-.7v-1.7m0-.7v-1.7m0-.8v-1.7m0-.7v-1.7m0-.7v-1.7m0-.7v-1.7m0-.7v-1.7m0-.7v-1.7m0-.7v-1.7m0-.7v-1.7m0-.7v-1.7m0-.7v-1.7m0-.8v-1.7m0-.7v-1.7m0-.7V728m0-.7v-1.7m0-.7v-1.7m0-.7v-1.7m0-.7v-1.7m0-.7V716m0-.7v-1.7m0-.7v-1.7m0-.7v-1.7m0-.8v-1.7m0-.7v-1.7m0-.7v-1.7m0-.7v-1.7m0-.7v-1.7m0-.7v-1.7m0-.7v-1.7m0-.7v-1.7m0-.7v-1.7m0-.7v-1.7m0-.8v-1.7m0-.7v-1.7m0-.7v-1.7m0-.7V675m0-.7v-1.7m0-.7v-1.7m0-.7v-1.7m0-.7v-1.7m0-.7V663m0-.7v-1.7m0-.7v-1.7m0-.8v-1.7m0-.7v-1.7m0-.7v-1.7m0-.7v-1.7m0-.7v-1.7m0-.7v-1.7m0-.7v-1.7m0-.7v-1.7m0-.7v-1.7m0-.7v-1.7m0-.7v-1.8m0-.7v-1.7m0-.7v-1.7m0-.7v-1.7m0-.7V622m0-.7v-1.7m0-.7v-1.7m0-.7v-1.7m0-.7v-1.7m0-.7V610m0-.7v-1.7m0-.8v-1.7m0-.7v-1.7m0-.7v-1.7m0-.7v-1.7m0-.7v-1.7m0-.7v-1.7m0-.7v-1.7m0-.7v-1.7m0-.7v-1.7m0-.7v-1.7m0-.7v-1.7m0-.8v-1.7m0-.7v-1.7m0-.7v-1.7m0-.7v-1.7m0-.7v-1.3m194.7-20.2c0-16 12.9-28.9 28.9-28.9" class="V W"/></g><path d="M481.4,530c16,0,28.9,12.9,28.9,28.9"/><path d="M519.2,433c16,0,28.9,12.9,28.9,28.9" class="Q R S V W"/></g><path d="M512.1 514.6h4.3v5.7l-4.3-5.7" class="Y"/><path d="M516.4 514.6h-4.3m4.3-45.3h-4.3m4.3 51v-5.7" class="Q R S V W X"/><path d="M375.2 181.3h4.3v5.7l-4.3-5.7m0-45.4l4.3-5.6v5.6h-4.3" class="Y"/><path d="M379.5 181.3h-4.3m4.3-45.4h-4.3m4.3 51.1v-5.7m0-51v5.6" class="Q R S V W X"/><text transform="matrix(0 -1 1 0 559.9554 473.9059)"><tspan x="0" y="0" class="T U">0</tspan><tspan x="1.6" y="0" class="T U">1</tspan></text><text transform="matrix(0 -1 1 0 591.7035 473.9059)"><tspan x="0" y="0" class="T U">0</tspan><tspan x="1.6" y="0" class="T U">5</tspan></text><text transform="matrix(0 -1 1 0 599.6405 473.9059)"><tspan x="0" y="0" class="T U">0</tspan><tspan x="1.6" y="0" class="T U">6</tspan></text><text transform="matrix(0 -1 1 0 607.5775 473.9059)"><tspan x="0" y="0" class="T U">0</tspan><tspan x="1.6" y="0" class="T U">7</tspan></text><text transform="matrix(0 -1 1 0 615.515 473.9059)"><tspan x="0" y="0" class="T U">0</tspan><tspan x="1.6" y="0" class="T U">8</tspan></text><text transform="matrix(0 -1 1 0 623.4515 473.9059)"><tspan x="0" y="0" class="T U">0</tspan><tspan x="1.6" y="0" class="T U">9</tspan></text><text><tspan x="650.812" y="510.459" class="T U">1</tspan><tspan x="652.412" y="510.459" class="T U">0</tspan><tspan x="651.027" y="518.396" class="T U">1</tspan><tspan x="652.527" y="518.396" class="T U">1</tspan></text><text transform="matrix(0 -1 1 0 618.9764 556.3541)"><tspan x="0" y="0" class="T U">1</tspan><tspan x="1.6" y="0" class="T U">2</tspan></text><text transform="matrix(0 -1 1 0 611.0399 556.3541)"><tspan x="0" y="0" class="T U">1</tspan><tspan x="1.6" y="0" class="T U">3</tspan></text><text transform="matrix(0 -1 1 0 603.1029 556.3541)"><tspan x="0" y="0" class="T U">1</tspan><tspan x="1.6" y="0" class="T U">4</tspan></text><text transform="matrix(0 -1 1 0 595.1654 556.3541)"><tspan x="0" y="0" class="T U">1</tspan><tspan x="1.6" y="0" class="T U">5</tspan></text><text transform="matrix(0 -1 1 0 587.2284 556.3541)"><tspan x="0" y="0" class="T U">1</tspan><tspan x="1.6" y="0" class="T U">6</tspan></text><text transform="matrix(0 -1 1 0 579.2909 556.3541)"><tspan x="0" y="0" class="T U">1</tspan><tspan x="1.6" y="0" class="T U">7</tspan></text><text transform="matrix(0 -1 1 0 563.4174 556.3541)"><tspan x="0" y="0" class="T U">1</tspan><tspan x="1.6" y="0" class="T U">9</tspan></text><text transform="matrix(0 -1 1 0 555.4803 556.3541)"><tspan x="0" y="0" class="T U">2</tspan><tspan x="1.6" y="0" class="T U">0</tspan></text><text transform="matrix(0 -1 1 0 571.3549 556.3541)"><tspan x="0" y="0" class="T U">1</tspan><tspan x="1.6" y="0" class="T U">8</tspan></text><text transform="matrix(0 -1 1 0 583.766 473.9059)"><tspan x="0" y="0" class="T U">0</tspan><tspan x="1.6" y="0" class="T U">4</tspan></text><text transform="matrix(0 -1 1 0 575.8295 473.9059)"><tspan x="0" y="0" class="T U">0</tspan><tspan x="1.6" y="0" class="T U">3</tspan></text><text transform="matrix(0 -1 1 0 567.8925 473.9059)"><tspan x="0" y="0" class="T U">0</tspan><tspan x="1.6" y="0" class="T U">2</tspan></text><text transform="matrix(0 -1 1 0 547.6849 119.2911)"><tspan x="0" y="0" class="T U">0</tspan><tspan x="1.6" y="0" class="T U">5</tspan></text><text transform="matrix(0 -1 1 0 484.1889 119.2911)"><tspan x="0" y="0" class="T U">1</tspan><tspan x="1.6" y="0" class="T U">3</tspan></text><text transform="matrix(0 -1 1 0 476.2523 119.2911)"><tspan x="0" y="0" class="T U">1</tspan><tspan x="1.6" y="0" class="T U">4</tspan></text><text transform="matrix(0 -1 1 0 468.3153 119.2911)"><tspan x="0" y="0" class="T U">1</tspan><tspan x="1.6" y="0" class="T U">5</tspan></text><text transform="matrix(0 -1 1 0 460.3783 119.2911)"><tspan x="0" y="0" class="T U">1</tspan><tspan x="1.6" y="0" class="T U">6</tspan></text><text transform="matrix(0 -1 1 0 452.4408 119.2911)"><tspan x="0" y="0" class="T U">1</tspan><tspan x="1.6" y="0" class="T U">7</tspan></text><text transform="matrix(0 -1 1 0 436.5678 119.2911)"><tspan x="0" y="0" class="T U">1</tspan><tspan x="1.6" y="0" class="T U">9</tspan></text><text transform="matrix(0 -1 1 0 428.6303 119.2911)"><tspan x="0" y="0" class="T U">2</tspan><tspan x="1.6" y="0" class="T U">0</tspan></text><text transform="matrix(0 -1 1 0 531.8114 119.2911)"><tspan x="0" y="0" class="T U">0</tspan><tspan x="1.6" y="0" class="T U">7</tspan></text><text transform="matrix(0 -1 1 0 523.8744 119.2911)"><tspan x="0" y="0" class="T U">0</tspan><tspan x="1.6" y="0" class="T U">8</tspan></text><text transform="matrix(0 -1 1 0 515.9369 119.2911)"><tspan x="0" y="0" class="T U">0</tspan><tspan x="1.6" y="0" class="T U">9</tspan></text><text transform="matrix(0 -1 1 0 508.0004 119.2911)"><tspan x="0" y="0" class="T U">1</tspan><tspan x="1.6" y="0" class="T U">0</tspan></text><text transform="matrix(0 -1 1 0 500.0634 119.0772)"><tspan x="0" y="0" class="T U">1</tspan><tspan x="1.5" y="0" class="T U">1</tspan></text><text transform="matrix(0 -1 1 0 492.1264 119.2911)"><tspan x="0" y="0" class="T U">1</tspan><tspan x="1.6" y="0" class="T U">2</tspan></text><text transform="matrix(0 -1 1 0 539.7484 119.2911)"><tspan x="0" y="0" class="T U">0</tspan><tspan x="1.6" y="0" class="T U">6</tspan></text><text transform="matrix(0 -1 1 0 444.5043 119.2911)"><tspan x="0" y="0" class="T U">1</tspan><tspan x="1.6" y="0" class="T U">8</tspan></text><text><tspan x="579.52" y="176.179" class="T U">0</tspan><tspan x="581.12" y="176.179" class="T U">1</tspan><tspan x="579.52" y="152.368" class="T U">0</tspan><tspan x="581.12" y="152.368" class="T U">4</tspan><tspan x="579.521" y="160.305" class="T U">0</tspan><tspan x="581.121" y="160.305" class="T U">3</tspan><tspan x="579.521" y="168.242" class="T U">0</tspan><tspan x="581.121" y="168.242" class="T U">2</tspan></text><text transform="translate(338.378 166.69)" class="b c d">Lift</text><text transform="translate(478.03 497.398)" class="b c d">Lift</text><path d="M390.2 683.5l-.3-1.6-1-1.2-1.4-.7h-1.6l-1.4.7-1 1.2-.3 1.6v7l.3 1.6 1 1.2 1.4.7h1.6l1.4-.7 1-1.2.3-1.6v-7" class="Y"/><g class="Q R S V W X"><path d="M390.2 683.5v7m-7-7v7"/><use xlink:href="#C"/><path d="M383.2,683.5c0-2,1.6-3.5,3.5-3.5c2,0,3.5,1.6,3.5,3.5"/></g><path d="M390.2 923.5v-7l-.3-1.6-1-1.2-1.4-.7h-1.6l-1.4.7-1 1.2-.3 1.6v7l.3 1.6 1 1.2 1.4.7h1.6l1.4-.7 1-1.2.3-1.6" class="Y"/><g class="Q R S V W X"><path d="M390.2 923.5v-7m-7 7v-7m0 0c0-2 1.6-3.5 3.5-3.5 2 0 3.5 1.6 3.5 3.5"/><use xlink:href="#C" y="233"/></g><path d="M699.2 683.5l-.3-1.6-1-1.2-1.4-.7h-1.6l-1.4.7-1 1.2-.4 1.6v7l.4 1.6 1 1.2 1.4.7h1.6l1.4-.7 1-1.2.3-1.6v-7" class="Y"/><g class="Q R S V W X"><path d="M699.2 683.5v7m-7.1-7v7"/><use xlink:href="#C" x="309"/><path d="M692.1,683.5c0-2,1.6-3.5,3.5-3.5c2,0,3.5,1.6,3.5,3.5"/></g><use xlink:href="#D" class="Y"/><g class="Q R S V W X"><path d="M544.7 923.5v-7m-7.1 7v-7m0 0c0-2 1.6-3.5 3.5-3.5 2 0 3.5 1.6 3.5 3.5"/><use xlink:href="#C" x="154.5" y="233"/></g><use xlink:href="#D" x="154.5" class="Y"/><g class="Q R S V W X"><path d="M699.2 923.5v-7m-7.1 7v-7m0 0c0-2 1.6-3.5 3.5-3.5 2 0 3.5 1.6 3.5 3.5"/><use xlink:href="#C" x="309" y="233"/></g><text><tspan x="245.214" y="520.281" class="b c d">Abstell 01</tspan><tspan y="532.281" x="245.214" class="b c d">WHG A21</tspan><tspan y="544.281" x="245.214" class="b c d">31.4 m</tspan><tspan x="428.464" y="176.43" class="b c d">Treppenhaus 2</tspan><tspan y="188.43" x="428.464" class="b c d">44.2 m</tspan></text><text transform="matrix(0 -1 1 0 530.8689 553.9055)"><tspan x="0" y="0" class="b c d">Treppenhaus 1</tspan><tspan y="12" x="0" class="b c d">17.9 m</tspan></text><text transform="translate(263.784 640.905)" class="b c">28</text><text transform="translate(342.784 640.905)" class="b c">27</text><text transform="translate(421.284 640.905)" class="b c">26</text><text transform="translate(263.784 971.905)" class="b c">29</text><text transform="translate(342.784 971.905)" class="b c">30</text><text transform="translate(421.284 971.905)" class="b c">31</text><text transform="translate(498.284 971.905)" class="b c">32</text><text transform="translate(574.784 971.905)" class="b c">33</text><text transform="translate(654.284 971.905)" class="b c">34</text><text transform="translate(556.284 640.905)" class="b c">IV 25</text><text transform="translate(650.284 640.905)" class="b c">24</text><defs ><path id="B" d="M595.2 456.8l157.6-157.6"/><path id="C" d="M390.2 690.5c0 2-1.6 3.5-3.5 3.5-2 0-3.5-1.6-3.5-3.5"/><path id="D" d="M544.7 923.5v-7l-.3-1.6-1-1.2-1.4-.7h-1.6l-1.4.7-1 1.2-.4 1.6v7l.4 1.6 1 1.2 1.4.7h1.6l1.4-.7 1-1.2.3-1.6"/></defs></svg>