<svg xmlns="http://www.w3.org/2000/svg" xmlns:xlink="http://www.w3.org/1999/xlink" viewBox="0 0 751.2 1091.3"><style><![CDATA[.Q{clip-path:url(#H)}.R{font-family:ArialMT}.S{stroke-linecap:round}.T{stroke-linejoin:round}.U{stroke-miterlimit:10}.V{stroke:#000}.W{stroke-width:.4}.X{font-size:2.916px}.Y{fill:none}.Z{fill-rule:evenodd}.a{font-family:ArialNarrow-Bold}.b{font-size:5.002px}.c{font-family:Tinos-Regular}.d{font-size:10px}.e{fill:#231f20}.f{opacity:.502}.g{font-size:9.719px}]]></style><path d="M227.8 444.9h227.7v114.9H227.8z" fill="#e8e9dd"/><path d="M752.7-.6v557h-86.2v-98.6h-71.4V103.1H315.9V216h187.9v217.7H217.5v122.7H-9.8V-.6h762.5" fill="#e6e7e8" class="Z"/><defs><path id="A" d="M-1268.2 968.3H-833v-12.8h-2.3V854.3h-92.4v-82.5h90.7V433.7h286.3V216h-187.9V103.1h279.2v354.7h71.4v98.6h605.5V433.7h286.3V216H315.9V103.1h279.2v354.7h71.4v98.6h1074.6v2.3h216.3L2257.9 769l94.8 135.3L2373 890l-140.3-278.1-61.8-279.5-152.5-684.1-77.1-81.1-3126.1 123.1-3.8 68.6-5.6 111.9-74 1097.5"/><path id="B" d="M556.7 489.2c.8 0 1.4-.6 1.4-1.4s-.6-1.4-1.4-1.4-1.4.6-1.4 1.4c-.1.8.6 1.4 1.4 1.4"/><path id="C" d="M726 691.5c0 2-1.6 3.5-3.5 3.5-2 0-3.5-1.6-3.5-3.5"/><path id="D" d="M718.9,684.4c0-2,1.6-3.5,3.5-3.5c2,0,3.5,1.6,3.5,3.5"/><path id="E" d="M108.1 684.4l-.4-1.6-1-1.2-1.4-.7h-1.6l-1.4.7-1 1.2-.3 1.6v7.1l.3 1.5 1 1.2 1.4.7h1.6l1.4-.7 1-1.2.4-1.5v-7.1"/><path id="F" d="M108.1 924.5v-7.1l-.4-1.5-1-1.3-1.4-.7h-1.6l-1.4.7-1 1.3-.3 1.5v7.1l.3 1.5 1 1.2 1.4.7h1.6l1.4-.7 1-1.2.4-1.5"/><path id="G" d="M101,917.4c0-2,1.6-3.5,3.5-3.5c2,0,3.5,1.6,3.5,3.5"/></defs><clipPath id="H"><use xlink:href="#A"/></clipPath><g class="Y"><path d="M748.8 556.4l3.9-3.9m-7.9 3.9l7.9-7.9m-11.9 7.9l11.9-11.9m-15.9 11.9l15.9-15.9m-19.9 15.9l19.9-19.9m-23.9 19.9l23.9-23.9m-27.9 23.9l27.9-27.9m-32 27.9l32-31.9m-36 31.9l36-35.9m-40 35.9l40-40m-44 40l44-44m-48 44l48-48m-52 48l52-52m-56 52l56-56m-60 56l60-60m-64 60l64-64m-68 64l68-68m-72 68l72-72m-76.1 72l76.1-76m-80.1 76l80.1-80m-84.1 80l84.1-84m-86.2 82.1l86.2-86.2m-86.2 82.2l86.2-86.2m-86.2 82.2l86.2-86.2m-86.2 82.2l86.2-86.2m-86.2 82.2l86.2-86.2m-86.2 82.2l86.2-86.2m-86.2 82.2l86.2-86.2m-86.2 82.2l86.2-86.2m-86.2 82.1l86.2-86.1m-86.2 82.1l86.2-86.1m-86.2 82.1l86.2-86.1m-86.2 82.1l86.2-86.2m-86.2 82.2l86.2-86.2m-86.2 82.2l86.2-86.2m-86.2 82.2l86.2-86.2m-86.2 82.2l86.2-86.2m-86.2 82.2l86.2-86.2m-86.2 82.2l86.2-86.2m-86.2 82.2l86.2-86.2m-86.2 82.1l86.2-86.1m-86.2 82.1l86.2-86.1m-86.2 82.1l86.2-86.1m-86.2 82.1l86.2-86.2m-86.2 82.2l86.2-86.2m-86.2 82.2l86.2-86.2M663 457.8l89.7-89.7M659 457.8l93.7-93.7M655 457.8l97.7-97.7M651 457.8l101.7-101.7M647 457.8l105.7-105.7M643 457.8l109.7-109.7M639 457.8l113.7-113.7M635 457.8l117.7-117.7M631 457.8l121.7-121.7M627 457.8L752.7 332M623 457.8L752.7 328M619 457.8L752.7 324M614.9 457.8L752.7 320M610.9 457.8L752.7 316M606.9 457.8L752.7 312M602.9 457.8L752.7 308M598.9 457.8L752.7 304M595.1 457.6L752.7 300M595.1 453.6L752.7 296M595.1 449.6L752.7 292M595.1 445.6l157.6-157.7M595.1 441.5l157.6-157.6M595.1 437.5l157.6-157.6M595.1 433.5l157.6-157.6M595.1 429.5l157.6-157.6M595.1 425.5l157.6-157.6M595.1 421.5l157.6-157.6M595.1 417.5l157.6-157.6M595.1 413.5l157.6-157.6M595.1 409.5l157.6-157.6M595.1 405.5l157.6-157.6M595.1 401.5l157.6-157.7M595.1 397.4l157.6-157.6M595.1 393.4l157.6-157.6M595.1 389.4l157.6-157.6M595.1 385.4l157.6-157.6M595.1 381.4l157.6-157.6M595.1 377.4l157.6-157.6M595.1 373.4l157.6-157.6M595.1 369.4l157.6-157.6M595.1 365.4l157.6-157.6M595.1 361.4l157.6-157.6M595.1 357.4l157.6-157.6M595.1 353.3l157.6-157.6M595.1 349.3l157.6-157.6M595.1 345.3l157.6-157.6" class="Q S T U" stroke="#939598" stroke-width=".2"/><path d="M502.7 433.7l1.1-1.1" class="Q"/><g stroke="#939598" stroke-width=".2" class="S T U"><path d="M595.1 341.3l157.6-157.6m-254 250l5.1-5.1m91.3-91.3l157.6-157.6m-258 254l9.1-9.1m91.3-91.3l157.6-157.6m-262 258l13.1-13.1m91.3-91.3l157.6-157.6m-266 262l17.1-17.1m91.3-91.3l157.6-157.6m-270 266l21.1-21.1m91.3-91.3l157.6-157.6m-274 270l25.1-25.2m91.3-91.2l157.6-157.6m-278 274l29.1-29.2m91.3-91.2l157.6-157.6m-282 278l33.1-33.2m91.3-91.2l157.6-157.7m-286 282.1l37.1-37.2m91.3-91.3l157.6-157.6m-290 286.1l41.1-41.2m91.3-91.3l157.6-157.6M458.6 433.7l45.2-45.2m91.3-91.3l157.6-157.6M454.6 433.7l49.2-49.2m91.3-91.3l157.6-157.6M450.6 433.7l53.2-53.2m91.3-91.3l157.6-157.6M446.6 433.7l57.2-57.2m91.3-91.3l157.6-157.6M442.6 433.7l61.2-61.2m91.3-91.3l157.6-157.6M438.6 433.7l65.2-65.2m91.3-91.3l157.6-157.6M434.6 433.7l69.2-69.3m91.3-91.2l157.6-157.6M430.6 433.7l73.2-73.3m91.3-91.2l157.6-157.6M426.6 433.7l77.2-77.3m91.3-91.2l157.6-157.7M422.6 433.7l81.2-81.3m91.3-91.3l157.6-157.6M418.6 433.7l85.2-85.3m91.3-91.3L752.7 99.5M414.5 433.7l89.3-89.3m91.3-91.3L752.7 95.5M410.5 433.7l93.3-93.3m91.3-91.3L752.7 91.5M406.5 433.7l97.3-97.3m91.3-91.3L752.7 87.5M402.5 433.7l101.3-101.3m91.3-91.3L752.7 83.5M398.5 433.7l105.3-105.3m91.3-91.3L752.7 79.5M394.5 433.7l109.3-109.3m91.3-91.3L752.7 75.5M390.5 433.7l113.3-113.3m91.3-91.3L752.7 71.5M386.5 433.7l117.3-117.4m91.3-91.2L752.7 67.5M382.5 433.7l121.3-121.4m91.3-91.2L752.7 63.5M378.5 433.7l125.3-125.4m91.3-91.2L752.7 59.4M374.5 433.7l129.3-129.4m91.3-91.3L752.7 55.4M370.4 433.7l133.4-133.4m91.3-91.3L752.7 51.4M366.4 433.7l137.4-137.4m91.3-91.3L752.7 47.4M362.4 433.7l141.4-141.4m91.3-91.3L752.7 43.4M358.4 433.7l145.4-145.4m91.3-91.3L752.7 39.4M354.4 433.7l149.4-149.4m91.3-91.3L752.7 35.4M350.4 433.7l153.4-153.4m91.3-91.3L752.7 31.4M346.4 433.7l157.4-157.4m91.3-91.3L752.7 27.4M342.4 433.7l161.4-161.5m91.3-91.2L752.7 23.4m-537.1 533l1.9-1.9m120.9-120.8l165.4-165.5m91.3-91.2L752.7 19.4m-541.1 537l5.9-5.9m116.9-116.8l169.4-169.5m91.3-91.2L752.7 15.3M207.6 556.4l9.9-9.9m112.9-112.8l173.4-173.5m91.3-91.3L752.7 11.3M203.6 556.4l13.9-13.9m108.9-108.8l177.4-177.5m91.3-91.3L752.7 7.3M199.6 556.4l17.9-17.9m104.8-104.8l181.5-181.5m91.3-91.3L752.7 3.3M195.6 556.4l21.9-21.9m100.8-100.8l185.5-185.5m91.3-91.3L752.6-.6m-561 557l25.9-25.9m96.8-96.8l189.5-189.5m91.3-91.3L748.6-.6m-561 557l29.9-29.9m92.8-92.8l193.5-193.5m91.3-91.3L744.6-.6m-561 557l33.9-33.9m88.8-88.8l197.5-197.5m91.3-91.3L740.6-.6m-561 557l37.9-37.9m84.8-84.8l201.5-201.5m91.3-91.3L736.6-.6m-561.1 557l42-41.9m80.8-80.8l205.5-205.5m91.3-91.3L732.6-.6m-561.1 557l46-46m76.8-76.7l209.5-209.6m91.3-91.2L728.5-.6m-561 557l50-50m72.8-72.7l213.5-213.6m91.3-91.2L724.5-.6m-561 557l54-54m68.8-68.7l217.5-217.6m91.3-91.3L720.5-.6m-561 557l58-58m64.8-64.7L500 216m95.1-95.2L716.5-.6m-561 557l62-62m60.7-60.7L495.9 216m99.2-99.2L712.5-.6m-561 557l66-66m56.7-56.7L491.9 216m103.2-103.2L708.5-.6m-561 557l70-70m52.7-52.7L487.9 216m107.2-107.2L704.5-.6m-561 557l74-74m48.7-48.7L483.9 216m111.2-111.2L700.5-.6m-561 557l78-78m44.7-44.7L479.9 216m112.8-112.9L696.5-.6m-561 557l82-82m40.7-40.7L475.9 216m112.8-112.9L692.5-.6m-561 557l86-86m36.7-36.7L471.9 216m112.8-112.9L688.5-.6m-561.1 557l90.1-90.1m32.7-32.6L467.9 216m112.8-112.9L684.5-.6m-561.1 557l94.1-94.1m28.7-28.6L463.9 216m112.8-112.9L680.4-.6m-561 557l98.1-98.1m24.7-24.6L459.9 216m112.8-112.9L676.4-.6m-561 557l102.1-102.1m20.7-20.6L455.9 216m112.8-112.9L672.4-.6m-561 557l106.1-106.1m16.6-16.6L451.9 216m112.8-112.9L668.4-.6m-561 557l110.1-110.1m12.6-12.6L447.8 216m112.9-112.9L664.4-.6m-561 557l114.1-114.1m8.6-8.6L443.8 216m112.9-112.9L660.4-.6m-561 557l118.1-118.1m4.6-4.6L439.8 216m112.8-112.9L656.4-.6m-561 557l122.1-122.1m.6-.6L435.8 216m112.8-112.9L652.4-.6m-561 557L431.8 216m112.8-112.9L648.4-.6m-561 557L427.8 216m112.8-112.9L644.4-.6m-561.1 557L423.8 216m112.8-112.9L640.4-.6m-561.1 557L419.8 216m112.8-112.9L636.3-.6m-561 557L415.8 216m112.8-112.9L632.3-.6m-561 557L411.8 216m112.8-112.9L628.3-.6m-561 557L407.8 216m112.8-112.9L624.3-.6m-561 557L403.7 216m112.9-112.9L620.3-.6m-561 557L399.7 216m112.9-112.9L616.3-.6m-561 557L395.7 216m112.8-112.9L612.3-.6m-561 557L391.7 216m112.8-112.9L608.3-.6m-561 557L387.7 216m112.8-112.9L604.3-.6m-561 557L383.7 216m112.8-112.9L600.3-.6m-561 557L379.7 216m112.8-112.9L596.3-.6m-561.1 557L375.7 216m112.8-112.9L592.2-.6m-561 557L371.7 216m112.8-112.9L588.2-.6m-561 557L367.7 216m112.8-112.9L584.2-.6m-561 557L363.7 216m112.8-112.9L580.2-.6m-561 557L359.6 216m112.9-112.9L576.2-.6m-561 557L355.6 216m112.9-112.9L572.2-.6m-561 557L351.6 216m112.8-112.9L568.2-.6m-561 557L347.6 216m112.8-112.9L564.2-.6m-561 557L343.6 216m112.8-112.9L560.2-.6m-561 557L339.6 216m112.8-112.9L556.2-.6m-561 557L335.6 216m112.8-112.9L552.2-.6m-561.1 557L331.6 216m112.8-112.9L548.2-.6m-558 554L327.6 216m112.8-112.9L544.1-.6m-553.9 550L323.6 216m112.8-112.9L540.1-.6m-549.9 546L319.6 216m112.8-112.9L536.1-.6M-9.8 541.3l325.7-325.7m112.5-112.5L532.1-.6M-9.8 537.3l325.7-325.7m108.5-108.5L528.1-.6M-9.8 533.3l325.7-325.7m104.5-104.5L524.1-.6M-9.8 529.3l325.7-325.7m100.4-100.5L520.1-.6M-9.8 525.3l325.7-325.7m96.4-96.5L516.1-.6M-9.8 521.3l325.7-325.7m92.4-92.5L512.1-.6M-9.8 517.3l325.7-325.7m88.4-88.5L508.1-.6M-9.8 513.3l325.7-325.7m84.4-84.5L504.1-.6M-9.8 509.3l325.7-325.7m80.4-80.5L500-.6M-9.8 505.3l325.7-325.7m76.4-76.5L496-.6M-9.8 501.3l325.7-325.7m72.4-72.5L492-.6M-9.8 497.3l325.7-325.8m68.4-68.4L488-.6M-9.8 493.2l325.7-325.7m64.4-64.4L484-.6M-9.8 489.2l325.7-325.7m60.4-60.4L480-.6M-9.8 485.2l325.7-325.7m56.3-56.4L476-.6M-9.8 481.2l325.7-325.7m52.3-52.4L472-.6M-9.8 477.2l325.7-325.7m48.3-48.4L468-.6M-9.8 473.2l325.7-325.7m44.3-44.4L464-.6M-9.8 469.2l325.7-325.7m40.3-40.4L460-.6M-9.8 465.2l325.7-325.7m36.3-36.4L455.9-.6M-9.8 461.2l325.7-325.7m32.3-32.4L451.9-.6M-9.8 457.2l325.7-325.7m28.3-28.4L447.9-.6M-9.8 453.2l325.7-325.8m24.3-24.3L443.9-.6M-9.8 449.1l325.7-325.7m20.3-20.3L439.9-.6M-9.8 445.1l325.7-325.7m16.3-16.3L435.9-.6M-9.8 441.1l325.7-325.7m12.2-12.3L431.9-.6M-9.8 437.1l325.7-325.7m8.2-8.3L427.9-.6M-9.8 433.1l325.7-325.7m4.2-4.3L423.9-.6M-9.8 429.1l325.7-325.7m.2-.3L419.9-.6M-9.8 425.1L415.9-.6M-9.8 421.1L411.9-.6M-9.8 417.1L407.8-.6" class="Q"/><path d="M-9.8 413.1L403.8-.6" class="Q"/><path d="M-9.8 409.1L399.8-.6" class="Q"/><path d="M-9.8 405.1L395.8-.6" class="Q"/><path d="M-9.8 401L391.8-.6" class="Q"/><path d="M-9.8 397L387.8-.6" class="Q"/><path d="M-9.8 393L383.8-.6" class="Q"/><path d="M-9.8 389L379.8-.6" class="Q"/><path d="M-9.8 385L375.8-.6" class="Q"/><path d="M-9.8 381L371.8-.6" class="Q"/><path d="M-9.8 377L367.8-.6" class="Q"/><path d="M-9.8 373L363.7-.6" class="Q"/><path d="M-9.8 369L359.7-.6" class="Q"/><path d="M-9.8 365L355.7-.6" class="Q"/><path d="M-9.8 361L351.7-.6" class="Q"/><path d="M-9.8 356.9L347.7-.6" class="Q"/><path d="M-9.8 352.9L343.7-.6" class="Q"/><path d="M-9.8 348.9L339.7-.6" class="Q"/><path d="M-9.8 344.9L335.7-.6" class="Q"/><path d="M-9.8 340.9L331.7-.6" class="Q"/><path d="M-9.8 336.9L327.7-.6" class="Q"/><path d="M-9.8 332.9L323.7-.6" class="Q"/><path d="M-9.8 328.9L319.7-.6" class="Q"/><path d="M-9.8 324.9L315.6-.6" class="Q"/><path d="M-9.8 320.9L311.6-.6" class="Q"/><path d="M-9.8 316.9L307.6-.6" class="Q"/><path d="M-9.8 312.8L303.6-.6" class="Q"/><path d="M-9.8 308.8L299.6-.6" class="Q"/><path d="M-9.8 304.8L295.6-.6" class="Q"/><path d="M-9.8 300.8L291.6-.6" class="Q"/><path d="M-9.8 296.8L287.6-.6" class="Q"/><path d="M-9.8 292.8L283.6-.6" class="Q"/><path d="M-9.8 288.8L279.6-.6" class="Q"/><path d="M-9.8 284.8L275.6-.6" class="Q"/><path d="M-9.8 280.8L271.5-.6" class="Q"/><path d="M-9.8 276.8L267.5-.6" class="Q"/><path d="M-9.8 272.8L263.5-.6" class="Q"/><path d="M-9.8 268.8L259.5-.6" class="Q"/><path d="M-9.8 264.7L255.5-.6" class="Q"/><path d="M-9.8 260.7L251.5-.6" class="Q"/><path d="M-9.8 256.7L247.5-.6" class="Q"/><path d="M-9.8 252.7L243.5-.6" class="Q"/><path d="M-9.8 248.7L239.5-.6" class="Q"/><path d="M-9.8 244.7L235.5-.6" class="Q"/><path d="M-9.8 240.7L231.5-.6" class="Q"/><path d="M-9.8 236.7L227.4-.6" class="Q"/><path d="M-9.8 232.7L223.4-.6" class="Q"/><path d="M-9.8 228.7L219.4-.6" class="Q"/><path d="M-9.8 224.7L215.4-.6" class="Q"/><path d="M-9.8 220.6L211.4-.6" class="Q"/><path d="M-9.8 216.6L207.4-.6" class="Q"/><path d="M-9.8 212.6L203.4-.6" class="Q"/><path d="M-9.8 208.6L199.4-.6" class="Q"/><path d="M-9.8 204.6L195.4-.6" class="Q"/><path d="M-9.8 200.6L191.4-.6" class="Q"/><path d="M-9.8 196.6L187.4-.6" class="Q"/><path d="M-9.8 192.6L183.4-.6" class="Q"/><path d="M-9.8 188.6L179.3-.6" class="Q"/><path d="M-9.8 184.6L175.3-.6" class="Q"/><path d="M-9.8 180.6L171.3-.6" class="Q"/><path d="M-9.8 176.5L167.3-.6" class="Q"/><path d="M-9.8 172.5L163.3-.6" class="Q"/><path d="M-9.8 168.5L159.3-.6" class="Q"/><path d="M-9.8 164.5L155.3-.6" class="Q"/><path d="M-9.8 160.5L151.3-.6" class="Q"/><path d="M-9.8 156.5L147.3-.6" class="Q"/><path d="M-9.8 152.5L143.3-.6" class="Q"/><path d="M-9.8 148.5L139.3-.6" class="Q"/><path d="M-9.8 144.5L135.2-.6" class="Q"/><path d="M-9.8 140.5L131.2-.6" class="Q"/><path d="M-9.8 136.5L127.2-.6" class="Q"/><path d="M-9.8 132.5L123.2-.6" class="Q"/><path d="M-9.8 128.4l129-129" class="Q"/><path d="M-9.8 124.4l125-125" class="Q"/><path d="M-9.8 120.4l121-121" class="Q"/><path d="M-9.8 116.4l117-117" class="Q"/><path d="M-9.8 112.4l113-113" class="Q"/><path d="M-9.8 108.4l109-109" class="Q"/><path d="M-9.8 104.4l105-105" class="Q"/><path d="M-9.8 100.4L91.1-.6" class="Q"/><path d="M-9.8 96.4l96.9-97" class="Q"/><path d="M-9.8 92.4l92.9-93" class="Q"/><path d="M-9.8 88.4l88.9-89" class="Q"/><path d="M-9.8 84.3L75.1-.6" class="Q"/><path d="M-9.8 80.3L71.1-.6" class="Q"/><path d="M-9.8 76.3L67.1-.6" class="Q"/><path d="M-9.8 72.3L63.1-.6" class="Q"/><path d="M-9.8 68.3L59.1-.6" class="Q"/><path d="M-9.8 64.3L55.1-.6" class="Q"/><path d="M-9.8 60.3L51.1-.6" class="Q"/><path d="M-9.8 56.3L47.1-.6" class="Q"/><path d="M-9.8 52.3L43-.6" class="Q"/><path d="M-9.8 48.3L39-.6" class="Q"/><path d="M-9.8 44.3L35-.6" class="Q"/><path d="M-9.8 40.2L31-.6" class="Q"/><path d="M-9.8 36.2L27-.6" class="Q"/><path d="M-9.8 32.2L23-.6" class="Q"/><path d="M-9.8 28.2L19-.6" class="Q"/><path d="M-9.8 24.2L15-.6" class="Q"/><path d="M-9.8 20.2L11-.6" class="Q"/><path d="M-9.8 16.2L7-.6" class="Q"/><path d="M-9.8 12.2L3-.6" class="Q"/><path d="M-9.8 8.2l8.7-8.8" class="Q"/><path d="M-9.8 4.2l4.7-4.8" class="Q"/><path d="M-9.8.2l.7-.8" class="Q"/></g></g><g fill="#ebebeb" class="Z"><path d="M556.7 470.8h71.4v34h-71.4v-34m66.9 53.3v34h-24.1l-5.7-34h29.8" class="f"/><path d="M620.7 505.4h8v-34.6h26v87.3h-30.6v-34.6h-3.4v-18.1M472.6 116.2h84.2v34h-89.9l5.7-34" class="f"/><path d="M583.5 116.2v70.1h-34.1v-35.5h8v-34.6h26.1" class="f"/></g><g class="Y"><g class="S T U V W"><path d="M455.3 518.7h-1.7m.6 2.5h-.6m1.7-2.5v34m0-30.9h-.5"/><path d="M455.3 552.7h-1.7m1.2-30.9l-.6-.6"/><path d="M453.6 552.7v-34m0 2.5h.6m0 29h-.6m1.7-.6h-.5"/><path d="M454.8 549.6l-.6.6m-.6 0h.6m85.9 11.3v-1.7m-3 .6v-.6"/><path d="M540.1 561.5h-34.9m31.3 0v-.6m-31.3.6v-1.7m31.3 1.1l.6-.5"/><path d="M505.2 559.8h34.9m-3 0v.6m-28.9 0v-.6m.6 1.7v-.6"/><path d="M508.8 560.9l-.6-.5m0-.6v.6m42.4-95.8v-1.7m-2.6.5v-.5"/><path d="M550.6 464.6h-34m30.9 0v-.6m-30.9.6v-1.7m30.9 1.1l.5-.6"/><path d="M516.6 462.9h34m-2.6 0v.5m-28.9 0v-.5m.6 1.7v-.6"/><path d="M519.7 464l-.6-.6m0-.5v.5"/></g><path d="M20.5 712v-5.8m0 0h6.8"/><path d="M27.3 706.2v5.8m0 0h-6.8"/></g><text><tspan x="21.605" y="710.858" class="a b">1</tspan><tspan x="23.905" y="710.858" class="a b">9</tspan></text><g class="Y"><path d="M27.3 712v-5.8m0 0h6.8"/><path d="M34.1 706.2v5.8m0 0h-6.8"/></g><text><tspan x="28.407" y="710.858" class="a b">1</tspan><tspan x="30.707" y="710.858" class="a b">8</tspan></text><g class="Y"><path d="M175 712v-5.8m0 0h6.8"/><path d="M181.8 706.2v5.8m0 0H175"/></g><text><tspan x="176.093" y="710.858" class="a b">1</tspan><tspan x="178.393" y="710.858" class="a b">7</tspan></text><g class="Y"><path d="M181.8 712v-5.8m0 0h6.8"/><path d="M188.6 706.2v5.8m0 0h-6.8"/></g><text><tspan x="182.896" y="710.858" class="a b">1</tspan><tspan x="185.196" y="710.858" class="a b">6</tspan></text><g class="Y"><path d="M329.5 712v-5.8m0 0h6.8"/><path d="M336.3 706.2v5.8m0 0h-6.8"/></g><text><tspan x="330.581" y="710.857" class="a b">1</tspan><tspan x="332.881" y="710.857" class="a b">5</tspan></text><g class="Y"><path d="M336.3 712v-5.8m0 0h6.8"/><path d="M343.1 706.2v5.8m0 0h-6.8"/></g><text><tspan x="337.384" y="710.857" class="a b">1</tspan><tspan x="339.684" y="710.857" class="a b">4</tspan></text><g class="Y"><path d="M175 902.7v-5.9m0 0h6.8"/><path d="M181.8 896.8v5.9m0 0H175"/></g><text><tspan x="176.093" y="901.513" class="a b">4</tspan><tspan x="178.393" y="901.513" class="a b">1</tspan></text><g class="Y"><path d="M181.8 902.7v-5.9m0 0h6.8"/><path d="M188.6 896.8v5.9m0 0h-6.8"/></g><text><tspan x="182.896" y="901.513" class="a b">4</tspan><tspan x="185.196" y="901.513" class="a b">2</tspan></text><g class="Y"><path d="M329.5 902.7v-5.9m0 0h6.8"/><path d="M336.3 896.8v5.9m0 0h-6.8"/></g><text><tspan x="330.581" y="901.513" class="a b">4</tspan><tspan x="332.881" y="901.513" class="a b">3</tspan></text><g class="Y"><path d="M336.3 902.7v-5.9m0 0h6.8"/><path d="M343.1 896.8v5.9m0 0h-6.8"/></g><text><tspan x="337.384" y="901.513" class="a b">4</tspan><tspan x="339.684" y="901.513" class="a b">4</tspan></text><g class="Y"><path d="M484 902.7v-5.9m0 0h6.8"/><path d="M490.8 896.8v5.9m0 0H484"/></g><text><tspan x="485.069" y="901.513" class="a b">4</tspan><tspan x="487.369" y="901.513" class="a b">5</tspan></text><g class="Y"><path d="M490.8 902.7v-5.9m0 0h6.8"/><path d="M497.6 896.8v5.9m0 0h-6.8"/></g><text><tspan x="491.872" y="901.512" class="a b">4</tspan><tspan x="494.172" y="901.512" class="a b">6</tspan></text><g class="Y"><path d="M638.4 902.7v-5.9m0 0h6.8"/><path d="M645.2 896.8v5.9m0 0h-6.8"/></g><text><tspan x="639.558" y="901.512" class="a b">4</tspan><tspan x="641.858" y="901.512" class="a b">7</tspan></text><g class="Y"><path d="M645.2 902.7v-5.9m0 0h6.8"/><path d="M652 896.8v5.9m0 0h-6.8"/></g><text><tspan x="646.36" y="901.512" class="a b">4</tspan><tspan x="648.66" y="901.512" class="a b">8</tspan></text><g class="Y"><path d="M638.4 712v-5.8m0 0h6.8"/><path d="M645.2 706.2v5.8m0 0h-6.8"/></g><text><tspan x="639.56" y="710.857" class="a b">1</tspan><tspan x="641.86" y="710.857" class="a b">2</tspan></text><g class="Y"><path d="M645.2 712v-5.8m0 0h6.8"/><path d="M652 706.2v5.8m0 0h-6.8"/></g><text><tspan x="646.362" y="710.857" class="a b">1</tspan><tspan x="648.662" y="710.857" class="a b">1</tspan></text><g class="Y"><path d="M484 712v-5.8m0 0h6.8"/><path d="M490.8 706.2v5.8m0 0H484"/></g><text><tspan x="485.069" y="710.857" class="a b">1</tspan><tspan x="487.369" y="710.857" class="a b">3</tspan></text><g class="Y"><path d="M632.3 712v-5.8m0 0h6.1"/><path d="M638.4 706.2v5.8m0 0h-6.1"/></g><text transform="translate(633.422 710.857)" class="a b">IV</text><text transform="matrix(.9252 .3795 -.3795 .9252 228.569 14.5022)" class="R g">C</text><text transform="matrix(.9252 .3795 -.3795 .9252 235.0468 17.1478)"><tspan x="0" y="0" class="R g">164</tspan><tspan x="16.1" y="0" class="R g">8</tspan></text><g class="Y"><path d="M7.5 545.5l-1.6.5m-1.4.5l-2.6 1m-1.4.5l-2.6 1m-1.4.4l-2.6 1m-1.4.5l-2.3.9m17.3-61.2v1.2m0 1.5v2.8m0 1.4v2.8"/><path d="M7.5 501.8v2.8m0 1.4v2.8m0 1.5v2.8m0 1.4v2.8m0 1.5v2.8m0 1.4v2.8m0 1.5v2.8m0 1.4v2.9m0 1.4v2.8m0 1.4v2.9m0 1.4v1.2"/><path d="M7.5 490.6l-2.2-.7m-1.3-.5l-2.7-1m-1.3-.5l-2.7-1m-1.3-.4l-2.7-1M-8 485l-1.8-.7m17.3 6.3l.9-2.6m.5-1.4l1-2.6m0 0l-1.8-.7m-1.4-.5l-2.6-.9m-1.4-.5l-2.6-1m-1.4-.5l-2.6-.9m-1.4-.5l-2.6-1m-1.4-.5l-.5-.2" class="S T U V W"/><path d="M-9.8 415.7l1.7-.6m1.4-.5l2.6-1m1.4-.5l2.6-1m1.3-.4l2.7-1m1.3-.5l2.3-.8m0-54.8v1.2"/><path d="M7.5 357.2v2.8m0 1.4v2.9m0 1.4v2.8m0 1.4v2.9m0 1.4v2.8m0 1.4v2.9m0 1.4v2.8m0 1.5v2.8m0 1.4v2.8m0 1.5v2.8m0 1.4v2.8m0 1.5v2.8m0 1.4v1.2"/><path d="M7.5 354.6l-1.4-.5m-1.3-.5l-2.7-1m-1.3-.5l-2.7-.9m-1.3-.5l-2.7-1m-1.3-.5l-2.6-.9m17.3 6.3l.9-2.7m.5-1.3l1-2.7m0 0l-1.1-.4m-1.3-.4l-2.7-1m-1.3-.5l-2.6-1m-1.4-.5l-2.6-.9m-1.4-.5l-2.6-1m-1.4-.5l-1.3-.5" class="S T U V W"/><path d="M600.2 136.9h2m1.4 0h2.8m1.4 0h2.9m1.4 0h2.8m1.4 0h2.9m1.4 0h2.8m1.4 0h2.9m1.4 0h2.8m1.4 0h2.9m1.4 0h2.8m1.4 0h2.9m1.4 0h2.8m1.4 0h2.9m1.4 0h2.8m1.5 0h2.8m1.4 0h2.8m1.5 0h2.8m1.4 0h2.8m1.5 0h2.8m1.4 0h2.8m1.5 0h2.8m1.4 0h2.9m1.4 0h2.8m1.4 0h2.9m1.4 0h2.8m1.4 0h2.9m1.4 0h2.8m1.4 0h2.9m1.4 0h2.8m1.4 0h2.9m1.4 0h2.8m1.4 0h2.9m1.4 0h2m15.3-30.9l-.5.2m-1.3.7l-2.2 1.1m0 0h2.8m0 20.9h-2.8m-1.4 0h-2.8m-1.5 0h-2.8m-1.4 0h-1.4m14.1 8h-2.8m-1.4 0h-2.8m-1.5 0h-2.8m-1.4 0h-1.4m14.1-15.9h-2.8m-1.4 0h-2.8m-1.5 0h-2.8m-1.4 0h-1.4"/><path d="M751.5 105.1h-2.8m-1.4 0h-2.8m-1.5 0h-2.8m-1.4 0h-1.4m0 31.8v-2.4m0-1.5v-2.8m0-1.4V126m0-1.5v-2.8m0-1.4v-2.8m0-1.5v-2.8m0-1.4v-2.9m0-1.4v-2.4m0-8.8v-1.4m1.4 0h-1.4m14.1 18.2h-2.8m-1.4 0h-2.8m-1.5 0h-2.8m-1.4 0h-1.4"/><path d="M728 263.9l2.2-.8m1.3-.5l2.7-1m1.3-.5l2.7-.9m1.3-.5l2.7-1m1.3-.5l2.7-.9m1.3-.5l2.6-1m1.4-.5l1.2-.4m-24.7 9l-1-2.7m-.4-1.3l-1-2.7m0 0l1.8-.7m1.3-.4l2.7-1m1.3-.5l2.7-1m1.3-.4l2.7-1m1.3-.5l2.7-1m1.3-.5l2.7-.9m1.3-.5l2.7-1" class="S T U V W"/><path d="M728 263.9v1.2m0 1.4v2.8m0 1.4v2.9m0 1.4v2.8m0 1.4v2.9m0 1.4v2.8m0 1.4v2.9m0 1.4v2.8m0 1.4v2.9m0 1.4v2.8m0 1.4v2.9m0 1.4v2.8m0 1.4v2.9m0 1.4v1.2m24.7 9l-1.2-.4m-1.3-.5l-2.7-1"/><path d="M746.2 325.3l-2.7-1m-1.3-.4l-2.7-1m-1.3-.5l-2.6-1m-1.4-.4l-2.6-1m-1.4-.5l-2.2-.8M683.5-.6v.8m0 1.5v2.8m0 1.4v2.8m0 1.5V13m0 1.4v2.8m0 1.5v2.8m0 1.4v2.9m0 1.4V30m0 1.4v2.9m0 1.4v2.8m0 1.4v2.9m0 1.4V47m0 1.4v2.9m0 1.4v2.8m0 1.4v2.9m0 1.4V64m0 1.4v2.9m0 1.4v1.1m0 0h-2.7m-1.4 0h-2.8m-1.4 0h-2.9m-1.4 0h-2.8m-1.5 0h-2.8m-1.4 0h-2.8m-1.5 0h-2.8m-1.4 0h-2.8m-1.5 0h-2.8m-1.4 0h-2.8m-1.5 0h-2.8m-1.4 0H634m-1.4 0h-2.8m-1.4 0h-2.9m-1.4 0h-2.8m-1.4 0H617m-1.4 0h-2.8m-1.4 0h-2.9m-1.4 0h-2.8m-1.4 0h-2.7"/><g class="S T U V W"><path d="M466.7 480.9h39.6m-39.6 0v4.3m-2.2 25.6h2.2m-3.6.5h1.4"/><path d="M463.1 511h1.2m.2.3v-.5"/></g><path d="M463.1 475.1v22"/><path d="M463.1 497.4h1.2m.2.8h1.2m-1.4 12.8v-13.6m-1.2 13.6v-13.6m1.4-13h1.2m-1.2 13.8v-13.8m1.2 0v13.8" class="S T U V W"/><path d="M465.7 498.5v12"/><path d="M463.1 511.3v.7" class="S T U V W"/><path d="M491.5 514.7h-10m0 0v.9m16.3-2.3v1.1m.9-1.1h3.7m.5-43.1v1.2m0 0h-2.6m0 0v1.9m-30.2-3.1v1.2m0 0h2.7m0 0v1.9m27.2 0v2.4m-27-2.4v2.4"/><path d="M500 475.7h-27m2.7-4v2"/><path d="M475.7 473.7h2.9m0 0v-2"/><path d="M475.7 471.7h2.9m-1.7-.7v.7m0 2v.7m20.4-2.7v2"/><path d="M497.3 473.7h-2.9m0 0v-2"/><path d="M497.3 471.7h-2.9m1.7-.7v.7m0 2v.7m-19.2-3.4h19.2"/><path d="M476.9 474.4h19.2m-12.6-3.1h6"/><path d="M483.5 474.1h6m0-1.7h.7"/><path d="M490.2 472.4v.7m0 0h-.7m-6-.7h-.7m0 0v.7m0 0h.7m.7 5.6v1.7m4.6-1.7v1.7m1.8-1.8h1.2m0 0v2.3m-1.2-2.3v2.3m-6.9-.5v.5m5.6-.5v.5m-.5 33v-1.4m-4.6 1.4v-1.4m-1.8 1.5h-1.1m0 0v-2"/><path d="M482.4 514v-2m6.9.5v-.5m-5.6.5v-.5m18.7 1.3v2.1"/><path d="M502.4 515.4h-3.7m0-2.1v2.1"/><path d="M466 485.2h.7" class="S T U V W"/><path d="M465.7 475.1h-2.6m2.6 9v-9"/><path d="M506.3 512h-39.6m0 0v-1.2" class="S T U V W"/><path d="M463.1 512h3.6m20.4-32.6h-1.2m2.9-.7h-4.6m2.9.7l.8.7"/><path d="M485.9 479.4l-.8.7m2.8 0v.3m-2.8-.3v.3m-.9 33.5h4.6"/><path d="M485.9 513.5h1.2m-1.2 0l-.8-.8m2 .8l.8-.8m-2.8 0v-.2"/><path d="M487.9 512.7v-.2m3.6.8v2.3m6.3-2.3h-6.3m0 1.1h7.2m-24.4-38.7v-5.5m24.4 5.5v-5.5m-32 42.7v-.9m3.4 0v.9"/><path d="M506.3 512.9v-.9m-3.4 0v.9m-36.2 0h3.4m36.2 0h-3.4m3.4-32.9v.9m-3.4 0v-.9m-36.2 0v.9m3.4 0v-.9"/><path d="M466.7 480h3.4m36.2 0h-3.4m-5.6-7h1.4m1.6.3h-.3m-27.2 0h.2m2.7-.3h-1.4m10.8 5.7v-3m4.2 4.7h-1.4m-2.8 0h-1.4m5.8-9.1v1.1m0 .7v1m-6-2.8v1.1m0 .7v1m.2 38.4h1.4m2.8 0h1.4m-2.8 1.4v.8"/><g class="S T U V W"><path d="M511.7 511h-1.1m0 .3h1.4"/><path d="M512 511.3v-.5m0-26.4h1.2m-2.6 13h1.1"/></g><path d="M510.6 473.3v23.8"/><path d="M512 498.2h1.2" class="S T U V W"/><path d="M513.2 510.5v-12"/><path d="M511.7 511v-13.6m-1.1 13.6v-13.6m1.4.8v-13.8m1.2 0v13.8" class="S T U V W"/><path d="M510.6 473.3h2.6m-2.6 38.7h2.6"/><path d="M513.2 512v-1.2"/><path d="M510.6 511.3v.7m1.4-1.2h2.9m0-25.6h-1.5m1.5 0v-14.4m-1.5 0v.6" class="S T U V W"/><path d="M513.2 473.3v10.8"/><g class="S T U V W"><path d="M513.4 470.8h1.5m0 44.2h-1.5"/><path d="M513.4 515v-.6m1.5.6v-4.2m.5-40.6v2m0 0h-.5"/><path d="M515.4 515.6v-2m0 0h-.5m-8.6-32.7v4.3m2.2 25.6h-2.2m3.6.5h-1.4m1.4-.3h-1.1"/><path d="M508.5 511.3v-.5"/></g><path d="M509.9 475.1v22"/><path d="M509.9 497.4h-1.1m-.3.8h-1.2m1.5 12.8v-13.6m1.1 13.6v-13.6m-1.4-13h-1.2m1.2 13.8v-13.8m-1.2 0v13.8" class="S T U V W"/><path d="M507.3 498.5v12"/><path d="M509.9 511.3v.7m-2.8-26.8h-.8" class="S T U V W"/><path d="M507.3 475.1h2.6m-2.6 9v-9"/><path d="M506.3 512v-1.2" class="S T U V W"/><path d="M509.9 512h-3.6m-18.4-33.3v-3m9.4-3.3h1.4m-23 0h-1.4m24.4 2.3h-24.4"/><path d="M329.8 147.5h39.6m-39.6 0v31.2" class="S T U V W"/><path d="M354.6 181.4h-10m0 0v.8m16.3-2.2v1.1m.9-1.1h3.7m.5-43.1v1.1m0 0h-2.7m0 0v2m-30.1-3.1v1.1m0 0h2.6m0 0v2m27.3 0v2.4m-27-2.4v2.4"/><path d="M363.1 142.4h-27m2.7-4v2"/><path d="M338.8 140.4h2.9m0 0v-2"/><path d="M338.8 138.4h2.9m-1.7-.7v.7m0 2v.7m20.4-2.7v2"/><path d="M360.4 140.4h-2.9m0 0v-2"/><path d="M360.4 138.4h-2.9m1.7-.7v.7m0 2v.7m-19.2-3.4h19.2"/><path d="M340 141.1h19.2m-12.6-3.2h6"/><path d="M346.6 140.8h6m0-1.8h.7"/><path d="M353.3 139v.7m0 0h-.7m-6-.7h-.7m0 0v.7m0 0h.7m.7 5.7v1.7m4.6-1.7v1.7m1.8-1.9h1.1m0 0v2.3m-1.1-2.3v2.3m-6.9-.4v.4m5.6-.4v.4m-.5 33v-1.4m-4.6 1.4v-1.4m-1.8 1.6h-1.2m0 0v-2"/><path d="M345.5 180.7v-2m6.9.4v-.4m-5.6.4v-.4m18.7 1.3v2.1"/><path d="M365.5 182.1h-3.7m0-2.1v2.1"/><path d="M369.4 178.7h-39.6" class="S T U V W"/><path d="M350.2 146.1H349m2.9-.7h-4.6m2.9.7l.8.7m-2-.7l-.8.7m2.8 0v.3m-2.8-.3v.3m-.9 33.4h4.6m-2.9-.4h1.2"/><path d="M349 180.1l-.8-.7m2 .7l.8-.7m-2.8 0v-.3m2.8.3v-.3m3.6.9v2.2m6.3-2.2h-6.3"/><path d="M354.6 181.1h7.2m-24.4-38.7v-5.5m24.4 5.5v-5.5m-32 42.6v-.8m3.4 0v.8m36.2 0v-.8"/><path d="M366 178.7v.8m-36.2 0h3.4"/><path d="M369.4 179.5H366m3.4-32.9v.9m-3.4 0v-.9m-36.2 0v.9"/><path d="M333.2 147.5v-.9m-3.4 0h3.4m36.2 0H366m-5.6-7h1.4m1.5.4h-.2m-27.3 0h.3m2.7-.4h-1.4m10.8 5.8v-3m4.2 4.7H351m-2.8 0h-1.4m5.8-9.2v1.1m0 .7v1.1m-6-2.9v1.1m0 .7v1.1m.2 38.3h1.4m2.8 0h1.4m-2.8 1.4v.9"/><g class="S T U V W"><path d="M369.4 147.5v4.4m2.2 25.5h-2.2m3.6.6h-1.4m1.4-.3h-1.2"/><path d="M371.6 178v-.6"/></g><path d="M373 141.8v21.9"/><path d="M373 164h-1.2m-.2.9h-1.2m1.4 12.8V164m1.2 13.7V164m-1.4-13h-1.2m1.2 13.9V151m-1.2 0v13.9" class="S T U V W"/><path d="M370.4 165.1v12"/><path d="M373 178v.7m-2.9-26.8h-.7" class="S T U V W"/><path d="M370.4 141.8h2.6m-2.6 9v-9"/><path d="M369.4 178.7v-1.3" class="S T U V W"/><path d="M373 178.7h-3.6M351 145.4v-3m9.4-3.3h1.4m-23 0h-1.4m24.4 2.2h-24.4"/><g class="S T U V W"><path d="M374.8 177.7h-1.1m0 .3h1.4"/><path d="M375.1 178v-.6m0-26.4h1.1m-2.5 13h1.1"/></g><path d="M373.7 139.9v23.8"/><path d="M375.1 164.9h1.1" class="S T U V W"/><path d="M376.2 177.1v-12"/><path d="M374.8 177.7V164m-1.1 13.7V164m1.4.9V151m1.1 0v13.9" class="S T U V W"/><path d="M373.7 139.9h2.5m-2.5 38.8h2.5"/><path d="M376.2 178.7v-1.3"/><path d="M373.7 178v.7m1.4-1.3h2.8m0-25.5h-1.4m1.4 0v-14.5m-1.4 0v.6" class="S T U V W"/><path d="M376.2 139.9v10.9"/><g class="S T U V W"><path d="M376.5 137.4h1.4m0 44.3h-1.4"/><path d="M376.5 181.7v-.6m1.4.6v-4.3m.6-40.5v2m0 0h-.6m.6 43.3v-2m0 0h-.6m59.9 309.3v.6m0 .7v1.7m0 .7v1.7m0 .7v1.7m0 .7v.6m0 0v.5m0 .7v1.7m0 .8v1.7m0 .7v1.7m0 .7v.5m1.4 1.5h1.5m.7 0h1.7m.7 0h1.7m.7 0h1.7m.7 0h1.7m.7 0h1.5"/></g><path d="M452.5 509.1v-1.7m0-.8v-1.7m0-.7v-1.7m0-.7v-1.7m0-.7v-1.7m0-.7v-1.7m0-.7v-1.7m0-.7v-1.7m0-.7v-1.7"/><path d="M452.5 488.1H451m-.7 0h-1.7m-.7 0h-1.7m-.7 0h-1.7m-.7 0h-1.7m-.7 0h-1.5" class="S T U V W"/><path d="M448.7 489.6h-.4m-.8 0h-1.7m-.7 0h-1.7m-.7 0H441m-.7 0h-.4m-.6.6v.8m0 .7v1.7m0 .7v1.7m0 .7v1.7m0 .7v1.7m0 .7v1.7m0 .7v1.7m0 .8v.7m.6.6h.4m.7 0h1.7m.7 0h1.7m.7 0h1.7m.8 0h.4m1.1-1.1V505m0-.7v-1.7m0-.7v-1.4m0-3.9v-1.4m0-.7v-1.7m0-.7v-1.4m2 18.4v-1.2m.1-.1v-.4m0-.8v-1.7m0-.7v-1.7m0-.7v-1.7m0-.7v-1.7m0-.7v-1.7m0-.7v-1.7m0-.7v-1.7m0-.7v-.4m-.1-.2v-1.1m-2.1 11.4l.6-.2m0 0l.3-.7m-.2-.6l-.1-.1m0 0l-.6-.3m0 0l-.7.3m0 0l-.1.1m-.2.6l.3.7m0 0l.7.2"/><path d="M439.2 488.1l-.7.3m-.5.4l-.2.7m0 18.1l.2.7m.5.5l.7.3" class="S T U V W"/><path d="M439.9 489.6l-.4.2m0 0l-.2.4m0 16.7l.2.4m0 0l.4.2m8.8 0l.4-.2m.5-.4l.2-.5m0-5.9l.1-.2m0 0l.1-.1m0 0l.6-.3m.5-.5l.3-.8m0 0l-.3-.8m-.5-.5l-.6-.4m0 0l-.1-.1m0 0l-.1-.2m0-5.9l-.2-.4m-.5-.5l-.4-.2m3.1 18.3h.1m0 0v-.1m0-18.4v-.1m0 0l-.1-.1m298.3 317.2v-4"/></g><path d="M483.7 1038.9v1.4H58.2v-1.4h425.5m14.1 0h254.9v1.4H497.8v-1.4" class="Z"/><g class="S T U V W Y"><path d="M483.7 1038.9v1.4m14.1-1.4v1.4m-439.6 0h425.5m14.1 0h254.9"/><path d="M752.7 1038.9H497.8m-14.1 0H58.2m439.6 0h-14.1m14.1 1.4h-14.1"/></g><path d="M181.8 570.3v-4.5h317.5v4.5H181.8" class="Z"/><g class="S T U V W Y"><path d="M181.8 570.3h317.5m0-4.5H181.8"/><path d="M181.8 565.8v4.5"/></g><path d="M546 570.3v-4.5h176.5v4.5H546" class="Z"/><g class="S T U V W Y"><path d="M546 570.3h176.5m0 0v-4.5"/><path d="M722.5 565.8H546"/></g><path d="M507.8 570.3h-2.9v-8.8h2.9v8.8" class="Z"/><path d="M507.8 570.3v-8.8m0 0h-2.9m0 0v4.3m0 1.7v2.8m0 0h2.9" class="S T U V W Y"/><path d="M540.4 570.3h-2.9v-8.8h2.9v8.8" class="Z"/><path d="M540.4 570.3v-2.8m0-1.7v-4.3m0 0h-2.9m0 0v8.8m0 0h2.9" class="S T U V W Y"/><path d="M-9.8 556.4h227.3v2.3H-9.8v-2.3" class="Z"/><path d="M-9.8 558.7h227.3m0-2.3H-9.8" class="S T U V W Y"/><path d="M666.5 556.4h86.2v2.3h-86.2v-2.3" class="Z"/><path d="M666.5 558.7h86.2m0-2.3h-86.2" class="S T U V W Y"/><path d="M499.3 567.5v-1.7h5.6v1.7h-5.6" class="Z"/><path d="M499.3 567.5h5.6m0-1.7h-5.6" class="S T U V W Y"/><path d="M540.4 567.5v-1.7h5.6v1.7h-5.6" class="Z"/><path d="M540.4 567.5h5.6m0-1.7h-5.6" class="S T U V W Y"/><path d="M452.5 470.2h8.5v51h-5.7v-2.8h-2.8v-48.2m0 88.5V553h2.8v-2.8h5.7v8.5h-8.5" class="Z"/><g class="S T U V W Y"><path d="M455.3 518.4v2.8m0 0h5.7m-5.7-2.8h-2.8m2.8 34.6v-2.8"/><path d="M455.3 550.2h5.7m-5.7 2.8h-2.8m0-82.8v48.2m0 34.6v5.7m8.5 0v-8.5m0-34.6v-45.4"/></g><g class="Z"><path d="M221.5 437.6h-4v-3.9l4 3.9"/><path d="M217.5 437.6h4v121.1h-4V437.6"/></g><g class="S T U V W Y"><path d="M217.5 433.7v122.7m0 2.3h4"/><path d="M221.5 558.7V437.6"/></g><g class="Z"><path d="M503.8 433.7l4 3.9h-4v-3.9"/><path d="M221.5 437.6v-3.9h282.3v3.9H221.5"/><path d="M221.5 433.7v3.9l-4-3.9h4"/></g><g class="S T U V W Y"><path d="M221.5 437.6h286.3m-290.3-3.9h4"/><path d="M503.8 433.7H221.5"/></g><g class="Z"><path d="M503.8 216l4-4v4h-4"/><path d="M507.8 433.7h-4V216h4v217.7"/><path d="M507.8 433.7v3.9l-4-3.9h4"/></g><path d="M507.8 437.6v-3.9m0 0V212m-4 4v217.7" class="S T U V W Y"/><g class="Z"><path d="M662.5 461.7v-3.9h4l-4 3.9"/><path d="M595.1 461.7v-3.9h67.4v3.9h-67.4"/><path d="M595.1 457.8v3.9h-4l4-3.9"/></g><path d="M591.1 461.7h71.4m4-3.9h-71.4" class="S T U V W Y"/><g class="Z"><path d="M662.5 461.7h4v97h-4v-97"/><path d="M662.5 461.7l4-3.9v3.9h-4"/></g><path d="M662.5 461.7v97m4 0h-4m4-100.9v3.9m0 94.7v-94.7" class="S T U V W Y"/><g class="Z"><path d="M319.8 107.1h-3.9v-4l3.9 4"/><path d="M319.8 212h-3.9V107.1h3.9V212"/><path d="M315.9 212h3.9l-3.9 4v-4"/></g><path d="M319.8 212V107.1m-3.9-4V216" class="S T U V W Y"/><g class="Z"><path d="M591.1 107.1v-4h4l-4 4"/><path d="M319.8 107.1v-4h271.3v4H319.8"/><path d="M319.8 103.1v4l-3.9-4h3.9"/></g><g class="S T U V W Y"><path d="M319.8 107.1h271.3m-275.2-4h3.9"/><path d="M595.1 103.1H319.8"/></g><g class="Z"><path d="M319.8 212v4h-3.9l3.9-4"/><path d="M503.8 212v4h-184v-4h184"/><path d="M503.8 212h4l-4 4v-4"/></g><path d="M507.8 212h-4m0 0h-184m-3.9 4h3.9m0 0h184" class="S T U V W Y"/><g class="Z"><path d="M504.9 664.1l-5.6 5.7v-5.7h5.6"/><path d="M504.9 664.1h-5.6v-96.6h5.6v96.6"/></g><path d="M499.3 567.5v102.3m5.6-5.7v-96.6m0 0h-5.6" class="S T U V W Y"/><g class="Z"><path d="M546 664.1h-5.6v-96.6h5.6v96.6"/><path d="M546 664.1v5.7l-5.6-5.7h5.6"/></g><path d="M546 669.8V567.5m-5.6 0h5.6m-5.6 0v96.6" class="S T U V W Y"/><g class="Z"><path d="M540.4 664.1l5.6 5.7h-5.6v-5.7"/><path d="M540.4 664.1v5.7h-3.2v-5.7h3.2m-35.5 5.7v-5.7h2.9v5.7h-2.9"/><path d="M504.9 664.1v5.7h-5.6l5.6-5.7"/></g><g class="Y"><g class="S T U V W"><path d="M537.2 664.1v5.7m-29.4-5.7v5.7m-8.5 0h5.6m0 0h2.9"/><path d="M546 669.8h-5.6m-3.2 0h3.2m0-5.7h-3.2m-29.4 0h-2.9"/></g><path d="M507.8 663v-29.2"/><g class="S T U V W"><path d="M507.4 663.7v-.4m0 0h1m0 0v.2m0 0h.5"/><path d="M508.9 663.5v7.1m0 0h-.8"/><path d="M508.1 670.6v-.4m29.5-6.5v-.4m0 0h-1m0 0v.2m0 0h-.5m0 0v7.1m0 0h.9m0 0v-.4"/></g><path d="M507.8,633.8c16.1,0,29.2,13.1,29.2,29.2"/></g><g class="Z"><path d="M595.1 457.8l-4 3.9v-3.9h4"/><path d="M591.1 107.1h4v350.7h-4V107.1"/><path d="M591.1 107.1l4-4v4h-4"/></g><path d="M591.1 461.7v-3.9m0-350.7v350.7m4-354.7v4m0 350.7V107.1" class="S T U V W Y"/><path d="M379.4 131.2h-4.2v-15.6h4.2v15.6" class="Z"/><g class="S T U V W Y"><path d="M379.4 131.2v-15.6m0 0h-4.2"/><path d="M375.2 115.6v15.6m0 0h4.2"/></g><path d="M379.4 203.5h-4.2v-15.6h4.2v15.6" class="Z"/><g class="S T U V W Y"><path d="M379.4 203.5v-15.6m0 0h-4.2"/><path d="M375.2 187.9v15.6m0 0h4.2"/></g><path d="M452.5 446.1h4.1v15.6h-4.1v-15.6" class="Z"/><g class="S T U V W Y"><path d="M452.5 446.1v15.6m0 0h4.1"/><path d="M456.6 461.7v-15.6m0 0h-4.1"/></g><g class="Z"><path d="M221.5 558.7v7.1H-9.8v-7.1h231.3"/><path d="M221.5 565.8v-7.1l7.1 7.1h-7.1"/></g><path d="M-9.8 565.8h238.4m-7.1-7.1H-9.8" class="S T U V W Y"/><path d="M228.6 565.8v-7.1h276.3v7.1H228.6m311.8 0v-7.1h115.1v7.1H540.4" class="Z"/><g class="S T U V W Y"><path d="M504.9 565.8v-7.1m35.5 7.1v-7.1m-311.8 7.1h276.3m35.5 0h115.1"/><path d="M655.5 558.7H540.4m-35.5 0H461m-8.5 0H228.6"/></g><g class="Z"><path d="M512 515.6l4.3 5.6H512v-5.6"/><path d="M512 515.6v5.6h-51v-5.6h51"/></g><path d="M512 515.6h-51m0 5.6h55.3" class="S T U V W Y"/><g class="Z"><path d="M662.5 558.7l-7 7.1v-7.1h7"/><path d="M655.5 470.2h7v88.5h-7v-88.5"/><path d="M655.5 470.2l7-8.5v8.5h-7"/></g><path d="M662.5 461.7v8.5m0 88.5v-88.5m-7 0v88.5" class="S T U V W Y"/><g class="Z"><path d="M228.6 446.1h-7.1v-8.5l7.1 8.5"/><path d="M228.6 558.7h-7.1V446.1h7.1v112.6"/><path d="M228.6 558.7v7.1l-7.1-7.1h7.1"/></g><path d="M228.6 558.7V446.1m-7.1-8.5v8.5m0 0v112.6" class="S T U V W Y"/><g class="Z"><path d="M662.5 558.7v7.1h-7l7-7.1"/><path d="M662.5 558.7h90.2v7.1h-90.2v-7.1"/></g><path d="M655.5 565.8h7m0 0h90.2m0-7.1h-90.2" class="S T U V W Y"/><path d="M58.2 1040.3h425.5v7.1H58.2v-7.1m694.5 0v7.1H497.8v-7.1h254.9" class="Z"/><g class="S T U V W Y"><path d="M483.7 1047.4v-7.1m14.1 7.1v-7.1m254.9 0H497.8m-14.1 0H58.2"/><path d="M58.2 1047.4h425.5m14.1 0h254.9m-254.9 0h-14.1m14.1-7.1h-14.1"/></g><g class="Z"><path d="M328.3 203.5v8.5h-8.5l8.5-8.5"/><path d="M507.8 203.5v8.5H328.3v-8.5h179.5"/><path d="M507.8 203.5h8.5l-8.5 8.5v-8.5"/></g><path d="M319.8 212h188m8.5-8.5h-188" class="S T U V W Y"/><g class="Z"><path d="M584 115.6v-8.5h7.1l-7.1 8.5"/><path d="M328.3 115.6v-8.5H584v8.5H328.3"/><path d="M328.3 107.1v8.5l-8.5-8.5h8.5"/></g><path d="M591.1 107.1H319.8m8.5 8.5H584" class="S T U V W Y"/><g class="Z"><path d="M328.3 115.6h-8.5v-8.5l8.5 8.5"/><path d="M328.3 203.5h-8.5v-87.9h8.5v87.9"/><path d="M319.8 203.5h8.5l-8.5 8.5v-8.5"/></g><path d="M319.8 107.1v8.5m0 96.4v-8.5m0-87.9v87.9m8.5 0v-15.6m0-5.7v-45.3m0-5.7v-15.6" class="S T U V W Y"/><g class="Z"><path d="M507.8 212l8.5-8.5v8.5h-8.5"/><path d="M507.8 212h8.5v249.7h-8.5V212"/></g><path d="M507.8 212v225.6m0 8.5v15.6m8.5-258.2v8.5m0 249.7V212" class="S T U V W Y"/><g class="Z"><path d="M584 115.6h7.1v346.1H584V115.6"/><path d="M584 115.6l7.1-8.5v8.5H584"/></g><path d="M591.1 107.1v8.5m0 346.1V115.6m-7.1 0v346.1" class="S T U V W Y"/><g class="Z"><path d="M375.1 182.2l4.3 5.7h-4.3v-5.7"/><path d="M375.1 182.2v5.7h-46.8v-5.7h46.8"/></g><path d="M375.1 182.2h-46.8m0 5.7h51.1" class="S T U V W Y"/><g class="Z"><path d="M375.1 131.2v5.7h-46.8v-5.7h46.8"/><path d="M375.1 131.2h4.3l-4.3 5.7v-5.7"/></g><g class="Y"><path d="M379.4 131.2h-51.1m0 5.7h46.8M512 470.2v.7m0 .7v1.7m0 .7v1.7m0 .7v1.7m0 .7v1.7m0 .7v1.7m0 .7v1.7m0 .7v1.7m0 .7v1.7m0 .7v1.7m0 .8v1.7m0 .7v1.7m0 .7v1.7m0 .7v1.7m0 .7v1.7m0 .7v1.7m0 .7v1.7m0 .7v1.7m0 .7v1.7m0 .7v.7m4.3-45.4v.7m0 .7v1.7m0 .7v1.7m0 .7v1.7m0 .7v1.7m0 .7v1.7m0 .7v1.7m0 .7v1.7m0 .7v1.7m0 .7v1.7m0 .8v1.7m0 .7v1.7m0 .7v1.7m0 .7v1.7m0 .7v1.7m0 .7v1.7m0 .7v1.7m0 .7v1.7m0 .7v1.7m0 .7v.7" class="S T U V W"/><path d="M556.7 487.8h63.5m0 0l-2.9 5.7"/><path d="M617.3 482.1l2.9 5.7m-2.9 5.7v-11.4m2.9 59h-23.6m-40.5 0l.7-1.4m.3-.7l.8-1.5m.3-.6l.7-1.5m0 11.4l-.7-1.5m-.3-.6l-.8-1.5"/><path d="M556.8 542.5l-.7-1.4m2.8-5.7v1.7m0 .7v1.7m0 .7v1.7m0 .7v1.8m0 .7v1.7m78.8-41.4v15.8m0 0l-5.6-2.8m11.3 0l-5.7 2.8"/><path d="M632.1 518.4h11.3m-47.9 22.7h-1.3m-.7 0h-1.7m-.7 0h-1.7m-.7 0H587m-.7 0h-1.7m-.7 0h-1.7m-.7 0h-1.7m-.7 0h-1.7m-.8 0h-1.7m-.7 0h-1.7m-.7 0h-1.7m-.7 0h-1.7m-.7 0h-1.7m-.7 0h-1.7m-.7 0h-1.7m-.7 0h-1.7m-.7 0h-1.3m-7.2-407.9h-79.1m-40 0l.7 1.4m.3.7l.8 1.5m.3.6l.7 1.5m0-11.4l-.7 1.5m-.3.6l-.8 1.5"/><path d="M430.5 131.7l-.7 1.5m2.8 5.7v-1.7m0-.8v-1.7m0-.7v-1.7m0-.7v-1.7m0-.7v-1.7m133.8 58.8v-31.7m0 0l-5.6 2.8"/><path d="M572.1 157.4l-5.7-2.8m-5.6 2.8h11.3m-103.5-24.2h-.9m-.8 0h-1.7m-.7 0h-1.7m-.7 0h-1.7m-.7 0H458m-.7 0h-1.7m-.7 0h-1.7m-.7 0h-1.7m-.7 0h-1.7m-.7 0H446m-.7 0h-1.7m-.7 0h-1.7m-.8 0h-1.7m-.7 0h-1.7m-.7 0h-1.7m-.7 0h-1.7m-.7 0h-1"/><path d="M375.1 136.9v.6m0 .7v1.7m0 .7v1.7m0 .7v1.7m0 .7v1.7m0 .8v1.7m0 .7v1.7m0 .7v1.7m0 .7v1.7m0 .7v1.7m0 .7v1.7m0 .7v1.7m0 .7v1.7m0 .7v1.7m0 .7v1.7m0 .7v1.7m0 .8v1.7m0 .7v1.7m0 .7v1.7m0 .7v.6m4.3-45.3v.6m0 .7v1.7m0 .7v1.7m0 .7v1.7m0 .7v1.7m0 .8v1.7m0 .7v1.7m0 .7v1.7m0 .7v1.7m0 .7v1.7m0 .7v1.7m0 .7v1.7m0 .7v1.7m0 .7v1.7m0 .7v1.7m0 .7v1.7m0 .8v1.7m0 .7v1.7m0 .7v1.7m0 .7v.6" class="S T U V W"/><use xlink:href="#B"/><use xlink:href="#B" x="63.5" y="53.3"/><path d="M637.7 506.8c.8 0 1.4-.6 1.4-1.4s-.6-1.4-1.4-1.4-1.4.6-1.4 1.4.7 1.4 1.4 1.4m-88.8-372.2c.8 0 1.4-.6 1.4-1.4s-.6-1.4-1.4-1.4-1.4.6-1.4 1.4.6 1.4 1.4 1.4m17.5 53.2c.8 0 1.4-.6 1.4-1.4s-.6-1.4-1.4-1.4-1.4.6-1.4 1.4c0 .7.7 1.4 1.4 1.4"/></g><g class="Z"><path d="M452.5 470.2v-8.5h63.8v2.9h2.8v5.6h-66.6m98.4-5.6v-2.9h104.6v8.5H548v-5.6h2.9"/><path d="M655.5 461.7h7l-7 8.5v-8.5"/></g><g class="S T U V W Y"><path d="M550.9 464.6H548m0 0v5.6m2.9-5.6v-2.9m-34.6 2.9h2.8"/><path d="M519.1 464.6v5.6m-2.8-5.6v-2.9m146.2 0h-71.4m-7.1 0h-33.1"/><path d="M507.8 461.7h-55.3m0 8.5v-8.5m8.5 8.5h51m4.3 0h2.8m28.9 0h107.5"/></g><g class="Z"><path d="M228.6 446.1v-8.5h279.2v8.5H228.6"/><path d="M228.6 437.6v8.5l-7.1-8.5h7.1"/></g><g class="Y"><path d="M507.8 437.6H221.5m7.1 8.5h279.2" class="S T U V W"/><path d="M58.2 896.8h694.5M-9.8 712h509.1"/><g class="S T U V W"><path d="M667.6 568.7V567m0-.8v-1.7m0-.7v-1.7m0-.7v-1.7m0-.7v-1.7m0-.7v-1.7m0-.7v-1.7m0-.7v-1.7m0-.7v-1.7m0-.7v-1.7m0-.7v-1.7m0-.7v-1.7m0-.8V538m0-.7v-1.7m0-.7v-1.7m0-.7v-1.7m0-.7v-1.7m0-.7V526m0-.7v-1.7m0-.7v-1.7m0-.7v-1.7m0-.7v-1.7m0-.8v-1.7m0-.7v-1.7m0-.7v-1.7m0-.7v-1.7m0-.7v-1.7m0-.7v-1.7m0-.7v-1.7m0-.7v-1.7m0-.7v-1.7m0-.7v-1.7m0-.7v-1.7m0-.8v-1.7m0-.7V485m0-.7v-1.7m0-.7v-1.7m0-.7v-1.7m0-.7v-1.7m0-.7V473m0-.7v-1.7m0-.7v-1.7m0-.7v-1.7m0-.7v-1.7m0-.8v-1.7m0-.7v-1.7m0-.7v-1.7m0-.7v-1m0 0h-1.7m-.7 0h-1.7m-.7 0h-1.7m-.7 0h-1.7m-.7 0h-1.7m-.7 0h-1.7m-.7 0h-1.7m-.7 0h-1.7m-.7 0h-1.7m-.7 0h-1.7m-.8 0h-1.7m-.7 0h-1.7m-.7 0H637m-.7 0h-1.7m-.7 0h-1.7m-.7 0h-1.7m-.7 0h-1.7m-.7 0H625m-.7 0h-1.7m-.7 0h-1.7m-.7 0h-1.8m-.7 0h-1.7m-.7 0h-1.7m-.7 0h-1.7m-.7 0h-1.7m-.7 0h-1.7m-.7 0h-1.7m-.7 0h-1.7m-.7 0h-1.7m-384.4 21.8v1m0 .7v1.7m0 .7v1.7m0 .7v1.7m0 .7v1.7m0 .7v1.7m0 .7v1.7m0 .7v1.7m0 .7v1.7m0 .8v1.7m0 .7v1.7m0 .7v1.7m0 .7v1.7m0 .7v1.7m0 .7v1.7m0 .7v1.7m0 .7v1.7m0 .7v1.7m0 .7v1.7m0 .7v1.7m0 .8v1.7m0 .7v1.7m0 .7v1.7m0 .7v1.7m0 .7v1.7m0 .7v1.7m0 .7v1.7m0 .7v1.7m0 .7v1.7m0 .7v1.7m0 .8v1.7m0 .7v1.7m0 .7v1.7m0 .7v1.7m0 .7v1.7m0 .7v1.7m0 .7v1.7m0 .7v1.7m0 .7v1.7M144.9-.6v.1m0 .7v1.7m0 .7v1.7m0 .7v1.7m0 .7v1.7m0 .7v1.7m0 .7v1.7m0 .7v1.7m0 .7v1.7m0 .7v1.7m0 .8v1.7m0 .7V26m0 .7v1.7m0 .7v1.7m0 .7v1.7m0 .7v1.7m0 .7V38m0 .7v1.7m0 .7v1.7m0 .7v1.7m0 .7v1.7m0 .8v1.7m0 .7v1.7m0 .7v1.7m0 .7v1.7m0 .7v1.7m0 .7v1.7m0 .7v1.7m0 .7v1.7m0 .7v1.7m0 .7v1.7m0 .8v1.7m0 .7v1.7m0 .7V79m0 .7v1.7m0 .7v1.7m0 .7v1.7m0 .7v1.7m0 .7V91m0 .7v1.7m0 .7v1.7m0 .7v1.7m0 .8v1.7m0 .7v1.7m0 .7v1.7m0 .7v1.7m0 .7v1.7m0 .7v1.7m0 .7v1.7m0 .7v1.7m0 .7v1.7m0 .7v1.7m0 .8v1.7m0 .7v1.7m0 .7v1.7m0 .7v1.7m0 .7v1.7m0 .7v1.7m0 .7v1.7m0 .7v1.7m0 .7v1.7m0 .7v1.7m0 .7v1.7m0 .8v1.7m0 .7v1.7m0 .7v1.7m0 .7v1.7m0 .7v1.7m0 .7v1.7m0 .7v1.7m0 .7v1.7m0 .7v1.7m0 .7v1.7m0 .7v1.8m0 .7v1.7m0 .7v1.7m0 .7v1.7m0 .7v1.7m0 .7v1.7m0 .7v1.7m0 .7v1.7m0 .7v1.7m0 .7v1.7m0 .7v1.7m0 .8v1.7m0 .7v1.7m0 .7v1.7m0 .7v1.7m0 .7v1.7m0 .7v1.7m0 .7v1.7m0 .7v1.7m0 .7v1.7m0 .7v1.7m0 .7v1.7m0 .8v1.7m0 .7v1.7m0 .7v1.7m0 .7v1.7m0 .7v1.7m0 .7v1.7m0 .7v1.7m0 .7v1.7m0 .7v1.7m0 .7v1.7m0 .8v1.7m0 .7v1.7m0 .7v1.7m0 .7v1.7m0 .7v1.7m0 .7v1.7m0 .7v1.7m0 .7v1.7m0 .7v1.7m0 .7v1.7m0 .7v1.7m0 .8v1.7m0 .7v1.7m0 .7v1.7m0 .7v1.7m0 .7v1.7m0 .7v1.7m0 .7v1.7m0 .7v1.7m0 .7v1.7m0 .7v1.7m0 .8v1.7m0 .7v1.7m0 .7v1.7m0 .7v1.7m0 .7v1.7m0 .7v1.7m0 .7v1.7m0 .7v1.7m0 .7v1.7m0 .7v1.7m0 .7v1.7m0 .8v1.7m0 .7v1.7m0 .7v1.7m0 .7v1.7m0 .7v1.7m0 .7v1.7m0 .7v1.7m0 .7v1.7m0 .7v1.7m0 .7v1.7m0 .7v1.7m0 .8v1.7m0 .7v1.7m0 .7v1.7m0 .7v1.7m0 .7v1.7m0 .7v1.7m0 .7v1.7m0 .7v1.7m0 .7v1.7m0 .7v1.7m0 .8v1.7m0 .7v1.7m0 .7v1.7m0 .7v1.7m0 .7v1.7m0 .7v1.7m0 .7v1.7m0 .7v1.7m0 .7v1.7m0 .7v1.7m0 .7v1.7m0 .8v1.7m0 .7v1.7m0 .7v1.7m0 .7v1.7m0 .7v1.7m0 .7v1.7m0 .7v1.7m0 .7v1.7m0 .7v1.7m0 .7v1.7m0 .8v1.7m0 .7v1.7m0 .7v1.7m0 .7v1.7m0 .7v1.7m0 .7v1.7m0 .7v1.7m0 .7v1.7m0 .7v1.7m0 .7v1.7m0 .7v1.7m0 .8v1.7m0 .7v1.7m0 .7v1.7m0 .7v1.7m0 .7v1.7m0 .7v1.7m0 .7v1.7m0 .7v1.7m0 .7v1.4m0 0h.5m.7 0h1.7m.7 0h1.7m.8 0h1.7m.7 0h1.7m.7 0h1.7m.7 0h1.7m.7 0h1.7m.7 0h1.7m.7 0h1.7m.7 0h1.7m.7 0h1.7m.7 0h1.7m.7 0h1.8m.7 0h1.7m.7 0h1.7m.7 0h1.7m.7 0h1.7m.7 0h1.7m.7 0h1.7m.7 0h1.7m.7 0h1.7m.7 0h1.7m.7 0h1.7m.8 0h1.7m.7 0h1.7m.7 0h1.7m.7 0h1.7m.7 0h1.7m.7 0h.5M598.5.1v1.7m0 .7v1.7m0 .7v1.7m0 .7V9m0 .7v1.7m0 .7v1.7m0 .8v1.7m0 .7v1.7m0 .7v1.7m0 .7v1.7m0 .7v1.7m0 .7v1.7m0 .7v1.7m0 .7v1.7m0 .7v1.7m0 .7v1.7m0 .7v1.8m0 .7v1.7m0 .7v1.7m0 .7v1.7m0 .7V50m0 .7v1.7m0 .7v1.7m0 .7v1.7m0 .7v1.7m0 .7V62m0 .7v1.7m0 .8v1.7m0 .7v1.7m0 .7v1.7m0 .7v1.7m0 .7v1.7m0 .7v1.7m0 .7v1.7m0 .7v1.7m0 .7v1.7m0 .7v1.7m0 .7v1.7m0 .8v1.7m0 .7v1.7m0 .7v1.7m0 .7v1.7m0 .7v1.7m0 .7v1.7m0 .7v1.7m0 .7v1.7m0 .7v1.7m0 .7v1.7m0 .8v1.7m0 .7v1.7m0 .7v1.7m0 .7v1.7m0 .7v1.7m0 .7v1.7m0 .7v1.7m0 .7v1.7m0 .7v1.7m0 .7v1.7m0 .7v1.7m0 .8v1.7m0 .7v1.7m0 .7v1.7m0 .7v1.7m0 .7v1.7m0 .7v1.7m0 .7v1.7m0 .7v1.7m0 .7v1.7m0 .7v1.7m0 .8v1.7m0 .7v1.7m0 .7v1.7m0 .7v1.7m0 .7v1.7m0 .7v1.7m0 .7v1.7m0 .7v1.7m0 .7v1.7m0 .7v1.7m0 .7v1.7m0 .8v1.7m0 .7v1.7m0 .7v1.7m0 .7v1.7m0 .7v1.7m0 .7v1.7m0 .7v1.7m0 .7v1.7m0 .7v1.7m0 .7v1.7m0 .7v1.7m0 .8v1.7m0 .7v1.7m0 .7v1.7m0 .7v1.7m0 .7v1.7m0 .7v1.7m0 .7v1.7m0 .7v1.7m0 .7v1.7m0 .7v1.7m0 .8v1.7m0 .7v1.7m0 .7v1.7m0 .7v1.7m0 .7v1.7m0 .7v1.7m0 .7v1.7m0 .7v1.7m0 .7v1.7m0 .7v1.7m0 .7v1.7m0 .8v1.7m0 .7v1.7m0 .7v1.7m0 .7v1.7m0 .7v1.7m0 .7v1.7m0 .7v1.7m0 .7v1.7m0 .7v1.7m0 .7v1.7m0 .8v1.7m0 .7v1.7m0 .7v1.7m0 .7v1.7m0 .7v1.7m0 .7v1.7m0 .7v1.7m0 .7v1.7m0 .7v1.7m0 .7v1.7m0 .7v1.7m0 .8v1.7m0 .7v1.7m0 .7v1.7m0 .7v1.7m0 .7v1.7m0 .7v1.7m0 .7v1.7m0 .7v1.7m0 .7v1.7m0 .7v1.7m0 .7v1.8m0 .7v1.7m0 .7v1.7m0 .7v1.7m0 .7v1.7m0 .7v1.7m0 .7v1.7m0 .7v1.7m0 .7v1.7m0 .7v1.7m0 .7v1.7m0 .8v1.7m0 .7v1.7m0 .7v1.7m0 .7v1.7m0 .7v1.7m0 .7v1.7m0 .7v1.7m0 .7v1.7m0 .7v1.7m0 .7v1.7m0 .7v1.7m0 .8v1.7m0 .7v1.7"/><path d="M598.5 402.5v1.7m0 .7v1.7m0 .7v1.7m0 .7v1.7m0 .7v1.7m0 .7v1.7m0 .7v1.7m0 .7v1.7m0 .8v1.7m0 .7v1.7m0 .7v1.7m0 .7v1.7m0 .7v1.7m0 .7v1.7m0 .7v1.7m0 .7v1.7m0 .7v1.7m0 .7v1.7m0 .7v1.7m0 .8v1.7m0 .7v1.7m0 .7v1.3M319.8 212v.4m0 .7v1.7m0 .7v1.7m0 .7v1.7m0 .8v1.7m0 .7v1.7m0 .7v1.7m0 .7v1.7m0 .7v1.7m0 .7v1.7m0 .7v1.7m0 .7v1.7m0 .7v1.7m0 .7v1.7m0 .7v1.7m0 .8v1.7m0 .7v1.7m0 .7v1.7m0 .7v1.7m0 .7v1.7m0 .7v1.7m0 .7v1.7m0 .7v1.7m0 .7v1.7m0 .7v1.7m0 .7v1.7m0 .8v1.7m0 .7v1.7m0 .7v1.7m0 .7v1.7m0 .7v1.7m0 .7v1.7m0 .7v1.7m0 .7v1.7m0 .7v1.7m0 .7v1.7m0 .8v1.7m0 .7v1.7m0 .7v1.7m0 .7v1.7m0 .7v1.7m0 .7v1.7m0 .7v1.7m0 .7v1.7m0 .7v1.7m0 .7v1.7m0 .7v1.7m0 .8v1.7m0 .7v1.7m0 .7v1.7m0 .7v1.7m0 .7v1.7m0 .7v1.7m0 .7v1.7m0 .7v1.7m0 .7v1.7m0 .7v1.7m0 .8v1.7m0 .7v1.7m0 .7v1.7m0 .7v1.7m0 .7v1.7m0 .7v1.7m0 .7v1.7m0 .7v1.7m0 .7v1.7m0 .7v1.7m0 .7v1.7m0 .8v1.7m0 .7v1.7m0 .7v1.7m0 .7v1.7m0 .7v1.7m0 .7v1.7m0 .7v1.7m0 .7v1.7m0 .7v1.7m0 .7v1.7m0 .7v1.8m0 .7v1.7m0 .7v1.7m0 .7v1.7m0 .7v1.7m0 .7v1.7m0 .7v1.7m0 .7v1.7m0 .7v1.7m0 .7v1.7m0 .7v1.7m0 .8v1.7m0 .7v1.7m0 .7v1.7m0 .7v1.7m0 .7v1.7m0 .7v.4M315.9 216v1.2m0 .7v1.7m0 .8v1.7m0 .7v1.7m0 .7v1.7m0 .7v1.7m0 .7v1.7m0 .7v1.7m0 .7v1.7m0 .7v1.7m0 .7v1.7m0 .7v1.7m0 .7v1.7m0 .8v1.7m0 .7v1.7m0 .7v1.7m0 .7v1.7m0 .7v1.7m0 .7v1.7m0 .7v1.7m0 .7v1.7m0 .7v1.7m0 .7v1.7m0 .7v1.7m0 .8v1.7m0 .7v1.7m0 .7v1.7m0 .7v1.7m0 .7v1.7m0 .7v1.7m0 .7v1.7m0 .7v1.7m0 .7v1.7m0 .7v1.7m0 .8v1.7m0 .7v1.7m0 .7v1.7m0 .7v1.7m0 .7v1.7m0 .7v1.7m0 .7v1.7m0 .7v1.7m0 .7v1.7m0 .7v1.7m0 .7v1.7m0 .8v1.7m0 .7v1.7m0 .7v1.7m0 .7v1.7m0 .7v1.7m0 .7v1.7m0 .7v1.7m0 .7v1.7m0 .7v1.7m0 .7v1.7m0 .8v1.7m0 .7v1.7m0 .7v1.7m0 .7v1.7m0 .7v1.7m0 .7v1.7m0 .7v1.7m0 .7v1.7m0 .7v1.7m0 .7v1.7m0 .7v1.7m0 .8v1.7m0 .7v1.7m0 .7v1.7m0 .7v1.7m0 .7v1.7m0 .7v1.7m0 .7v1.7m0 .7v1.7m0 .7v1.7m0 .7v1.7m0 .7v1.8m0 .7v1.7m0 .7v1.7m0 .7v1.7m0 .7v1.7m0 .7v1.7m0 .7v1.7m0 .7v1.7m0 .7v1.7m0 .7v1.7m0 .7v1.7m0 .8v1.7m0 .7v1.7m0 .7v1.7m0 .7v1.3m-163.6 35.1v-.8m0-.7v-1.7m0-.7v-1.7m0-.7v-1.7m0-.7v-1.7m0-.7V456m0-.7v-1.7m0-.7v-1.7m0-.7v-1.7m0-.8v-1.7m0-.7v-1.7m0-.7v-1.7m0-.7v-1.7m0-.7v-.8M591.1 0v1.7m0 .7v1.7m0 .7v1.7m0 .8V9m0 .7v1.7m0 .7v1.7m0 .7v1.7m0 .7v1.7m0 .7V21m0 .7v1.7m0 .7v1.7m0 .7v1.7m0 .7v1.7m0 .8v1.7m0 .7v1.7m0 .7v1.7m0 .7v1.7m0 .7v1.7m0 .7v1.7m0 .7v1.7m0 .7v1.7m0 .7v1.7m0 .7v1.7m0 .7v1.7m0 .8v1.7m0 .7V62m0 .7v1.7m0 .7v1.7m0 .7v1.7m0 .7v1.7m0 .7V74m0 .7v1.7m0 .7v1.7m0 .7v1.7"/><path d="M591.1 81.9v1.7m0 .8v1.7m0 .7v1.7m0 .7v1.7m0 .7v1.7m0 .7v1.7m0 .7v1.7m0 .7v1.7m0 .7v1.7m0 .7v1.7m0 .7v1.1M221.5 468.8h-.5m-.7 0h-1.7m-.7 0h-1.7m-.8 0h-1.7m-.7 0h-1.7m-.7 0h-1.7m-.7 0h-1.7m-.7 0h-1.7m-.7 0h-1.7m-.7 0h-1.7m-.7 0h-1.7m-.7 0h-1.7m-.7 0h-1.7m-.8 0h-1.7m-.7 0h-1.7m-.7 0h-1.7m-.7 0h-1.7m-.7 0H180m-.7 0h-1.7m-.7 0h-1.7m-.7 0h-1.7m-.7 0h-1.7m-.7 0H168m-.7 0h-1.7m-.8 0h-1.7m-.7 0h-1.7m-.7 0h-1.7m-.7 0h-1.7m-.7 0h-1.7m-.7 0h-.5"/></g><path d="M645.2 570.3V712m77.3-141.7V712m-223.2-42.2V712m46.7-42.2V712"/><path d="M644.4 569.4v-1.7m0-.7v-1.2m15.9 3.1v-1.7m0-.7v-.7m-438.8 0v.7m0 .7v1.7m15.8-3.1v1.2m0 .7v1.7" class="S T U V W"/><path d="M546 712h206.7M104.5 565.8V712M27.3 565.8V712M259 570.3V712m-77.2-141.7V712m231.7-141.7V712m-77.2-141.7V712m-231.8 326.9V896.8m77.3 142.1V896.8m77.2 142.1V896.8m194.6-346.6h-28.9"/><path d="M461 521.2v.9m0 .7v1.7m0 .7v1.7m0 .7v1.7m0 .7v1.7m0 .7v1.7m0 .8v1.7m0 .7v1.7m0 .7v1.7m0 .7v1.7m0 .7v1.7m0 .7v1.7m0 .7v.9m-8.5-31.8v1.3m0 .7v1.7m0 .7v1.7m0 .7v1.7m0 .7v1.7m0 .7v1.7m0 .7v1.7m0 .8v1.7m0 .7v1.7m0 .7v1.7m0 .7v1.7m0 .7v1.7m0 .7v1.7m0 .7v1.7m0 .7v1.3m95.5-82.8h-.8m-.7 0h-1.7m-.8 0h-1.7m-.7 0h-1.7m-.7 0h-1.7m-.7 0h-1.7m-.7 0h-1.7m-.7 0h-1.7m-.7 0h-1.7m-.7 0h-1.7m-.7 0h-1.7m-.7 0h-1.7m-.7 0h-.9m31.8-8.5h-1.3m-.7 0h-1.7m-.7 0h-1.7m-.8 0h-1.7m-.7 0h-1.7m-.7 0h-1.7m-.7 0h-1.7m-.7 0h-1.7m-.7 0h-1.7m-.7 0h-1.7m-.7 0h-1.7m-.7 0h-1.7m-.7 0h-1.7m-.7 0h-1.7m-.8 0h-1.2m24.1 104.1h-.5m-.7 0h-1.7m-.8 0H535m-.7 0h-1.7m-.7 0h-1.7m-.7 0h-1.7m-.7 0h-1.7m-.7 0H523m-.7 0h-1.7m-.7 0h-1.7m-.7 0h-1.7m-.7 0h-1.7m-.7 0H511m-.8 0h-1.7m-.7 0h-1.7m-.7 0h-.5m35.5-7.1h-.5m-.7 0h-1.7m-.8 0H535m-.7 0h-1.7m-.7 0h-1.7m-.7 0h-1.7m-.7 0h-1.7m-.7 0H523m-.7 0h-1.7m-.7 0h-1.7m-.7 0h-1.7m-.7 0h-1.7m-.7 0H511m-.8 0h-1.7m-.7 0h-1.7m-.7 0h-.5m2.9 105.4h29.4m-29.4 5.7h1.1m.7 0h1.7m.7 0h1.7m.7 0h1.7m.7 0h1.7m.7 0h1.7m.8 0h1.7m.7 0h1.7m.7 0h1.7m.7 0h1.7m.7 0h1.7m.7 0h1.7m.7 0h1.1" class="S T U V W"/><path d="M508.2 559.8v-28.9m10.9-68v-29"/><path d="M507.8 570.3h1.2m.7 0h1.8m.7 0h1.7m.7 0h1.7m.7 0h1.7m.7 0h1.7m.7 0h1.7m.7 0h1.7m.7 0h1.7m.7 0h1.7m.7 0h1.7m.7 0h1.7m.8 0h1.2" class="S T U V W"/><path d="M336.3 1038.9V896.8m77.2 142.1V896.8m77.3 142.1V896.8m77.2 142.1V896.8m77.2 142.1V896.8m77.3 142.1V896.8"/><g class="S T U V W"><path d="M557.2 470.8h1.4m.7 0h1.7m.7 0h1.7m.7 0h1.7m.7 0h1.7m.7 0h1.7m.7 0h1.7m.7 0h1.7m.8 0h1.7m.7 0h1.7m.7 0h1.7m.7 0h1.7m.7 0h1.7m.7 0h1.7m.7 0h1.7m.7 0h1.7m.7 0h1.7m.7 0h1.7m.7 0h1.7m.8 0h1.7m.7 0h1.7m.7 0h1.7m.7 0h1.7m.7 0h1.7"/><path d="M614.7 470.8h1.7m.7 0h1.7m.7 0h1.7m.7 0h1.7m.7 0h1.7m.7 0h1.4m-71.4 34h64m-63.5-34v1"/><path d="M557.2 472.5v1.7m0 .7v1.7m0 .7v1.7m0 .7v1.7m0 .7v1.7m0 .7v1.7m0 .7v1.7m0 .8v1.7m0 .7v1.7m0 .7v1.7m0 .7v1.7m0 .7v1.7m0 .7v1.7m0 .7v1m-.5-34v34m32.3-34v1m0 .7v1.7m0 .7v1.7m0 .7v1.7m0 .7v1.7m0 .7v1.7m0 .7v1.7m0 .7v1.7m0 .8v1.7m0 .7v1.7m0 .7v1.7m0 .7v1.7m0 .7v1.7m0 .7v1.7m0 .7v1m-.6-34v34m8.5-34v1m0 .7v1.7m0 .7v1.7m0 .7v1.7m0 .7v1.7m0 .7v1.7m0 .7v1.7m0 .7v1.7m0 .8v1.7m0 .7v1.7m0 .7v1.7m0 .7v1.7m0 .7v1.7m0 .7v1.7m0 .7v1m-.6-34v34m8.6-34v1m0 .7v1.7m0 .7v1.7m0 .7v1.7m0 .7v1.7m0 .7v1.7m0 .7v1.7m0 .7v1.7m0 .8v1.7m0 .7v1.7m0 .7v1.7m0 .7v1.7m0 .7v1.7m0 .7v1.7m0 .7v1m-.6-34v34m8.5-34v1m0 .7v1.7m0 .7v1.7m0 .7v1.7m0 .7v1.7m0 .7v1.7m0 .7v1.7m0 .7v1.7m0 .8v1.7m0 .7v1.7m0 .7v1.7m0 .7v1.7m0 .7v1.7m0 .7v1.7m0 .7v1m-.6-34v34m7.4 19.3v1m0 .7v1.7m0 .7v1.7m0 .7v1.7m0 .7v1.7m0 .7v1.7m0 .7v1.7m0 .7v1.7m0 .7v1.8m0 .7v1.7m0 .7v1.7m0 .7v1.7m0 .7v1.7m0 .7v1.7m0 .7v1m.6-34v34m-8.5-34v1m0 .7v1.7m0 .7v1.7m0 .7v1.7m0 .7v1.7m0 .7v1.7m0 .7v1.7m0 .7v1.7m0 .7v1.8m0 .7v1.7m0 .7v1.7m0 .7v1.7m0 .7v1.7m0 .7v1.7m0 .7v1m.5-34v34m-8.5-34v1m0 .7v1.7m0 .7v1.7m0 .7v1.7m0 .7v1.7m0 .7v1.7m0 .7v1.7m0 .7v1.7m0 .7v1.8m0 .7v1.7m0 .7v1.7m0 .7v1.7m0 .7v1.7m0 .7v1.7m0 .7v1m.6-34v34m-8.5-34v.8m0 .7v1.7m0 .7v1.7m0 .7v1.7m0 .7v1.7m0 .7v.8m.5-11.9v15.3m-8.5-15.3v1m0 .7v1.7m0 .7v1.7m0 .7v1.7m0 .7v1.7m0 .7v1.7m0 .7v1.7m0 .7v1.7m0 .7v1.8m0 .7v1.7m0 .7v1.7m0 .7v1.7m0 .7v1.7m0 .7v1.7m0 .7v1m-39.1-34h1.2m.7 0h1.7m.7 0h1.7m.7 0h1.7m.7 0h1.7m.7 0h1.7m.7 0h1.7m.7 0h1.7m.7 0h1.7m.7 0h1.7m.8 0h1.7m.7 0h1.7m.7 0h1.7m.7 0h1.7m.7 0h1.7m.7 0h1.7m.7 0h1.7m.7 0h1.7m.7 0h1.2m-44 34h1.6m.7 0h1.7m.7 0h1.7m.7 0h1.7m.7 0h1.7m.7 0h1.7m.7 0h1.7m.8 0h1.7"/><path d="M567.9 558.1h1.7m.7 0h1.7m.7 0h1.7m.7 0h1.7m.7 0h1.7m.7 0h1.7m.7 0h1.7m.7 0h1.7m.7 0h1.7m.7 0h1.7m.8 0h1.7m.7 0h1.7m.7 0h1.5m-18.4-34v1m0 .7v1.7m0 .7v1.7"/><path d="M579.9 530.6v1.7m0 .7v1.7m0 .7v1.7m0 .7v1.7m0 .7v1.7m0 .7v1.8m0 .7v1.7m0 .7v1.7m0 .7v1.7m0 .7v1.7m0 .7v1.7m0 .7v1m-7.9-34v1m0 .7v1.7m0 .7v1.7m0 .7v1.7m0 .7v1.7m0 .7v1.7m0 .7v1.7m0 .7v1.7m0 .7v1.8m0 .7v1.7m0 .7v1.7m0 .7v1.7m0 .7v1.7m0 .7v1.7m0 .7v1m-15.9-34v1m0 .7v1.7m0 .7v1.7m0 .7v1.7m0 .7v1.7m0 .7v1.7m0 .7v1.7m0 .7v1.7m0 .7v1.8m0 .7v1.7m0 .7v1.7m0 .7v1.7m0 .7v1.7m0 .7v1.7m0 .7v1m67.5-34v1m0 .7v1.7m0 .7v1.7m0 .7v1.7m0 .7v1.7m0 .7v1.7m0 .7v1.7m0 .7v1.7m0 .7v1.8m0 .7v1.7m0 .7v1.7m0 .7v1.7m0 .7v1.7m0 .7v1.7m0 .7v1m-74.9-34v1m0 .7v1.7m0 .7v1.7m0 .7v1.7m0 .7v1.7m0 .7v1.7m0 .7v1.7m0 .7v1.7m0 .7v1.8m0 .7v1.7m0 .7v1.7m0 .7v1.7m0 .7v1.7m0 .7v1.7m0 .7v1m79.4-87.3v1m0 .7v1.7m0 .7v1.7m0 .7v1.7m0 .7v1.7m0 .7v1.7m0 .7v1.7m0 .7v1.7m0 .8v1.7m0 .7v1.7m0 .7v1.7m0 .7v1.7m0 .7v1.7m0 .7v1.7m0 .7v1m-7.4-34v1m0 .7v1.7m0 .7v1.7m0 .7v1.7m0 .7v1.7m0 .7v1.7m0 .7v1.7m0 .7v1.7m0 .8v1.7m0 .7v1.7m0 .7v1.7m0 .7v1.7m0 .7v1.7m0 .7v1.7m0 .7v1m-.5-34v34m34.5-34v1.1m0 .7v1.7m0 .7v1.7m0 .8v1.7m0 .7v1.7m0 .7v1.7m0 .7v1.7m0 .7v1.7m0 .7v1.7m0 .7v1.7m0 .7v1.7m0 .7v1.7m0 .7v1.7m0 .7v1.7m0 .8v1.7m0 .7v1.7m0 .7v1.7m0 .7v1.7m0 .7v1.7m0 .7v1.7m0 .7v1.7m0 .7v1.7m0 .7v1.7m0 .7v1.7m0 .8v1.7m0 .7v1.7m0 .7v1.7m0 .7v1.7m0 .7v1.7m0 .7v1.7m0 .7v1.7m0 .7v1.7m0 .7v1.7m0 .7v1.7m0 .7v1.7m0 .8v1.7m0 .7v1.1m-34-52.7v18.1m34-17.6h-.9m-.8 0h-1.7m-.7 0h-1.7m-.7 0h-1.7m-.7 0h-1.7m-.7 0h-1.7m-.7 0h-1.7m-.7 0h-1.7m-.7 0h-1.7m-.7 0h-1.7m-.7 0h-1.7m-.8 0h-1.7m-.7 0h-1.7m-.7 0h-1.7m-.7 0h-1m34-.5h-34m34 8.5h-.9m-.8 0h-1.7m-.7 0h-1.7"/><path d="M648.2 513.9h-1.7m-.7 0h-1.7m-.7 0h-1.7m-.7 0h-1.7m-.7 0h-1.7m-.7 0h-1.7m-.7 0h-1.7m-.7 0h-1.7m-.8 0h-1.7m-.7 0h-1.7m-.7 0h-1.7m-.7 0h-1m34-.6h-34m34-42.5h-.6m-.7 0h-1.7m-.7 0h-1.7m-.7 0h-1.7m-.7 0h-1.7m-.7 0h-1.7m-.8 0h-1.7m-.7 0h-1.7m-.7 0h-1.7m-.7 0h-1.7m-.7 0H630m-.7 0h-.6m-4.6 52.7h-1.3m-.7 0h-1.4m8-52.7v1.3m0 .7v1.7m0 .7v1.7m0 .7v1.7m0 .7v1.7m0 .7v1.7m0 .7v1.7m0 .7v1.7m0 .7v1.7m0 .8v1.7m0 .7v1.7m0 .7v1.7m0 .7v1.7m0 .7v1.7m0 .7v1.3m-3.4-34.6v1.3m0 .7v1.7m0 .7v1.7m0 .7v1.7m0 .7v1.7m0 .7v1.7m0 .7v1.7m0 .7v1.7m0 .7v1.7m0 .8v1.7m0 .7v1.7m0 .7v1.7m0 .7v1.7m0 .7v1.7m0 .7v1.3m-4.6-.6h.9"/><path d="M622.4 504.8h1.7m.7 0h1.7m.7 0h.9m-7.9 19.3h1.3m.7 0h1.4m31.1 34H653m-.7 0h-1.7m-.7 0h-1.7m-.7 0h-1.7m-.7 0h-1.7m-.7 0H641m-.7 0h-1.7m-.7 0h-1.7m-.7 0h-1.7m-.7 0h-1.7m-.8 0h-1.7m-.7 0h-1.7m-.7 0h-1.7m30.6-36.9h-34m3.4 36.9v-1.3"/><path d="M624.1 556.1v-1.7m0-.7V552m0-.7v-1.7m0-.7v-1.7m0-.7v-1.7m0-.7v-1.7m0-.7V540m0-.8v-1.7m0-.7v-1.7m0-.7v-1.7m0-.7v-1.7m0-.7v-1.7m0-.7v-1.7m0-.7v-1.3m-3.4 34.6v-1.3m0-.7v-1.7m0-.7V552m0-.7v-1.7m0-.7v-1.7m0-.7v-1.7m0-.7v-1.7m0-.7V540m0-.8v-1.7m0-.7v-1.7m0-.7v-1.7m0-.7v-1.7m0-.7v-1.7m0-.7v-1.7m0-.7v-1.3m-72.5 35.2v-1.6m0-.7v-1.7m0-.7v-1.7m0-.7v-1.7m0-.7v-1.7m0-.7v-1.7m0-.7v-1.8m0-.7v-1.7m0-.7v-1.7m0-.7v-1.7m0-.7V533m0-.7v-1.7m0-.7v-1.7m0-.7v-1.7m0-.7v-1.6m3.4 35.2v-1.6m0-.7v-1.7m0-.7v-1.7m0-.7v-1.7m0-.7v-1.7m0-.7v-1.7m0-.7v-1.8m0-.7v-1.7m0-.7v-1.7m0-.7v-1.7m0-.7V533m0-.7v-1.7m0-.7v-1.7m0-.7v-1.7m0-.7v-1.6m-3.4 0h1.2m.7 0h1.7m.7 0h1.7m.7 0h1.2m0 0v-.6m0-.7v-1.7m0-.7v-1.7m0-.7v-1.7m0-.7v-1.7m0-.7v-1.7m0-.7v-1.7m0-.7v-1.7m0-.7v-.6"/></g><path d="M560.1 505.9h59.5m0 0v1.2"/><path d="M619.6 507.1h-59.5m0 0v-1.2m33.3 15.9h26.2m0 0v1.1"/><path d="M619.6 522.9h-26m26-2.2h-1.1m0 0v-12.5m0 0h1.1m0 0v12.5"/><g class="S T U V W"><path d="M564 524.1v1m0 .7v1.7m0 .7v1.7m0 .7v1.7m0 .7v1.7m0 .7v1.7m0 .7v1.7m0 .7v1.7m0 .7v1.8m0 .7v1.7m0 .7v1.7m0 .7v1.7m0 .7v1.7m0 .7v1.7m0 .7v1m17-87.3v1m0 .7v1.7m0 .7v1.7m0 .7v1.7m0 .7v1.7m0 .7v1.7m0 .7v1.7m0 .7v1.7m0 .8v1.7m0 .7v1.7m0 .7v1.7m0 .7v1.7m0 .7v1.7m0 .7v1.7m0 .7v1m-.5-34v34m-7.4-34v1m0 .7v1.7m0 .7v1.7m0 .7v1.7m0 .7v1.7m0 .7v1.7m0 .7v1.7m0 .7v1.7m0 .8v1.7m0 .7v1.7m0 .7v1.7m0 .7v1.7m0 .7v1.7m0 .7v1.7m0 .7v1m-.6-34v34m-7.3-34v1m0 .7v1.7m0 .7v1.7m0 .7v1.7m0 .7v1.7m0 .7v1.7m0 .7v1.7m0 .7v1.7m0 .8v1.7m0 .7v1.7m0 .7v1.7m0 .7v1.7m0 .7v1.7m0 .7v1.7m0 .7v1m-.6-34v34m34.9 53.3l-6.3-37.4m5.1 37.4l-6.2-37.4"/><path d="M595.8 542.8v1.3m0 .7v1.7m0 .7v1.7m0 .7v1.7m0 .7v1.7m0 .7v1.7m0 .7v1.3m-2-34h26.4m-20.7 34h.8m.7 0h1.7m.7 0h1.7m.7 0h1.7m.8 0h1.7m.7 0h1.7m.7 0h1.7m.7 0h1.7m.7 0h1.7m.7 0h1.7m.7 0h.9m-75.3-407.9v-1m0-.7v-1.7m0-.7v-1.7m0-.7V142m0-.7v-1.7m0-.7v-1.7m0-.8v-1.7m0-.7v-1.7m0-.7v-1.7m0-.7v-1.7m0-.7v-1.7m0-.7v-1.7m0-.7v-1.7m0-.7v-1.7m0-.7v-1m.6 34v-34m-64.1 34v-1m0-.7v-1.7m0-.7v-1.7m0-.7V142m0-.7v-1.7m0-.7v-1.7m0-.8v-1.7m0-.7v-1.7m0-.7v-1.7m0-.7v-1.7m0-.7v-1.7m0-.7v-1.7m0-.7v-1.7m0-.7v-1.7m0-.7v-1m.6 34v-34m-8.5 34v-1m0-.7v-1.7m0-.7v-1.7m0-.7V142m0-.7v-1.7m0-.7v-1.7m0-.8v-1.7m0-.7v-1.7m0-.7v-1.7m0-.7v-1.7m0-.7v-1.7m0-.7v-1.7m0-.7v-1.7m0-.7v-1.7m0-.7v-1m.5 34v-34m-8.5 34v-.8m0-.7V147m0-.7v-1.7m0-.7v-1.7m0-.7v-1.7m0-.7v-.8m.6 11.9v-15.3m-8.5 15.3v-1m0-.7v-1.7m0-.7v-1.7m0-.7V142m0-.7v-1.7m0-.7v-1.7m0-.8v-1.7m0-.7v-1.7m0-.7v-1.7m0-.7v-1.7m0-.7v-1.7m0-.7v-1.7m0-.7v-1.7m0-.7v-1.7m0-.7v-1m-39.1 34h.9m.7 0h1.7m.7 0h1.7m.7 0h.9m-7.3-34h1.5m.7 0h1.7m.8 0h1.7m.7 0h1.7m.7 0h1.7m.7 0h1.7m.7 0h1.7m.7 0h1.7m.7 0h1.7m.7 0h1.7m.7 0h1.7m.7 0h1.7m.7 0h1.7m.8 0h1.7m.7 0h1.7m.7 0h1.7m.7 0h1.7m.7 0h1.7m.7 0h1.7m.7 0h1.7m.7 0h1.6m-18.4 34v-1m0-.7v-1.7m0-.7v-1.7m0-.7V142m0-.7v-1.7m0-.7v-1.7m0-.8v-1.7m0-.7v-1.7m0-.7v-1.7m0-.7v-1.7m0-.7v-1.7m0-.7v-1.7m0-.7v-1.7m0-.7v-1.7"/><path d="M453.1 117.2v-1m-15.9 34v-1m0-.7v-1.7m0-.7v-1.7m0-.7V142m0-.7v-1.7m0-.7v-1.7m0-.8v-1.7m0-.7v-1.7m0-.7v-1.7m0-.7v-1.7m0-.7v-1.7m0-.7v-1.7m0-.7v-1.7m0-.7v-1.7m0-.7v-1m-8 34v-1m0-.7v-1.7m0-.7v-1.7m0-.7V142m0-.7v-1.7m0-.7v-1.7m0-.8v-1.7m0-.7v-1.7m0-.7v-1.7m0-.7v-1.7m0-.7v-1.7m0-.7v-1.7m0-.7v-1.7m0-.7v-1.7m0-.7v-1m127.6 34v-1m0-.7v-1.7m0-.7v-1.7m0-.7V142m0-.7v-1.7m0-.7v-1.7m0-.8v-1.7m0-.7v-1.7m0-.7v-1.7m0-.7v-1.7m0-.7v-1.7m0-.7v-1.7m0-.7v-1.7m0-.7v-1.7m0-.7v-1m-134.9 34v-1m0-.7v-1.7m0-.7v-1.7m0-.7V142m0-.7v-1.7m0-.7v-1.7m0-.8v-1.7m0-.7v-1.7m0-.7v-1.7m0-.7v-1.7m0-.7v-1.7m0-.7v-1.7m0-.7v-1.7m0-.7v-1.7m0-.7v-1m127 34h1.2m.7 0h1.7m.7 0h1.7"/><path d="M555.6 150.2h1.2m-135.5-34.6v1.6m0 .7v1.7m0 .7v1.7m0 .7v1.7m0 .7v1.7m0 .7v1.7m0 .7v1.7m0 .7v1.7m0 .7v1.7m0 .8v1.7m0 .7v1.7m0 .7v1.7m0 .7v1.7m0 .7v1.7m0 .7v1.6"/><path d="M424.7 115.6v1.6m0 .7v1.7m0 .7v1.7m0 .7v1.7m0 .7v1.7m0 .7v1.7m0 .7v1.7m0 .7v1.7m0 .7v1.7m0 .8v1.7m0 .7v1.7m0 .7v1.7m0 .7v1.7m0 .7v1.7m0 .7v1.6m-3.4 0h1.2m.7 0h1.7m.7 0h1.7m.7 0h1.2m0 8.5h.5m.7 0h1.7m.7 0h1.7m.7 0h1.7m.7 0h1.7m.7 0h1.7m.7 0h1.7m.7 0h1.7m.7 0h1.7m.8 0h1.7m.7 0h1.7m.7 0h1.7m.7 0h1.7m.7 0h1.7m.7 0h1.7m.7 0h1.7m.7 0h1.7m.7 0h1.7m.7 0h1.7m.8 0h1.7m.7 0h1.7m.7 0h1.7m.7 0h1.7m.7 0h1.7m.7 0h1.7m.7 0h1.7m.7 0h1.7m.7 0h1.7m.7 0h1.7m.7 0h1.7m.8 0h1.7m.7 0h1.7m.7 0h1.7m.7 0h1.7m.7 0h1.7m.7 0h1.7m.7 0h1.7m.7 0h1.7m.7 0h1.7m.7 0h1.7m.7 0h1.7m.8 0h1.7m.7 0h1.7m.7 0h1.7m.7 0h1.7"/><path d="M536.4 159.3h1.7m.7 0h1.7m.7 0h1.7m.7 0h1.7m.7 0h1.7m.7 0h.5m-119.7-8.5v1.4m0 .8v1.7m0 .7v1.7m0 .7v1.5m103.2-9.1v-1m0-.7v-1.7m0-.7v-1.7m0-.7V142m0-.7v-1.7m0-.7v-1.7m0-.8v-1.7m0-.7v-1.7m0-.7v-1.7m0-.7v-1.7m0-.7v-1.7m0-.7v-1.7m0-.7v-1.7m0-.7v-1.7m0-.7v-1m.6 34v-34m-8.5 34v-1m0-.7v-1.7m0-.7v-1.7m0-.7V142m0-.7v-1.7m0-.7v-1.7m0-.8v-1.7m0-.7v-1.7m0-.7v-1.7m0-.7v-1.7m0-.7v-1.7m0-.7v-1.7m0-.7v-1.7m0-.7v-1.7m0-.7v-1m.6 34v-34m-8.5 34v-1m0-.7v-1.7m0-.7v-1.7m0-.7V142m0-.7v-1.7m0-.7v-1.7m0-.8v-1.7m0-.7v-1.7m0-.7v-1.7m0-.7v-1.7m0-.7v-1.7m0-.7v-1.7m0-.7v-1.7m0-.7v-1.7m0-.7v-1m.5 34v-34m-8.5 34v-1m0-.7v-1.7m0-.7v-1.7m0-.7V142m0-.7v-1.7m0-.7v-1.7m0-.8v-1.7m0-.7v-1.7m0-.7v-1.7m0-.7v-1.7m0-.7v-1.7m0-.7v-1.7m0-.7v-1.7m0-.7v-1.7m0-.7v-1m.6 34v-34m-8.5 34v-1m0-.7v-1.7m0-.7v-1.7m0-.7V142m0-.7v-1.7m0-.7v-1.7m0-.8v-1.7m0-.7v-1.7m0-.7v-1.7m0-.7v-1.7m0-.7v-1.7m0-.7v-1.7m0-.7v-1.7m0-.7v-1.7m0-.7v-1m.5 34v-34m-8.5 34v-1m0-.7v-1.7m0-.7v-1.7m0-.7V142m0-.7v-1.7m0-.7v-1.7m0-.8v-1.7m0-.7v-1.7m0-.7v-1.7m0-.7v-1.7m0-.7v-1.7m0-.7v-1.7m0-.7v-1.7m0-.7v-1.7m0-.7v-1m.6 34v-34m47.1 34v-1m0-.7v-1.7m0-.7v-1.7m0-.7V142m0-.7v-1.7m0-.7v-1.7m0-.8v-1.7m0-.7v-1.7m0-.7v-1.7m0-.7v-1.7m0-.7v-1.7m0-.7v-1.7m0-.7v-1.7m0-.7v-1.7m0-.7v-1m.5 34v-34m-111.7 34h1.1m.7 0h1.7m.7 0h1.7m.7 0h1.7m.7 0h1.7m.8 0h1.7m.7 0h1.7m.7 0h1.7m.7 0h1.7m.7 0h1.7m.7 0h1.7m.7 0h1.7m.7 0h1.7m.7 0h1.7m.7 0h1.7m.8 0h1m-20.7 0v-1m0-.7v-1.7m0-.7v-1.7m0-.7V142m0-.7v-1.7m0-.7v-1.7m0-.8v-1.7m0-.7v-1.7m0-.7v-1.7m0-.7v-1.7m0-.7v-1.7m0-.7v-1.7m0-.7v-1.7m0-.7v-1.7m0-.7v-1m104.3 70.1v-35.5m34.1 35h-1m-.8 0H580m-.7 0h-1.7m-.7 0h-1.7m-.7 0h-1.7m-.7 0h-1.7m-.7 0H568m-.7 0h-1.7m-.7 0h-1.7m-.7 0h-1.7m-.7 0h-1.7m-.7 0H556m-.8 0h-1.7m-.7 0h-1.7m-.7 0h-1m34.1.5h-34.1m34.1-32.3h-1m-.8 0H580m-.7 0h-1.7m-.7 0h-1.7m-.7 0h-1.7m-.7 0h-1.7m-.7 0H568m-.7 0h-1.7m-.7 0h-1.7m-.7 0h-1.7m-.7 0h-1.7m-.7 0H556m-.8 0h-1.7m-.7 0h-1.7m-.7 0h-1m34.1.6h-34.1m34.1-38.4h-.7m-.7 0h-1.7m-.7 0H578m-.7 0h-1.7m-.7 0h-1.7m-.7 0h-1.7m-.7 0h-1.7m-.8 0h-1.7m-.7 0h-1.7m-.7 0h-1.7m-.7 0h-1.7m-.7 0h-.6m0 34.6h-1.2m-.7 0h-1.7"/><path d="M553 150.8h-1.7m-.7 0h-1.2m8-34.6v1.3m0 .7v1.7m0 .7v1.7m0 .7v1.7m0 .7v1.7m0 .7v1.7m0 .7v1.7m0 .7v1.7m0 .7v1.7m0 .7v1.7m0 .7v1.7m0 .8v1.7m0 .7v1.7m0 .7v1.7"/><path d="M557.4 149.5v1.3m-8-34.6v1.3m0 .7v1.7m0 .7v1.7m0 .7v1.7m0 .7v1.7m0 .7v1.7m0 .7v1.7m0 .7v1.7m0 .7v1.7m0 .7v1.7m0 .7v1.7m0 .8v1.7m0 .7v1.7m0 .7v1.7m0 .7v1.3m-84.2 2.8l6.3-37.4m-5.1 37.4l6.2-37.4m-3.7 15.3v-1.3m0-.7v-1.7m0-.7v-1.7m0-.7V123m0-.7v-1.7m0-.7v-1.7"/><path d="M468.9 117.5v-1.3m-2 34h82"/><path d="M472.6 116.2h.8m.7 0h1.7m.7 0h1.7m.7 0h1.7m.7 0h1.7m.7 0h1.7m.8 0h1.7m.7 0h1.7m.7 0h1.7m.7 0h1.7m.7 0h1.7m.7 0h1.7m.7 0h1.7m.7 0h1.7m.7 0h1.7m.7 0h1.7m.7 0h1.7m.8 0h1.7m.7 0h1.7m.7 0h1.7m.7 0h1.7m.7 0h1.7m.7 0h1.7m.7 0h1.7m.7 0h1.7m.7 0h1.7m.7 0h1.7m.7 0h1.8m.7 0h1.7m.7 0h1.7m.7 0h1.7m.7 0h1.7m.7 0h1.7m.7 0h1.7m.7 0h1.7m.7 0h.8m26.7 70.1v-1m0-.7v-1.7m0-.7v-1.7m0-.7v-1.7m0-.7v-1.7m0-.7v-1.7m0-.7v-1.7m0-.7v-1.7m0-.7v-1.7m0-.7v-1.7m0-.7v-1.7m0-.8v-1.7m0-.7v-1.7m0-.7V154m0-.7v-1.7m0-.7v-1.7m0-.7v-1.7m0-.7v-1.7m0-.7V142m0-.7v-1.7m0-.7v-1.7m0-.8v-1.7m0-.7v-1.7m0-.7v-1.7m0-.7v-1.7m0-.7v-1.7m0-.7v-1.7m0-.7v-1.7m0-.7v-1.7m0-.7v-1m0 45.8h-1m-.8 0H580m-.7 0h-1.7m-.7 0h-1.7m-.7 0h-1.7m-.7 0h-1.7m-.7 0H568m-.7 0h-1.7m-.7 0h-1.7m-.7 0h-1.7m-.7 0h-1.7m-.7 0H556m-.8 0h-1.7m-.7 0h-1.7m-.7 0h-1m34.1.5h-34.1m34.1 7.4h-1m-.8 0H580m-.7 0h-1.7m-.7 0h-1.7m-.7 0h-1.7m-.7 0h-1.7m-.7 0H568m-.7 0h-1.7m-.7 0h-1.7m-.7 0h-1.7m-.7 0h-1.7m-.7 0H556m-.8 0h-1.7m-.7 0h-1.7m-.7 0h-1m34.1.6h-34.1"/></g><path d="M466.8 151.3h81.5m0 0v1.2m0 0h-81.7m81.7 30.4h-1.1"/><path d="M547.2 182.9v-29.3m0 0h1.1m0 0v29.3"/><g class="S T U V W"><path d="M662.5 468.8h1.4m.7 0h1.7m.7 0h1.7m.7 0h1.7m.7 0h1.7m.7 0h1.7m.7 0h1.7m.7 0h1.8m.7 0h1.7m.7 0h1.7m.7 0h1.7m.7 0h1.7m.7 0h1.7m.7 0h1.7m.7 0h1.7m.7 0h1.7m.7 0h1.7m.7 0h1.7m.8 0h1.7m.7 0h1.7m.7 0h1.7m.7 0h1.7m.7 0h1.7m.7 0h1.7m.7 0h1.7m.7 0h1.7m.7 0h1.7m.7 0h1.7m.7 0h1.7m.8 0h1.7m.7 0h1.7m.7 0h1.7m.7 0h1.7m.7 0h1.7m.7 0h1.7m.7 0h1.7m.7 0h1.7m.7 0h1.4m-161.6-70h1m.7 0h1.7m.7 0h1.7m.7 0h1.7m.7 0h1.7m.7 0h1.7m.8 0h1.7m.7 0h1.7m.7 0h1.7m.7 0h1.7m.7 0h1.7m.7 0h1.7m.7 0h1.7m.7 0h1.7m.7 0h1.7m.7 0h1.7m.7 0h1.7m.8 0h1.7m.7 0h1.7m.7 0h1.7m.7 0h1.7m.7 0h1.7m.7 0h1.7m.7 0h1.7m.7 0h1.7m.7 0h1.7m.7 0h1.7m.8 0h1.7m.7 0h1.7m.7 0h1.7m.7 0h1.7m.7 0h1.7m.7 0h1.7m.7 0h1.7m.7 0h1.7m.7 0h1.7m.7 0h1.7m.7 0h1.7m.8 0h1.7m.7 0h1.7m.7 0h1.7m.7 0h1.7m.7 0h1.7m.7 0h1.7m.7 0h1.7m.7 0h1.7m.7 0h1.7m.7 0h1.7m.7 0h1.8m.7 0h1.7m.7 0h1.7m.7 0h1.7m.7 0h1.7m.7 0h1.7m.7 0h1.7m.7 0h1.7m.7 0h1.7m.7 0h1.7m.7 0h1.7m.8 0h1.7m.7 0h1.7m.7 0h1.7m.7 0h1.7m.7 0h1.7m.7 0h1.7m.7 0h1.7m.7 0h1.7m.7 0h.9m0 62.9h-1.2m-.7 0h-1.7m-.7 0h-1.7m-.7 0h-1.7m-.7 0h-1.7m-.7 0h-1.7m-.7 0h-1.7m-.7 0h-1.7m-.7 0h-1.7m-.7 0h-1.7m-.7 0h-1.7m-.8 0H725m-.7 0h-1.7m-.7 0h-1.7m-.7 0h-1.7m-.7 0h-1.7m-.7 0H713m-.7 0h-1.7m-.7 0h-1.7m-.7 0h-1.7m-.7 0h-1.7m-.8 0h-1.7m-.7 0h-1.7m-.7 0h-1.7m-.7 0h-1.7m-.7 0h-1.7m-.7 0h-1.7m-.7 0h-1.7m-.7 0h-1.7m-.7 0h-1.7m-.7 0h-1.7m-.7 0h-1.7m-.8 0h-1.7m-.7 0H672m-.7 0h-1.7m-.7 0h-1.7m-.7 0h-1.7m-.7 0h-1.6M150.6 162.4h-1.3m-.8 0h-1.7m-.7 0h-1.7m-.7 0H142m-.7 0h-1.7m-.7 0h-1.7m-.7 0h-1.7m-.7 0h-1.7m-.7 0H130m-.7 0h-1.7m-.7 0h-1.7m-.7 0h-1.7m-.8 0h-1.7m-.7 0h-1.7m-.7 0h-1.7m-.7 0h-1.7m-.7 0h-1.7m-.7 0h-1.7m-.7 0h-1.7m-.7 0h-1.7m-.7 0h-1.7m-.7 0h-1.7m-.8 0h-1.7m-.7 0h-1.7m-.7 0h-1.7m-.7 0H89m-.7 0h-1.7m-.7 0h-1.7m-.7 0h-1.7m-.7 0h-1.7m-.7 0H77m-.7 0h-1.7m-.7 0h-1.7m-.8 0h-1.7m-.7 0h-1.7m-.7 0h-1.7m-.7 0h-1.7m-.7 0h-1.7m-.7 0h-1.7m-.7 0h-1.7m-.7 0h-1.7m-.7 0h-1.7m-.7 0h-1.7m-.8 0h-1.7m-.7 0h-1.7m-.7 0h-1.7m-.7 0h-1.7m-.7 0H36m-.7 0h-1.7m-.7 0h-1.4m0 0v-.8m0-.7v-1.7m0-.7v-1.7m0-.7v-.8m0 0h1.4m.7 0h1.7m.7 0h1.7m.7 0h1.7m.7 0h1.7m.7 0h1.7m.7 0h1.7m.8 0h1.7m.7 0h1.7m.7 0h1.7m.7 0H57m.7 0h1.7m.7 0h1.7m.7 0h1.7m.7 0h1.7m.7 0H69m.7 0h1.7m.8 0h1.7m.7 0h1.7m.7 0h1.7m.7 0h1.7m.7 0h1.7m.7 0h1.7m.7 0h1.7m.7 0h1.7m.7 0h1.7m.7 0h1.7m.7 0h1.7m.8 0h1.7m.7 0h1.7m.7 0h1.7m.7 0h1.7m.7 0h1.7m.7 0h1.7m.7 0h1.7m.7 0h1.7m.7 0h1.7m.7 0h1.7m.8 0h1.7m.7 0h1.7m.7 0h1.7m.7 0h1.7m.7 0h1.7m.7 0h1.7m.7 0h1.7m.7 0h1.7m.7 0h1.7m.7 0h1.7m.7 0h1.7m.8 0h1.3m602.1 236.4h-.9m-.8 0h-1.7m-.7 0h-1.7m-.7 0h-1.7m-.7 0h-1.7m-.7 0h-1.7m-.7 0h-1.7m-.7 0h-1.7m-.7 0h-1.7m-.7 0h-1.7m-.7 0h-1.7m-.7 0h-1.7m-.8 0h-1.7m-.7 0h-1.7m-.7 0H718m-.7 0h-1.7m-.7 0h-1.7m-.7 0h-1.7m-.7 0h-1.7m-.7 0H706m-.7 0h-1.7m-.7 0h-1.7m-.7 0h-1.7m-.8 0h-1.7m-.7 0h-1.7m-.7 0h-1.7m-.7 0h-1.7m-.7 0h-1.7m-.7 0h-1.7m-.7 0h-1.7m-.7 0h-1.7m-.7 0h-1.7m-.7 0h-1.7m-.8 0h-1.7m-.7 0h-1.7m-.7 0h-1.7m-.7 0H665m-.7 0h-1.7m-.7 0h-1.7m-.7 0h-1.7m-.7 0h-1.7m-.7 0H653m-.7 0h-1.7m-.7 0h-1.7m-.8 0h-1.7m-.7 0h-1.7m-.7 0h-1.7m-.7 0h-1.7m-.7 0h-1.7m-.7 0h-1.7m-.7 0h-1.7m-.7 0h-1.7m-.7 0h-1.7m-.7 0h-1.7m-.8 0h-1.7m-.7 0h-1.7m-.7 0h-1.7m-.7 0h-1.7m-.7 0H612m-.7 0h-1.7m-.7 0h-1.7m-.7 0h-1.7m-.7 0h-1.7m-.7 0H600m-.7 0h-1.7m-.8 0h-1.7m-.7 0h-1.7m-.7 0h-.9m161.6-4h-1.2m-.7 0h-1.7m-.7 0h-1.7m-.7 0h-1.7m-.7 0h-1.7m-.7 0h-1.7m-.7 0h-1.7m-.7 0h-1.7m-.7 0h-1.7m-.7 0h-1.7m-.7 0h-1.7m-.8 0H725m-.7 0h-1.7m-.7 0h-1.7m-.7 0h-1.7m-.7 0h-1.7m-.7 0H713m-.7 0h-1.7m-.7 0h-1.7m-.7 0h-1.7m-.7 0h-1.7m-.8 0h-1.7m-.7 0h-1.7m-.7 0h-1.7m-.7 0h-1.7m-.7 0h-1.7m-.7 0h-1.7m-.7 0h-1.7m-.7 0h-1.7m-.7 0h-1.7m-.7 0h-1.7m-.7 0h-1.7m-.8 0h-1.7m-.7 0H672m-.7 0h-1.7m-.7 0h-1.7m-.7 0h-1.7m-.7 0h-1.7m-.7 0H660m-.7 0h-1.7m-.7 0h-1.7m-.7 0h-1.7m-.8 0h-1.7m-.7 0h-1.7m-.7 0h-1.7m-.7 0h-1.7m-.7 0h-1.7m-.7 0h-1.7m-.7 0h-1.7m-.7 0h-1.7m-.7 0h-1.7m-.7 0h-1.7m-.7 0h-1.7m-.8 0h-1.7m-.7 0h-1.7m-.7 0H619m-.7 0h-1.7m-.7 0h-1.7m-.7 0h-1.7m-.7 0h-1.7m-.7 0H607m-.7 0h-1.7m-.7 0h-1.7m-.7 0h-1.8m-.7 0h-1.7m-.7 0h-1m157.1 85.1H751m-.7 0h-1.7m-.7 0h-1.7m-.7 0h-1.7m-.7 0h-1.7m-.7 0H739m-.7 0h-1.7m-.7 0h-1.7m-.7 0h-1.7m-.7 0h-1.7m-.7 0H727m-.8 0h-1.7m-.7 0h-1.7m-.7 0h-1.7m-.7 0h-1.7m-.7 0h-1.7m-.7 0h-1.7m-.7 0h-1.7m-.7 0h-1.7m-.7 0h-1.7m-.7 0h-1.7m-.7 0h-1.7m-.8 0H698m-.7 0h-1.7m-.7 0h-1.7m-.7 0h-1.7m-.7 0h-1.7m-.7 0H686m-.7 0h-1.7m-.7 0h-1.7m-.7 0h-1.7m-.7 0h-1.7m-.8 0h-1.7m-.7 0h-1.7m-.7 0h-1.7m-.7 0h-1.3m-434.3 93v.7m0 .7v1.7M-9.8 536h.1m.7 0h1.7m.7 0h1.7m.7 0h1.7m.7 0h1.7m.7 0h1.7m.8 0h1.7m.7 0h1.7m.7 0h1.7m.7 0H12m.7 0h1.7m.7 0h1.7m.7 0h1.7m.7 0h1.7m.7 0H24m.7 0h1.7m.8 0h1.7m.7 0h1.7m.7 0h1.7m.7 0h1.7m.7 0h1.7m.7 0h1.7m.7 0h1.7m.7 0h1.7m.7 0h1.7m.7 0h1.7m.7 0h1.7m.8 0h1.7m.7 0h1.7m.7 0h1.7m.7 0h1.7m.7 0H65m.7 0h1.7m.7 0h1.7m.7 0h1.7m.7 0h1.7m.7 0H77m.8 0h1.7m.7 0h1.7m.7 0h1.7m.7 0h1.7m.7 0h1.7m.7 0h1.7m.7 0h1.7m.7 0h1.7m.7 0h1.7m.7 0h1.7m.7 0h1.7m.8 0h1.7m.7 0h1.7m.7 0h1.7m.7 0h1.7m.7 0h1.7m.7 0h1.7m.7 0h1.7m.7 0h1.7m.7 0h1.7m.7 0h1.7m.7 0h1.7m.8 0h1.7m.7 0h1.7m.7 0h1.7m.7 0h1.7m.7 0h1.7m.7 0h1.7m.7 0h1.7m.7 0h1.7m.7 0h1.7m.7 0h1.7m.8 0h1.7m.7 0h1.7m.7 0h1.7m.7 0h1.7m.7 0h1.7m.7 0h1.7m.7 0h1.7m.7 0h1.7m.7 0h1.7m.7 0h1.7m.7 0h1.7m.8 0h1.7m.7 0h1.7m.7 0h1.7m.7 0h1.7m.7 0h1.7m.7 0h1.7m.7 0h1.7m.7 0h.6m0 0v-1.1m0-.8v-1.7m0-.7V530m0-.7v-1.7"/><path d="M198.8 526.9v-1.7m0-.7v-1.7m0-.7v-1.7m0-.7V518m0-.7v-1.7m0-.7v-1.7m0-.7v-1.7m0-.7v-1.7m0-.8v-1.7m0-.7v-1.7m0-.7v-1.7m0-.7v-1.7m0-.7v-1.7m0-.7v-1.7m0-.7v-1.7m0-.7v-1.7m0-.7v-1.7m0-.7v-1.7m0-.8v-1.7m0-.7v-1.7m0-.7V477m0-.7v-1.7m0-.7v-1.7m0-.7v-1.7m0-.7v-1.7m0-.7V465m0-.7v-1.7m0-.7v-1.7m0-.7v-1.7m0-.8v-1.7m0-.7v-1.7m0-.7v-1.7m0-.7v-1.7m0-.7v-1.7m0-.7v-1.7m0-.7v-1.7m0-.7v-1.7m0-.7v-1.7m0-.7v-1.7m0-.8v-1.7m0-.7v-1.7m0-.7v-1.7m0-.7V424m0-.7v-1.7m0-.7v-1.7m0-.7v-1.7m0-.7v-1.2m0 0h.7m.7 0h1.7m.7 0h1.7m.7 0h1.7m.7 0h1.7m.7 0h1.7m.8 0h1.7m.7 0h1.7m.7 0h1.7m.7 0h1.7m.7 0h1.7m.7 0h1.7m.7 0h1.7m.7 0h1.7m.7 0h1.7m.7 0h1.7m.7 0h1.7m.8 0h1.7m.7 0h1.7m.7 0h1.7m.7 0h1.7m.7 0h1.7m.7 0h1.7m.7 0h1.7m.7 0h1.7m.7 0h1.7m.7 0h1.7m.8 0h1.7m.7 0h1.7m.7 0h1.7m.7 0h1.7m.7 0h1.7m.7 0h1.7m.7 0h1.7m.7 0h1.7m.7 0h1.7m.7 0h1.7m.7 0h1.7m.8 0h1.7m.7 0h1.7m.7 0h1.7m.7 0h1.7m.7 0h1.7m.7 0h1.7m.7 0h1.7m.7 0h1.7m.7 0h1.7m.7 0h1.7m.8 0h1.7m.7 0h1.7m.7 0h1.7m.7 0h1.7m.7 0h1.7m.7 0h1.7m.7 0h1.7m.7 0h1.7m.7 0h1.7m.7 0h1.7m.7 0h1.7m.8 0h1.7m.7 0h1.7m.7 0h1.7m.7 0h1.7m.7 0h1.7m.7 0h1.7m.7 0h1.7m.7 0h1.7m.7 0h1.7m.7 0h1.7m.7 0h1.8m.7 0h1.7m.7 0h1.7m.7 0h1.7m.7 0h1.7m.7 0h1.7m.7 0h1.7m.7 0h1.7m.7 0h1.7m.7 0h1.7m.7 0h1.7m.8 0h1.7m.7 0h1.7m.7 0h1.7m.7 0h1.7m.7 0h1.7m.7 0h1.7m.7 0h1.7m.7 0h1.7m.7 0h1.7m.7 0h1.7m.7 0h1.7m.8 0h1.7m.7 0h1.7m.7 0h1.7m.7 0h1.7m.7 0h1.7m.7 0h1.7m.7 0h1.7m.7 0h1.7m.7 0h1.7m.7 0h1.7m.8 0h1.7m.7 0h1.7m.7 0h1.7m.7 0h1.7m.7 0h1.7m.7 0h1.7m.7 0h1.7m.7 0h1.7m.7 0h1.7m.7 0h1.7m.7 0h1.7m.8 0h1.7m.7 0h1.7m.7 0h1.7m.7 0h1.7m.7 0h1.7m.7 0h1.7m.7 0h1.7m.7 0h1.7m.7 0h1.7m.7 0h1.7m.8 0h1.7m.7 0h1.7m.7 0h1.7m.7 0h1.7m.7 0h1.7m.7 0h1.7m.7 0h1.7m.7 0h1.7m.7 0h1.7m.7 0h1.7m.7 0h1.7m.8 0h1.7m.7 0h1.7m.7 0h1.7m.7 0h1.7m.7 0h1.7m.7 0h1.7m.7 0h1.7m.7 0h1.7m.7 0h1.7m.7 0h1.7m.7 0h1.7m.8 0h1.7m.7 0h1.7m.7 0h1.7m.7 0h1.7m.7 0h1.7m.7 0h1.7m.7 0h1.7m.7 0h1.7m.7 0h1.7m.7 0h1.7m.8 0h1.7m.7 0h1.7m.7 0h1.7m.7 0h1.7m.7 0h1.7m.7 0h1.7m.7 0h1.7m.7 0h1.7m.7 0h1.7m.7 0h1.7m.7 0h1.7m.8 0h1.7m.7 0h1.7m.7 0h1.7m.7 0h1.7m.7 0h1.7m.7 0h1.7m.7 0h1.7m.7 0h1.7m.7 0h1.7m.7 0h1.7m.8 0h1.7m.7 0h1.7m.7 0h1.7m.7 0h1.7m.7 0h1.7m.7 0h1.7m.7 0h1.7m.7 0h1.7m.7 0h1.7m.7 0h1.7m.7 0h1.7m.8 0h1.7m.7 0h1.7m.7 0h1.7m.7 0h1.7m.7 0h1.7m.7 0h1.7m.7 0h1.7m.7 0h1.7m.7 0h1.7m.7 0h1.7m.7 0h1.8m.7 0h1.7m.7 0h1.7m.7 0h1.7m.7 0h1.7m.7 0h1.7m.7 0h.7m0 0v1.2m0 .7v1.7m0 .7v1.7m0 .7v1.7m0 .7v1.7m0 .7v1.7m0 .7v1.7m0 .7v1.7m0 .8v1.7m0 .7v1.7m0 .7v1.7m0 .7v1.7m0 .7v1.7m0 .7v1.7m0 .7v1.7m0 .7v1.7m0 .7v1.7m0 .7v1.7m0 .8v1.7m0 .7v1.7m0 .7v1.7m0 .7v1.7m0 .7v1.7m0 .7v1.7m0 .7v1.7m0 .7v1.7m0 .7v1.7m0 .7v1.7m0 .7v1.7m0 .8v1.7m0 .7v1.7m0 .7v1.7m0 .7v1.7m0 .7v1.7m0 .7v1.7m0 .7v1.7m0 .7v1.7m0 .7v1.7m0 .7v1.7m0 .8v1.7m0 .7v1.7m0 .7v1.7m0 .7v1.7m0 .7v1.7m0 .7v1.7m0 .7v1.7m0 .7v1.7m0 .7v1.7m0 .7v1.7m0 .7v1.7m0 .8v1.1m0 0h1.4m.7 0h1.7m.8 0h1.7m.7 0h1.7m.7 0h1.7m.7 0h1.7m.7 0h1.7m.7 0h1.7m.7 0h1.7m.7 0h1.7m.7 0h1.7m.7 0h1.7m.7 0h1.7m.8 0h1.7m.7 0h1.7m.7 0h1.7m.7 0h1.7m.7 0h1.7m.7 0h1.7m.7 0h1.7m.7 0h1.7m.7 0h1.7m.7 0h1.7m.7 0h1.7m.8 0h1.7m.7 0h1.7m.7 0h1.7m.7 0h1.7m.7 0h.3m-103.8 32.9v-1.7m0-.7v-.7M215.2 475v.6m0 .7v1.7m0 .7v1.7m0 .7v1.7m0 .7v1.7m0 .8v1.7m0 .7v1.7m0 .7v1.7m0 .7v1.7m0 .7v1.7m0 .7v1.7m0 .7v1.7m0 .7v1.7m0 .7v1.7m0 .7v1.7m0 .8v1.7m0 .7v1.7m0 .7v1.7m0 .7v1.7m0 .7v1.7m0 .7v1.7m0 .7v1.7m0 .7v1.7m0 .7v1.7m0 .7v1.7m0 .7v1.7m0 .8v1.7m0 .7v1.7m0 .7v1.7m0 .7v1.7m0 .7v1.7m0 .7v1.7m0 .7v1.7m0 .7v1.7m0 .7v.6m104.6-449.3h-1.5m-.7 0h-1.7m-.7 0h-1.7m-.7 0h-1.7m-.7 0h-1.7m-.7 0h-1.7m-.7 0h-1.7m-.7 0h-1.7m-.7 0h-1.7m-.7 0h-1.7m-.8 0h-1.7m-.7 0h-1.7m-.7 0h-1.7m-.7 0H287m-.7 0h-1.7m-.7 0h-1.7m-.7 0h-1.7m-.7 0h-1.7m-.7 0H275m-.7 0h-1.7m-.7 0h-1.7m-.8 0h-1.7m-.7 0h-1.7m-.7 0h-1.7m-.7 0h-1.7m-.7 0h-1.7m-.7 0h-1.7m-.7 0h-1.7m-.7 0h-1.7m-.7 0h-1.7m-.7 0h-1.7m-.8 0h-1.7m-.7 0h-1.7m-.7 0h-1.7m-.7 0h-1.7m-.7 0H234m-.7 0h-1.7m-.7 0h-1.7m-.7 0h-1.7m-.7 0h-1.7m-.7 0H222m-.7 0h-1.7m-.8 0h-1.7m-.7 0h-1.7m-.7 0h-1.7m-.7 0h-1.7m-.7 0h-1.7m-.7 0h-1.7m-.7 0h-1.7m-.7 0h-1.7m-.7 0h-1.7m-.7 0h-1.7m-.7 0H193m-.7 0h-1.7m-.7 0h-1.7m-.7 0h-1.7m-.7 0h-1.7m-.7 0H181m-.7 0h-1.7m-.7 0h-1.7m-.7 0h-1.7m-.7 0h-1.7m-.7 0H169m-.8 0h-1.7m-.7 0h-1.7m-.7 0h-1.7m-.7 0h-1.7m-.7 0h-1.7m-.7 0h-1.7m-.7 0h-1.5m-51.6 441.6v1m0 .7v1.7m0 .8v1.7m0 .7v1.7m0 .7v1m0-10h1m.7 0h1.7m.7 0h1.7m.7 0h1.7m.7 0h1.7m.7 0h1.8m.7 0h1.7m.7 0h1.7m.7 0h1.7m.7 0h1.7m.7 0h1.7m.7 0h1.7m.7 0h1.7m.7 0h1.7m.7 0h1.7m.7 0h1.7m.8 0h1.7m.7 0h1.7m.7 0h1.7m.7 0h1.7m.7 0h1.7m.7 0h1.7m.7 0h1.7m.7 0h1.7m.7 0h1.7m.7 0h1.7m.7 0h1.7m.8 0h1.7m.7 0h1.7m.7 0h1.7m.7 0h1.7m.7 0h1.7m.7 0h1.7m.7 0h1.7m.7 0h1.7m.7 0h1.7m.7 0h1.7m.8 0h1.7m.7 0h1.7m.7 0h1.7m.7 0h1.7m.7 0h1.7m.7 0h1.7m.7 0h1.7m.7 0h1.7m.7 0h1.7m.7 0h1.7m.7 0h1.7m.8 0h1.7m.7 0h1.7m.7 0h1m-120.8 7.1h1m.7 0h1.7m.7 0h1.7m.7 0h1.7m.7 0h1.7m.7 0h1.8m.7 0h1.7m.7 0h1.7m.7 0h1.7m.7 0h1.7m.7 0h1.7m.7 0h1.7m.7 0h1.7m.7 0h1.7m.7 0h1.7m.7 0h1.7m.8 0h1.7m.7 0h1.7m.7 0h1.7m.7 0h1.7m.7 0h1.7m.7 0h1.7m.7 0h1.7m.7 0h1.7m.7 0h1.7m.7 0h1.7m.7 0h1.7m.8 0h1.7m.7 0h1.7m.7 0h1.7m.7 0h1.7m.7 0h1.7m.7 0h1.7m.7 0h1.7m.7 0h1.7m.7 0h1.7m.7 0h1.7m.8 0h1.7m.7 0h1.7m.7 0h1.7m.7 0h1.7m.7 0h1.7m.7 0h1.7m.7 0h1.7m.7 0h1.7m.7 0h1.7m.7 0h1.7m.7 0h1.7m.8 0h1.7m.7 0h1.7m.7 0h1m-70.9-400.5v.8m0 .7v1.7m0 .7v1.7m0 .7v.8"/></g><path d="M59.9-.6v.8m0 1.5v2.8m0 1.4v2.8m0 1.5V13m0 1.4v2.8m0 1.5v2.8m0 1.4v2.9m0 1.4V30m0 1.4v2.9m0 1.4v2.8m0 1.4v2.9m0 1.4V47m0 1.4v2.9m0 1.4v2.8m0 1.4v2.9m0 1.4V64m0 1.4v2.9m0 1.4v1.1m0 0h2.7m1.4 0h2.8m1.5 0h2.8m1.4 0h2.8m1.5 0h2.8m1.4 0h2.8m1.5 0h2.8m1.4 0h2.8m1.5 0h2.8m1.4 0h2.9m1.4 0h2.8m1.4 0h2.9m1.4 0h2.8m1.4 0h2.9m1.4 0h2.8m1.4 0h2.9m1.4 0h2.8m1.4 0h2.9m1.4 0h2.8m1.4 0h2.7m-83.3 91.6v2.2m0 1.5v2.8m0 1.4v2.9m0 1.4v2.8m0 1.4v2.9m0 1.4v2.8m0 1.4v2.9m0 1.4v2.8m0 1.4v2.9m0 1.4v2.8m0 1.4v2.9m0 1.4v2.8m0 1.4v2.9m0 1.4v2.8m0 1.4v2.9m0 1.4v2.8m0 1.4v2.9m0 1.4v2.8m0 1.5v2.8m0 1.4v2.8m0 1.5v2.8m0 1.4v2.8m0 1.5v2.8m0 1.4v2.8m0 1.5v2.8m0 1.4v2.8m0 1.5v2.8m0 1.4v2.9m0 1.4v2.8m0 1.4v2.9m0 1.4v2.8m0 1.4v2.9m0 1.4v2.8m0 1.4v2.9m0 1.4v2.8m0 1.4v2.9m0 1.4v2.8m0 1.4v2.9m0 1.4v2.8m0 1.4v2.9m0 1.4v2.3m0 0h2.7m1.4 0h2.8m1.5 0h2.8m1.4 0h2.8m1.5 0h2.8m1.4 0h2.8m1.5 0h2.8m1.4 0h2.8m1.5 0h2.8m1.4 0h2.9m1.4 0h2.8m1.4 0h2.9m1.4 0h2.8m1.4 0h2.9m1.4 0h2.8m1.4 0h2.9m1.4 0h2.8m1.4 0h2.9m1.4 0h2.8m1.4 0h2.7"/><g class="S T U V W"><path d="M592.8 212h.4m.7 0h1.7m.7 0h1.7m.8 0h1.7m.7 0h1.7m.7 0h1.7m.7 0h1.7m.7 0h1.7m.7 0h1.7m.7 0h1.7m.7 0h1.7m.7 0h1.7m.7 0h1.7m.8 0h1.7m.7 0h1.7m.7 0h1.7m.7 0h1.7m.7 0h1.7m.7 0h1.7m.7 0h1.7m.7 0h1.7m.7 0h1.7m.7 0h1.7m.7 0h1.7m.8 0h1.7m.7 0h1.7m.7 0h1.7m.7 0h1.7m.7 0h1.7m.7 0h1.7m.7 0h1.7m.7 0h1.7m.7 0h1.7m.7 0h1.7m.8 0h1.7m.7 0h1.7m.7 0h1.7m.7 0h1.7m.7 0h1.7m.7 0h1.7m.7 0h1.7m.7 0h1.7m.7 0h1.7m.7 0h1.7m.7 0h1.7m.8 0h1.7m.7 0h1.7m.7 0h1.7m.7 0h1.7m.7 0h1.7m.7 0h1.7m.7 0h1.7m.7 0h1.7m.7 0h1.7m.7 0h1.7m.7 0h1.8m.7 0h1.7m.7 0h1.7m.7 0h.4m0 0v-.8m0-.7v-1.7m0-.7v-1.7m0-.7v-.8m0 0h-.4"/><path d="M730.6 204.9h-1.7m-.7 0h-1.7m-.7 0H724m-.7 0h-1.7m-.7 0h-1.7m-.7 0h-1.7m-.7 0h-1.7m-.7 0H712m-.7 0h-1.7m-.7 0h-1.7m-.7 0h-1.7m-.7 0h-1.7m-.7 0H700m-.8 0h-1.7m-.7 0h-1.7m-.7 0h-1.7m-.7 0h-1.7m-.7 0h-1.7m-.7 0h-1.7m-.7 0h-1.7m-.7 0h-1.7m-.7 0h-1.7m-.7 0h-1.7m-.7 0h-1.7m-.8 0H671m-.7 0h-1.7m-.7 0h-1.7m-.7 0h-1.7m-.7 0h-1.7m-.7 0H659m-.7 0h-1.7m-.7 0h-1.7m-.7 0h-1.7m-.7 0h-1.7m-.8 0h-1.7m-.7 0h-1.7m-.7 0h-1.7m-.7 0h-1.7m-.7 0h-1.7m-.7 0h-1.7m-.7 0h-1.7m-.7 0h-1.7m-.7 0h-1.7m-.7 0h-1.7m-.7 0h-1.7m-.8 0h-1.7m-.7 0H618m-.7 0h-1.7m-.7 0h-1.7m-.7 0h-1.7m-.7 0h-1.7m-.7 0H606m-.7 0h-1.7m-.7 0h-1.7m-.7 0h-1.7m-.8 0h-1.7m-.7 0h-1.7m-.7 0h-.4m0 0v.8m0 .7v1.7m0 .7v1.7m0 .7v.8"/></g><path d="M737.4 105.1v-2.6m0-1.4v-2.9m0-1.4V94m0-1.4v-2.9m0-1.4v-2.8m0-1.4v-2.9m0-1.4V77m0-1.4v-2.9m0-1.4v-2.8m0-1.5v-2.8m0-1.4V60m0-1.5v-2.8m0-1.4v-2.8m0-1.5v-2.8m0-1.4V43m0-1.5v-2.8m0-1.4v-2.9m0-1.4v-2.8m0-1.4v-2.9m0-1.4v-2.8m0-1.4v-2.9m0-1.4v-2.8m0-1.4V8.9m0-1.4V4.7"/><path d="M737.4 3.3V.4m15.3 193.2h-.7m-1.4 0h-2.9m-1.4 0h-2.8m-1.4 0h-2.9m-1.4 0H735m-1.5 0h-1.8m0 0v2.8m0 1.4v2.8m0 1.5v2.8M600.2 263h2.7m1.4 0h2.8m1.4 0h2.9m1.4 0h2.8m1.4 0h2.9m1.4 0h2.8m1.4 0h2.9m1.4 0h2.8m1.4 0h2.9m1.4 0h2.8m1.5 0h2.8m1.4 0h2.8m1.5 0h2.8m1.4 0h2.8m1.5 0h2.8m1.4 0h2.8m1.5 0h2.8m1.4 0h2.9m1.4 0h2.8m1.4 0h2.7m0 0v.9m0 1.4v2.8m0 1.4v2.9m0 1.4v2.8m0 1.4v2.9m0 1.4v2.8m0 1.4v2.9m0 1.4v2.8m0 1.4v2.9m0 1.4v2.8m0 1.4v2.9m0 1.4v2.8m0 1.5v2.8m0 1.4v2.8m0 1.5v2.8m0 1.4v2.8m0 1.5v.8m0 0h-2.7m-1.4 0h-2.8m-1.4 0h-2.9m-1.4 0h-2.8m-1.5 0h-2.8m-1.4 0h-2.8m-1.5 0h-2.8m-1.4 0h-2.8m-1.5 0h-2.8m-1.4 0h-2.8m-1.5 0h-2.8m-1.4 0H634m-1.4 0h-2.8m-1.4 0h-2.9m-1.4 0h-2.8m-1.4 0H617m-1.4 0h-2.8m-1.4 0h-2.9m-1.4 0h-2.8m-1.4 0h-2.7"/><path d="M152.3 437.6v-1.2m0-.8v-1.7m0-.7v-1.7m0-.7v-1.7m0-.7v-1.7m0-.7v-1.7m0-.7v-1.7m0-.7v-1.7m0-.7v-1.7m0-.7v-1.7m0-.7v-1.7m0-.8v-1.7m0-.7v-1.7m0-.7V405m0-.7v-1.7m0-.7v-1.7m0-.7v-1.7m0-.7v-1.7m0-.7V393m0-.7v-1.7m0-.7v-1.7m0-.7v-1.7m0-.8v-1.7m0-.7v-1.7m0-.7v-1.7m0-.7v-1.7m0-.7v-1.7m0-.7v-1.7m0-.7v-1.7m0-.7v-1.7m0-.7v-1.7m0-.7v-1.7m0-.8v-1.7m0-.7v-1.7m0-.7v-1.7m0-.7V352m0-.7v-1.7m0-.7v-1.7m0-.7v-1.7m0-.7v-1.7m0-.7V340m0-.7v-1.7m0-.7v-1.7m0-.8v-1.7m0-.7v-1.7m0-.7v-1.7m0-.7v-1.7m0-.7v-1.7m0-.7v-1.7m0-.7v-1.7m0-.7v-1.7m0-.7v-1.7m0-.7v-1.7m0-.7v-1.8m0-.7v-1.7m0-.7v-1.7m0-.7v-1.7m0-.7V299m0-.7v-1.7m0-.7v-1.7m0-.7v-1.7m0-.7v-1.7m0-.7V287m0-.7v-1.7m0-.8v-1.7m0-.7v-1.7m0-.7v-1.7m0-.7v-1.7m0-.7v-1.7m0-.7v-1.7m0-.7v-1.7m0-.7v-1.7m0-.7v-1.7m0-.7v-1.7m0-.7v-1.7m0-.8v-1.7m0-.7v-1.7m0-.7v-1.7m0-.7v-1.7m0-.7V246m0-.7v-1.7m0-.7v-1.7m0-.7v-1.7m0-.7v-1.7m0-.7V234m0-.8v-1.7m0-.7v-1.7m0-.7v-1.7m0-.7v-1.7m0-.7v-1.7m0-.7v-1.7m0-.7v-1.7m0-.7v-1.7m0-.7v-1.7m0-.7v-1.7m0-.7v-1.7m0-.8V205m0-.7v-1.7m0-.7v-1.7m0-.7v-1.7m0-.7v-1.7m0-.7V193m0-.7v-1.7m0-.7v-1.7m0-.7v-1.7m0-.7v-1.7m0-.8v-1.7m0-.7v-1.7m0-.7v-1.7m0-.7v-1.7m0-.7v-1.7m0-.7v-1.7m0-.7v-1.7m0-.7v-1.7m0-.7v-1.7m0-.7v-1.7m0-.7v-1.7m0-.8v-1.7m0-.7V152m0-.7v-1.7m0-.7v-1.7m0-.7v-1.7m0-.7v-1.7m0-.7V140m0-.7v-1.7m0-.7v-1.7m0-.7v-1.7m0-.7v-1.7m0-.8v-1.7m0-.7v-1.7m0-.7v-1.7m0-.7v-1.7m0-.7v-1.7m0-.7v-1.7m0-.7v-1.7m0-.7v-1.7m0-.7v-1.7m0-.7v-1.7m0-.8v-1.7m0-.7v-1.7m0-.7V99m0-.7v-1.7m0-.7v-1.7m0-.7v-1.7m0-.7v-1.7m0-.7V87m0-.7v-1.7m0-.7v-1.7m0-.7v-1.7m0-.8v-1.7m0-.7v-1.7m0-.7v-1.7m0-.7v-1.7m0-.7v-1.7m0-.7v-1.7m0-.7v-1.7m0-.7v-1.7m0-.7v-1.7m0-.7v-1.7m0-.8v-1.7m0-.7v-1.7m0-.7v-1.7m0-.7V46m0-.7v-1.7m0-.7v-1.7m0-.7v-1.7m0-.7v-1.7m0-.7V34m0-.7v-1.7m0-.7v-1.7m0-.8v-1.7m0-.7v-1.7m0-.7v-1.7m0-.7v-1.7m0-.7v-1.7m0-.7v-1.7m0-.7v-1.7m0-.7V9.9m0-.7V7.5m0-.7V5.1m0-.7V2.6m0-.7V.2m0-.7v-.1m0 438.2h.8m.7 0h1.7m.7 0h1.7m.7 0h.8m0 0v.9m0 .7v1.7m0 .7v1.7m0 .7v1.7m0 .7v1.7m0 .7v1.7m0 .7v1.7m0 .7v1.7m0 .8v1.7m0 .7v1.7m0 .7v.8m0 0h.6m.7 0h1.7m.7 0h1.7m.7 0h1.7m.7 0h1.7m.7 0h1.7m.7 0h1.7m.7 0h1.7m.7 0h1.7m.7 0h1.7m.7 0h1.7m.8 0h1.7m.7 0h1.7m.7 0h1.7m.7 0h1.7m.7 0h1.7m.7 0h1.7m.7 0h1.7m.7 0h1.7m.7 0h1.7m.7 0h1.7m.8 0h1.7m.7 0h1.7m.7 0h1.7m.7 0h1.7m.7 0h1.7m.7 0h.6m-6.3 13.3h-.5m-.7 0h-1.7m-.7 0h-1.7m-.7 0h-1.7m-.7 0h-1.7m-.7 0h-1.7m-.7 0h-1.7m-.7 0h-1.7m-.7 0h-1.7m-.7 0H193m-.7 0h-1.7m-.7 0h-1.7m-.7 0h-1.7m-.7 0h-1.7m-.7 0H181m-.7 0h-1.7m-.7 0h-1.7m-.7 0h-1.7m-.7 0h-1.7m-.7 0H169m-.8 0h-1.7m-.7 0h-1.7m-.7 0h-1.7m-.7 0h-1.7m-.7 0h-1.7m-.7 0h-1.7m-.7 0h-1.7m-.7 0h-1.7m-.7 0h-1.7m-.7 0h-.5m0 0v-1m0-.7v-1.7m0-.7v-1.7m0-.7v-1.7m0-.8v-1.7m0-.7v-1.7m0-.7v-1.7m0-.7v-1.7m0-.7v-1.7m0-.7v-1.7m0-.7v-1.7m0-.7v-1.7m0-.7v-1.7m0-.7v-1.7m0-.8v-1.7m0-.7v-1.7m0-.7v-1.7m0-.7v-1m0 0h1m.7 0h1.7m.7 0h1.7m.8 0h1.7m.7 0h1.7m.7 0h1.7m.7 0h1.7m.7 0h1.1m0 0v.8m0 .7v1.7m0 .7v1.7m0 .7v1.7m0 .7v1.7m0 .8v1.7m0 .7v1.7m0 .7v1.7m0 .7v1.7m0 .7v1.7m0 .7v.9m0 0h1.4m.7 0h1.7m.7 0h1.7m.7 0h1.7m.7 0h1.7m.7 0h1.7m.7 0h1.7m.7 0h1.7m.7 0h1.7m.8 0h1.7m.7 0h1.7m.7 0h1.7m.7 0h1.7m.7 0h1.7m.7 0h1.7m.7 0h1.7m.7 0h1.7m.7 0h1.7m.7 0h1.7m.8 0h1.7m.7 0h1.7m.7 0h1.7m.7 0h1.4m437.2 64h-.9m-.8 0h-1.7m-.7 0h-1.7m-.7 0h-1.7m-.7 0h-1.7m-.7 0h-1.7m-.7 0h-1.7m-.7 0h-1.7m-.7 0h-1.7m-.7 0h-1.7m-.7 0h-1.7m-.8 0h-1.7m-.7 0h-1.7m-.7 0h-1.7m-.7 0h-1m-37.2-344h-1m-.8 0H580m-.7 0h-1.7m-.7 0h-1.7m-.7 0h-1.7m-.7 0h-1.7m-.7 0H568m-.7 0h-1.7m-.7 0h-1.7m-.7 0h-1.7m-.7 0h-1.7m-.7 0H556m-.8 0h-1.7m-.7 0h-1.7m-.7 0h-1m34.1.6h-34.1" class="S T U V W"/><path d="M424.7 550.2c0-16 12.9-28.9 28.9-28.9m54.6 9.6c16 0 28.9 12.9 28.9 28.9m-18-125.9c16 0 28.9 12.9 28.9 28.9M222 11.2c1.6 0 2.8-1.3 2.8-2.8 0-1.6-1.3-2.8-2.8-2.8-1.6 0-2.8 1.3-2.8 2.8a2.73 2.73 0 0 0 2.8 2.8m0 1.5c2.3 0 4.3-1.9 4.3-4.3 0-2.3-1.9-4.3-4.3-4.3-2.3 0-4.3 1.9-4.3 4.3s1.9 4.3 4.3 4.3"/></g><path d="M512 515.6h4.3v5.6l-4.3-5.6" class="Z"/><path d="M516.3 515.6H512m4.3-45.4H512m4.3 51v-5.6" class="S T U V W Y"/><path d="M375.1 182.2h4.3v5.7l-4.3-5.7m0-45.3l4.3-5.7v5.7h-4.3" class="Z"/><path d="M379.4 182.2h-4.3m4.3-45.3h-4.3m4.3 51v-5.7m0-51v5.7" class="S T U V W Y"/><text transform="matrix(0 -1 1 0 559.8423 474.8354)"><tspan x="0" y="0" class="R X">0</tspan><tspan x="1.6" y="0" class="R X">1</tspan></text><text transform="matrix(0 -1 1 0 591.5903 474.8354)"><tspan x="0" y="0" class="R X">0</tspan><tspan x="1.6" y="0" class="R X">5</tspan></text><text transform="matrix(0 -1 1 0 599.5273 474.8354)"><tspan x="0" y="0" class="R X">0</tspan><tspan x="1.6" y="0" class="R X">6</tspan></text><text transform="matrix(0 -1 1 0 607.4644 474.8354)"><tspan x="0" y="0" class="R X">0</tspan><tspan x="1.6" y="0" class="R X">7</tspan></text><text transform="matrix(0 -1 1 0 615.4019 474.8354)"><tspan x="0" y="0" class="R X">0</tspan><tspan x="1.6" y="0" class="R X">8</tspan></text><text transform="matrix(0 -1 1 0 623.3384 474.8354)"><tspan x="0" y="0" class="R X">0</tspan><tspan x="1.6" y="0" class="R X">9</tspan></text><text><tspan x="650.699" y="508.553" class="R X">1</tspan><tspan x="652.299" y="508.553" class="R X">0</tspan><tspan x="650.914" y="516.49" class="R X">1</tspan><tspan x="652.414" y="516.49" class="R X">1</tspan></text><text transform="matrix(0 -1 1 0 618.8633 557.2836)" class="R X">1</text><text transform="matrix(0 -1 1 0 618.8633 555.6694)" class="R X">3</text><text transform="matrix(0 -1 1 0 610.9268 557.2836)" class="R X">1</text><text transform="matrix(0 -1 1 0 610.9268 555.6694)" class="R X">4</text><text transform="matrix(0 -1 1 0 602.9897 557.2836)" class="R X">1</text><text transform="matrix(0 -1 1 0 602.9897 555.6694)" class="R X">5</text><text transform="matrix(0 -1 1 0 595.0522 557.2836)" class="R X">1</text><text transform="matrix(0 -1 1 0 595.0522 555.6694)" class="R X">6</text><text transform="matrix(0 -1 1 0 587.1152 557.2836)" class="R X">1</text><text transform="matrix(0 -1 1 0 587.1152 555.6694)" class="R X">7</text><text transform="matrix(0 -1 1 0 579.1777 557.2836)" class="R X">1</text><text transform="matrix(0 -1 1 0 579.1777 555.6694)" class="R X">8</text><text transform="matrix(0 -1 1 0 563.3042 557.2836)"><tspan x="0" y="0" class="R X">2</tspan><tspan x="1.6" y="0" class="R X">0</tspan></text><text transform="matrix(0 -1 1 0 555.3672 557.2836)" class="R X">2</text><text transform="matrix(0 -1 1 0 555.3672 555.6694)" class="R X">1</text><text transform="matrix(0 -1 1 0 571.2417 557.2836)" class="R X">1</text><text transform="matrix(0 -1 1 0 571.2417 555.6694)" class="R X">9</text><text transform="matrix(0 -1 1 0 583.6528 474.8354)"><tspan x="0" y="0" class="R X">0</tspan><tspan x="1.6" y="0" class="R X">4</tspan></text><text transform="matrix(0 -1 1 0 575.7163 474.8354)"><tspan x="0" y="0" class="R X">0</tspan><tspan x="1.6" y="0" class="R X">3</tspan></text><text transform="matrix(0 -1 1 0 567.7793 474.8354)"><tspan x="0" y="0" class="R X">0</tspan><tspan x="1.6" y="0" class="R X">2</tspan></text><text transform="matrix(0 -1 1 0 547.5718 120.2206)" class="R X">0</text><text transform="matrix(0 -1 1 0 547.5718 118.6069)" class="R X">6</text><text transform="matrix(0 -1 1 0 484.0757 120.2206)" class="R X">1</text><text transform="matrix(0 -1 1 0 484.0757 118.6069)" class="R X">4</text><text transform="matrix(0 -1 1 0 476.1392 120.2206)" class="R X">1</text><text transform="matrix(0 -1 1 0 476.1392 118.6069)" class="R X">5</text><text transform="matrix(0 -1 1 0 468.2021 120.2206)" class="R X">1</text><text transform="matrix(0 -1 1 0 468.2021 118.6069)" class="R X">6</text><text transform="matrix(0 -1 1 0 460.2651 120.2206)" class="R X">1</text><text transform="matrix(0 -1 1 0 460.2651 118.6069)" class="R X">7</text><text transform="matrix(0 -1 1 0 452.3276 120.2206)" class="R X">1</text><text transform="matrix(0 -1 1 0 452.3276 118.6069)" class="R X">8</text><text transform="matrix(0 -1 1 0 436.4546 120.2206)"><tspan x="0" y="0" class="R X">2</tspan><tspan x="1.6" y="0" class="R X">0</tspan></text><text transform="matrix(0 -1 1 0 428.5171 120.2206)" class="R X">2</text><text transform="matrix(0 -1 1 0 428.5171 118.6069)" class="R X">1</text><text transform="matrix(0 -1 1 0 531.6982 120.2206)"><tspan x="0" y="0" class="R X">0</tspan><tspan x="1.6" y="0" class="R X">8</tspan></text><text transform="matrix(0 -1 1 0 523.7612 120.2206)" class="R X">0</text><text transform="matrix(0 -1 1 0 523.7612 118.6069)" class="R X">9</text><text transform="matrix(0 -1 1 0 515.8237 120.2206)"><tspan x="0" y="0" class="R X">1</tspan><tspan x="1.6" y="0" class="R X">0</tspan></text><text transform="matrix(0 -1 1 0 507.8872 120.0068)" class="R X">1</text><text transform="matrix(0 -1 1 0 507.8872 118.6069)" class="R X">1</text><text transform="matrix(0 -1 1 0 499.9502 120.2206)" class="R X">1</text><text transform="matrix(0 -1 1 0 499.9502 118.6069)" class="R X">2</text><text transform="matrix(0 -1 1 0 492.0132 120.2206)" class="R X">1</text><text transform="matrix(0 -1 1 0 492.0132 118.6069)" class="R X">3</text><text transform="matrix(0 -1 1 0 539.6353 120.2206)" class="R X">0</text><text transform="matrix(0 -1 1 0 539.6353 118.6069)" class="R X">7</text><text transform="matrix(0 -1 1 0 444.3911 120.2206)" class="R X">1</text><text transform="matrix(0 -1 1 0 444.3911 118.6069)" class="R X">9</text><text><tspan x="579.407" y="185.045" class="R X">0</tspan><tspan x="581.007" y="185.045" class="R X">1</tspan></text><text transform="translate(579.407 153.297)" class="R X">0</text><text transform="translate(581.021 153.297)" class="R X">5</text><text transform="translate(579.408 161.235)" class="R X">0</text><text transform="translate(581.021 161.234)" class="R X">4</text><text transform="translate(579.408 169.171)" class="R X">0</text><text transform="translate(581.022 169.171)" class="R X">3</text><text transform="translate(650.7 524.427)" class="R X">1</text><text transform="translate(652.313 524.427)" class="R X">2</text><text><tspan x="579.407" y="177.109" class="R X">0</tspan><tspan x="581.007" y="177.109" class="R X">2</tspan></text><path d="M726 684.4l-.3-1.6-1-1.2-1.4-.7h-1.6l-1.4.7-1 1.2-.4 1.6v7.1l.4 1.5 1 1.2 1.4.7h1.6l1.4-.7 1-1.2.3-1.5v-7.1" class="Z"/><g class="S T U V W Y"><path d="M726 684.4v7.1m-7.1-7.1v7.1"/><use xlink:href="#C"/><use xlink:href="#D"/></g><use xlink:href="#E" class="Z"/><g class="S T U V W Y"><path d="M108.1 684.4v7.1m-7.1-7.1v7.1"/><use xlink:href="#C" x="-617.9"/><use xlink:href="#D" x="-617.9"/></g><use xlink:href="#E" x="154.5" class="Z"/><g class="S T U V W Y"><path d="M262.6 684.4v7.1m-7.1-7.1v7.1"/><use xlink:href="#C" x="-463.4"/><use xlink:href="#D" x="-463.4"/></g><use xlink:href="#E" x="309" class="Z"/><g class="S T U V W Y"><path d="M417.1 684.4v7.1m-7.1-7.1v7.1"/><use xlink:href="#C" x="-308.9"/><use xlink:href="#D" x="-308.9"/></g><use xlink:href="#F" class="Z"/><g class="S T U V W Y"><path d="M108.1 924.5v-7.1m-7.1 7.1v-7.1"/><use xlink:href="#G"/><use xlink:href="#C" x="-617.9" y="233"/></g><use xlink:href="#F" x="154.5" class="Z"/><g class="S T U V W Y"><path d="M262.6 924.5v-7.1m-7.1 7.1v-7.1"/><use xlink:href="#G" x="154.5"/><use xlink:href="#C" x="-463.4" y="233"/></g><use xlink:href="#F" x="309" class="Z"/><g class="S T U V W Y"><path d="M417.1 924.5v-7.1m-7.1 7.1v-7.1"/><use xlink:href="#G" x="309"/><use xlink:href="#C" x="-308.9" y="233"/></g><path d="M571.5 924.5v-7.1l-.3-1.5-1-1.3-1.4-.7h-1.6l-1.4.7-1 1.3-.3 1.5v7.1l.3 1.5 1 1.2 1.4.7h1.6l1.4-.7 1-1.2.3-1.5" class="Z"/><g class="S T U V W Y"><path d="M571.5 924.5v-7.1m-7 7.1v-7.1"/><use xlink:href="#G" x="463.5"/><use xlink:href="#C" x="-154.5" y="233"/></g><path d="M726 924.5v-7.1l-.3-1.5-1-1.3-1.4-.7h-1.6l-1.4.7-1 1.3-.4 1.5v7.1l.4 1.5 1 1.2 1.4.7h1.6l1.4-.7 1-1.2.3-1.5" class="Z"/><g class="S T U V W Y"><path d="M726 924.5v-7.1m-7.1 7.1v-7.1"/><use xlink:href="#G" x="617.9"/><use xlink:href="#C" y="233"/></g><text transform="translate(338.378 166.69)" class="c d e">Lift</text><text transform="translate(474.882 500.546)" class="c d e">Lift</text><text transform="translate(460.214 806.097)" class="c d e">Tiefgarage 1</text><text><tspan x="428.464" y="176.43" class="c d e">Treppenhaus 2</tspan><tspan y="188.43" x="428.464" class="c d e">44.2 m</tspan></text><text transform="matrix(0 -1 1 0 530.8689 553.9052)"><tspan x="0" y="0" class="c d e">Treppenhaus 1</tspan><tspan y="12" x="0" class="c d e">17.9 m</tspan></text><text><tspan x="245.548" y="520.281" class="c d e">Abstell 01</tspan><tspan y="532.281" x="245.548" class="c d e">WHG B21</tspan><tspan y="544.281" x="245.548" class="c d e">31.4 m</tspan></text><text transform="translate(59.617 640.905)" class="c d">18</text><text transform="translate(135.617 640.905)" class="c d">17</text><text transform="translate(214.95 640.905)" class="c d">16</text><text transform="translate(291.617 640.905)" class="c d">15</text><text transform="translate(368.617 640.905)" class="c d">14</text><text transform="translate(454.284 640.905)" class="c d">13</text><text transform="translate(135.617 975.905)" class="c d">41</text><text transform="translate(214.95 975.905)" class="c d">42</text><text transform="translate(291.617 975.905)" class="c d">43</text><text transform="translate(368.617 975.905)" class="c d">44</text><text transform="translate(445.284 975.905)" class="c d">45</text><text transform="translate(524.284 975.905)" class="c d">46</text><text transform="translate(600.617 975.905)" class="c d">47</text><text transform="translate(678.95 975.905)" class="c d">48</text><text transform="translate(581.617 640.905)" class="c d">IV 12</text><text transform="translate(678.617 640.905)" class="c d">11</text></svg>