<svg xmlns="http://www.w3.org/2000/svg" xmlns:xlink="http://www.w3.org/1999/xlink" viewBox="0 0 1094.2 762.5"><style><![CDATA[.N{stroke-width:.4}.O{stroke-linecap:round}.P{stroke-linejoin:round}.Q{stroke-miterlimit:10}.R{stroke-width:.227}.S{stroke:#000}.T{fill:none}.U{fill-rule:evenodd}.V{fill:#231f20}.W{font-family:Tinos-Regular}.X{font-size:10px}.Y{stroke-width:.369}.Z{fill:#fff}.a{stroke-width:.709}.b{stroke-width:.51}]]></style><path d="M960.5.1H.8v482h67v18.1h24.8l91.6 67.3h909.2V.1H960.5zm0 460.1H116.8V152.5h285.5V51.3h271.2v101.2h287v307.7z" fill="#f1f2f2"/><g class="T O P Q"><g stroke="#939598" class="N"><path d="M1091.2 567.5l3.1-3.1m-11.1 3.1l11.1-11.1m-19.2 11.1l19.2-19.1m-27.2 19.1l27.2-27.1m-35.2 27.1l35.2-35.2m-43.2 35.2l43.2-43.2m-51.2 43.2l51.2-51.2m-59.2 51.2l55.2-55.3m-63.3 55.3l55.3-55.3m-63.3 55.3l55.3-55.3m-63.3 55.3l55.3-55.3m-63.3 55.3l55.3-55.3m34-34l2-2M995 567.5l55.2-55.3m34.1-34l10-10M987 567.5l55.2-55.3m34-34l18.1-18M978.9 567.5l55.3-55.3m34-34l26.1-26M970.9 567.5l55.3-55.3m34-34l34.1-34M962.9 567.5l55.3-55.3m34-34l42.1-42.1M954.9 567.5l37.4-37.4m3.3-3.3l14.6-14.6m34-34l50.1-50.1M946.9 567.5l37.4-37.4m11.3-11.4l6.5-6.5m34.1-34l58.1-58.1M938.8 567.5l37.5-37.4m51.8-51.9l66.2-66.1M930.8 567.5l37.4-37.4m51.9-51.9l74.2-74.1M922.8 567.5l37.4-37.4m51.9-51.9l82.2-82.2M914.8 567.5l39.4-39.4m49.9-49.9l90.2-90.2M906.8 567.5l47.4-47.5m41.9-41.8l98.2-98.2M898.8 567.5l55.4-55.5m40.4-40.3l99.7-99.7M890.7 567.5l63.5-63.5m32.4-32.3L1094.3 364M882.7 567.5l71.5-71.5m24.3-24.3L1094.3 356M874.7 567.5l79.5-79.5m16.3-16.3l123.8-123.8M866.7 567.5l87.5-87.5m8.3-8.3l131.8-131.8M858.7 567.5l95.5-95.6m.3-.2l7.3-7.4"/><use xlink:href="#B"/><path d="M850.7 567.5l103.1-103.2"/><use xlink:href="#B" y="-8"/><use xlink:href="#C"/><use xlink:href="#B" y="-16"/><use xlink:href="#C" x="-8"/><use xlink:href="#B" y="-24"/><use xlink:href="#C" x="-16"/><use xlink:href="#B" y="-32.1"/><use xlink:href="#C" x="-24"/><use xlink:href="#B" y="-40.1"/><path d="M810.6 567.5l103.1-103.2"/><use xlink:href="#B" y="-48.1"/><use xlink:href="#C" x="-40.1"/><use xlink:href="#B" y="-56.1"/><use xlink:href="#C" x="-48.1"/><use xlink:href="#B" y="-64.1"/><use xlink:href="#C" x="-56.1"/><path d="M967.5 386.5l126.8-126.8"/><use xlink:href="#C" x="-64.1"/><use xlink:href="#B" y="-80.2"/><use xlink:href="#C" x="-72.1"/><use xlink:href="#B" y="-88.2"/><path d="M762.5 567.5l103.1-103.2"/><use xlink:href="#B" y="-96.2"/><use xlink:href="#C" x="-88.2"/><use xlink:href="#B" y="-104.2"/><use xlink:href="#C" x="-96.2"/><use xlink:href="#B" y="-112.2"/><use xlink:href="#C" x="-104.2"/><path d="M967.5 338.4l126.8-126.8"/><use xlink:href="#C" x="-112.2"/><use xlink:href="#B" y="-128.3"/><use xlink:href="#C" x="-120.2"/><use xlink:href="#B" y="-136.3"/><path d="M714.4 567.5l103.1-103.2"/><use xlink:href="#B" y="-144.3"/><use xlink:href="#C" x="-136.3"/><use xlink:href="#B" y="-152.3"/><use xlink:href="#C" x="-144.3"/><use xlink:href="#B" y="-160.3"/><use xlink:href="#C" x="-152.3"/><use xlink:href="#B" y="-168.4"/><use xlink:href="#C" x="-160.3"/><use xlink:href="#B" y="-176.4"/><path d="M674.3 567.5l103.1-103.2"/><use xlink:href="#B" y="-184.4"/><use xlink:href="#C" x="-176.4"/><use xlink:href="#B" y="-192.4"/><use xlink:href="#C" x="-184.4"/><use xlink:href="#B" y="-200.4"/><use xlink:href="#C" x="-192.4"/><path d="M967.5 250.2l126.8-126.8"/><use xlink:href="#C" x="-200.4"/><use xlink:href="#B" y="-216.5"/><use xlink:href="#C" x="-208.4"/><use xlink:href="#B" y="-224.5"/><path d="M626.2 567.5l103.1-103.2"/><use xlink:href="#B" y="-232.5"/><use xlink:href="#C" x="-224.5"/><use xlink:href="#B" y="-240.5"/><use xlink:href="#C" x="-232.5"/><use xlink:href="#B" y="-248.5"/><use xlink:href="#C" x="-240.5"/><path d="M967.5 202.1l126.8-126.8"/><use xlink:href="#C" x="-248.5"/><use xlink:href="#B" y="-264.6"/><use xlink:href="#C" x="-256.5"/><use xlink:href="#B" y="-272.6"/><path d="M578.1 567.5l103.1-103.2"/><use xlink:href="#B" y="-280.6"/><use xlink:href="#C" x="-272.6"/><use xlink:href="#B" y="-288.6"/><use xlink:href="#C" x="-280.6"/><use xlink:href="#B" y="-296.6"/><use xlink:href="#C" x="-288.6"/><use xlink:href="#B" y="-304.7"/><use xlink:href="#C" x="-296.6"/><use xlink:href="#B" y="-312.7"/><path d="M538 567.5l103.1-103.2m319.5-319.4l133.7-133.7"/><use xlink:href="#C" x="-312.7"/><path d="M952.6 144.9L1094.3 3.2"/><use xlink:href="#C" x="-320.7"/><path d="M944.6 144.9L1089.4 0"/><use xlink:href="#C" x="-328.7"/><path d="M936.6 144.9L1081.4 0"/><use xlink:href="#C" x="-336.7"/><path d="M928.5 144.9L1073.4 0"/><use xlink:href="#C" x="-344.7"/><path d="M920.5 144.9L1065.4 0M489.9 567.5L593 464.3m319.5-319.4L1057.4 0M481.8 567.5L585 464.3m319.5-319.4L1049.3 0M473.8 567.5L577 464.3m319.5-319.4L1041.3 0M465.8 567.5L569 464.3m319.5-319.4L1033.3 0M457.8 567.5L561 464.3m319.4-319.4L1025.3 0M449.8 567.5L553 464.3m319.4-319.4L1017.3 0M441.8 567.5l103.1-103.2m319.5-319.4L1009.3 0"/><use xlink:href="#C" x="-408.9"/><path d="M856.4 144.9L1001.2 0"/><use xlink:href="#C" x="-416.9"/><path d="M848.4 144.9L993.2 0"/><use xlink:href="#C" x="-424.9"/><path d="M840.3 144.9L985.2 0"/><use xlink:href="#C" x="-432.9"/><path d="M832.3 144.9L977.2 0M401.7 567.5l103.1-103.2m319.5-319.4L969.2 0"/><use xlink:href="#C" x="-449"/><path d="M816.3 144.9L961.1 0"/><use xlink:href="#C" x="-457"/><path d="M808.3 144.9L953.1 0"/><use xlink:href="#C" x="-465"/><path d="M800.3 144.9L945.1 0"/><use xlink:href="#C" x="-473"/><path d="M792.2 144.9L937.1 0"/><use xlink:href="#C" x="-481"/><path d="M784.2 144.9L929.1 0M353.6 567.5l103.1-103.2m319.5-319.4L921.1 0"/><use xlink:href="#C" x="-497.1"/><path d="M768.2 144.9L913 0"/><use xlink:href="#C" x="-505.1"/><path d="M760.2 144.9L905 0"/><use xlink:href="#C" x="-513.1"/><path d="M752.2 144.9L897 0"/><use xlink:href="#C" x="-521.1"/><path d="M744.1 144.9L889 0"/><use xlink:href="#C" x="-529.1"/><path d="M736.1 144.9L881 0M305.5 567.5l103.1-103.2m319.5-319.4L873 0"/><use xlink:href="#C" x="-545.2"/><path d="M720.1 144.9L864.9 0"/><use xlink:href="#C" x="-553.2"/><path d="M712.1 144.9L856.9 0"/><use xlink:href="#C" x="-561.2"/><path d="M704 144.9L848.9 0"/><use xlink:href="#C" x="-569.2"/><path d="M696 144.9L840.9 0M265.4 567.5l103.1-103.2M688 144.9L832.9 0"/><use xlink:href="#C" x="-585.3"/><path d="M680.4 144.4L824.8 0"/><use xlink:href="#C" x="-593.3"/><path d="M680.4 136.4L816.8 0"/><use xlink:href="#C" x="-601.3"/><path d="M680.4 128.4L808.8 0"/><use xlink:href="#C" x="-609.3"/><path d="M680.4 120.4L800.8 0"/><use xlink:href="#C" x="-617.3"/><path d="M680.4 112.4L792.8 0M217.3 567.5l103.1-103.2"/><path d="M680.4 104.4L784.8 0"/><use xlink:href="#C" x="-633.4"/><path d="M680.4 96.3L776.7 0"/><use xlink:href="#C" x="-641.4"/><path d="M680.4 88.3L768.7 0"/><use xlink:href="#C" x="-649.4"/><path d="M680.4 80.3L760.7 0"/><use xlink:href="#C" x="-657.4"/><path d="M680.4 72.3L752.7 0M180.3 564.3l100.1-100m400-400L744.7 0m-569 560.9l96.6-96.6m408.1-408L736.7 0M171.1 557.5l93.2-93.2M680.4 48.2L728.6 0M166.5 554.2l89.8-89.9M674.7 45.9L720.6 0M161.8 550.8l86.5-86.5M666.7 45.9L712.6 0M157.2 547.4l83.1-83.1M658.7 45.9L704.6 0m-552 544l79.6-79.7M650.6 45.9l46-45.9M148 540.6l76.2-76.3M642.6 45.9L688.5 0M143.4 537.2l72.8-72.9M634.6 45.9L680.5 0M138.7 533.8l69.5-69.5M626.6 45.9L672.5 0M134.1 530.4l66.1-66.1M618.6 45.9L664.5 0m-535 527l62.7-62.7M610.6 45.9L656.5 0M124.9 523.6l59.2-59.3M602.5 45.9l46-45.9M120.3 520.2l55.8-55.9M594.5 45.9L640.4 0M115.6 516.8l52.5-52.5M586.5 45.9L632.4 0M111 513.4l9.7-9.7m7.1-7.1l32.3-32.3M578.5 45.9L624.4 0m-518 510l6.3-6.3m7.1-7.1l32.3-32.3M570.5 45.9L616.4 0M101.8 506.6l2.9-2.9m7-7.1l32.4-32.3M562.5 45.9L608.4 0M103.7 496.6l32.3-32.3M554.4 45.9l46-45.9M95.7 496.6l32.3-32.3M546.4 45.9L592.3 0M87.7 496.6l32.3-32.3M538.4 45.9L584.3 0M79.7 496.6l37.2-37.2M530.4 45.9L576.3 0M72.4 495.9l44.5-44.5M522.4 45.9L568.3 0M72.4 487.9l44.5-44.5M514.3 45.9l46-45.9M72.4 479.9l44.5-44.5M506.3 45.9L552.2 0M61.5 482.7l3.8-3.8m7.1-7l44.5-44.5"/></g><path d="M399.4 144.9l1.5-1.6" class="N S"/><g stroke="#939598" class="N"><path d="M498.3 45.9L544.2 0M53.5 482.7l11.8-11.8m7.1-7.1l44.5-44.5m274.5-274.4l9.5-9.6m89.4-89.4L536.2 0M45.5 482.7l19.8-19.8m7.1-7.1l44.5-44.5m266.4-266.4l17.6-17.6m81.4-81.4L528.2 0M37.4 482.7l27.9-27.8m7.1-7.1l44.5-44.5m258.4-258.4l25.6-25.6m73.4-73.4L520.2 0M29.4 482.7l34.5-34.5m5.6-5.5l47.4-47.4m250.4-250.4l33.6-33.6m65.3-65.4l46-45.9M21.4 482.7l36.7-36.6m5.5-5.5l53.3-53.3m242.4-242.4l41.6-41.7m57.3-57.3L504.1 0M13.4 482.7l38.8-38.8m5.5-5.5l59.2-59.1m234.4-234.4l49.6-49.7m49.3-49.3L496.1 0M5.4 482.7l40.9-40.9m5.5-5.5l65.1-65.1m226.4-226.3l57.6-57.7m41.3-41.3L488.1 0M.1 480l40.3-40.3m5.6-5.6l70.9-70.9m218.3-218.3l65.7-65.7m33.3-33.3L480.1 0M.1 472l34.4-34.5m5.6-5.5l76.8-76.8m210.3-210.3l73.7-73.7m25.2-25.3l46-45.9M.1 464l28.6-28.6m5.5-5.5l82.7-82.7m202.3-202.3l81.7-81.8m17.2-17.2l46-45.9M.1 456l22.7-22.8m5.5-5.5l88.6-88.5m194.3-194.3l89.7-89.8m9.2-9.2L456 0M.1 447.9l16.8-16.8m5.6-5.5l94.4-94.5m186.3-186.2l97.7-97.8m1.2-1.2L448 0M.1 439.9L11 429m5.6-5.6l100.3-100.3m178.3-178.2L440 0M.1 431.9l5.1-5.1m5.5-5.5l106.2-106.2m170.2-170.2L432 0M4.8 419.1l112.1-112m162.2-162.2L424 0M.1 415.9l116.8-116.8m154.2-154.2L415.9 0M.1 407.8l116.8-116.7m146.2-146.2L407.9 0M.1 399.8L116.9 283m138.2-138.1L399.9 0M.1 391.8L116.9 275M247 144.9L391.9 0M.1 383.8L116.9 267M239 144.9L383.9 0M.1 375.8L116.9 259M231 144.9L375.9 0M.1 367.8L116.9 251M223 144.9L367.8 0M.1 359.7L116.9 243m98.1-98.1L359.8 0M.1 351.7l116.8-116.8m90.1-90L351.8 0M.1 343.7l116.8-116.8m82-82L343.8 0M.1 335.7l116.8-116.8m74-74L335.8 0M.1 327.7l116.8-116.8m66-66L327.8 0M.1 319.7l116.8-116.8m58-58L319.7 0M.1 311.6l116.8-116.8m50-49.9L311.7 0M.1 303.6l116.8-116.8m42-41.9L303.7 0M.1 295.6l116.8-116.8m33.9-33.9L295.7 0M.1 287.6l116.8-116.8m25.9-25.9L287.7 0M.1 279.6l116.8-116.8m17.9-17.9L279.6 0M.1 271.5l116.8-116.7m9.9-9.9L271.6 0M.1 263.5l116.8-116.8m1.9-1.8L263.6 0M.1 255.5L255.6 0M.1 247.5L247.6 0M.1 239.5L239.6 0M.1 231.5L231.5 0M.1 223.4L223.5 0M.1 215.4L215.5 0M.1 207.4L207.5 0M.1 199.4L199.5 0M.1 191.4L191.5 0M.1 183.4L183.4 0M.1 175.3L175.4 0M.1 167.3L167.4 0M.1 159.3L159.4 0M.1 151.3L151.4 0M.1 143.3L143.3 0M.1 135.2L135.3 0M.1 127.2L127.3 0M.1 119.2L119.3 0M.1 111.2L111.3 0M.1 103.2L103.3 0"/><path d="M.1 95.2L95.2 0"/><path d="M.1 87.1L87.2 0"/><path d="M.1 79.1L79.2 0"/><path d="M.1 71.1L71.2 0"/><path d="M.1 63.1L63.2 0"/><path d="M.1 55.1L55.2 0"/><path d="M.1 47.1L47.1 0"/><path d="M.1 39l39-39"/><path d="M.1 31l31-31"/><path d="M.1 23l23-23"/><path d="M.1 15l15-15"/><path d="M.1 7l7-7"/></g><g class="R S"><path d="M503.7 154.5v1.7m2.5-.6v.6m-2.5-1.7h34m-30.9 0v.6"/><path d="M537.7 154.5v1.7m-30.9-1.1l-.6.5m31.5.6h-34m2.5 0v-.6"/><path d="M535.1 155.6v.6m-.5-1.7v.6"/><path d="M534.6 155.1l.5.5m0 .6v-.6"/></g></g><g class="U"><path d="M72.4 496.6v7.1h-7.1l7.1-7.1"/><path d="M72.4 503.7v-7.1h55.5v7.1H72.4"/></g><g class="O P Q S T a"><path d="M127.9 496.6H72.4m-7.1 7.1h62.6"/><path d="M127.9 503.7v-7.1"/></g><g class="U"><path d="M65.3 448.7l7.1-4.9v7.5l-7.1-2.6"/><path d="M72.4 496.6h-7.1v-47.9l7.1 2.6v45.3"/><path d="M65.3 496.6h7.1l-7.1 7.1v-7.1"/></g><path d="M72.4 496.6v-52.8m-7.1 59.9v-7.1m0-47.9v47.9" class="O P Q S T a"/><g class="U"><path d="M.1 425v-7.6l65.2 23.8v7.5L.1 425"/><path d="M65.3 441.2l7.1 2.6-7.1 4.9v-7.5"/></g><g class="O P Q S T"><path d="M72.4 443.8l-7.1-2.6m0 0L.1 417.4m0 7.6l65.2 23.7" class="a"/><g class="N"><path d="M552.3 0v2.8m0 1.5v3.4m0 1.4v3.4m0 1.4v3.4m0 1.4v3.4m0 1.4v3.4m0 1.4v3.4m0 1.5v3.4m0 1.4v1.7m68 0v-2.1m0-1.5v-3.4m0-1.4v-3.4m0-1.4v-3.4m0-1.4v-3.4m0-1.4v-3.4m0-1.5V8.6m0-1.4V3.8m0-1.4V0m435.5 694.5l.2-1.2m.5-2.8l1-5.5m.5-2.8l.9-5.6m.5-2.8l1-5.6m.5-2.8l.5-2.9m-315 99v-5.7m0-2.9v-5.6m0-2.9v-5.6m0-2.9v-5.6m0-2.9v-5.6m0-2.9v-5.6m0-2.9v-5.6m0-2.9v-5.6m0-2.9v-5.6m0-2.9v-5.7m0-2.8v-5.7m0-2.8v-5.4m56.7 100v-1.9m0-2.9v-5.6m0-2.9v-5.6m0-2.9v-5.6m0-2.9v-5.6m0-2.9v-5.6m0-2.9v-5.6m0-2.9v-5.6m0-2.9v-5.7m0-2.8V684m0-2.8v-5.7m0-2.8V667m0-2.8v-1.7m238.7-509.7v4m0 2.8v5.7m0 2.8v5.7m0 2.8v5.7m0 2.8v5.7m0 2.8v5.7m0 2.8v5.7m0 2.8v5.7m0 2.8v5.7m0 2.8v5.7m0 2.8v5.7m0 2.8v5.7m0 2.8v5.7m0 2.8v5.7m0 2.8v5.7m0 2.8v5.7m0 2.8v5.7m0 2.9v5.6m0 2.9v5.6m0 2.9v5.6m0 2.9v5.6m0 2.9v5.6m0 2.9v5.6m0 2.9v5.6m0 2.9v5.6m0 2.9v5.7m0 2.8v5.7m0 2.8v5.7m0 2.8v5.7m0 2.8v5.7m0 2.8v5.7m0 2.8v5.7m0 2.8v5.7m0 2.8v5.7m0 2.8v5.7m0 2.8v5.7m0 2.8v5.7m0 2.8v5.7m0 2.8v5.7m0 2.8v5.7m0 2.8v5.7m0 2.8v4M85.1 762.5v-100M12.5 466.3l.6-1.8m.5-1.3l1.2-3.2m.4-1.3l1.2-3.2m.5-1.3l1.2-3.2m.4-1.4l1.2-3.2m.5-1.3l1.2-3.2m.4-1.3l1.2-3.2m.5-1.3l.6-1.8M21 469.4l.6-1.7m.5-1.4l1.2-3.2m.5-1.3l1.1-3.2m.5-1.3l1.2-3.2m.5-1.4l1.1-3.2m.5-1.3l1.2-3.2m.5-1.3l1.1-3.2m.5-1.3l.6-1.8M3.9 463.2l.7-1.8m.5-1.3l1.1-3.2m.5-1.3l1.2-3.2m.5-1.3l1.1-3.2m.5-1.4l1.2-3.2m.5-1.3l1.1-3.2m.5-1.3l1.2-3.2m.5-1.4l.6-1.7M.1 447.3l.9-2.5m.5-1.4l1.2-3.2m.4-1.3l1.2-3.2m.5-1.3l1.2-3.2m.4-1.4l.7-1.7m-7 33.7l3 1.1m1.4.5l3.2 1.1m1.3.5l3.2 1.2m1.3.5l3.2 1.1m1.4.5l2.9 1.1m26.7 235.9l-5.7 2.8"/><path d="M53.4 708.1l-5.7-2.8m-5.7 2.8h11.4"/><path d="M47.7 762.5v-57.2"/><path d="M64.7 759.7h-34m34-9.1h-34m34-9.1h-34m34-36.2h-34"/><path d="M30.7 762.5v-67.7m34 37.7h-34"/><path d="M64.7 723.4h-34m34-9.1h-34m17-109.7l-5.7 2.9m11.4 0l-5.7-2.9m-5.7 2.9h11.4"/><path d="M47.7 668.1v-63.5"/><path d="M64.7 659.1h-34m34 9h-34m34-18.1h-34"/></g><path d="M64.7 640.9h-34m34-36.3h-34" class="R"/><path d="M30.7 668.1v-27.2" class="N"/><path d="M64.7 631.8h-34m34-9h-34m34-9.1h-34" class="R"/><g class="N"><path d="M47.7 504l-5.7 2.8m11.4 0l-5.7-2.8m-5.7 2.8h11.4"/><path d="M47.7 567.5V504"/></g><g class="R"><path d="M64.7 558.4h-34m34 9.1h-34m34-18.1h-34m34-9.1h-34m34-36.3h-34m0 63.5v-74"/><path d="M64.7 531.2h-34m34-9.1h-34m34-9h-34"/></g><path d="M42.6 152.8v4.5m0 2.8v5.7m0 2.8v5.7m0 2.8v5.7m0 2.8v5.7m0 2.8v5.7m0 2.8v5.7m0 2.9v5.6m0 2.9v5.6m0 2.9v5.6m0 2.9v5.6m0 2.9v5.6m0 2.9v5.6m0 2.9v5.6m0 2.9v5.6m0 2.9v5.7m0 2.8v5.7m0 2.8v5.7m0 2.8v5.7m0 2.8v5.7m0 2.8v5.7m0 2.8v5.7m0 2.8v5.7m0 2.8v5.7m0 2.8v5.7m0 2.8v5.7m0 2.8v5.7m0 2.8v5.7m0 2.8v5.7m0 2.8v4.5m-10 34.7l-2.5-.9m-1.3-.5l-3.2-1.1m-1.3-.5l-3.2-1.2m-1.4-.5l-3.2-1.1m-1.3-.5l-3.2-1.2m-1.3-.5l-3.2-1.1m-1.4-.5l-3.2-1.2m-1.3-.5l-1.5-.5m26.7 27.8l-2.5-.9M23 452l-3.2-1.2m-1.4-.4l-3.2-1.2m-1.3-.5l-3.2-1.2m-1.3-.4l-3.2-1.2m-1.4-.5l-3.2-1.2m-1.3-.5H.1" class="N"/><path d="M30.7 640.9v-46.8" class="R"/><g class="N"><path d="M28.2 453.4l-.4 1m0 0l-.1.1m-1.3.1l-.6-.2m0 0l-.4-1m0 0l.4-1m0 0l.6-.2m1.3.2h.1m0 0l.4 1"/><use xlink:href="#D"/><use xlink:href="#D" y="-100.6"/><path d="M1043.7 694.5l-2-.4m-2.8-.5l-5.6-1m-2.8-.5l-1.6-.3m0 0l-4-.5m-2.8-.3l-5.6-.8m-2.8-.3l-1.5-.2m0 0l-4.2-.3m-2.8-.2l-5.7-.5m-2.8-.2l-1.4-.1m0 0l-4.3-.1m-2.8-.1l-5.7-.1m-2.8-.1h-1.3m0 0H974m-2.8 0h-5.7m-2.8 0H957m-2.8 0h-5.7m-2.8 0H940m-2.8 0h-5.7m-2.8 0H923m-2.8 0h-5.7m-2.8 0H906m-2.8 0h-5.7m-2.8 0H889m-2.8 0h-5.7m-2.8 0H872m-2.8 0h-5.7m-2.9 0H855m-2.9 0h-5.6m-2.9 0H838m-2.9 0h-5.6m-2.9 0H821m-2.9 0h-5.6m-2.9 0H804m-2.9 0h-5.7m-2.8 0h-5.7m-2.8 0h-5.7m-2.8 0h-5.7m-2.8 0h-5.7m-2.8 0h-5.7m-2.8 0h-3.7"/></g><path d="M666.5 67.6h-39.7m39.7 0v31.2" class="R"/><g class="N"><path d="M641.7 101.5h9.9m0 0v.8m-16.3-2.2v1.1m-.8-1.1h-3.7m-.6-43.1v1.1m0 0h2.7m0 0v2m30.2-3.1v1.1m0 0h-2.7m0 0v2m-27.2 0v2.4m26.9-2.4v2.4"/><path d="M633.2 62.5h26.9m-2.7-4v2"/><path d="M657.4 60.5h-2.8m0 0v-2"/><path d="M657.4 58.5h-2.8m1.7-.7v.7m0 2v.7m-20.4-2.7v2"/><path d="M635.9 60.5h2.8m0 0v-2"/><path d="M635.9 58.5h2.8m-1.7-.7v.7m0 2v.7m19.3-3.4H637"/><path d="M656.3 61.2H637m12.6-3.1h-5.9"/><path d="M649.6 60.9h-5.9m0-1.8h-.7"/><path d="M643 59.1v.7m0 0h.7m5.9-.7h.8m0 0v.7m0 0h-.8m-.7 5.7v1.7m-4.5-1.7v1.7m-1.8-1.9h-1.2m0 0v2.3m1.2-2.3v2.3m6.9-.4v.4m-5.7-.4v.4m.6 33v-1.4m4.5 1.4v-1.4m1.9 1.6h1.1m0 0v-2"/><path d="M650.8 100.8v-2m-7 .4v-.4m5.7.4v-.4m-18.7 1.3v2.1"/><path d="M630.8 102.2h3.7m0-2.1v2.1"/></g><path d="M626.8 98.8h39.7" class="R"/><g class="N"><path d="M646.1 66.2h1.1m-2.8-.7h4.5m-2.8.7l-.8.7m1.9-.7l.9.7m-2.8 0v.3m2.8-.3v.3m.8 33.4h-4.5m2.8-.4h-1.1"/><path d="M647.2 100.2l.9-.7m-2 .7l-.8-.7m2.8 0v-.3m-2.8.3v-.3m-3.6.9v2.2m-6.4-2.2h6.4"/><path d="M641.7 101.2h-7.2m24.4-38.7V57m-24.4 5.5V57m32 42.6v-.8m-3.4 0v.8m-36.3 0v-.8"/><path d="M630.2 98.8v.8m36.3 0h-3.4"/><path d="M626.8 99.6h3.4m-3.4-32.8v.8m3.4 0v-.8m36.3 0v.8"/><path d="M663.1 67.6v-.8m3.4 0h-3.4m-36.3 0h3.4m5.7-7h-1.4m-1.6.3h.3m27.2 0h-.3m-2.7-.3h1.5m-10.8 5.7v-3m-4.3 4.7h1.5m2.8 0h1.4m-5.8-9.1v1m0 .7v1.1m5.9-2.8v1m0 .7v1.1m-.1 38.3h-1.4m-2.8 0h-1.5m2.9 1.4v.9"/></g><g class="R"><path d="M626.8 67.6V72m-2.1 25.5h2.1m-3.5.6h1.4m-1.4-.3h1.1"/><path d="M624.7 98.1v-.6"/></g><path d="M623.3 61.9v21.9" class="N"/><path d="M623.3 84.1h1.1m.3.9h1.1m-1.4 12.8V84.1m-1.1 13.7V84.1m1.4-13h1.1M624.7 85V71.1m1.1 0V85" class="R"/><path d="M625.8 85.3v11.9" class="N"/><path d="M623.3 98.1v.7m2.8-26.8h.7" class="R"/><path d="M625.8 61.9h-2.5m2.5 9v-9" class="N"/><path d="M626.8 98.8v-1.3" class="R"/><path d="M623.3 98.8h3.5m18.5-33.3v-3m-9.4-3.3h-1.4m22.9 0h1.5m-24.4 2.3h24.4" class="N"/><g class="R"><path d="M621.4 97.8h1.2m0 .3h-1.4"/><path d="M621.2 98.1v-.6m0-26.4H620m2.6 13h-1.2"/></g><path d="M622.6 60v23.8" class="N"/><path d="M621.2 85H620" class="R"/><path d="M620 97.2V85.3" class="N"/><path d="M621.4 97.8V84.1m1.2 13.7V84.1m-1.4.9V71.1m-1.2 0V85" class="R"/><g class="N"><path d="M622.6 60H620m2.6 38.8H620"/><path d="M620 98.8v-1.3"/></g><path d="M622.6 98.1v.7m-1.4-1.3h-2.9m0-25.5h1.4m-1.4 0V57.5m1.4 0v.6" class="R"/><path d="M620 60v10.9" class="N"/><g class="R"><path d="M619.7 57.5h-1.4m0 44.3h1.4"/><path d="M619.7 101.8v-.6m-1.4.6v-4.3m-.5-40.5v2m0 0h.5m-.5 43.3v-2m0 0h.5"/></g></g><g class="U"><path d="M1050 509.4v2.8h-28.3v-2.8h28.3m0-31.2v2.8h-28.3v-2.8h28.3"/><path d="M1021.7 509.4v2.8h-28.4v-2.8h28.4m0-31.2v2.8h-28.4v-2.8h28.4m56.7 31.2v2.8H1050v-2.8h28.4m0-31.2v2.8H1050v-2.8h28.4"/><path d="M1094.3 512.2h-15.9v-2.8h15.9v2.8m-15.9-34h15.9v2.8h-15.9v-2.8"/><path d="M182.2 342.8v8.6h-1.4v-8.6h1.4m0-28.3v5.7h-1.4v-5.7h1.4" class="Z"/></g><g class="O P Q S T"><path d="M182.2 320.2h-1.4m1.4 22.6h-1.4m1.4 8.6v-8.6m0-22.6v-5.7m-1.4 0v5.7m0 22.6v8.6" class="Y"/><g class="N"><path d="M182.2 320.2h22.7"/><path d="M204.9,320.2c0,12.5-10.2,22.7-22.7,22.7"/></g><path d="M182.2 342.8h-1.4m1.4-22.6h-1.4" class="Y"/></g><g class="U Z"><use xlink:href="#E"/><path d="M234.7 351.4v1.4h-2.9v-1.4h2.9"/></g><g class="O P Q S T"><g class="Y"><path d="M209.1 351.4v1.4m22.7-1.4v1.4m2.9-1.4h-2.9m-22.7 0h-2.8"/><path d="M206.3 351.4v1.4m0 0h2.8m22.7 0h2.9m0 0v-1.4"/></g><g class="N"><path d="M209.1 351.4v-22.7"/><use xlink:href="#F"/></g><path d="M231.8 351.4v1.4m-22.7-1.4v1.4" class="Y"/></g><path d="M265.8 351.4h2.9v1.4h-2.9v-1.4m28.4 0v1.4h-2.9v-1.4h2.9" class="U Z"/><g class="O P Q S T"><g class="Y"><path d="M268.7 351.4v1.4m22.6-1.4v1.4m2.9-1.4h-2.9m-22.6 0h-2.9"/><path d="M265.8 351.4v1.4m0 0h2.9m22.6 0h2.9m0 0v-1.4"/></g><g class="N"><path d="M268.7 351.4v-22.7"/><use xlink:href="#F" x="59.6"/></g><path d="M291.3 351.4v1.4m-22.6-1.4v1.4" class="Y"/></g><g class="U Z"><use xlink:href="#E" x="119.1"/><path d="M353.7 351.4v1.4h-2.8v-1.4h2.8"/></g><g class="O P Q S T"><g class="Y"><path d="M328.2 351.4v1.4m22.7-1.4v1.4m2.8-1.4h-2.8m-22.7 0h-2.8"/><path d="M325.4 351.4v1.4m0 0h2.8m22.7 0h2.8m0 0v-1.4"/></g><g class="N"><path d="M328.2 351.4v-22.7"/><use xlink:href="#F" x="119.1"/></g><path d="M350.9 351.4v1.4m-22.7-1.4v1.4" class="Y"/></g><g class="U Z"><use xlink:href="#E" x="178.6"/><path d="M413.2 351.4v1.4h-2.8v-1.4h2.8"/></g><g class="O P Q S T"><g class="Y"><path d="M387.7 351.4v1.4m22.7-1.4v1.4m2.8-1.4h-2.8m-22.7 0h-2.8"/><path d="M384.9 351.4v1.4m0 0h2.8m22.7 0h2.8m0 0v-1.4"/></g><g class="N"><path d="M387.7 351.4v-22.7"/><use xlink:href="#F" x="178.6"/></g><path d="M410.4 351.4v1.4m-22.7-1.4v1.4" class="Y"/></g><g class="U Z"><use xlink:href="#E" x="238.1"/><path d="M472.8 351.4v1.4h-2.9v-1.4h2.9"/></g><g class="O P Q S T"><g class="Y"><path d="M447.2 351.4v1.4m22.7-1.4v1.4m2.9-1.4h-2.9m-22.7 0h-2.8"/><path d="M444.4 351.4v1.4m0 0h2.8m22.7 0h2.9m0 0v-1.4"/></g><g class="N"><path d="M447.2 351.4v-22.7"/><use xlink:href="#F" x="238.1"/></g><path d="M469.9 351.4v1.4m-22.7-1.4v1.4" class="Y"/></g><path d="M503.9 351.4h2.9v1.4h-2.9v-1.4m28.4 0v1.4h-2.8v-1.4h2.8" class="U Z"/><g class="O P Q S T"><g class="Y"><path d="M529.5 351.4v1.4m-22.7-1.4v1.4m25.5-1.4h-2.8m-22.7 0h-2.9"/><path d="M503.9 351.4v1.4m0 0h2.9m22.7 0h2.8m0 0v-1.4"/></g><g class="N"><path d="M529.5 351.4v-22.7"/><use xlink:href="#G"/></g><path d="M506.8 351.4v1.4m22.7-1.4v1.4" class="Y"/></g><path d="M902.2 342.8h1.4v8.6h-1.4v-8.6m1.4-28.3v5.7h-1.4v-5.7h1.4" class="U Z"/><g class="O P Q S T"><path d="M902.2 320.2h1.4m-1.4 22.6h1.4m0 8.6v-8.6m0-22.6v-5.7m-1.4 0v5.7m0 22.6v8.6" class="Y"/><g class="N"><path d="M902.2 320.2h-22.7"/><path d="M902.2,342.8c-12.5,0-22.7-10.2-22.7-22.7"/></g><path d="M902.2 342.8h1.4m-1.4-22.6h1.4" class="Y"/></g><g class="U Z"><path d="M849.8 352.8v-1.4h2.8v1.4h-2.8"/><use xlink:href="#E" x="669"/></g><g class="O P Q S T"><g class="Y"><path d="M875.3 351.4v1.4m-22.7-1.4v1.4m-2.8 0h2.8m22.7 0h2.8"/><path d="M878.1 352.8v-1.4m0 0h-2.8m-22.7 0h-2.8m0 0v1.4"/></g><g class="N"><path d="M875.3 351.4v-22.7"/><use xlink:href="#G" x="345.8"/></g><path d="M852.6 351.4v1.4m22.7-1.4v1.4" class="Y"/></g><g class="U Z"><path d="M790.2 352.8v-1.4h2.9v1.4h-2.9"/><use xlink:href="#E" x="609.5"/></g><g class="O P Q S T"><g class="Y"><path d="M815.8 351.4v1.4m-22.7-1.4v1.4m-2.9 0h2.9m22.7 0h2.8"/><path d="M818.6 352.8v-1.4m0 0h-2.8m-22.7 0h-2.9m0 0v1.4"/></g><g class="N"><path d="M815.8 351.4v-22.7"/><use xlink:href="#G" x="286.3"/></g><path d="M793.1 351.4v1.4m22.7-1.4v1.4" class="Y"/></g><path d="M730.7 352.8v-1.4h2.8v1.4h-2.8m25.5-1.4h2.9v1.4h-2.9v-1.4" class="U Z"/><g class="O P Q S T"><g class="Y"><path d="M756.2 351.4v1.4m-22.7-1.4v1.4m-2.8 0h2.8m22.7 0h2.9"/><path d="M759.1 352.8v-1.4m0 0h-2.9m-22.7 0h-2.8m0 0v1.4"/></g><g class="N"><path d="M756.2 351.4v-22.7"/><use xlink:href="#G" x="226.7"/></g><path d="M733.5 351.4v1.4m22.7-1.4v1.4" class="Y"/></g><g class="U Z"><path d="M671.2 352.8v-1.4h2.8v1.4h-2.8"/><use xlink:href="#E" x="490.4"/></g><g class="O P Q S T"><g class="Y"><path d="M696.7 351.4v1.4m-22.7-1.4v1.4m-2.8 0h2.8m22.7 0h2.8"/><path d="M699.5 352.8v-1.4m0 0h-2.8m-22.7 0h-2.8m0 0v1.4"/></g><g class="N"><path d="M696.7 351.4v-22.7"/><use xlink:href="#G" x="167.2"/></g><path d="M674 351.4v1.4m22.7-1.4v1.4" class="Y"/></g><g class="U Z"><path d="M611.7 352.8v-1.4h2.8v1.4h-2.8"/><use xlink:href="#E" x="430.9"/></g><g class="O P Q S T"><g class="Y"><path d="M637.2 351.4v1.4m-22.7-1.4v1.4m-2.8 0h2.8m22.7 0h2.8"/><path d="M640 352.8v-1.4m0 0h-2.8m-22.7 0h-2.8m0 0v1.4"/></g><g class="N"><path d="M637.2 351.4v-22.7"/><use xlink:href="#G" x="107.7"/></g><path d="M614.5 351.4v1.4m22.7-1.4v1.4" class="Y"/></g><path d="M552.1 352.8v-1.4h2.9v1.4h-2.9m25.5-1.4h2.9v1.4h-2.9v-1.4" class="U Z"/><g class="O P Q S T"><g class="Y"><path d="M577.6 351.4v1.4m-22.6-1.4v1.4m-2.9 0h2.9m22.6 0h2.9"/><path d="M580.5 352.8v-1.4m0 0h-2.9m-22.6 0h-2.9m0 0v1.4"/></g><g class="N"><path d="M577.6 351.4v-22.7"/><use xlink:href="#G" x="48.2"/></g><path d="M555 351.4v1.4m22.6-1.4v1.4" class="Y"/></g><path d="M617.2 201.3h1.4V214h-1.4v-12.7m0 109.1v-21.3h1.4v21.3h-1.4m1.4-73.7v29.8h-1.4v-29.8h1.4m0-79.4v21.3h-1.4v-21.3h1.4" class="U"/><g class="O P Q S T"><g class="Y"><path d="M617.2 178.6h1.4m-1.4 22.7h1.4m-1.4 12.7h1.4m-1.4 22.7h1.4m-1.4 52.4h1.4m-1.4-22.6h1.4m0 43.9v-21.3m0-22.6v-5.7m0-1.4v-22.7m0-22.7v-5.7m0-1.4v-5.6m0-22.7v-21.3m0 0h-1.4m0 0v21.3m0 22.7V214m0 22.7v29.8"/><path d="M617.2 289.1v21.3m0 0h1.4"/></g><g class="N"><path d="M617.2 178.6h-22.7"/><path d="M617.2,201.3c-12.5,0-22.7-10.2-22.7-22.7"/></g><path d="M617.2 201.3h1.4m-1.4-22.7h1.4" class="Y"/><g class="N"><path d="M617.2 214h-22.7"/><path d="M617.2,236.7c-12.5,0-22.7-10.2-22.7-22.7"/></g><path d="M617.2 236.7h1.4m-1.4-22.7h1.4" class="Y"/><path d="M617.2 289.1h-22.7m0 0c0-12.5 10.2-22.7 22.7-22.7" class="N"/><path d="M617.2 266.5h1.4m-1.4 22.6h1.4" class="Y"/><path d="M924.7 295.7h1.5m1.4 0h3.4m1.4 0h1.4m0 0h1.4m1.5 0h3.4m1.4 0h1.4m1.4 1.4v1.1m0 1.4v3.4m0 1.4v3.4m0 1.5v1.1" class="R"/><path d="M944.3 310.4h-2.5m-1.5 0h-3.4m-1.4 0h-3.4m-1.4 0h-3.4m-1.4 0h-2.6" class="N"/><path d="M923.3 310.4v-1.1m0-1.5v-3.4m0-1.4v-3.4m0-1.4v-1.1" class="R"/><path d="M924.9 306.6v-1.3m0-1.4v-3.4m0-1.4v-1.3m.6-.6h2.8m1.4 0h3.4m1.4 0h3.4m1.4 0h2.9m.6.6v1.3m0 1.4v3.4m0 1.4v1.3m-1.2 1.1h-2.2m-1.4 0h-2.2m-3.9 0h-2.3m-1.4 0H926m18.3 2h-1.1m-.2.1h-1.2m-1.5 0h-3.4m-1.4 0h-3.4m-1.4 0h-3.4m-1.4 0h-1.3m-.1-.1h-1.2m11.5-2.1l-.3.6m0 0l-.7.3m0 0l-.7-.3m0-1.3l.7-.3m0 0l.7.3m0 0l.3.7" class="N"/><path d="M923.3 297.1l.4-1m0 0l1-.4m18.2 0l1 .4m0 0l.4 1" class="R"/><path d="M924.9 297.8l.1-.4m0 0l.5-.2m16.7 0l.4.2m0 0l.2.4m0 8.8l-.4.8m0 0l-.8.3m-5.8 0l-.2.1m0 0l-.1.1m0 0l-.6 1m0 0l-.4.1m-1.4 0l-.3-.1m0 0l-.6-1m0 0l-.1-.1m0 0l-.2-.1m-5.9 0l-.8-.3m0 0l-.3-.8m18.3 3.1l-.1.1m0 0h-.1m-18.4 0h-.1m0 0v-.1" class="N"/></g><path d="M760.9 260.6h-13.3v21h13.3l1-.4.4-1v-18.1l-.4-1-1-.5" class="U Z"/><g class="O P Q S T"><g class="R"><path d="M762.3 262.1v9m0 0v9.1m-1.4 1.4h-13.3m0 0v-21"/><path d="M747.6 260.6h13.3m-9.5 1.6h8.8m.6.6v16.7m-.6.6h-8.8m-1.1-1.1v-5.9m0-3.9v-5.9"/></g><path d="M748.3 281.6v-1.1m-.2-.2v-18.4m.2-.1v-1.2m3.1 10.5c0-.5-.4-1-1-1-.5 0-1 .4-1 1 0 .5.4 1 1 1 .5 0 1-.4 1-1" class="N"/><g class="R"><path d="M760.9 260.6c.8 0 1.4.6 1.4 1.4m0 18.2c0 .8-.6 1.4-1.4 1.4m-.7-19.4a.65.65 0 0 1 .6.6m0 16.7a.65.65 0 0 1-.6.6m-8.8 0a1.11 1.11 0 0 1-1.1-1.1m-.2-6.2c.1 0 .2.1.2.3m-.2-.3c-.8-.2-1.3-.9-1.3-1.7s.6-1.5 1.3-1.7m.2-.2c0 .1-.1.2-.2.3"/><path d="M750.3,263.3c0-0.6,0.5-1.1,1.1-1.1"/></g><path d="M748.3 280.5c-.1 0-.1-.1-.1-.1m-.1-18.5c0-.1.1-.1.1-.1" class="N"/></g><path d="M850.5 309.8v-77.9h9.9v77.9h-9.9m10-108v20.5h-14.7l-1-.8v-18.9l1-.8h14.7m-36.7-27.5l1.7-3.3 2.5-2.8 3.1-2.1 3.6-1.3 3.7-.4 3.7.5 3.5 1.3 3.1 2.2 2.4 2.8 1.8 3.3.9 3.6v3.8l-.9 3.6-1.8 3.3-2.4 2.8-3.1 2.2-3.5 1.3-3.7.5-3.7-.4-3.6-1.3-3.1-2.1-2.5-2.8-1.7-3.3-3.9-1.4v-8.6l3.9-1.4m-69.1-10.2l2.2.5 2 1.3 1.3 1.9.4 2.3-.4 2.3-1.3 1.9-2 1.3-2.2.4-2.3-.4-1.9-1.3-1.3-1.9-.5-2.3.5-2.3 1.3-1.9 1.9-1.3 2.3-.5m18-6.2h34.1v8.5h-34.1v-8.5m-24.6 57h14.2v25.5h-14.2v-25.5m8.3-5.7h-8.3v-26.4h8.3v26.4m55.2 92.1v8.5h-58.3v-8.5h58.3M1056 172.9l1.8.4 1.5 1.2.8 1.7v1.9l-.8 1.7-1.5 1.2-1.8.4-1.9-.4-1.4-1.2-.9-1.7v-1.9l.9-1.7 1.4-1.2 1.9-.4M558.1 246h-11.6v-17.8h11.6V246" class="U Z"/><g class="O P Q S T"><path d="M546.5 228.2h11.6m0 17.8h-11.6" class="R"/><path d="M546.5 246v-17.8" class="N"/><path d="M558.1 228.2V246" class="R"/><path d="M846.1 205.1h2.7m1.5 0h2.6m-3.4 3.4v-2.7m0-1.4v-2.7m4.6 3.4h2.7m1.4 0h2.7m-3.4 3.4v-2.7m0-1.4v-2.7m-3.4 17.3h2.7m1.4 0h2.7m-3.4 3.4v-2.7m0-1.4v-2.7m-11.4 3.4h2.7m1.5 0h2.6m-3.4 3.4v-2.7m0-1.4v-2.7" class="N"/></g><g class="U"><path d="M676.4 45.9h4l-4 3.5v-3.5"/><path d="M404.9 49.4v-3.5h271.5v3.5l-.5.5H405.4l-.5-.5"/><path d="M404.9 45.9v3.5l-4-3.5h4m263 11.1v-7.1h8l-8 7.1"/><path d="M413.4 57v-7.1h254.5V57H413.4"/><path d="M405.4 49.9h8V57l-8-7.1"/></g><g class="O P Q S T"><path d="M413.4 57h254.5" class="a"/><path d="M680.4 45.9H400.9" class="b"/></g><g class="U"><path d="M400.9 144.9l4 3.9h-4v-3.9"/><path d="M120.8 148.8v-3.9h280.1v3.9H120.8"/><path d="M120.8 144.9v3.9h-.4l-3.5-3.9h3.9m284.1 3.9l8.5 8.5h-8.5v-8.5"/><path d="M127.9 157.3v-8.5h277v8.5h-277"/><path d="M120.8 148.8h7.1v8.5l-7.1-8v-.5"/><path d="M120.8 148.8v.5l-.4-.5h.4"/></g><g class="O P Q S T"><path d="M127.9 157.3h208.9m8.5 0h68.1" class="a"/><path d="M400.9 144.9h-284" class="b"/></g><g class="U"><path d="M967.5 144.9l-3.5 3.9h-.4v-3.9h3.9"/><path d="M680.4 148.8v-3.9h283.2v3.9H680.4"/><path d="M680.4 144.9v3.9h-4l4-3.9m283.2 4.4v-.5h.4l-.4.5"/><path d="M956.5 157.3v-8.5h7.1v.5l-7.1 8"/><path d="M676.4 157.3v-8.5h280.1v8.5H676.4"/><path d="M676.4 148.8v8.5h-8.5l8.5-8.5"/></g><g class="O P Q S T"><path d="M667.9 157.3h71.2m8.5 0h208.9" class="a"/><path d="M967.5 144.9H680.4" class="b"/></g><g class="U"><path d="M120.8 460.3v4h-3.9l3.9-4"/><path d="M963.6 460.3v4H120.8v-4h842.8"/><path d="M963.6 464.3v-4l3.9 4h-3.9m-835.7-11v7h-7.1l7.1-7"/><path d="M956.5 453.3v7H127.9v-7h828.6"/><path d="M956.5 460.3v-7l7.1 7h-7.1"/></g><g class="O P Q S T"><path d="M956.5 453.3h-410m-8.5 0H127.9" class="a"/><path d="M116.9 464.3h850.6" class="b"/></g><g class="U"><path d="M116.9 148.8v-3.9l3.5 3.9h-3.5"/><path d="M120.8 460.3h-3.9V148.8h3.5l.4.5v311"/><path d="M116.9 460.3h3.9l-3.9 4v-4m11-303h-7.1v-8l7.1 8"/><path d="M127.9 453.3h-7.1v-296h7.1v296"/><path d="M120.8 453.3h7.1l-7.1 7v-7"/></g><g class="O P Q S T"><path d="M127.9 453.3v-296" class="a"/><path d="M116.9 144.9v3.9m0 315.5v-4m0-311.5v311.5" class="b"/></g><path d="M546.5 157.3v34H538v-34h8.5m0 59.6v97.6H538v-97.6h8.5" class="U"/><g class="O P Q S T"><g class="a"><path d="M538 191.3h8.5m-8.5 25.6h8.5m-8.5-59.6v34m0 25.6v97.6"/><path d="M538 314.5h8.5m0 0v-97.6m0-25.6v-34"/></g><g class="N"><path d="M547.6 191.3h25.2"/><path d="M572.8,191.3c0,13.9-11.3,25.2-25.2,25.2"/></g></g><path d="M903.6 351.4v4.1h-25.5v-4.1h25.5" class="U"/><g class="O P Q S T a"><path d="M902.2 351.4h-24.1m0 0v4.1"/><path d="M878.1 355.5h25.5m0 0v-4.1"/></g><path d="M546.5 310.4h271.9v4.1H546.5v-4.1m297.5 0h23.9v4.1H844v-4.1m49.4 0h63.1v4.1h-63.1v-4.1" class="U"/><g class="O P Q S T"><g class="a"><path d="M818.4 314.5v-4.1m25.6 4.1v-4.1m23.9 4.1v-4.1m25.5 4.1v-4.1m63.1 0h-63.1m-25.5 0h-2.8m-4.1 0h-17m-25.6 0H546.5"/><path d="M546.5 310.4v4.1m0 0h271.9m25.6 0h23.9m25.5 0h8.8m1.4 0h52.9m0 0v-4.1"/></g><path d="M867.9 309.3V284m0 0c13.9 0 25.2 11.3 25.2 25.2m-49.1.1V284m-25.3 25.3c0-13.9 11.3-25.2 25.2-25.2" class="N"/></g><path d="M538 355.5h8.5v97.8H538v-97.8" class="U"/><path d="M538 355.5v97.8m8.5 0v-97.8m0 0H538" class="O P Q S T a"/><g class="U"><path d="M494.2 310.4h4.1v4.1l-4.1-4.1"/><path d="M498.3 310.4h-4.1v-68h4.1v68m0-93.5h-4.1v-59.6h4.1v59.6"/></g><g class="O P Q S T"><path d="M498.3 242.4h-4.1m4.1-25.5h-4.1m0-59.6v59.6m0 25.5v68m4.1 4.1v-72.1m0-25.5v-59.6m0 0h-4.1" class="a"/><g class="N"><path d="M493 216.9h-25.2"/><path d="M493,242.1c-13.9,0-25.2-11.3-25.2-25.2"/></g></g><g class="U"><path d="M494.2 310.4v4.1H127.9v-4.1h366.3"/><path d="M494.2 314.5v-4.1l4.1 4.1h-4.1"/></g><path d="M494.2 310.4H127.9m0 4.1v-4.1m0 4.1h52.9m317.5 0h-4.1m-312 0h312" class="O P Q S T a"/><use xlink:href="#H" class="U Z"/><g class="O P Q S T Y"><path d="M180.8 355.5v97.8m0 0h1.4"/><path d="M182.2 453.3v-97.8m0 0h-1.4"/></g><use xlink:href="#H" x="59.5" class="U Z"/><g class="O P Q S T Y"><path d="M240.3 355.5v97.8m0 0h1.4"/><path d="M241.7 453.3v-97.8m0 0h-1.4"/></g><path d="M299.8 355.5h1.5v97.8h-1.5v-97.8" class="U Z"/><g class="O P Q S T Y"><path d="M299.8 355.5v97.8m0 0h1.5"/><path d="M301.3 453.3v-97.8m0 0h-1.5"/></g><use xlink:href="#H" x="178.6" class="U Z"/><g class="O P Q S T Y"><path d="M359.4 355.5v97.8m0 0h1.4"/><path d="M360.8 453.3v-97.8m0 0h-1.4"/></g><use xlink:href="#H" x="238.1" class="U Z"/><g class="O P Q S T Y"><path d="M418.9 355.5v97.8m0 0h1.4"/><path d="M420.3 453.3v-97.8m0 0h-1.4"/></g><use xlink:href="#H" x="297.6" class="U Z"/><g class="O P Q S T Y"><path d="M478.4 355.5v97.8m0 0h1.4"/><path d="M479.8 453.3v-97.8m0 0h-1.4"/></g><path d="M206.3 351.4v4.1h-25.5v-4.1h25.5" class="U"/><g class="O P Q S T a"><path d="M206.3 351.4h-24.1m-1.4 0v4.1"/><path d="M180.8 355.5h25.5m0 0v-4.1"/></g><path d="M265.8 351.4v4.1h-31.1v-4.1h31.1" class="U"/><g class="O P Q S T a"><path d="M265.8 351.4h-31.1m0 0v4.1"/><path d="M234.7 355.5h31.1m0 0v-4.1"/></g><path d="M325.4 351.4v4.1h-31.2v-4.1h31.2" class="U"/><g class="O P Q S T a"><path d="M325.4 351.4h-31.2m0 0v4.1"/><path d="M294.2 355.5h31.2m0 0v-4.1"/></g><path d="M384.9 351.4v4.1h-31.2v-4.1h31.2" class="U"/><g class="O P Q S T a"><path d="M384.9 351.4h-31.2m0 0v4.1"/><path d="M353.7 355.5h31.2m0 0v-4.1"/></g><path d="M444.4 351.4v4.1h-31.2v-4.1h31.2" class="U"/><g class="O P Q S T a"><path d="M444.4 351.4h-31.2m0 0v4.1"/><path d="M413.2 355.5h31.2m0 0v-4.1"/></g><path d="M503.9 351.4v4.1h-31.1v-4.1h31.1" class="U"/><g class="O P Q S T a"><path d="M503.9 351.4h-31.1m0 0v4.1"/><path d="M472.8 355.5h31.1m0 0v-4.1"/></g><use xlink:href="#H" x="721.4" class="U Z"/><g class="O P Q S T Y"><path d="M902.2 355.5v97.8m0 0h1.4"/><path d="M903.6 453.3v-97.8m0 0h-1.4"/></g><use xlink:href="#H" x="661.9" class="U Z"/><g class="O P Q S T Y"><path d="M842.7 355.5v97.8m0 0h1.4"/><path d="M844.1 453.3v-97.8m0 0h-1.4"/></g><use xlink:href="#H" x="602.4" class="U Z"/><g class="O P Q S T Y"><path d="M783.2 355.5v97.8m0 0h1.4"/><path d="M784.6 453.3v-97.8m0 0h-1.4"/></g><use xlink:href="#H" x="542.8" class="U Z"/><g class="O P Q S T Y"><path d="M723.6 355.5v97.8m0 0h1.4"/><path d="M725 453.3v-97.8m0 0h-1.4"/></g><use xlink:href="#H" x="483.3" class="U Z"/><g class="O P Q S T Y"><path d="M664.1 355.5v97.8m0 0h1.4"/><path d="M665.5 453.3v-97.8m0 0h-1.4"/></g><use xlink:href="#H" x="423.8" class="U Z"/><g class="O P Q S T Y"><path d="M604.6 355.5v97.8m0 0h1.4"/><path d="M606 453.3v-97.8m0 0h-1.4"/></g><path d="M849.8 351.4v4.1h-31.2v-4.1h31.2" class="U"/><g class="O P Q S T a"><path d="M849.8 351.4h-31.2m0 0v4.1"/><path d="M818.6 355.5h31.2m0 0v-4.1"/></g><path d="M790.2 351.4v4.1h-31.1v-4.1h31.1" class="U"/><g class="O P Q S T a"><path d="M790.2 351.4h-31.1m0 0v4.1"/><path d="M759.1 355.5h31.1m0 0v-4.1"/></g><path d="M730.7 351.4v4.1h-31.2v-4.1h31.2" class="U"/><g class="O P Q S T a"><path d="M730.7 351.4h-31.2m0 0v4.1"/><path d="M699.5 355.5h31.2m0 0v-4.1"/></g><path d="M671.2 351.4v4.1H640v-4.1h31.2" class="U"/><g class="O P Q S T a"><path d="M671.2 351.4H640m0 0v4.1"/><path d="M640 355.5h31.2m0 0v-4.1"/></g><path d="M611.7 351.4v4.1h-31.2v-4.1h31.2" class="U"/><g class="O P Q S T a"><path d="M611.7 351.4h-31.2m0 0v4.1"/><path d="M580.5 355.5h31.2m0 0v-4.1"/></g><path d="M552.1 351.4v4.1h-19.8v-4.1h19.8" class="U"/><g class="O P Q S T a"><path d="M552.1 351.4h-19.8m0 0v4.1"/><path d="M532.3 355.5h19.8m0 0v-4.1"/></g><path d="M180.7 212.6h-1.5v-55.3h1.5v55.3" class="U Z"/><path d="M180.7 212.6v-55.3m0 0h-1.5m0 0v55.3" class="O P Q S T Y"/><path d="M233.1 212.6h-1.4v-55.3h1.4v55.3" class="U Z"/><path d="M233.1 212.6v-55.3m0 0h-1.4m0 0v55.3" class="O P Q S T Y"/><path d="M285.5 212.6h-1.4v-55.3h1.4v55.3" class="U Z"/><path d="M285.5 212.6v-55.3m0 0h-1.4m0 0v55.3" class="O P Q S T Y"/><path d="M179.2 255.1h1.5v55.3h-1.5v-55.3" class="U Z"/><g class="O P Q S T Y"><path d="M179.2 255.1v55.3m0 0h1.5"/><path d="M180.7 310.4v-55.3"/></g><path d="M231.7 255.1h1.4v55.3h-1.4v-55.3" class="U Z"/><g class="O P Q S T Y"><path d="M231.7 255.1v55.3m0 0h1.4"/><path d="M233.1 310.4v-55.3"/></g><path d="M284.1 255.1h1.4v55.3h-1.4v-55.3" class="U Z"/><g class="O P Q S T Y"><path d="M284.1 255.1v55.3m0 0h1.4"/><path d="M285.5 310.4v-55.3"/></g><g class="U Z"><path d="M341.8 212.6h6.9v1.4h-6.9v-1.4m49.5 0h7.1v1.4h-7.1v-1.4"/><path d="M440.9 212.6h53.3v1.4h-53.3v-1.4m-313 0h3.1v1.4h-3.1v-1.4"/><path d="M183.5 212.6v1.4h-7.1v-1.4h7.1m52.4 0v1.4h-7.1v-1.4h7.1m52.5 0v1.4h-7.1v-1.4h7.1m52 0v1.4h-6.7v-1.4h6.7"/></g><g class="O P Q S T"><g class="Y"><path d="M391.3 214v-1.4m-42.6 0v1.4m92.2 0v-1.4m-42.5 0v1.4m-110-1.4v1.4m45.3 0v-1.4m-97.8 0v1.4m45.4 0v-1.4"/><path d="M183.5 212.6v1.4m45.3 0v-1.4m-97.8 0v1.4m45.4 0v-1.4m-48.5 1.4h3.1m45.4 0h7.1m45.3 0h7.1m45.4 0h7.1m45.3 0h6.7m1.4 0h6.9m42.6 0h7.1m42.5 0h53.3m0 0v-1.4m0 0h-53.3m-42.5 0h-2.9m-1.4 0h-2.8"/><path d="M348.7 212.6h-6.9m-1.4 0h-6.7m-45.3 0h-2.9m-1.4 0h-2.8m-45.4 0h-2.8m-1.4 0h-2.9m-45.3 0h-2.8m-1.5 0h-2.8m-45.4 0h-3.1m0 0v1.4"/></g><path d="M391.3 212.6v-21.3M370 212.6c0-11.7 9.5-21.3 21.3-21.3" class="N"/><path d="M391.3 214v-1.4" class="Y"/><path d="M348.7 212.6v-21.3m0 0c11.7 0 21.3 9.5 21.3 21.3" class="N"/><path d="M348.7 212.6v1.4" class="Y"/><path d="M440.9 212.6v-21.3m-21.3 21.3c0-11.7 9.5-21.3 21.3-21.3" class="N"/><path d="M440.9 214v-1.4" class="Y"/><path d="M398.4 212.6v-21.3m0 0c11.7 0 21.3 9.5 21.3 21.3" class="N"/><path d="M398.4 212.6v1.4" class="Y"/><path d="M288.4 212.6v-22.7m0 0c12.5 0 22.7 10.2 22.7 22.7" class="N"/><path d="M288.4 212.6v1.4" class="Y"/><path d="M333.7 212.6v-22.7M311 212.6c0-12.5 10.2-22.7 22.7-22.7" class="N"/><path d="M333.7 214v-1.4" class="Y"/><path d="M235.9 212.6v-22.7m0 0c12.5 0 22.7 10.2 22.7 22.7" class="N"/><path d="M235.9 212.6v1.4" class="Y"/><path d="M281.3 212.6v-22.7m-22.7 22.7c0-12.5 10.2-22.7 22.7-22.7" class="N"/><path d="M281.3 214v-1.4" class="Y"/><path d="M183.5 212.6v-22.7m0 0c12.5 0 22.7 10.2 22.7 22.7" class="N"/><path d="M183.5 212.6v1.4" class="Y"/><path d="M228.8 212.6v-22.7m-22.6 22.7c0-12.5 10.2-22.7 22.7-22.7" class="N"/><path d="M228.8 214v-1.4" class="Y"/><path d="M131 212.6v-22.7m0 0c12.5 0 22.7 10.2 22.7 22.7" class="N"/><path d="M131 212.6v1.4" class="Y"/><path d="M176.4 212.6v-22.7m-22.7 22.7c0-12.5 10.2-22.7 22.7-22.7" class="N"/><path d="M176.4 214v-1.4" class="Y"/></g><path d="M395.5 212.6h-1.4v-55.3h1.4v55.3" class="U Z"/><path d="M395.5 212.6v-55.3m0 0h-1.4m0 0v55.3" class="O P Q S T Y"/><path d="M127.9 253.7h3.1v1.4h-3.1v-1.4m48.5 0h7.1v1.4h-7.1v-1.4m52.4 0h7.1v1.4h-7.1v-1.4m52.5 0h7.1v1.4h-7.1v-1.4m52.4 0h6.7v1.4h-6.7v-1.4m8.1 0h6.9v1.4h-6.9v-1.4m49.5 0h7.1v1.4h-7.1v-1.4m49.6 0h7.3v1.4h-7.3v-1.4m49.9 0h3.4v1.4h-3.4v-1.4" class="U Z"/><g class="O P Q S T"><g class="Y"><path d="M391.3 253.7v1.4m-42.6 0v-1.4m92.2 0v1.4m-42.5 0v-1.4m92.4 0v1.4m-42.6 0v-1.4m-114.5 0v1.4m-45.3 0v-1.4m-7.1 0v1.4m-45.4 0v-1.4m-7.1 0v1.4m-45.3 0v-1.4m-7.1 0v1.4m-45.4 0v-1.4m-3.1 1.4h3.1m45.4 0h2.8"/><path d="M180.7 255.1h2.8m45.3 0h2.9m1.4 0h2.8m45.4 0h2.8m1.4 0h2.9m45.3 0h6.7m1.4 0h6.9m42.6 0h2.8m1.4 0h2.9m42.5 0h3.1m1.4 0h2.8m42.6 0h3.4m0 0v-1.4m0 0h-3.4m-42.6 0h-7.3m-42.5 0h-7.1m-42.6 0h-6.9m-1.4 0h-6.7m-45.3 0h-7.1m-45.4 0h-7.1m-45.3 0h-7.1m-45.4 0h-3.1m0 0v1.4"/></g><g class="N"><path d="M391.3 255.1v21.3"/><path d="M391.3,276.4c-11.7,0-21.3-9.5-21.3-21.3"/></g><path d="M391.3 253.7v1.4" class="Y"/><g class="N"><path d="M348.7 255.1v21.3"/><path d="M370,255.1c0,11.7-9.5,21.3-21.3,21.3"/></g><path d="M348.7 255.1v-1.4" class="Y"/><g class="N"><path d="M440.9 255.1v21.3"/><path d="M440.9,276.4c-11.7,0-21.3-9.5-21.3-21.3"/></g><path d="M440.9 253.7v1.4" class="Y"/><g class="N"><path d="M398.4 255.1v21.3"/><path d="M419.6,255.1c0,11.7-9.5,21.3-21.3,21.3"/></g><path d="M398.4 255.1v-1.4" class="Y"/><g class="N"><path d="M490.8 255.1v21.3"/><path d="M490.8,276.4c-11.7,0-21.3-9.5-21.3-21.3"/></g><path d="M490.8 253.7v1.4" class="Y"/><g class="N"><path d="M448.2 255.1v21.3"/><path d="M469.5,255.1c0,11.7-9.5,21.3-21.3,21.3"/></g><path d="M448.2 255.1v-1.4" class="Y"/><g class="N"><path d="M333.7 255.1v22.7"/><path d="M333.7,277.8c-12.5,0-22.7-10.2-22.7-22.7"/></g><path d="M333.7 253.7v1.4" class="Y"/><g class="N"><path d="M288.4 255.1v22.7"/><path d="M311,255.1c0,12.5-10.2,22.7-22.7,22.7"/></g><path d="M288.4 255.1v-1.4" class="Y"/><g class="N"><path d="M281.3 255.1v22.7"/><path d="M281.3,277.8c-12.5,0-22.7-10.2-22.7-22.7"/></g><path d="M281.3 253.7v1.4" class="Y"/><g class="N"><path d="M235.9 255.1v22.7"/><path d="M258.6,255.1c0,12.5-10.2,22.7-22.7,22.7"/></g><path d="M235.9 255.1v-1.4" class="Y"/><g class="N"><path d="M228.8 255.1v22.7"/><path d="M228.8,277.8c-12.5,0-22.7-10.2-22.7-22.7"/></g><path d="M228.8 253.7v1.4" class="Y"/><g class="N"><path d="M183.5 255.1v22.7"/><path d="M206.2,255.1c0,12.5-10.2,22.7-22.7,22.7"/></g><path d="M183.5 255.1v-1.4" class="Y"/><g class="N"><path d="M176.4 255.1v22.7"/><path d="M176.4,277.8c-12.5,0-22.7-10.2-22.7-22.7"/></g><path d="M176.4 253.7v1.4" class="Y"/><g class="N"><path d="M131 255.1v22.7"/><path d="M153.7,255.1c0,12.5-10.2,22.7-22.7,22.7"/></g><path d="M131 255.1v-1.4" class="Y"/></g><path d="M394.1 255.1h1.4v55.3h-1.4v-55.3" class="U Z"/><g class="O P Q S T Y"><path d="M394.1 255.1v55.3m0 0h1.4"/><path d="M395.5 310.4v-55.3"/></g><path d="M444 255.1h1.4v55.3H444v-55.3" class="U Z"/><g class="O P Q S T Y"><path d="M444 255.1v55.3m0 0h1.4"/><path d="M445.4 310.4v-55.3"/></g><path d="M618.6 260.8v-1.4h120.5v1.4H618.6" class="U"/><g class="O P Q S T Y"><path d="M618.6 260.8h120.5m0 0v-1.4"/><path d="M739.1 259.4H618.6"/></g><path d="M618.6 208.3v-1.4h120.5v1.4H618.6" class="U"/><g class="O P Q S T Y"><path d="M618.6 208.3h120.5m0 0v-1.4"/><path d="M739.1 206.9H618.6"/></g><path d="M865.1 310.4H861V157.3h4.1v153.1" class="U"/><path d="M865.1 310.4V157.3m0 0H861m0 0v153.1" class="O P Q S T a"/><path d="M340.4 253.7h1.4V265h-1.4v-11.3" class="U Z"/><g class="O P Q S T Y"><path d="M340.4 255.1v9.9m0 0h1.4"/><path d="M341.8 265v-9.9m0-1.4h-1.4"/></g><path d="M341.8 214h-1.4v-11.3h1.4V214" class="U Z"/><g class="O P Q S T Y"><path d="M341.8 212.6v-9.9m0 0h-1.4"/><path d="M340.4 202.7v9.9m0 1.4h1.4"/></g><g class="U"><path d="M562.2 172.5h4.1v4.1l-4.1-4.1"/><path d="M566.3 172.5h-4.1v-15.2h4.1v15.2"/></g><path d="M562.2 157.3v15.2m4.1 4.1v-19.3m0 0h-4.1" class="O P Q S T a"/><g class="U"><path d="M562.2 172.5v4.1h-15.7v-4.1h15.7"/><path d="M562.2 176.6v-4.1l4.1 4.1h-4.1"/></g><path d="M562.2 172.5h-15.7m0 4.1v-4.1m19.8 4.1h-4.1m-15.7 0h15.7" class="O P Q S T a"/><g class="U"><path d="M954.2 471.7h2.3v2.3l-2.3-2.3"/><path d="M993.3 471.7v2.3h-36.8v-2.3h36.8"/><path d="M993.3 471.7h2.3l-2.3 2.3v-2.3"/></g><path d="M956.5 474h36.8m2.3-2.3h-41.4" class="O P Q S T b"/><g class="U"><path d="M993.3 474l2.3-2.3v2.3h-2.3"/><path d="M993.3 474h2.3v4.2h-2.3V474"/></g><g class="O P Q S T b"><path d="M993.3 474v4.2m0 0h2.3"/><path d="M995.6 471.7v2.3m0 4.2V474"/></g><g class="U"><path d="M993.3 527.8l2.3 2.3h-2.3v-2.3"/><path d="M956.5 530.1v-2.3h36.8v2.3h-36.8"/><path d="M956.5 527.8v2.3h-2.3l2.3-2.3"/></g><path d="M993.3 527.8h-36.8m-2.3 2.3h41.4" class="O P Q S T b"/><g class="U"><path d="M995.6 527.8h-2.3v-15.6h2.3v15.6"/><path d="M995.6 527.8v2.3l-2.3-2.3h2.3"/></g><path d="M993.3 512.2v15.6m2.3 2.3v-2.3m0 0v-15.6m-2.3 0h2.3" class="O P Q S T b"/><g class="U"><path d="M956.5 527.8l-2.3 2.3v-2.3h2.3"/><path d="M954.2 474h2.3v53.8h-2.3V474"/><path d="M954.2 474v-2.3l2.3 2.3h-2.3"/></g><g class="O P Q S T"><path d="M956.5 527.8V474m-2.3-2.3v2.3m0 56.1v-2.3m0-53.8v53.8" class="b"/><g class="Y"><path d="M1021.7 512.2h28.3m-28.3-2.8h28.3m-28.3-28.4h28.3m-28.3-2.8h28.3"/><path d="M1050 512.2v-2.8m0-28.4v-2.8m-56.7 2.8v-2.8m0 34v-2.8"/><path d="M993.3 512.2h28.4m-28.4-2.8h28.4M993.3 481h28.4m-28.4-2.8h28.4"/><path d="M1021.7 512.2v-2.8m0-28.4v-2.8"/></g><path d="M1021.7 509.4v-2.9m-28.4 2.9v-2.9m28.4-22.6V481m-28.4 2.9V481" class="N"/><g class="Y"><path d="M1050 481v-2.8m0 34v-2.8"/><path d="M1050 512.2h28.4m-28.4-2.8h28.4M1050 481h28.4m-28.4-2.8h28.4"/><path d="M1078.4 512.2v-2.8m0-28.4v-2.8"/></g><path d="M1050 509.4v-2.9m0-22.6V481" class="N"/><g class="Y"><path d="M1078.4 481v-2.8m0 34v-2.8"/><path d="M1078.4 512.2h15.9m-15.9-2.8h15.9m-15.9-28.4h15.9m-15.9-2.8h15.9"/></g><path d="M1078.4 509.4v-2.9m0-22.6V481" class="N"/></g><g class="U"><path d="M967.5 460.3v4l-3.9-4h3.9"/><path d="M963.6 149.3l.4-.5h3.5v311.5h-3.9v-311"/><path d="M964 148.8l3.5-3.9v3.9H964m-7.5 304.5h7.1v7l-7.1-7"/><path d="M956.5 157.3h7.1v296h-7.1v-296"/><path d="M963.6 149.3v8h-7.1l7.1-8"/></g><g class="O P Q S T"><path d="M967.5 464.3v-4m0-315.4v3.9m0 311.5V148.8" class="b"/><path d="M956.5 157.3v296" class="a"/></g><path d="M336.8 157.3h8.5v45.4h-8.5v-45.4" class="U"/><g class="O P Q S T a"><path d="M336.8 157.3v45.4m0 0h8.5"/><path d="M345.3 202.7v-45.4"/></g><path d="M739.1 157.3h8.5v153.1h-8.5V157.3" class="U"/><g class="O P Q S T a"><path d="M739.1 157.3v153.1m0 0h8.5"/><path d="M747.6 310.4V157.3"/></g><g class="U"><path d="M404.9 49.4v.5h-4v-4l4 3.5"/><path d="M404.9 144.9h-4v-95h4v95"/><path d="M404.9 144.9v3.9l-4-3.9h4m.5-95h-.5v-.5l.5.5"/><path d="M404.9 49.9h.5l8 7.1h-8.5v-7.1"/><path d="M413.4 148.8h-8.5V57h8.5v91.8"/><path d="M413.4 148.8v8.5l-8.5-8.5h8.5"/></g><g class="O P Q S T"><path d="M413.4 148.8V57" class="a"/><path d="M400.9 45.9v4m0 0v95" class="b"/></g><g class="U"><path d="M680.4 144.9l-4 3.9v-3.9h4"/><path d="M676.4 49.9h4v95h-4v-95"/><path d="M676.4 49.4l4-3.5v4h-4v-.5m0 99.4l-8.5 8.5v-8.5h8.5"/><path d="M667.9 57h8.5v91.8h-8.5V57"/><path d="M667.9 57l8-7.1h.5V57h-8.5"/><path d="M676.4 49.9h-.5l.5-.5v.5"/></g><g class="O P Q S T"><path d="M680.4 45.9v4m0 95v-95" class="b"/><path d="M667.9 57v45.3m0 5.7v40.8" class="a"/></g><g class="U"><path d="M621.2 108v-5.7h46.7v5.7h-46.7"/><path d="M621.2 102.3v5.7h-4.3l4.3-5.7"/></g><path d="M616.9 108h51m0-5.7h-46.7" class="O P Q S T a"/><path d="M336.8 265h8.5v45.4h-8.5V265" class="U"/><g class="O P Q S T a"><path d="M336.8 265v45.4m0 0h8.5"/><path d="M345.3 310.4V265m0 0h-8.5"/></g><use xlink:href="#I" class="U Z"/><g class="O P Q S T"><path d="M150.9 160.2v16.4m-17 0v-16.4" class="R"/><path d="M150.9 162.1h-3m-1.4 0h-3.4m-1.4 0h-3.4m-1.4 0h-3" class="N"/><path d="M133.9 160.2h17" class="R"/><path d="M137.8 177.2l-.5-.6m10.2 0l-.6.6" class="N"/><path d="M150.9 176.6h-17" class="R"/><path d="M146.9 177.2h-9.1" class="N"/></g><use xlink:href="#I" x="22.7" class="U Z"/><g class="O P Q S T"><path d="M173.6 160.2v16.4m-17 0v-16.4" class="R"/><path d="M173.6 162.1h-3m-1.4 0h-3.4m-1.4 0H161m-1.5 0h-2.9" class="N"/><path d="M156.6 160.2h17" class="R"/><path d="M160.5 177.2l-.5-.6m10.2 0l-.6.6" class="N"/><path d="M173.6 176.6h-17" class="R"/><path d="M169.6 177.2h-9.1" class="N"/></g><path d="M186.3 160.2v16.4h3.4l.6.6h9.1l.5-.6h3.4v-16.4h-17" class="U Z"/><g class="O P Q S T"><path d="M203.3 160.2v16.4m-17 0v-16.4" class="R"/><path d="M203.3 162.1h-2.9m-1.5 0h-3.4m-1.4 0h-3.4m-1.4 0h-3" class="N"/><path d="M186.3 160.2h17" class="R"/><path d="M190.3 177.2l-.6-.6m10.2 0l-.5.6" class="N"/><path d="M203.3 176.6h-17" class="R"/><path d="M199.4 177.2h-9.1" class="N"/></g><path d="M209 160.2v16.4h3.4l.6.6h9l.6-.6h3.4v-16.4h-17" class="U Z"/><g class="O P Q S T"><path d="M226 160.2v16.4m-17 0v-16.4" class="R"/><path d="M226 162.1h-3m-1.4 0h-3.4m-1.4 0h-3.4m-1.4 0h-3" class="N"/><path d="M209 160.2h17" class="R"/><path d="M213 177.2l-.6-.6m10.2 0l-.6.6" class="N"/><path d="M226 176.6h-17" class="R"/><path d="M222 177.2h-9" class="N"/></g><use xlink:href="#I" x="104.9" class="U Z"/><g class="O P Q S T"><path d="M255.8 160.2v16.4m-17 0v-16.4" class="R"/><path d="M255.8 162.1h-3m-1.4 0H248m-1.4 0h-3.4m-1.5 0h-2.9" class="N"/><path d="M238.8 160.2h17" class="R"/><path d="M242.7 177.2l-.5-.6m10.2 0l-.6.6" class="N"/><path d="M255.8 176.6h-17" class="R"/><path d="M251.8 177.2h-9.1" class="N"/></g><path d="M261.4 160.2v16.4h3.4l.6.6h9.1l.5-.6h3.4v-16.4h-17" class="U Z"/><g class="O P Q S T"><path d="M278.4 160.2v16.4m-17 0v-16.4" class="R"/><path d="M278.4 162.1h-2.9m-1.4 0h-3.4m-1.5 0h-3.4m-1.4 0h-3" class="N"/><path d="M261.4 160.2h17" class="R"/><path d="M265.4 177.2l-.6-.6m10.2 0l-.5.6" class="N"/><path d="M278.4 176.6h-17" class="R"/><path d="M274.5 177.2h-9.1" class="N"/></g><path d="M291.2 160.2v16.4h3.4l.6.6h9l.6-.6h3.4v-16.4h-17" class="U Z"/><g class="O P Q S T"><path d="M308.2 160.2v16.4m-17 0v-16.4" class="R"/><path d="M308.2 162.1h-3m-1.4 0h-3.4m-1.4 0h-3.4m-1.4 0h-3" class="N"/><path d="M291.2 160.2h17" class="R"/><path d="M295.2 177.2l-.6-.6m10.2 0l-.6.6" class="N"/><path d="M308.2 176.6h-17" class="R"/><path d="M304.2 177.2h-9" class="N"/></g><use xlink:href="#I" x="180" class="U Z"/><g class="O P Q S T"><path d="M330.9 160.2v16.4m-17 0v-16.4" class="R"/><path d="M330.9 162.1h-3m-1.4 0h-3.4m-1.4 0h-3.4m-1.4 0h-3" class="N"/><path d="M313.9 160.2h17" class="R"/><path d="M317.8 177.2l-.5-.6m10.2 0l-.6.6" class="N"/><path d="M330.9 176.6h-17" class="R"/><path d="M326.9 177.2h-9.1" class="N"/></g><use xlink:href="#J" class="U Z"/><g class="O P Q S T"><path d="M150.9 307.6v-16.5m-17 0v16.5" class="R"/><path d="M150.9 305.6h-3m-1.4 0h-3.4m-1.4 0h-3.4m-1.4 0h-3" class="N"/><path d="M133.9 307.6h17" class="R"/><path d="M137.8 290.6l-.5.5m10.2 0l-.6-.5" class="N"/><path d="M150.9 291.1h-17" class="R"/><path d="M146.9 290.6h-9.1" class="N"/></g><use xlink:href="#J" x="22.7" class="U Z"/><g class="O P Q S T"><path d="M173.6 307.6v-16.5m-17 0v16.5" class="R"/><path d="M173.6 305.6h-3m-1.4 0h-3.4m-1.4 0H161m-1.5 0h-2.9" class="N"/><path d="M156.6 307.6h17" class="R"/><path d="M160.5 290.6l-.5.5m10.2 0l-.6-.5" class="N"/><path d="M173.6 291.1h-17" class="R"/><path d="M169.6 290.6h-9.1" class="N"/></g><path d="M186.3 307.6h17v-16.5h-3.4l-.5-.5h-9.1l-.6.5h-3.4v16.5" class="U Z"/><g class="O P Q S T"><path d="M203.3 307.6v-16.5m-17 0v16.5" class="R"/><path d="M203.3 305.6h-2.9m-1.5 0h-3.4m-1.4 0h-3.4m-1.4 0h-3" class="N"/><path d="M186.3 307.6h17" class="R"/><path d="M190.3 290.6l-.6.5m10.2 0l-.5-.5" class="N"/><path d="M203.3 291.1h-17" class="R"/><path d="M199.4 290.6h-9.1" class="N"/></g><path d="M209 307.6h17v-16.5h-3.4l-.6-.5h-9l-.6.5H209v16.5" class="U Z"/><g class="O P Q S T"><path d="M226 307.6v-16.5m-17 0v16.5" class="R"/><path d="M226 305.6h-3m-1.4 0h-3.4m-1.4 0h-3.4m-1.4 0h-3" class="N"/><path d="M209 307.6h17" class="R"/><path d="M213 290.6l-.6.5m10.2 0l-.6-.5" class="N"/><path d="M226 291.1h-17" class="R"/><path d="M222 290.6h-9" class="N"/></g><use xlink:href="#J" x="104.9" class="U Z"/><g class="O P Q S T"><path d="M255.8 307.6v-16.5m-17 0v16.5" class="R"/><path d="M255.8 305.6h-3m-1.4 0H248m-1.4 0h-3.4m-1.5 0h-2.9" class="N"/><path d="M238.8 307.6h17" class="R"/><path d="M242.7 290.6l-.5.5m10.2 0l-.6-.5" class="N"/><path d="M255.8 291.1h-17" class="R"/><path d="M251.8 290.6h-9.1" class="N"/></g><path d="M261.4 307.6h17v-16.5H275l-.5-.5h-9.1l-.6.5h-3.4v16.5" class="U Z"/><g class="O P Q S T"><path d="M278.4 307.6v-16.5m-17 0v16.5" class="R"/><path d="M278.4 305.6h-2.9m-1.4 0h-3.4m-1.5 0h-3.4m-1.4 0h-3" class="N"/><path d="M261.4 307.6h17" class="R"/><path d="M265.4 290.6l-.6.5m10.2 0l-.5-.5" class="N"/><path d="M278.4 291.1h-17" class="R"/><path d="M274.5 290.6h-9.1" class="N"/></g><path d="M291.2 307.6h17v-16.5h-3.4l-.6-.5h-9l-.6.5h-3.4v16.5" class="U Z"/><g class="O P Q S T"><path d="M308.2 307.6v-16.5m-17 0v16.5" class="R"/><path d="M308.2 305.6h-3m-1.4 0h-3.4m-1.4 0h-3.4m-1.4 0h-3" class="N"/><path d="M291.2 307.6h17" class="R"/><path d="M295.2 290.6l-.6.5m10.2 0l-.6-.5" class="N"/><path d="M308.2 291.1h-17" class="R"/><path d="M304.2 290.6h-9" class="N"/></g><use xlink:href="#J" x="180" class="U Z"/><g class="O P Q S T"><path d="M330.9 307.6v-16.5m-17 0v16.5" class="R"/><path d="M330.9 305.6h-3m-1.4 0h-3.4m-1.4 0h-3.4m-1.4 0h-3" class="N"/><path d="M313.9 307.6h17" class="R"/><path d="M317.8 290.6l-.5.5m10.2 0l-.6-.5" class="N"/><path d="M330.9 291.1h-17" class="R"/><path d="M326.9 290.6h-9.1" class="N"/></g><use xlink:href="#I" x="216.3" class="U Z"/><g class="O P Q S T"><path d="M367.2 160.2v16.4m-17 0v-16.4" class="R"/><path d="M367.2 162.1h-3m-1.4 0h-3.4m-1.4 0h-3.4m-1.5 0h-2.9" class="N"/><path d="M350.2 160.2h17" class="R"/><path d="M354.1 177.2l-.5-.6m10.2 0l-.6.6" class="N"/><path d="M367.2 176.6h-17" class="R"/><path d="M363.2 177.2h-9.1" class="N"/></g><path d="M372.8 160.2v16.4h3.4l.6.6h9.1l.5-.6h3.4v-16.4h-17" class="U Z"/><g class="O P Q S T"><path d="M389.8 160.2v16.4m-17 0v-16.4" class="R"/><path d="M389.8 162.1h-2.9m-1.4 0h-3.4m-1.5 0h-3.4m-1.4 0h-3" class="N"/><path d="M372.8 160.2h17" class="R"/><path d="M376.8 177.2l-.6-.6m10.2 0l-.5.6" class="N"/><path d="M389.8 176.6h-17" class="R"/><path d="M385.9 177.2h-9.1" class="N"/></g><use xlink:href="#J" x="216.3" class="U Z"/><g class="O P Q S T"><path d="M367.2 307.6v-16.5m-17 0v16.5" class="R"/><path d="M367.2 305.6h-3m-1.4 0h-3.4m-1.4 0h-3.4m-1.5 0h-2.9" class="N"/><path d="M350.2 307.6h17" class="R"/><path d="M354.1 290.6l-.5.5m10.2 0l-.6-.5" class="N"/><path d="M367.2 291.1h-17" class="R"/><path d="M363.2 290.6h-9.1" class="N"/></g><path d="M372.8 307.6h17v-16.5h-3.4l-.5-.5h-9.1l-.6.5h-3.4v16.5" class="U Z"/><g class="O P Q S T"><path d="M389.8 307.6v-16.5m-17 0v16.5" class="R"/><path d="M389.8 305.6h-2.9m-1.4 0h-3.4m-1.5 0h-3.4m-1.4 0h-3" class="N"/><path d="M372.8 307.6h17" class="R"/><path d="M376.8 290.6l-.6.5m10.2 0l-.5-.5" class="N"/><path d="M389.8 291.1h-17" class="R"/><path d="M385.9 290.6h-9.1" class="N"/></g><use xlink:href="#I" x="265.9" class="U Z"/><g class="O P Q S T"><path d="M416.8 160.2v16.4m-17 0v-16.4" class="R"/><path d="M416.8 162.1h-3m-1.4 0H409m-1.4 0h-3.4m-1.5 0h-2.9" class="N"/><path d="M399.8 160.2h17" class="R"/><path d="M403.7 177.2l-.5-.6m10.2 0l-.6.6" class="N"/><path d="M416.8 176.6h-17" class="R"/><path d="M412.8 177.2h-9.1" class="N"/></g><path d="M422.4 160.2v16.4h3.4l.6.6h9.1l.6-.6h3.4v-16.4h-17.1" class="U Z"/><g class="O P Q S T"><path d="M439.5 160.2v16.4m-17.1 0v-16.4" class="R"/><path d="M439.5 162.1h-3m-1.4 0h-3.4m-1.5 0h-3.4m-1.4 0h-3" class="N"/><path d="M422.4 160.2h17.1" class="R"/><path d="M426.4 177.2l-.6-.6m10.3 0l-.6.6" class="N"/><path d="M439.5 176.6h-17.1" class="R"/><path d="M435.5 177.2h-9.1" class="N"/></g><use xlink:href="#J" x="265.9" class="U Z"/><g class="O P Q S T"><path d="M416.8 307.6v-16.5m-17 0v16.5" class="R"/><path d="M416.8 305.6h-3m-1.4 0H409m-1.4 0h-3.4m-1.5 0h-2.9" class="N"/><path d="M399.8 307.6h17" class="R"/><path d="M403.7 290.6l-.5.5m10.2 0l-.6-.5" class="N"/><path d="M416.8 291.1h-17" class="R"/><path d="M412.8 290.6h-9.1" class="N"/></g><path d="M422.4 307.6h17.1v-16.5h-3.4l-.6-.5h-9.1l-.6.5h-3.4v16.5" class="U Z"/><g class="O P Q S T"><path d="M439.5 307.6v-16.5m-17.1 0v16.5" class="R"/><path d="M439.5 305.6h-3m-1.4 0h-3.4m-1.5 0h-3.4m-1.4 0h-3" class="N"/><path d="M422.4 307.6h17.1" class="R"/><path d="M426.4 290.6l-.6.5m10.3 0l-.6-.5" class="N"/><path d="M439.5 291.1h-17.1" class="R"/><path d="M435.5 290.6h-9.1" class="N"/></g><use xlink:href="#J" x="315.8" class="U Z"/><g class="O P Q S T"><path d="M466.7 307.6v-16.5m-17 0v16.5" class="R"/><path d="M466.7 305.6h-3m-1.4 0h-3.4m-1.4 0h-3.4m-1.5 0h-2.9" class="N"/><path d="M449.7 307.6h17" class="R"/><path d="M453.6 290.6l-.5.5m10.2 0l-.6-.5" class="N"/><path d="M466.7 291.1h-17" class="R"/><path d="M462.7 290.6h-9.1" class="N"/></g><path d="M472.3 307.6h17v-16.5h-3.4l-.5-.5h-9.1l-.6.5h-3.4v16.5" class="U Z"/><g class="O P Q S T"><path d="M489.3 307.6v-16.5m-17 0v16.5" class="R"/><path d="M489.3 305.6h-2.9m-1.4 0h-3.5m-1.4 0h-3.4m-1.4 0h-3" class="N"/><path d="M472.3 307.6h17" class="R"/><path d="M476.3 290.6l-.6.5m10.2 0l-.5-.5" class="N"/><path d="M489.3 291.1h-17" class="R"/><path d="M485.4 290.6h-9.1" class="N"/></g><path d="M559.8 254.6h-13.3v20.9h13.3l1-.4.4-1V256l-.4-1-1-.4" class="U Z"/><g class="O P Q S T"><g class="R"><path d="M561.2 256v9m0 0v9.1m-1.4 1.4h-13.3m0 0v-20.9"/><path d="M546.5 254.6h13.3m-9.5 1.5h8.7m.7.6v16.7m-.7.6h-8.7m-1.1-1.1V267m0-3.9v-5.9"/></g><path d="M547.2 275.5v-1.1m-.2-.1v-18.5m.2-.1v-1.1m3.1 10.4c0-.5-.4-1-1-1a.94.94 0 0 0-1 1c0 .5.4 1 1 1a.94.94 0 0 0 1-1" class="N"/><g class="R"><path d="M559.8 254.6c.8 0 1.4.6 1.4 1.4m0 18.1c0 .8-.6 1.4-1.4 1.4m-.8-19.4a.65.65 0 0 1 .6.6m.1 16.7a.65.65 0 0 1-.6.6m-8.8 0a1.11 1.11 0 0 1-1.1-1.1m-.3-6.2c.1 0 .2.1.2.3m-.2-.3c-.8-.2-1.3-.9-1.3-1.7s.6-1.5 1.3-1.7m.3-.2c0 .1-.1.2-.2.3"/><path d="M549.2,257.2c0-0.6,0.5-1.1,1.1-1.1"/></g><g class="N"><path d="M547.2 274.4c-.1 0-.1-.1-.1-.1m-.1-18.5c0-.1.1-.1.1-.1m28.7-181.1h-79.1m-47.9 0l2.8-5.7"/><path d="M451.6 80.2l-2.8-5.6m2.8-5.7v11.3"/><path d="M495.6 74.6h-46.8"/></g><path d="M616.9 57v2.7m0 1.4v3.4m0 1.4v3.4m0 1.4v3.4m0 1.4v3.4m0 1.5v3.4m0 1.4v3.4m0 1.4v3.4m0 1.4v3.4m0 1.4v2.7" class="R"/><path d="M577.2 74.6c0-.8-.6-1.4-1.4-1.4s-1.4.6-1.4 1.4.6 1.4 1.4 1.4 1.4-.7 1.4-1.4" class="N"/></g><g class="U"><path d="M986.3 520.7l7 7.1h-7v-7.1"/><path d="M963.6 527.8v-7.1h22.7v7.1h-22.7"/><path d="M963.6 520.7v7.1h-7.1l7.1-7.1"/></g><path d="M956.5 527.8h36.8m-7-7.1h-22.7" class="O P Q S T a"/><g class="U"><path d="M986.3 481l7-7v7h-7"/><path d="M993.3 481v5.7h-7V481h7m-7 39.7v-17h7v17h-7"/><path d="M993.3 520.7v7.1l-7-7.1h7"/></g><g class="O P Q S T"><path d="M993.3 503.7h-7m7-17h-7m7 41.1v-7.1m0 0v-17m0-17V474m-7 7v5.7m0 17v17" class="a"/><path d="M993.3 486.7v17m-7-17v17" class="R"/></g><g class="U"><path d="M956.5 474h7.1v7l-7.1-7"/><path d="M986.3 474v7h-22.7v-7h22.7"/><path d="M986.3 474h7l-7 7v-7"/></g><path d="M993.3 474h-7m0 0h-29.8m7.1 7h22.7" class="O P Q S T a"/><g class="U"><path d="M963.6 520.7l-7.1 7.1v-7.1h7.1"/><path d="M956.5 481h7.1v39.7h-7.1V481"/><path d="M956.5 481v-7l7.1 7h-7.1"/></g><g class="O P Q S T"><path d="M956.5 474v7m0 46.8v-7.1m0-39.7v39.7m7.1 0V481" class="a"/><g class="R"><path d="M113.5 42.5h1.5m1.4 0h3.4m1.5 0h3.4m1.4 0h3.4m1.4 0h3.4m1.4 0h3.4m1.4 0h3.4m1.5 0h3.4m1.4 0h3.4m1.4 0h3.4m1.4 0h3.4m1.4 0h3.4m1.5 0h3.4m1.4 0h3.4m1.4 0h3.4m1.4 0h3.4m1.4 0h3.4m1.4 0h3.5m1.4 0h3.4m1.4 0h3.4m1.4 0h3.4m1.4 0h3.4m1.4 0h3.4m1.5 0h3.4m1.4 0h3.4m1.4 0h3.4m1.4 0h3.4m1.4 0h3.4m1.5 0h3.4m1.4 0h3.4m1.4 0h3.4m1.4 0h3.4m1.4 0h3.4m1.5 0h3.4m1.4 0h3.4m1.4 0h3.4m1.4 0h3.4m1.4 0h3.4m1.4 0h3.4m1.5 0h3.4m1.4 0h3.4m1.4 0h3.4m1.4 0h3.4m1.4 0h3.4m1.5 0h3.4m1.4 0h3.4m1.4 0h3.4m1.4 0h3.4m1.4 0h3.4m1.5 0h3.4m1.4 0h3.4m1.4 0h3.4m1.4 0h3.4m1.4 0h3.4m1.4 0h3.4m1.5 0h3.4m1.4 0h3.4m1.4 0h3.4m1.4 0h3.4m1.4 0h3.4m1.5 0h3.4m1.4 0h3.4m1.4 0h3.4m1.4 0h3.4m1.4 0h3.4m1.5 0h3.4m1.4 0h3.4m1.4 0h3.4m1.4 0h3.4m1.4 0h3.4m1.5 0h3.4m1.4 0h3.4m1.4 0h3.4m1.4 0h3.4m1.4 0h3.4m1.4 0h3.4m1.5 0h3.4m1.4 0h3.4m1.4 0h3.4m1.4 0h3.4m1.4 0h3.4m1.5 0h3.4m1.4 0h3.4m1.4 0h3.4m1.4 0h3.4m1.4 0h3.4m1.5 0h3.4m1.4 0h3.4m1.4 0h3.4m1.4 0h3.4m1.4 0h3.4m1.4 0h3.4m1.5 0h3.4m1.4 0h3.4m1.4 0h3.4m1.4 0h3.4m1.4 0h3.4m1.5 0h3.4m1.4 0h3.4m1.4 0h3.4m1.4 0h3.4m1.4 0h3.4m1.5 0h3.4m1.4 0h3.4m1.4 0h3.4m1.4 0h3.4m1.4 0h3.4m1.5 0h3.4m1.4 0h3.4m1.4 0h3.4m1.4 0h3.4m1.4 0h3.4m1.4 0h3.4m1.5 0h3.4m1.4 0h3.4m1.4 0h3.4m1.4 0h3.4m1.4 0h3.4m1.5 0h3.4m1.4 0h3.4m1.4 0h3.4m1.4 0h3.4m1.4 0h3.4m1.5 0h3.4m1.4 0h3.4m1.4 0h3.4m1.4 0h3.4m1.4 0h3.4m1.4 0h3.4m1.5 0h3.4m1.4 0h3.4m1.4 0h3.4m1.4 0h3.4m1.4 0h3.4m1.5 0h3.4m1.4 0h3.4m1.4 0h3.4m1.4 0h3.4m1.4 0h3.4m1.5 0h3.4m1.4 0h3.4m1.4 0h3.4m1.4 0h3.4m1.4 0h3.4m1.4 0h3.5m1.4 0h3.4m1.4 0h3.4m1.4 0h3.4m1.4 0h3.4m1.4 0h3.4m1.5 0h3.4m1.4 0h3.4m1.4 0h3.4m1.4 0h3.4m1.4 0h3.4m1.5 0h3.4m1.4 0h3.4m1.4 0h3.4m1.4 0h3.4m1.4 0h3.4m1.5 0h3.4m1.4 0h3.4m1.4 0h3.4m1.4 0h3.4m1.4 0h3.4m1.4 0h3.4m1.5 0h3.4m1.4 0h3.4m1.4 0h3.4m1.4 0h3.4m1.4 0h3.4m1.5 0h3.4m1.4 0h3.4m1.4 0h3.4m1.4 0h3.4m1.4 0h3.4m1.5 0h3.4m1.4 0h3.4m1.4 0h1.6m0 0v2.3m0 1.4v3.4m0 1.4v3.4m0 1.4v3.4m0 1.5v3.4m0 1.4v3.4m0 1.4v3.4m0 1.4v3.4m0 1.4v3.4m0 1.5v3.4m0 1.4V93m0 1.4v3.4m0 1.4v3.4m0 1.4v3.4m0 1.5v3.4m0 1.4v3.4m0 1.4v3.4m0 1.4v3.4m0 1.4v3.4m0 1.4v3.4m0 1.5v3.4m0 1.4v3.4m0 1.4v3.4m0 1.4v3.4m0 1.4v3.4m0 1.5v3.4m0 1.4v3.4m0 1.4v3.4m0 1.4v3.4m0 1.4v3.4m0 1.5v3.4m0 1.4v3.4m0 1.4v3.4m0 1.4v3.4m0 1.4v3.4m0 1.4v3.4m0 1.5v3.4m0 1.4v3.4m0 1.4v3.4m0 1.4v3.4m0 1.4v3.4m0 1.5v3.4m0 1.4v3.4m0 1.4v3.4m0 1.4v3.4m0 1.4v3.4m0 1.5v3.4m0 1.4v3.4m0 1.4v3.4m0 1.4v3.4m0 1.4v3.4m0 1.4v3.5m0 1.4v3.4m0 1.4v3.4m0 1.4v3.4m0 1.4v3.4m0 1.4v3.4m0 1.5v3.4m0 1.4v3.4m0 1.4v3.4m0 1.4v3.4m0 1.4v3.4m0 1.5v3.4m0 1.4v3.4m0 1.4v3.4m0 1.4v3.4m0 1.4v3.4m0 1.5v3.4m0 1.4v3.4m0 1.4v3.4m0 1.4v3.4m0 1.4v3.4m0 1.4v3.4m0 1.5v3.4m0 1.4v3.4m0 1.4v3.4m0 1.4v3.4m0 1.4v3.4m0 1.5v3.4m0 1.4v3.4m0 1.4v3.4m0 1.4v3.4m0 1.4v3.4m0 1.5v3.4m0 1.4v3.4m0 1.4v3.4m0 1.4v3.4m0 1.4v3.4m0 1.4v2.3m0 0h-1.6m-1.4 0h-3.4m-1.4 0h-3.4m-1.5 0h-3.4m-1.4 0h-3.4m-1.4 0h-3.4m-1.4 0h-3.4m-1.4 0h-3.4m-1.5 0h-3.4m-1.4 0H926m-1.4 0h-3.4m-1.4 0h-3.4m-1.4 0h-3.4m-1.5 0h-3.4m-1.4 0h-3.4m-1.4 0h-3.4m-1.4 0h-3.4m-1.4 0h-3.4m-1.4 0h-3.4m-1.5 0h-3.4m-1.4 0H873m-1.4 0h-3.4m-1.4 0h-3.4m-1.4 0h-3.4m-1.5 0h-3.4m-1.4 0h-3.4m-1.4 0h-3.4m-1.4 0h-3.4m-1.4 0h-3.4m-1.5 0h-3.4m-1.4 0h-3.4m-1.4 0H820m-1.4 0h-3.4m-1.4 0h-3.4m-1.4 0h-3.5m-1.4 0h-3.4m-1.4 0h-3.4m-1.4 0h-3.4m-1.4 0h-3.4m-1.4 0h-3.4m-1.5 0h-3.4m-1.4 0h-3.4m-1.4 0H767m-1.4 0h-3.4m-1.4 0h-3.4m-1.5 0h-3.4m-1.4 0h-3.4m-1.4 0h-3.4m-1.4 0h-3.4m-1.4 0h-3.4m-1.5 0h-3.4m-1.4 0h-3.4m-1.4 0h-3.4m-1.4 0H714m-1.4 0h-3.4m-1.4 0h-3.4m-1.5 0h-3.4m-1.4 0h-3.4m-1.4 0h-3.4m-1.4 0h-3.4m-1.4 0h-3.4m-1.5 0h-3.4m-1.4 0h-3.4m-1.4 0h-3.4m-1.4 0H661m-1.4 0h-3.4m-1.5 0h-3.4m-1.4 0h-3.4m-1.4 0h-3.4m-1.4 0h-3.4m-1.4 0h-3.4m-1.4 0h-3.4m-1.5 0h-3.4m-1.4 0h-3.4m-1.4 0h-3.4m-1.4 0H608m-1.4 0h-3.4m-1.5 0h-3.4m-1.4 0h-3.4m-1.4 0h-3.4m-1.4 0h-3.4m-1.4 0h-3.4m-1.5 0h-3.4m-1.4 0h-3.4m-1.4 0h-3.4m-1.4 0h-3.4m-1.4 0H555m-1.5 0h-3.4m-1.4 0h-3.4m-1.4 0h-3.4m-1.4 0h-3.4m-1.4 0h-3.4m-1.4 0h-3.4m-1.5 0h-3.4m-1.4 0h-3.4m-1.4 0h-3.4m-1.4 0h-3.4m-1.4 0H502m-1.5 0h-3.4m-1.4 0h-3.4m-1.4 0h-3.4m-1.4 0h-3.4m-1.4 0h-3.4m-1.5 0H473m-1.4 0h-3.4m-1.4 0h-3.4m-1.4 0h-3.4m-1.4 0h-3.4m-1.4 0H449m-1.5 0h-3.4m-1.4 0h-3.4m-1.4 0h-3.4m-1.4 0h-3.4m-1.4 0h-3.4m-1.5 0H420m-1.4 0h-3.4m-1.4 0h-3.4m-1.4 0h-3.4m-1.4 0h-3.4m-1.5 0h-3.4m-1.4 0h-3.4m-1.4 0h-3.4m-1.4 0h-3.4m-1.4 0h-3.4m-1.5 0h-3.4m-1.4 0H367m-1.4 0h-3.4m-1.4 0h-3.4m-1.4 0h-3.4m-1.4 0h-3.4m-1.5 0h-3.4m-1.4 0h-3.4m-1.4 0h-3.4m-1.4 0h-3.4m-1.4 0h-3.4m-1.5 0h-3.4m-1.4 0H314m-1.4 0h-3.4m-1.4 0h-3.4m-1.4 0h-3.4m-1.5 0h-3.4m-1.4 0h-3.4m-1.4 0h-3.4m-1.4 0h-3.4m-1.4 0h-3.4m-1.4 0h-3.4m-1.5 0h-3.4m-1.4 0H261m-1.4 0h-3.4m-1.4 0h-3.4m-1.4 0h-3.4m-1.5 0h-3.4m-1.4 0h-3.4m-1.4 0h-3.4m-1.4 0h-3.4m-1.4 0h-3.4m-1.5 0h-3.4m-1.4 0h-3.4m-1.4 0H208m-1.4 0h-3.4m-1.4 0h-3.4m-1.4 0h-3.5m-1.4 0h-3.4m-1.4 0h-3.4m-1.4 0h-3.4m-1.4 0h-3.4m-1.4 0h-3.4m-1.5 0h-3.4m-1.4 0h-3.4m-1.4 0H155m-1.4 0h-3.4m-1.4 0h-3.4m-1.5 0h-3.4m-1.4 0h-3.4m-1.4 0h-3.4m-1.4 0h-3.4m-1.4 0h-3.4m-1.5 0h-3.4m-1.4 0h-1.5m0 0v-2.3m0-1.4v-3.4m0-1.4v-3.4m0-1.4V451m0-1.4v-3.4m0-1.4v-3.4m0-1.5v-3.4m0-1.4v-3.4m0-1.4v-3.4m0-1.4v-3.4m0-1.4v-3.4m0-1.5v-3.4m0-1.4v-3.4m0-1.4v-3.4m0-1.4V398m0-1.4v-3.4m0-1.5v-3.4m0-1.4v-3.4m0-1.4v-3.4m0-1.4v-3.4m0-1.4v-3.4m0-1.4v-3.4m0-1.5v-3.4m0-1.4v-3.4m0-1.4v-3.4m0-1.4V345m0-1.4v-3.4m0-1.5v-3.4m0-1.4v-3.4m0-1.4v-3.4m0-1.4v-3.4m0-1.4v-3.4m0-1.5v-3.4m0-1.4v-3.4m0-1.4v-3.4m0-1.4v-3.4m0-1.4V292m0-1.4v-3.5m0-1.4v-3.4m0-1.4v-3.4m0-1.4v-3.4m0-1.4v-3.4m0-1.4v-3.4m0-1.5v-3.4m0-1.4v-3.4m0-1.4v-3.4m0-1.4v-3.4m0-1.4V239m0-1.5v-3.4m0-1.4v-3.4m0-1.4v-3.4m0-1.4v-3.4m0-1.4v-3.4m0-1.5V210m0-1.4v-3.4m0-1.4v-3.4m0-1.4v-3.4m0-1.4v-3.4m0-1.4V186m0-1.5v-3.4m0-1.4v-3.4m0-1.4v-3.4m0-1.4v-3.4m0-1.4v-3.4m0-1.5V157"/><path d="M113.5 155.6v-3.4m0-1.4v-3.4m0-1.4v-3.4m0-1.4v-3.4m0-1.5v-3.4m0-1.4v-3.4m0-1.4v-3.4m0-1.4v-3.4m0-1.4v-3.4m0-1.4v-3.4m0-1.5V104m0-1.4v-3.4m0-1.4v-3.4m0-1.4v-3.4m0-1.4v-3.4m0-1.5v-3.4m0-1.4v-3.4m0-1.4v-3.4m0-1.4v-3.4m0-1.4v-3.4m0-1.5v-3.4m0-1.4V51m0-1.4v-3.4m0-1.4v-2.3m461.7 15v1.9m0 1.4v3.4m0 1.4V69m0 1.4v3.4m0 1.5v3.4m0 1.4v3.4m0 1.4v3.4m0 1.4v1.9m.6-34.1v34.1m-64.1-34.1v1.9m0 1.4v3.4m0 1.4V69m0 1.4v3.4m0 1.5v3.4m0 1.4v3.4m0 1.4v3.4m0 1.4v1.9m.6-34.1v34.1m-8.5-34.1v1.9m0 1.4v3.4m0 1.4V69m0 1.4v3.4m0 1.5v3.4m0 1.4v3.4m0 1.4v3.4m0 1.4v1.9m.6-34.1v34.1m-8.5-34.1v2.9m0 1.4v3.4m0 1.4v2.8m.5-11.9v15.4m-8.5-15.4v1.9m0 1.4v3.4m0 1.4V69m0 1.4v3.4m0 1.5v3.4m0 1.4v3.4m0 1.4v3.4m0 1.4v1.9m.6-34.1v34.1M480 57.5v1.9m0 1.4v3.4m0 1.4V69m0 1.4v3.4m0 1.5v3.4m0 1.4v3.4m0 1.4v3.4m0 1.4v1.9m.6-34.1v34.1m-24.4-34.1v1.9m0 1.4v3.4m0 1.4V69m0 1.4v3.4m0 1.5v3.4m0 1.4v3.4m0 1.4v3.4m0 1.4v1.9m.5-34.1v34.1m-8.5-34.1v1.9m0 1.4v3.4m0 1.4V69m0 1.4v3.4m0 1.5v3.4m0 1.4v3.4m0 1.4v3.4m0 1.4v1.9m.6-34.1v34.1m-.6 7h128.2"/><path d="M448.2 92.1v6.5m111.2-41.1v1.9m0 1.4v3.4m0 1.4V69m0 1.4v3.4m0 1.5v3.4m0 1.4v3.4m0 1.4v3.4m0 1.4v1.9m.5-34.1v34.1m-8.5-34.1v1.9m0 1.4v3.4m0 1.4V69m0 1.4v3.4m0 1.5v3.4m0 1.4v3.4m0 1.4v3.4m0 1.4v1.9m.6-34.1v34.1m-8.5-34.1v1.9m0 1.4v3.4m0 1.4V69m0 1.4v3.4m0 1.5v3.4m0 1.4v3.4m0 1.4v3.4m0 1.4v1.9m.6-34.1v34.1m-8.6-34.1v1.9m0 1.4v3.4m0 1.4V69m0 1.4v3.4m0 1.5v3.4m0 1.4v3.4m0 1.4v3.4m0 1.4v1.9m.6-34.1v34.1m-8.5-34.1v1.9m0 1.4v3.4m0 1.4V69m0 1.4v3.4m0 1.5v3.4m0 1.4v3.4m0 1.4v3.4m0 1.4v1.9m.6-34.1v34.1m-8.5-34.1v1.9m0 1.4v3.4m0 1.4V69m0 1.4v3.4m0 1.5v3.4m0 1.4v3.4m0 1.4v3.4m0 1.4v1.9m.5-34.1v34.1m47.1-34.1v1.9m0 1.4v3.4m0 1.4V69m0 1.4v3.4m0 1.5v3.4m0 1.4v3.4m0 1.4v3.4m0 1.4v1.9m.6-34.1v34.1m8.5.5v6.5m-128.2-7h50.2m-26.3-34.1v1.9m0 1.4v3.4"/><path d="M472.1 65.6V69m0 1.4v3.4m0 1.5v3.4m0 1.4v3.4m0 1.4v3.4m0 1.4v1.9m.5-34.1v34.1m27.5 3.4l-6.2-37.5M499 95l-6.3-37.5m3.7 22.2v11.9"/><path d="M495.9 76.3v2.1m0 1.4v3.4m0 1.4V88m0 1.4v2.2m3.6 0h76.3"/></g><g class="N"><path d="M575.2 92.7h-75.5m.2 1.1h75.3"/><path d="M575.2 93.8v-1.1m-125.8 0h49.2"/><path d="M449.4 93.8v-1.1m49.4 1.1h-49.4m125.8 2.6H449.4m0 1.1h125.8"/><path d="M575.2 97.5v-1.1m-125.8 0v1.1m401.1 134.4h9.9m0 0v77.9"/><path d="M860.4 309.8h-9.9m0 0v-77.9"/></g><path d="M867.9 310.4h2.4m1.4 0h3.4m1.5 0h3.4m1.4 0h3.4m1.4 0h3.4m1.4 0h2.4m-25.5 4.1h2.4m1.4 0h3.4m1.5 0h3.4m1.4 0h3.4m1.4 0h3.4m1.4 0h2.4m-75-4.1h2.5m1.4 0h3.4m1.4 0h3.4m1.4 0h3.4m1.4 0h3.4m1.4 0h2.5m-25.6 4.1h2.5m1.4 0h3.4m1.4 0h3.4m1.4 0h3.4m1.4 0h3.4m1.4 0h2.5M535.1 148.8h-1.7m-1.4 0h-3.4m-1.4 0h-3.4m-1.4 0H519m-1.5 0h-3.4m-1.4 0h-3.4m-1.4 0h-1.7" class="R"/><path d="M535.1 156.2v28.9" class="N"/><g class="R"><path d="M65.3 567.8v94.7m0 0h898.3"/><path d="M963.6 662.5v-85.1m0 0h-7.1m0 0v78m0 0H72.4"/><path d="M72.4 655.4v-87.6m0-107.5h1.8m1.4 0H79m1.4 0h3.4m1.5 0h3.4m1.4 0h3.4m1.4 0h3.4m1.4 0h3.4m1.4 0h3.4m1.5 0h3.4m1.4 0h3.4m1.4 0h1.8m842.8 117.1V575m0-1.4v-3.4m0-1.4v-3.4m0-1.4v-3.4m0-1.5v-3.4m0-1.4v-3.4m0-1.4v-3.4m0-1.4v-3.4m0-1.4v-3.4m0-1.5v-3.4m0-1.4v-3.4m0-1.4V522m0-1.4v-3.4m0-1.4v-3.4m0-1.5v-3.4m0-1.4v-3.4m0-1.4v-3.4m0-1.4v-3.4m0-1.4v-3.4m0-1.5v-3.4m0-1.4v-3.4m0-1.4v-3.4m0-1.4V469m0-1.4v-3.4m0-1.4v-2.5m-7.1 117.1V575m0-1.4v-3.4m0-1.4v-3.4m0-1.4v-3.4m0-1.5v-3.4m0-1.4v-3.4m0-1.4v-3.4m0-1.4v-3.4m0-1.4v-3.4m0-1.5v-3.4m0-1.4v-3.4m0-1.4V522m0-1.4v-3.4m0-1.4v-3.4m0-1.5v-3.4m0-1.4v-3.4m0-1.4v-3.4m0-1.4v-3.4m0-1.4v-3.4m0-1.5v-3.4m0-1.4v-3.4m0-1.4v-3.4m0-1.4V469m0-1.4v-3.4m0-1.4v-2.5M464.1 57.5v1.9m0 1.4v3.4m0 1.4V69m0 1.4v3.4m0 1.5v3.4m0 1.4v3.4m0 1.4v3.4m0 1.4v1.9m.6-34.1v34.1M14.3 8.2v1.3m0 1.4v3.4m0 1.4v3.4m0 1.5V24m0 1.4v3.4m0 1.4v3.4m0 1.4v3.4m0 1.4v3.4m0 1.4V48m0 1.5v1.2m0 0h3.1m1.4 0h3.4m1.4 0H27m1.4 0h3.4m1.4 0h3.5m1.4 0h3.4m1.4 0h3.4m1.4 0h3.4m1.4 0h3.4m1.4 0h3.4m1.5 0h3.4m1.4 0h3.4m1.4 0h3.4m1.4 0H80m1.4 0h3.4m1.5 0h3.4m1.4 0h3.4m1.4 0h3.4m1.4 0h3.4m1.4 0h3.4m1.5 0h3.1m-99.2 95v2.8m0 1.5v2.8m0 0h3.1m1.4 0h3.4m1.4 0H27m1.4 0h3.4m1.4 0h3.5m1.4 0h3.4m1.4 0h3.4m1.4 0h3.4m1.4 0h3.4m1.4 0h3.4m1.5 0h3.4m1.4 0h3.4m1.4 0h3.4m1.4 0H80m1.4 0h3.4m1.5 0h3.4m1.4 0h3.4m1.4 0h3.4m1.4 0h3.4m1.4 0h3.4m1.5 0h3.1m956.7-7.1v2.8m0 1.5v2.8m0 0h-3.2m-1.4 0h-3.4m-1.4 0h-3.4m-1.4 0h-3.4m-1.4 0h-3.4m-1.4 0h-3.4m-1.5 0h-3.4m-1.4 0h-3.4m-1.4 0h-3.4m-1.4 0h-3.4m-1.4 0h-3.4m-1.5 0h-3.4m-1.4 0h-3.4m-1.4 0h-3.4m-1.4 0h-3.4m-1.4 0h-3.4m-1.5 0h-3.4m-1.4 0h-3.4m-1.4 0h-3.4m-1.4 0h-3.4m-1.4 0H971m-850.2-4v-3m0-1.4V141m0-1.4v-3.4m0-1.4v-3.4m0-1.4v-3.4m0-1.5v-3.4m0-1.4v-3.4m0-1.4v-3.4m0-1.4v-3.4m0-1.4v-3.4m0-1.4v-3.4m0-1.5v-3.4m0-1.4V88m0-1.4v-3.4m0-1.4v-3.4m0-1.4v-3.4m0-1.5v-3.4m0-1.4v-3.4m0-1.4v-3.4m0-1.4v-3.4m0-1.4v-3m0 0h1.6m1.4 0h3.4m1.4 0h3.4m1.5 0h3.4m1.4 0h3.4m1.4 0h3.4m1.4 0h3.4m1.4 0h3.4m1.4 0h3.5m1.4 0h3.4m1.4 0h3.4m1.4 0h3.4m1.4 0h3.4m1.4 0h3.4m1.5 0h3.4m1.4 0h3.4m1.4 0h3.4m1.4 0h3.4m1.4 0h3.4m1.5 0h3.4m1.4 0h3.4m1.4 0h3.4m1.4 0h3.4m1.4 0h3.4m1.5 0h3.4m1.4 0h3.4m1.4 0h3.4m1.4 0h3.4m1.4 0h3.4m1.4 0h3.4m1.5 0h3.4m1.4 0h3.4m1.4 0h3.4m1.4 0h3.4m1.4 0h3.4m1.5 0h3.4m1.4 0h3.4m1.4 0h3.4m1.4 0h3.4m1.4 0h3.4m1.5 0h3.4m1.4 0h3.4m1.4 0h3.4m1.4 0h3.4m1.4 0h3.4m1.4 0h3.4m1.5 0h3.4m1.4 0h3.4m1.4 0h3.4m1.4 0h3.4m1.4 0h3.4m1.5 0h3.4m1.4 0h3.4m1.4 0h3.4m1.4 0h3.4m1.4 0h3.4m1.5 0h3.4m1.4 0h3.4m1.4 0h3.4m1.4 0h1.6m271.5 0h3.1m1.5 0h3.4m1.4 0h3.4m1.4 0h3.4m1.4 0h3.4m1.4 0h3.4m1.5 0h3.4m1.4 0h3.4m1.4 0h3.4m1.4 0h3.4m1.4 0h3.4m1.5 0h3.4m1.4 0h3.4m1.4 0h3.4m1.4 0h3.4m1.4 0h3.4m1.5 0h3.4m1.4 0h3.4m1.4 0h3.4m1.4 0h3.4m1.4 0h3.4m1.4 0h3.4m1.5 0h3.4m1.4 0h3.4m1.4 0h3.4m1.4 0h3.4m1.4 0h3.4m1.5 0h3.4m1.4 0h3.4m1.4 0h3.4m1.4 0h3.4m1.4 0h3.4m1.5 0h3.4m1.4 0h3.4m1.4 0h3.4m1.4 0h3.4m1.4 0h3.4m1.4 0h3.4m1.5 0h3.4m1.4 0h3.4m1.4 0h3.4m1.4 0h3.4m1.4 0h3.4m1.5 0h3.4m1.4 0h3.4m1.4 0h3.4m1.4 0h3.4m1.4 0h3.4m1.5 0h3.4m1.4 0h3.4m1.4 0h3.4m1.4 0h3.4m1.4 0h3.4m1.4 0h3.5m1.4 0h3.4m1.4 0h3.4m1.4 0h3.4m1.4 0h3.4m1.4 0h3.4m1.5 0h3.1m0 98.9v-3m0-1.4V141m0-1.4v-3.4m0-1.4v-3.4m0-1.4v-3.4m0-1.5v-3.4m0-1.4v-3.4m0-1.4v-3.4m0-1.4v-3.4m0-1.4v-3.4m0-1.4v-3.4m0-1.5v-3.4m0-1.4V88m0-1.4v-3.4m0-1.4v-3.4m0-1.4v-3.4m0-1.5v-3.4m0-1.4v-3.4m0-1.4v-3.4m0-1.4v-3.4m0-1.4v-3"/></g><g class="N"><path d="M65.3 663v99.5m7.1 0V663m989-.5h-97.3m97.3 0l2.2-7.1"/><path d="M1061.4 662.5l32.9 23m-30.7-30.1l30.7 21.4"/></g><path d="M494.2 242.4V240m0-1.5v-3.4m0-1.4v-3.4m0-1.4v-3.4m0-1.4v-3.4m0-1.4v-2.4m52.3 0v-2.5m0-1.4v-3.4m0-1.4v-3.4m0-1.4V200m0-1.4v-3.4m0-1.5v-2.4" class="R"/><path d="M647 167.2h2.9m1.4 0h3.4m1.5 0h3.4m1.4 0h3.4m1.4 0h3.4m1.4 0h3.4m1.4 0h3.4m1.5 0h3.4m1.4 0h3.4m1.4 0h3.4m1.4 0h3.4m1.4 0h3.4m1.5 0h3.4m1.4 0h3.4m1.4 0h3.4m1.4 0h3.4m1.4 0h3.4m1.4 0h3.4m1.5 0h2.9m-89.2 7.1h2.9m1.4 0h3.4m1.5 0h3.4m1.4 0h3.4m1.4 0h3.4m1.4 0h3.4m1.4 0h3.4m1.5 0h3.4m1.4 0h3.4m1.4 0h3.4m1.4 0h3.4m1.4 0h3.4m1.5 0h3.4m1.4 0h3.4m1.4 0h3.4m1.4 0h3.4m1.4 0h3.4m1.4 0h3.4m1.5 0h2.9m-89.2 7.1h2.9m1.4 0h3.4m1.5 0h3.4m1.4 0h3.4m1.4 0h3.4m1.4 0h3.4m1.4 0h3.4m1.5 0h3.4m1.4 0h3.4m1.4 0h3.4m1.4 0h3.4m1.4 0h3.4m1.5 0h3.4m1.4 0h3.4m1.4 0h3.4m1.4 0h3.4m1.4 0h3.4m1.4 0h3.4m1.5 0h2.9m-89.2 7.1h2.9m1.4 0h3.4m1.5 0h3.4m1.4 0h3.4m1.4 0h3.4m1.4 0h3.4m1.4 0h3.4m1.5 0h3.4m1.4 0h3.4m1.4 0h3.4m1.4 0h3.4m1.4 0h3.4m1.5 0h3.4m1.4 0h3.4m1.4 0h3.4m1.4 0h3.4m1.4 0h3.4m1.4 0h3.4m1.5 0h2.9m-89.2 7.1h2.9m1.4 0h3.4m1.5 0h3.4m1.4 0h3.4m1.4 0h3.4m1.4 0h3.4m1.4 0h3.4m1.5 0h3.4m1.4 0h3.4m1.4 0h3.4m1.4 0h3.4m1.4 0h3.4m1.5 0h3.4m1.4 0h3.4m1.4 0h3.4m1.4 0h3.4m1.4 0h3.4m1.4 0h3.4m1.5 0h2.9M647 219.7h2.9m1.4 0h3.4m1.5 0h3.4m1.4 0h3.4m1.4 0h3.4m1.4 0h3.4m1.4 0h3.4m1.5 0h3.4m1.4 0h3.4m1.4 0h3.4m1.4 0h3.4m1.4 0h3.4m1.5 0h3.4m1.4 0h3.4m1.4 0h3.4m1.4 0h3.4m1.4 0h3.4m1.4 0h3.4m1.5 0h2.9m-89.2 7.1h2.9m1.4 0h3.4m1.5 0h3.4m1.4 0h3.4m1.4 0h3.4m1.4 0h3.4m1.4 0h3.4m1.5 0h3.4m1.4 0h3.4m1.4 0h3.4m1.4 0h3.4m1.4 0h3.4m1.5 0h3.4m1.4 0h3.4m1.4 0h3.4m1.4 0h3.4m1.4 0h3.4m1.4 0h3.4m1.5 0h2.9m-89.2 7.1h2.9m1.4 0h3.4m1.5 0h3.4m1.4 0h3.4m1.4 0h3.4m1.4 0h3.4m1.4 0h3.4m1.5 0h3.4m1.4 0h3.4m1.4 0h3.4m1.4 0h3.4m1.4 0h3.4m1.5 0h3.4m1.4 0h3.4m1.4 0h3.4m1.4 0h3.4m1.4 0h3.4m1.4 0h3.4m1.5 0h2.9m-89.2 7h2.9m1.4 0h3.4m1.5 0h3.4m1.4 0h3.4m1.4 0h3.4m1.4 0h3.4m1.4 0h3.4m1.5 0h3.4m1.4 0h3.4m1.4 0h3.4m1.4 0h3.4m1.4 0h3.4m1.5 0h3.4m1.4 0h3.4m1.4 0h3.4m1.4 0h3.4m1.4 0h3.4m1.4 0h3.4m1.5 0h2.9M647 248h2.9m1.4 0h3.4m1.5 0h3.4m1.4 0h3.4m1.4 0h3.4m1.4 0h3.4m1.4 0h3.4m1.5 0h3.4m1.4 0h3.4m1.4 0h3.4m1.4 0h3.4m1.4 0h3.4m1.5 0h3.4m1.4 0h3.4m1.4 0h3.4m1.4 0h3.4m1.4 0h3.4m1.4 0h3.4m1.5 0h2.9M647 272.1h2.9m1.4 0h3.4m1.5 0h3.4m1.4 0h3.4m1.4 0h3.4m1.4 0h3.4m1.4 0h3.4m1.5 0h3.4m1.4 0h3.4m1.4 0h3.4m1.4 0h3.4m1.4 0h3.4m1.5 0h3.4m1.4 0h3.4m1.4 0h3.4m1.4 0h3.4m1.4 0h3.4m1.4 0h3.4m1.5 0h2.9m-89.2 7.1h2.9m1.4 0h3.4m1.5 0h3.4m1.4 0h3.4m1.4 0h3.4m1.4 0h3.4m1.4 0h3.4m1.5 0h3.4m1.4 0h3.4m1.4 0h3.4m1.4 0h3.4m1.4 0h3.4m1.5 0h3.4m1.4 0h3.4m1.4 0h3.4m1.4 0h3.4m1.4 0h3.4m1.4 0h3.4m1.5 0h2.9m-89.2 7.1h2.9m1.4 0h3.4m1.5 0h3.4m1.4 0h3.4m1.4 0h3.4m1.4 0h3.4m1.4 0h3.4m1.5 0h3.4m1.4 0h3.4m1.4 0h3.4m1.4 0h3.4m1.4 0h3.4m1.5 0h3.4m1.4 0h3.4m1.4 0h3.4m1.4 0h3.4m1.4 0h3.4m1.4 0h3.4m1.5 0h2.9m-89.2 7.1h2.9m1.4 0h3.4m1.5 0h3.4m1.4 0h3.4m1.4 0h3.4m1.4 0h3.4m1.4 0h3.4m1.5 0h3.4m1.4 0h3.4m1.4 0h3.4m1.4 0h3.4m1.4 0h3.4m1.5 0h3.4m1.4 0h3.4m1.4 0h3.4m1.4 0h3.4m1.4 0h3.4m1.4 0h3.4m1.5 0h2.9m-89.2 7.1h2.9m1.4 0h3.4m1.5 0h3.4m1.4 0h3.4m1.4 0h3.4m1.4 0h3.4m1.4 0h3.4m1.5 0h3.4m1.4 0h3.4m1.4 0h3.4m1.4 0h3.4m1.4 0h3.4m1.5 0h3.4m1.4 0h3.4m1.4 0h3.4m1.4 0h3.4m1.4 0h3.4m1.4 0h3.4m1.5 0h2.9" class="N"/><g class="R"><path d="M538 216.9v-2.5m0-1.4v-3.4m0-1.4v-3.4m0-1.4V200m0-1.4v-3.4m0-1.5v-2.4m-39.7 51.1V240m0-1.5v-3.4m0-1.4v-3.4m0-1.4v-3.4m0-1.4v-3.4m0-1.4v-2.4m-433 287.4v62.9m0 0h62.6"/><path d="M127.9 567.2v-7.1m-14.4-414.4h-3.1m-1.5 0h-3.4m-1.4 0h-3.4m-1.4 0h-3.4m-1.4 0h-3.4m-1.4 0h-3.4m-1.5 0h-3.4m-1.4 0h-3.4m-1.4 0h-3.4m-1.4 0H67m-1.4 0h-3.4m-1.5 0h-3.4m-1.4 0h-3.4m-1.4 0h-3.4m-1.4 0h-3.4m-1.4 0h-3.4m-1.4 0h-3.5m-1.4 0h-3.4m-1.4 0h-3.4m-1.4 0h-3.4m-1.4 0h-3.1m99.2-102h-2m-1.4 0h-3.4m-1.5 0h-3.4m-1.4 0H97m-1.4 0h-3.4m-1.4 0h-3.4m-1.4 0h-3.4m-1.4 0h-3.4m-1.5 0h-3.4m-1.4 0h-3.4m-1.4 0h-3.4m-1.4 0h-3.4m-1.4 0h-3.4m-1.5 0h-3.4m-1.4 0H44m-1.4 0h-3.4m-1.4 0h-3.4m-1.4 0h-3.4m-1.5 0h-3.4m-1.4 0h-2m949.7 102h3.1m1.4 0h3.4m1.4 0h3.4m1.4 0h3.4m1.4 0h3.4m1.5 0h3.4m1.4 0h3.4m1.4 0h3.4m1.4 0h3.4m1.4 0h3.4m1.5 0h3.4m1.4 0h3.4m1.4 0h3.4m1.4 0h3.4m1.4 0h3.4m1.5 0h3.4m1.4 0h3.4m1.4 0h3.4m1.4 0h3.4m1.4 0h3.4m1.4 0h3.2M21.3 43.7v-2.6m0-1.4v-3.4m0-1.4v-3.4m0-1.5v-3.4m0-1.4v-3.4m0-1.4V17m0-1.4v-3.4m0-1.4V8.2m0 0h-2.8m-1.4 0h-2.8"/></g><g class="N"><path d="M845.1 683.7h2.5m1.5 0h3.4m1.4 0h3.4m1.4 0h3.4m1.4 0h3.4m1.4 0h3.4m1.5 0h3.4m1.4 0h2.5m0 0v2.6m0 1.4v3.4m0 1.4v2m-268.7 68v-.8m0-1.4v-3.4m0-1.5V752m0-1.4v-3.4m0-1.4v-3.4m0-1.4v-3.4m0-1.4v-3.4m0-1.5v-3.4m0-1.4v-3.4m0-1.4v-3.4m0-1.4v-3.4m0-1.4v-3.4m0-1.5v-3.4m0-1.4V699m0-1.4v-3.4m0-1.4v-3.4m0-1.4v-3.4m0-1.5v-3.4m0-1.4v-3.4m0-1.4v-3.4m0-1.4v-3.4"/><path d="M611.8 663.9v-1.4m233.3 0v2.9m0 1.5v3.4m0 1.4v3.4m0 1.4v3.4m0 1.4v3.4m0 1.4v3.4m0 1.4v3.4M127.9 503.7h4.8m2.9 0h5.7m2.8 0h5.7m2.8 0h5.7m2.8 0h5.7m2.8 0h5.7m2.8 0h5.7m2.8 0h5.7m2.8 0h5.7m2.8 0h5.7m2.8 0h5.7m2.8 0h5.7m2.8 0h5.7m2.8 0h5.7m2.8 0h5.7m2.8 0h5.7m2.8 0h5.7m2.8 0h5.7m2.8 0h5.7m2.9 0h5.6m2.9 0h5.6m2.9 0h5.6m2.9 0h5.6m2.9 0h5.6m2.9 0h5.6m2.9 0h5.6m2.9 0h5.6m2.9 0h5.7m2.8 0h5.7m2.8 0h5.7m2.8 0h5.7m2.8 0h5.7m2.8 0h5.7m2.8 0h5.7m2.8 0h5.7m2.8 0h5.7m2.8 0h5.7m2.8 0h5.7m2.8 0h5.7m2.8 0h5.7m2.8 0h5.7m2.8 0h5.7m2.8 0h5.7m2.8 0h5.7m2.8 0h5.7m2.9 0h5.6m2.9 0h5.6m2.9 0h5.6m2.9 0h5.6m2.9 0h5.6m2.9 0h5.6m2.9 0h5.6m2.9 0h5.7m2.8 0h5.7m2.8 0h5.7m2.8 0h5.7m2.8 0h5.7m2.8 0h5.7m2.8 0h5.7m2.8 0h5.7m2.8 0h5.7m2.8 0h5.7m2.8 0h5.7m2.8 0h5.7m2.8 0h5.7m2.8 0h5.7m2.8 0h5.7m2.8 0h5.7m2.8 0h5.7m2.8 0h5.7m2.9 0h5.6m2.9 0h5.6m2.9 0h5.6m2.9 0h5.6m2.9 0h5.6m2.9 0h5.6m2.9 0h5.6m2.9 0h5.6m2.9 0h5.7m2.8 0h5.7m2.8 0h5.7m2.8 0h5.7m2.8 0h5.7m2.8 0h5.7m2.8 0h5.7m2.8 0h5.7m2.8 0h5.7m2.8 0h5.7m2.8 0h5.7m2.8 0h5.7m2.8 0h5.7m2.8 0h5.7m2.8 0h5.7m2.8 0h5.7m2.8 0h5.7m2.9 0h5.6m2.9 0h5.6m2.9 0h5.6m2.9 0h5.6m2.9 0h5.6m2.9 0h5.6m2.9 0h5.6m2.9 0h5.6m2.9 0h5.7m2.8 0h5.7m2.8 0h5.7m2.8 0h5.7m2.8 0h4.8"/></g><path d="M860.5 201.8v20.5m0 0h-14.7" class="R"/><path d="M846.4 222.3v-7.4" class="N"/><path d="M860.5 201.8h-14.7" class="R"/><path d="M846.4 201.8v7.4" class="N"/><path d="M844.8 202.6v18.9" class="R"/><path d="M844.8 209.2h15.7m-15.7 5.7h15.7" class="N"/><path d="M844.8 221.5l1 .8m0-20.5l-1 .8" class="R"/><path d="M818.4 180h.9m1.4 0h3.4m1.4 0h3.4m1.5 0h3.4m1.4 0h3.4m1.4 0h3.4m1.4 0h3.4m1.4 0h3.4m1.4 0h.9m-17-17v1.8m0 1.5v3.4m0 1.4v3.4m0 1.4v3.4m0 1.4v3.4m0 1.4v3.4m0 1.4v3.4m0 1.5v1.8" class="N"/><path d="M819.9 175.7v8.6m0-8.6l3.9-1.4m-3.9 10l3.9 1.4" class="R"/><path d="M754.7 162.7v1.9m0 1.4v3.4m0 1.4v3.4m0 1.4v1.8m7.3-7.3h-1.8m-1.4 0h-3.4m-1.4 0h-3.4m-1.5 0h-1.8" class="N"/><g class="R"><path d="M756.4 182.8v26.4m0 0h-8.3"/><path d="M748.1 209.2v-26.4m0 0h8.3m5.9 32.1v25.5m0 0h-14.2"/><path d="M748.1 240.4v-25.5m0 0h14.2m44.5-57v8.5m0 0h-34.1"/><path d="M772.7 166.4v-8.5m0 0h34.1m-53.5 151.9h58.3m0 0v-8.5"/><path d="M811.6 301.3h-58.3m0 0v8.5"/></g><g class="N"><path d="M772.7 303.4v4.3m14.1 1.4h4.3"/><path d="M791.1 309.1v-5.7m0 0h-4.3m0 0v5.7m2.2-5.7v5.7m-16.3-5.7l4.2 4.3"/><path d="M776.9 303.4l-4.2 4.3m23.4-4.3v4.3"/><path d="M796.1 307.7h8.5m0 0v-4.3"/><path d="M804.6 303.4h-8.5"/><path d="M796.1 303.4l8.5 4.3m-31.9-4.3h4.2"/><path d="M776.9 303.4v4.3m0 0h-4.2m34.7-2.1h-2.8m-44 0h-2.8m8.5 0h-2.8m9.2 0h-3.6m11.4 0h-3.6m9.9 0h-3.5m12.8 0h-5"/></g><path d="M65.3 453.3h3m1.4 0h3.4m1.4 0h3.4m1.4 0h3.4m1.4 0h3.4m1.5 0h3.4m1.4 0h3.4m1.4 0h3.4m1.4 0h3.4m1.4 0h3.4m1.4 0h3.4m1.5 0h2.9" class="R"/><path d="M136.1 662.5v100m141.8-100v100m70.8-100v100m70.9-100v100m70.9-100v100m70.8-100v100M207 662.5v100" class="N"/><path d="M72.4 560.1v-55.8m55.5 55.8H72.4M986.3 498h-22.7m32-19.8v1.8m0 1.4v3.4m0 1.5v3.4m0 1.4v3.4m0 1.4v3.4m0 1.4v3.4m0 1.4v3.4m0 1.5v1.8" class="R"/><g class="N"><path d="M127.9 567.2l5-.3m0 0l1 .6m0 0l6-.5m0 0l1.6.8m0 0l2.4-.8m0 0l6 .4m0 0l4.5-.9m0 0l1.9.3m799.3-386.1h1.5m.8 0h2.3m.8 0h2.3m.8 0h2.3m.9 0h2.2m.9 0h2.3m.8 0h2.3m.8 0h2.3m.8 0h2.3m.9 0h2.2m.9 0h2.2m.9 0h2.3m.8 0h2.3m.8 0h2.3m.8 0h2.3m.9 0h2.2m.9 0h2.3m.8 0h2.3m.8 0h2.3m.8 0h2.3m.9 0h2.2m.9 0h2.2m.9 0h2.3m.8 0h2.3m.8 0h2.3m.8 0h2.3m.9 0h2.2m.9 0h2.3m.8 0h2.3m.8 0h2.3m.8 0h2.3m.9 0h2.2m.9 0h1.4m-100.4-7.1h1.5m.8 0h2.3m.8 0h2.3m.8 0h2.3m.9 0h2.2m.9 0h2.3m.8 0h2.3m.8 0h2.3m.8 0h2.3m.9 0h2.2m.9 0h2.2m.9 0h2.3m.8 0h2.3m.8 0h2.3m.8 0h2.3m.9 0h2.2m.9 0h2.3m.8 0h2.3m.8 0h2.3m.8 0h2.3m.9 0h2.2m.9 0h2.2m.9 0h2.3"/><path d="M1026.5 173.6h2.3m.8 0h2.3m.8 0h2.3m.9 0h2.2m.9 0h2.3m.8 0h2.3m.8 0h2.3m.8 0h2.3m.9 0h2.2m.9 0h1.4m0-2.1v.6m0 .8v2.3m0 .8v2.3m0 .8v2.3m0 .9v.5m-5.7-5.6h.6"/><path d="M1051.7 177.2h2.3m.9 0h2.2m.9 0h2.2m.9 0h.6"/><path d="M955.6 180.7v-1.6m0-.8V176m0-.8v-1.6m108 481.8h-99.5"/></g><g class="R"><path d="M123.7 662.5v-3.4m0-1.5v-3.4m0-1.4v-3.4m0-1.4v-3.4m0-1.4v-3.4m0-1.4V635m0-1.5v-3.4m0-1.4v-3.4m0-1.4v-3.4m0-1.4v-3.4m0-1.4v-3.4m0-1.5V606m0-1.4v-3.4m0-1.4v-3.4m0-1.4v-3.4m0 0h-3.3m-1.4 0h-3.4m-1.4 0h-3.4m-1.4 0H106m-1.5 0h-3.4m-1.4 0h-3.4m-1.4 0h-3.4m-1.4 0h-3.4m-1.4 0h-3.4m-1.5 0H77m-1.4 0h-3.2m58.4 63.8V652m0-1.4v-3.5m0-1.4v-3.4m0-1.4v-3.4m0-1.4v-3.4m0-1.4v-3.4m0-1.4v-3.4m0-1.5v-3.4m0-1.4v-3.4m0-1.4v-3.4m0-1.4v-3.4m0-1.4V599m0-1.5v-3.4m0-1.4v-3.4m0-1.4v-3.4m0 0h-2m-1.4 0H124m-1.5 0h-3.4m-1.4 0h-3.4m-1.4 0h-3.4m-1.4 0h-3.4m-1.4 0h-3.4m-1.5 0H95m-1.4 0h-3.4m-1.4 0h-3.4m-1.4 0h-3.4m-1.4 0h-3.4m-1.4 0h-2M1070.2 8.2v1.3m0 1.4v3.4m0 1.4v3.4m0 1.5V24m0 1.4v3.4m0 1.4v3.4m0 1.4v3.4m0 1.4v3.4m0 1.4V48m0 1.5v1.2"/><path d="M1070.2 50.7h-3.2m-1.4 0h-3.4m-1.4 0h-3.4m-1.4 0h-3.4m-1.4 0h-3.4m-1.4 0h-3.4m-1.5 0h-3.4m-1.4 0h-3.4m-1.4 0h-3.4m-1.4 0h-3.4m-1.4 0h-3.4m-1.5 0h-3.4m-1.4 0h-3.4m-1.4 0h-3.4m-1.4 0h-3.4m-1.4 0h-3.4m-1.5 0h-3.4m-1.4 0h-3.4m-1.4 0h-3.4m-1.4 0h-3.4m-1.4 0H971m0-7h1.9m1.5 0h3.4m1.4 0h3.4m1.4 0h3.4m1.4 0h3.4m1.4 0h3.4m1.4 0h3.4m1.5 0h3.4m1.4 0h3.4m1.4 0h3.4m1.4 0h3.4m1.4 0h3.4m1.5 0h3.4m1.4 0h3.4m1.4 0h3.4m1.4 0h3.4m1.4 0h3.4m1.5 0h3.4m1.4 0h3.4m1.4 0h2M30.7 493.5v-10.8"/></g><path d="M21 469.4l1.9.7m1.3.5l3.2 1.1m1.4.5l1.9.7" class="N"/><path d="M30.7 594.1v-26.6" class="R"/><path d="M30.7 694.8v-26.7m11.9-265.4l5.3 2m2.7.9l5.3 2m2.6 1l5.4 1.9m2.6 1l5.4 1.9m2.6 1l5.4 1.9m2.6 1l5.3 1.9m2.7 1l5.3 1.9m2.7 1l5.3 2m2.7.9l5.3 2m-81.1 54.7V481m0-1.5v-3.4m0-1.4v-1.8" class="N"/><path d="M1063.1 43.7v-2.6m0-1.4v-3.4m0-1.4v-3.4m0-1.5v-3.4m0-1.4v-3.4m0-1.4V17m0-1.4v-3.4m0-1.4V8.2m0 0h2.8m1.4 0h2.9" class="R"/><path d="M.1 483.1l.5.3m0 0l2.4-.9m0 0l6 .4m0 0l4.6-.8m0 0l8.4 1m0 0l1.4-.6m0 0l7.8.7m0 0l2.1-.8m0 0l4.8 1m0 0l3.2-1.1m0 0l2.4.4m0 0l5-.2m0 0l1 .5m0 0l6-.5m0 0l1.6.9m0 0l2.4-.9m0 0l5.6.4m119.3 84.6l5-.3m0 0l1 .5m0 0l6-.4m0 0l1.6.8m0 0l2.4-.8m0 0l6 .4m0 0l4.5-.9m0 0l8.5 1m0 0l1.4-.5m0 0l7.8.7m0 0l2.1-.9m0 0l4.8 1m0 0l3.1-1m0 0l2.5.4m0 0l5-.3m0 0l1 .5m0 0l6-.4m0 0l1.6.8m0 0l2.4-.8m0 0l6 .4m0 0l4.5-.9m0 0l8.5 1m0 0l1.4-.5m0 0l7.8.7m0 0l2.1-.9m0 0l4.8 1m0 0l3.1-1m0 0l2.5.4m0 0l5-.3m0 0l1 .5m0 0l6-.4m0 0l1.6.8m0 0l2.4-.8m0 0l6 .4m0 0l4.5-.9m0 0l8.5 1m0 0l1.4-.5m0 0l7.8.7m0 0l2.1-.9m0 0l4.7 1m0 0l3.2-1m0 0l2.5.4m0 0l5-.3m0 0l1 .5m0 0l5.9-.4m0 0l1.7.8m0 0l2.3-.8m0 0l6.1.4m0 0l4.5-.9m0 0l8.5 1m0 0l1.4-.5m0 0l7.8.7m0 0l2.1-.9m0 0l4.7 1m0 0l3.2-1m0 0l2.5.4m0 0l5-.3m0 0l1 .5m0 0l5.9-.4m0 0l1.7.8m0 0l2.3-.8m0 0l6.1.4m0 0l4.5-.9m0 0l8.5 1m0 0l1.4-.5m0 0l7.8.7m0 0l2.1-.9m0 0l4.7 1m0 0l3.2-1m0 0l2.5.4m0 0l5-.3m0 0l1 .5m0 0l5.9-.4m0 0l1.7.8m0 0l2.3-.8m0 0l6.1.4m0 0l4.5-.9m0 0l8.5 1m0 0l1.4-.5m0 0l7.8.7m0 0l2.1-.9m0 0l4.7 1m0 0l3.2-1m0 0l2.5.4m0 0l5-.3m0 0l1 .5m0 0l5.9-.4m0 0l1.7.8m0 0l2.3-.8m0 0l6.1.4m0 0l4.5-.9m0 0l8.4 1m0 0l1.5-.5m0 0l7.7.7m0 0l2.2-.9m0 0l4.7 1m0 0l3.2-1m0 0l2.5.4m0 0l5-.3m0 0l1 .5m0 0l5.9-.4m0 0l1.7.8m0 0l2.3-.8m0 0l6.1.4m0 0l4.5-.9m0 0l8.4 1m0 0l1.5-.5m0 0l7.7.7m0 0l2.2-.9m0 0l4.7 1m0 0l3.2-1m0 0l2.5.4m0 0l5-.3m0 0l.9.5m0 0l6-.4m0 0l1.7.8m0 0l2.3-.8m0 0l6 .4m0 0l4.6-.9m0 0l8.4 1m0 0l1.5-.5m0 0l7.7.7m0 0l2.2-.9m0 0l4.7 1m0 0l3.2-1m0 0l2.5.4m0 0l5-.3m0 0l.9.5m0 0l6-.4m0 0l1.7.8m0 0l2.3-.8m0 0l6 .4m0 0l4.6-.9m0 0l8.4 1m0 0l1.5-.5m0 0l7.7.7m0 0l2.1-.9m0 0l4.8 1m0 0l3.2-1m0 0l2.4.4m0 0l5-.3m0 0l1 .5m0 0l6-.4m0 0l1.7.8m0 0l2.3-.8m0 0l6 .4m0 0l4.6-.9m0 0l8.4 1m0 0l1.4-.5m0 0l7.8.7m0 0l2.1-.9m0 0l4.8 1m0 0l3.2-1m0 0l2.4.4m0 0l5-.3m0 0l1 .5m0 0l6-.4m0 0l1.6.8m0 0l2.4-.8m0 0l6 .4m0 0l4.6-.9m0 0l8.4 1m0 0l1.4-.5m0 0l7.8.7m0 0l2.1-.9m0 0l4.8 1m0 0l3.2-1m0 0l2.4.4m0 0l5-.3m0 0l1 .5m0 0l6-.4m0 0l1.6.8m0 0l2.4-.8m0 0l6 .4m0 0l4.5-.9m0 0l8.5 1m0 0l1.4-.5m0 0l7.8.7m0 0l2.1-.9m0 0l4.8 1m0 0l3.1-1m0 0l2.5.4m0 0l5-.3m0 0l1 .5m0 0l6-.4m0 0l1.6.8m0 0l2.4-.8m0 0l6 .4m0 0l4.5-.9m0 0l8.5 1m0 0l1.4-.5m0 0l7.8.7m0 0l2.1-.9m0 0l4.8 1m0 0l3.1-1m0 0l2.5.4m0 0l5-.3m0 0l1 .5m0 0l6-.4m0 0l1.6.8m0 0l2.4-.8m0 0l6 .4m0 0l4.5-.9m0 0l8.5 1m0 0l1.4-.5m0 0l7.8.7m0 0l2.1-.9m0 0l4.8 1m0 0l3.1-1m0 0l2.5.4m0 0l5-.3m0 0l1 .5m0 0l6-.4m0 0l1.6.8m0 0l2.4-.8m0 0l6 .4m0 0l4.5-.9m0 0l8.5 1m0 0l1.4-.5m0 0l7.8.7m0 0l2.1-.9m0 0l4.8 1m0 0l3.1-1m0 0l2.5.4m0 0l2.6-.1M97.9 503.7l4.2 2.7m0 0l.5 1.1m0 0l5 3.1m0 0l.9 1.7m0 0l2.4.7m0 0l4.6 3.9m0 0l4.1 2m0 0l6.3 5.8m0 0l1.4.4m0 0l5.9 5.2m0 0l2.2.5m0 0l3.2 3.7m0 0l3.2 1m0 0l1.8 1.8m0 0l4.2 2.7m0 0l.4 1m0 0l5.1 3.2m0 0l.8 1.7m0 0l2.4.7m0 0l4.7 3.9m0 0l4.1 2m0 0l6.2 5.8m0 0l1.5.4m0 0l5.9 5.1m0 0l2.2.6m0 0l3.2 3.6" class="Y"/><path d="M535.1,185.1c-16,0-28.9-12.9-28.9-28.9" class="N"/><g class="R"><use xlink:href="#K"/><use xlink:href="#L"/><use xlink:href="#K" x="-7.9"/><use xlink:href="#L" x="-7.9"/><path d="M853.9 180c0-8.6-7-15.6-15.6-15.6s-15.6 7-15.6 15.6 7 15.6 15.6 15.6 15.6-7 15.6-15.6"/></g><path d="M851 180l-.4-3.1m-.4-1.3l-.9-2m0 0l-.7-1m-.9-1.1l-.4-.5m0 0l-2.2-1.7m-1.2-.7l-2.3-.9m0 0l-.9-.1m-1.4-.2l-1-.2m0 0l-2.4.4m-1.4.3l-2.6 1.1m0 0l-.4.3m-1.2.9l-1 .8m0 0l-1.3 1.6m-.8 1.2l-1.2 2.9m0 0l-.1.2m-.1 1.4l-.3 1.7m0 0l.3 1.7m.1 1.4l.1.2m0 0l1.2 2.9m.8 1.2l1.3 1.6m0 0l1 .8m1.2.9l.4.3m0 0l2.6 1.1m1.4.3l2.4.4m0 0l1-.2m1.4-.2l.9-.1m0 0l2.3-.9m1.2-.7l2.2-1.7m0 0l.4-.5m.9-1.1l.7-1m0 0l.9-2m.4-1.3l.4-3.1" class="N"/><path d="M760.6,170.1c0-3.3-2.7-6-6-6s-6,2.7-6,6c0,3.3,2.7,6,6,6S760.6,173.4,760.6,170.1" class="R"/><g class="N"><path d="M753 224.8c0-.5-.4-.9-.9-.9s-.9.4-.9.9.4.9.9.9c.6-.1.9-.4.9-.9m0 11.3c0-.5-.4-.9-.9-.9s-.9.4-.9.9.4.9.9.9c.6 0 .9-.4.9-.9m5.7-5.6c0-.5-.4-.9-.9-.9s-.9.4-.9.9.4.9.9.9c.5-.1.9-.5.9-.9m0-11.4c0-.5-.4-.9-.9-.9s-.9.4-.9.9.4.9.9.9.9-.4.9-.9m1.7 0c0-1.4-1.1-2.6-2.6-2.6-1.4 0-2.6 1.1-2.6 2.6 0 1.4 1.1 2.6 2.6 2.6s2.6-1.2 2.6-2.6m-7.3-34.8c0-.5-.4-.9-.9-.9s-.9.4-.9.9.4.9.9.9c.5-.1.9-.5.9-.9m0 3.9c0-.5-.4-.9-.9-.9s-.9.4-.9.9.4.9.9.9.9-.4.9-.9m0 6.8c0-.5-.4-.9-.9-.9s-.9.4-.9.9.4.9.9.9.9-.4.9-.9m0 4c0-.5-.4-.9-.9-.9s-.9.4-.9.9.4.9.9.9c.5-.1.9-.4.9-.9m56.8-36.9c0-.2-.2-.4-.4-.4s-.4.2-.4.4.2.4.4.4c.3 0 .4-.2.4-.4"/><use xlink:href="#M"/><use xlink:href="#N"/><use xlink:href="#M" x="-5.1"/><use xlink:href="#N" x="-29.4"/><use xlink:href="#M" x="-34.6"/><use xlink:href="#N" x="-34.5"/><use xlink:href="#M" x="-39.7"/><use xlink:href="#O"/><use xlink:href="#O" x="5.7" y="5.7"/><path d="M754.7 236.1c0-1.4-1.1-2.6-2.6-2.6-1.4 0-2.6 1.1-2.6 2.6 0 1.4 1.1 2.6 2.6 2.6s2.6-1.2 2.6-2.6"/><use xlink:href="#D" x="708.7" y="-362.5"/><path d="M763.5 305.6c0-.8-.6-1.4-1.4-1.4s-1.4.6-1.4 1.4.6 1.4 1.4 1.4c.7 0 1.4-.6 1.4-1.4"/><use xlink:href="#D" x="720" y="-362.5"/><use xlink:href="#D" x="734.2" y="-362.5"/><use xlink:href="#D" x="761.1" y="-362.5"/></g><g class="Y"><path d="M1059.5 177.2c0-2-1.6-3.5-3.5-3.5-2 0-3.5 1.6-3.5 3.5 0 2 1.6 3.5 3.5 3.5s3.5-1.6 3.5-3.5"/><path d="M1060.2 177.2c0-2.3-1.9-4.3-4.3-4.3-2.3 0-4.3 1.9-4.3 4.3 0 2.3 1.9 4.3 4.3 4.3 2.4-.1 4.3-2 4.3-4.3"/></g></g><path d="M413.4 148.8h92.8v5.7h-2.8v2.8h-90v-8.5m121.7 0h132.8v8.5H538v-2.8h-2.9v-5.7" class="U"/><g class="O P Q S T a"><path d="M538 154.5h-2.9m0 0v-5.7m2.9 5.7v2.8m-34.6-2.8h2.8"/><path d="M506.2 154.5v-5.7m-2.8 5.7v2.8m-90 0h90m43.1 0h121.4"/><path d="M667.9 148.8H535.1m-28.9 0h-92.8"/></g><path d="M616.9 102.3h4.3l-4.3 5.7v-5.7" class="U"/><path d="M616.9 102.3h4.3M616.9 57h4.3m-4.3 45.3v5.7" class="O P Q S T a"/><text transform="matrix(0 -1 1 0 143.3915 445.1836)"><tspan x="0" y="0" class="V W X">ABTEIL 01</tspan><tspan y="12" x="0" class="V W X">9.1 m</tspan><tspan y="24" x="0" class="V W X">WHG C21</tspan></text><text transform="matrix(0 -1 1 0 917.2502 445.1836)"><tspan x="0" y="0" class="V W X">ABTEIL 14</tspan><tspan y="12" x="0" class="V W X">9.1 m</tspan><tspan y="24" x="0" class="V W X">WHG C51</tspan></text><text transform="matrix(0 -1 1 0 197.4577 445.1836)"><tspan x="0" y="0" class="V W X">ABTEIL 02</tspan><tspan y="12" x="0" class="V W X">7.1 m</tspan><tspan y="24" x="0" class="V W X">WHG C22</tspan></text><text transform="matrix(0 -1 1 0 256.5645 445.1836)"><tspan x="0" y="0" class="V W X">ABTEIL 03</tspan><tspan y="12" x="0" class="V W X">7.1 m</tspan><tspan y="24" x="0" class="V W X">WHG C23</tspan></text><text transform="matrix(0 -1 1 0 316.3048 445.1836)"><tspan x="0" y="0" class="V W X">ABTEIL 04</tspan><tspan y="12" x="0" class="V W X">7.1 m</tspan><tspan y="24" x="0" class="V W X">WHG C24</tspan></text><text transform="matrix(0 -1 1 0 376.0451 445.1836)"><tspan x="0" y="0" class="V W X">ABTEIL 05</tspan><tspan y="12" x="0" class="V W X">7.1 m</tspan><tspan y="24" x="0" class="V W X">WHG C31</tspan></text><text transform="matrix(0 -1 1 0 435.7854 445.1836)"><tspan x="0" y="0" class="V W X">ABTEIL 06</tspan><tspan y="12" x="0" class="V W X">7.1 m</tspan><tspan y="24" x="0" class="V W X">WHG C32</tspan></text><text transform="matrix(0 -1 1 0 495.5257 445.1836)"><tspan x="0" y="0" class="V W X">ABTEIL 07</tspan><tspan y="12" x="0" class="V W X">7.1 m</tspan><tspan y="24" x="0" class="V W X">WHG C33</tspan></text><text transform="matrix(0 -1 1 0 560.2947 445.1836)"><tspan x="0" y="0" class="V W X">ABTEIL 08</tspan><tspan y="12" x="0" class="V W X">7.1 m</tspan><tspan y="24" x="0" class="V W X">WHG C34</tspan></text><text transform="matrix(0 -1 1 0 619.4016 445.1836)"><tspan x="0" y="0" class="V W X">ABTEIL 09</tspan><tspan y="12" x="0" class="V W X">7.1 m</tspan><tspan y="24" x="0" class="V W X">WHG C41</tspan></text><text transform="matrix(0 -1 1 0 679.1418 445.1836)"><tspan x="0" y="0" class="V W X">ABTEIL 10</tspan><tspan y="12" x="0" class="V W X">7.1 m</tspan><tspan y="24" x="0" class="V W X">WHG C42</tspan></text><text transform="matrix(0 -1 1 0 738.8821 445.1836)"><tspan x="0" y="0" class="V W X">ABTEIL 11</tspan><tspan y="12" x="0" class="V W X">7.1 m</tspan><tspan y="24" x="0" class="V W X">WHG C43</tspan></text><text transform="matrix(0 -1 1 0 798.6224 445.1836)"><tspan x="0" y="0" class="V W X">ABTEIL 12</tspan><tspan y="12" x="0" class="V W X">7.1 m</tspan><tspan y="24" x="0" class="V W X">WHG C44</tspan></text><text transform="matrix(0 -1 1 0 858.3627 445.1836)"><tspan x="0" y="0" class="V W X">ABTEIL 13</tspan><tspan y="12" x="0" class="V W X">7.1 m</tspan><tspan y="24" x="0" class="V W X">WHG C51</tspan></text><text><tspan x="771.615" y="217.872" class="V W X">TECHNIK</tspan><tspan y="229.872" x="771.615" class="V W X">21.6 m</tspan><tspan x="660.432" y="178.063" class="V W X">TROCKNEN 3</tspan><tspan y="190.063" x="660.432" class="V W X">7.0 m</tspan><tspan x="660.432" y="230.504" class="V W X">TROCKNEN 2</tspan><tspan y="242.504" x="660.432" class="V W X">7.2 m</tspan><tspan x="660.432" y="281.866" class="V W X">TROCKNEN 1</tspan><tspan y="293.866" x="660.432" class="V W X">7.0 m</tspan><tspan x="886.778" y="217.872" class="V W X">ABSTELL</tspan><tspan y="229.872" x="886.778" class="V W X">17.4 m</tspan></text><text transform="translate(638.548 86.47)" class="V W X">Lift</text><text><tspan x="446.344" y="121.317" class="V W X">TREPPENHAUS</tspan><tspan y="133.317" x="446.344" class="V W X">25.9 m</tspan><tspan x="134.356" y="229.069" class="V W X">WASCHEN</tspan><tspan y="241.069" x="134.356" class="V W X">68.6 m</tspan><tspan x="134.356" y="188.317" class="V W X">BOX 08</tspan><tspan y="200.317" x="134.356" class="V W X">3.5 m</tspan><tspan y="212.317" x="134.356" class="V W X">C34</tspan><tspan x="186.62" y="188.317" class="V W X">BOX 09</tspan><tspan y="200.317" x="186.62" class="V W X">3.5 m</tspan><tspan y="212.317" x="186.62" class="V W X">C41</tspan><tspan x="238.884" y="188.317" class="V W X">BOX 10</tspan><tspan y="200.317" x="238.884" class="V W X">3.5 m</tspan><tspan y="212.317" x="238.884" class="V W X">C42</tspan><tspan x="291.149" y="188.317" class="V W X">BOX 11</tspan><tspan y="200.317" x="291.149" class="V W X">3.5 m</tspan><tspan y="212.317" x="291.149" class="V W X">C43</tspan><tspan x="134.356" y="261.226" class="V W X">BOX 07</tspan><tspan y="273.226" x="134.356" class="V W X">3.5 m</tspan><tspan y="285.226" x="134.356" class="V W X">C33</tspan><tspan x="186.62" y="261.226" class="V W X">BOX 06</tspan><tspan y="273.226" x="186.62" class="V W X">3.5 m</tspan><tspan y="285.226" x="186.62" class="V W X">C32</tspan><tspan x="238.884" y="261.226" class="V W X">BOX 05</tspan><tspan y="273.226" x="238.884" class="V W X">3.5 m</tspan><tspan y="285.226" x="238.884" class="V W X">C31</tspan><tspan x="291.149" y="261.226" class="V W X">BOX 04</tspan><tspan y="273.226" x="291.149" class="V W X">3.5 m</tspan><tspan y="285.226" x="291.149" class="V W X">C24</tspan><tspan x="352.305" y="188.317" class="V W X">BOX 12</tspan><tspan y="200.317" x="352.305" class="V W X">3.4 m</tspan><tspan y="212.317" x="352.305" class="V W X">C44</tspan><tspan x="401.627" y="188.317" class="V W X">BOX 13</tspan><tspan y="200.317" x="401.627" class="V W X">6.8 m</tspan><tspan y="212.317" x="401.627" class="V W X">C51</tspan><tspan x="352.305" y="261.368" class="V W X">BOX 03</tspan><tspan y="273.368" x="352.305" class="V W X">3.4 m</tspan><tspan y="285.368" x="352.305" class="V W X">C23</tspan><tspan x="401.627" y="261.368" class="V W X">BOX 02</tspan><tspan y="273.368" x="401.627" class="V W X">3.3 m</tspan><tspan y="285.368" x="401.627" class="V W X">C22</tspan><tspan x="451.659" y="261.368" class="V W X">BOX 01 </tspan><tspan y="273.368" x="451.659" class="V W X">3.4 m</tspan><tspan y="285.368" x="451.659" class="V W X">C21</tspan></text><defs ><path id="B" d="M967.5 458.6l126.8-126.7"/><path id="C" d="M842.6 567.5l103.2-103.2"/><path id="D" d="M49.1 668.1c0-.8-.6-1.4-1.4-1.4s-1.4.6-1.4 1.4.6 1.4 1.4 1.4 1.4-.6 1.4-1.4"/><path id="E" d="M206.3 351.4h2.8v1.4h-2.8v-1.4"/><path id="F" d="M209.1,328.7c12.5,0,22.7,10.2,22.7,22.7"/><path id="G" d="M506.8,351.4c0-12.5,10.2-22.7,22.7-22.7"/><path id="H" d="M180.8 355.5h1.4v97.8h-1.4v-97.8"/><path id="I" d="M133.9 160.2v16.4h3.4l.5.6h9.1l.6-.6h3.4v-16.4h-17"/><path id="J" d="M133.9 307.6h17v-16.5h-3.4l-.6-.5h-9.1l-.5.5h-3.4v16.5"/><path id="K" d="M860.3 205.1c0-1.6-1.3-2.8-2.8-2.8-1.6 0-2.8 1.3-2.8 2.8 0 1.6 1.3 2.8 2.8 2.8s2.8-1.2 2.8-2.8"/><path id="L" d="M860.3 219c0-1.6-1.3-2.8-2.8-2.8-1.6 0-2.8 1.3-2.8 2.8 0 1.6 1.3 2.8 2.8 2.8s2.8-1.3 2.8-2.8"/><path id="M" d="M811.4 162.1a1.79 1.79 0 1 0-3.6 0 1.79 1.79 0 1 0 3.6 0"/><path id="N" d="M804.8 162.1c0-.2-.2-.4-.4-.4s-.4.2-.4.4.2.4.4.4.4-.2.4-.4"/><path id="O" d="M754.7 224.8c0-1.4-1.1-2.6-2.6-2.6-1.4 0-2.6 1.1-2.6 2.6 0 1.4 1.1 2.6 2.6 2.6 1.5-.1 2.6-1.2 2.6-2.6"/></defs></svg>